<svg xmlns="http://www.w3.org/2000/svg" width="41.508" height="47.538" viewBox="0 0 41.508 47.538"><g transform="translate(-49.375 -146.647)"><path d="M86.778,161.032v-9.4L71.96,147.4l-14.818,4.256L71.96,156.51l14.3-4.662" transform="translate(-1.832)" fill="none" stroke="#ffb327" stroke-linecap="round" stroke-linejoin="round" stroke-width="1.5"/><path d="M64.666,158.994v1.764a14.254,14.254,0,0,0,9.275,3.105,14.254,14.254,0,0,0,9.273-3.105v-5.007" transform="translate(-3.811 -2.198)" fill="none" stroke="#ffb327" stroke-linejoin="round" stroke-width="1.5"/><g transform="translate(62.089 159.547)"><path d="M66.341,167.381c.566,5.945,3.881,10.811,7.956,10.811,4.1,0,7.39-4.867,7.956-10.811a29.772,29.772,0,0,0,.162-3.5" transform="translate(-66.341 -163.885)" fill="none" stroke="#ffb327" stroke-linejoin="round" stroke-width="1.5"/></g><path d="M90.078,203.473l-.747-9.953c-.738-5.5-4.042-6.108-4.042-6.108s-3.6-1.016-7.418-1.655L70.129,196.09l-7.743-10.334c-3.821.639-7.418,1.655-7.418,1.655s-3.3.612-4.043,6.108l-.746,9.953" transform="translate(0 -10.092)" fill="none" stroke="#ffb327" stroke-linecap="round" stroke-linejoin="round" stroke-width="1.5"/><line x2="5.343" transform="translate(77.977 183.95)" fill="none" stroke="#ffb327" stroke-linecap="round" stroke-linejoin="round" stroke-width="1.5"/></g></svg>