<svg xmlns="http://www.w3.org/2000/svg" width="37.738" height="48.335" viewBox="0 0 37.738 48.335"><g transform="translate(0.582)"><line y2="24.944" transform="translate(13.63 23.391)" fill="none" stroke="#ffb327" stroke-width="1"/><path d="M78.664,302.418a8.665,8.665,0,0,1,7.393-5.539,17.369,17.369,0,0,1,10.372,2.5,19.746,19.746,0,0,1-6.4,8.473c-3.637,2.64-9.3,1.457-11.064-1.438" transform="translate(-59.871 -270.612)" fill="rgba(0,0,0,0)" stroke="#ffb327" stroke-width="1"/><path d="M87.251,303.918s-7.732.856-15.951,10.827" transform="translate(-57.454 -272.935)" fill="rgba(0,0,0,0)" stroke="#ffb327" stroke-width="1"/><path d="M64.108,304.7s3.121,1.476,4.409,3.764" transform="translate(-55.094 -273.192)" fill="rgba(0,0,0,0)" stroke="#ffb327" stroke-width="1"/><path d="M59.752,302.266c-.794,1.756-4.025,1.912-5.979.3a9.206,9.206,0,0,1-3.082-4.546,10.545,10.545,0,0,1,5.445-.521C58.629,297.954,60.458,300.7,59.752,302.266Z" transform="translate(-50.691 -270.777)" fill="rgba(0,0,0,0)" stroke="#ffb327" stroke-width="1"/><g transform="translate(4.596 0)"><line y1="6.61" transform="translate(4.222)" fill="none" stroke="#ffb327" stroke-width="1"/><line y1="6.61" transform="translate(13.845)" fill="none" stroke="#ffb327" stroke-width="1"/><path d="M57.532,271.138v2.347l3.12,1.7V280.2a3.993,3.993,0,0,0,3.981,3.981h3.9a3.993,3.993,0,0,0,3.982-3.981v-5.037l3.08-1.683v-5.474H57.532" transform="translate(-57.532 -261.151)" fill="rgba(0,0,0,0)" stroke="#ffb327" stroke-width="1"/><line x1="11.3" transform="translate(6.286 11.001)" fill="none" stroke="#ffb327" stroke-width="1"/></g></g></svg>