<svg xmlns="http://www.w3.org/2000/svg" width="45.738" height="42.796" viewBox="0 0 45.738 42.796"><g transform="translate(0.688 0.5)"><g transform="translate(0 0)"><line x2="30.962" transform="translate(5.578 26.05)" fill="none" stroke="#ffb327" stroke-width="1"/><line x2="17.18" transform="translate(12.469 21.301)" fill="none" stroke="#ffb327" stroke-width="1"/><g transform="translate(10.889 31.398)"><line x2="6.356" fill="none" stroke="#ffb327" stroke-width="1"/><line x2="6.356" transform="translate(0 5.222)" fill="none" stroke="#ffb327" stroke-width="1"/><line x2="6.236" transform="translate(13.985)" fill="none" stroke="#ffb327" stroke-width="1"/><line x2="6.236" transform="translate(13.985 5.222)" fill="none" stroke="#ffb327" stroke-width="1"/></g><path d="M50.623,196.088a2.472,2.472,0,1,1-2.471-2.471A2.471,2.471,0,0,1,50.623,196.088Z" transform="translate(-41.806 -167.16)" fill="rgba(0,0,0,0)" stroke="#ffb327" stroke-width="1"/><path d="M50.623,204.792a2.472,2.472,0,1,1-2.471-2.472A2.472,2.472,0,0,1,50.623,204.792Z" transform="translate(-41.806 -170.733)" fill="rgba(0,0,0,0)" stroke="#ffb327" stroke-width="1"/><path d="M50.623,213.5a2.472,2.472,0,1,1-2.471-2.471A2.472,2.472,0,0,1,50.623,213.5Z" transform="translate(-41.806 -174.307)" fill="rgba(0,0,0,0)" stroke="#ffb327" stroke-width="1"/><g transform="translate(33.3 26.457)"><path d="M100.541,196.088a2.472,2.472,0,1,1-2.472-2.471A2.471,2.471,0,0,1,100.541,196.088Z" transform="translate(-95.598 -193.617)" fill="rgba(0,0,0,0)" stroke="#ffb327" stroke-width="1"/><path d="M100.541,204.793a2.472,2.472,0,1,1-2.472-2.473A2.472,2.472,0,0,1,100.541,204.793Z" transform="translate(-95.598 -197.19)" fill="rgba(0,0,0,0)" stroke="#ffb327" stroke-width="1"/><path d="M100.541,213.5a2.472,2.472,0,1,1-2.472-2.471A2.472,2.472,0,0,1,100.541,213.5Z" transform="translate(-95.598 -200.764)" fill="rgba(0,0,0,0)" stroke="#ffb327" stroke-width="1"/></g><path d="M75.948,210.975V198.827H68.6v12.148" transform="translate(-51.214 -169.299)" fill="rgba(0,0,0,0)" stroke="#ffb327" stroke-width="1"/><path d="M54.23,176.269v-4.8H49.816v4.779" transform="translate(-43.504 -158.068)" fill="rgba(0,0,0,0)" stroke="#ffb327" stroke-width="1"/><path d="M60.108,148.736H50.684a2.282,2.282,0,0,0,0,4.56h4.223a1.754,1.754,0,0,1,0,3.506H53.053a1.707,1.707,0,0,0-1.7,1.7v.752" transform="translate(-42.962 -148.736)" fill="rgba(0,0,0,0)" stroke="#ffb327" stroke-width="1"/><path d="M81.227,182.128l-21.06-13.037L39.107,182.128l1.756,2.84,19.3-11.947,19.3,11.946Z" transform="translate(-39.107 -157.092)" fill="rgba(0,0,0,0)" stroke="#ffb327" stroke-width="1"/></g><g transform="translate(2.008 41.796)"><line x2="38.277" fill="none" stroke="#ffb327" stroke-width="1"/><line x2="2.037" transform="translate(41.006)" fill="none" stroke="#ffb327" stroke-width="1"/></g></g></svg>