<svg xmlns="http://www.w3.org/2000/svg" width="41.193" height="32.753" viewBox="0 0 41.193 32.753"><g transform="translate(0.5 0.5)"><g transform="translate(3.177 0.627)"><path d="M54.7,493.555l5.395,6.16-.743,3.9L62.05,505.2l1.889,6.629,5.358-9.789-5.576-2.881-3.623.28-1.611-3.02,3.623-.9,3.451-4.585-2.015-3.07" transform="translate(-54.703 -487.857)" fill="rgba(0,0,0,0)" stroke="#ffb327" stroke-width="1"/></g><path d="M87.15,499.3c-5.814,5.823-3.128,11.666.944,14.392s10.572,2.723,13.8-3.921c2.438-5.024,1.526-17.987,1.526-17.987S91.364,495.072,87.15,499.3Z" transform="translate(-63.468 -488.841)" fill="rgba(0,0,0,0)" stroke="#ffb327" stroke-width="1"/><path d="M99,506.116s-9.46,9.876-12.682,20.72" transform="translate(-64.503 -494.725)" fill="rgba(0,0,0,0)" stroke="#ffb327" stroke-width="1"/><path d="M67.377,516.952a15.214,15.214,0,1,1-2.851-30.159,15.129,15.129,0,0,1,8.492,2.595h0a15.126,15.126,0,0,1,3.151,2.853" transform="translate(-49.313 -486.793)" fill="rgba(0,0,0,0)" stroke="#ffb327" stroke-width="1"/></g></svg>