<svg xmlns="http://www.w3.org/2000/svg" width="58.887" height="64.404" viewBox="0 0 58.887 64.404"><g transform="translate(-47.76 -371.731)"><line x1="26.6" transform="translate(70.679 387.028)" fill="none" stroke="#ffb327" stroke-width="1.5"/><line x1="26.6" transform="translate(70.679 393.672)" fill="none" stroke="#ffb327" stroke-width="1.5"/><line x1="15.523" transform="translate(70.679 400.318)" fill="none" stroke="#ffb327" stroke-width="1.5"/><path d="M70.679,409.556h12.4v11.575l10.4-11.575h8.5a3.936,3.936,0,0,0,3.924-3.924V381.748a3.935,3.935,0,0,0-3.924-3.922H70.679" fill="rgba(0,0,0,0)" stroke="#ffb327" stroke-width="1.5"/><path d="M65.5,415.519,56.737,434.29l-8.228-19.438V376.236c0-2.06,2.028-3.746,4.5-3.755l7.984,0c2.478,0,4.508,1.688,4.507,3.752Z" fill="rgba(0,0,0,0)" stroke="#ffb327" stroke-width="1.5"/><line x1="16.875" transform="translate(48.56 413.873)" fill="none" stroke="#ffb327" stroke-width="1.5"/><line x1="9.043" transform="translate(52.484 424.127)" fill="none" stroke="#ffb327" stroke-width="1.5"/><line x1="0.001" y1="25.062" transform="translate(57.005 388.644)" fill="none" stroke="#ffb327" stroke-width="1.5"/><line x2="12.335" transform="translate(53.098 382.589)" fill="none" stroke="#ffb327" stroke-width="1.5"/></g></svg>