<svg xmlns="http://www.w3.org/2000/svg" width="56.262" height="71.945" viewBox="0 0 56.262 71.945">
  <g id="_40-1-icon" data-name="40-1-icon" transform="translate(20644.922 1708)">
    <line id="Line_110" data-name="Line 110" y2="37.128" transform="translate(-20623.713 -1673.183)" fill="none" stroke="#fff" stroke-width="1.5"/>
    <path id="Path_119" data-name="Path 119" d="M78.664,305.144a12.9,12.9,0,0,1,11-8.245,25.853,25.853,0,0,1,15.439,3.719,29.391,29.391,0,0,1-9.521,12.612c-5.413,3.929-13.847,2.169-16.469-2.14" transform="translate(-20694.691 -1965.801)" fill="rgba(0,0,0,0)" stroke="#fff" stroke-width="1.5"/>
    <path id="Path_120" data-name="Path 120" d="M95.043,303.918S83.534,305.192,71.3,320.033" transform="translate(-20694.691 -1965.801)" fill="rgba(0,0,0,0)" stroke="#fff" stroke-width="1.5"/>
    <path id="Path_121" data-name="Path 121" d="M64.108,304.7s4.646,2.2,6.562,5.6" transform="translate(-20694.691 -1965.801)" fill="rgba(0,0,0,0)" stroke="#fff" stroke-width="1.5"/>
    <path id="Path_122" data-name="Path 122" d="M64.178,304.671c-1.182,2.614-5.991,2.846-8.9.44a13.7,13.7,0,0,1-4.588-6.766,15.7,15.7,0,0,1,8.1-.775C62.507,298.253,65.229,302.345,64.178,304.671Z" transform="translate(-20694.691 -1965.801)" fill="rgba(0,0,0,0)" stroke="#fff" stroke-width="1.5"/>
    <line id="Line_111" data-name="Line 111" y1="9.839" transform="translate(-20630.875 -1708)" fill="none" stroke="#fff" stroke-width="1.5"/>
    <line id="Line_112" data-name="Line 112" y1="9.839" transform="translate(-20616.553 -1708)" fill="none" stroke="#fff" stroke-width="1.5"/>
    <path id="Path_123" data-name="Path 123" d="M57.532,272.665v3.494l4.644,2.537v7.465a5.943,5.943,0,0,0,5.926,5.926h5.81a5.943,5.943,0,0,0,5.927-5.926v-7.5l4.585-2.505v-8.148H57.532" transform="translate(-20694.691 -1965.801)" fill="rgba(0,0,0,0)" stroke="#fff" stroke-width="1.5"/>
    <line id="Line_113" data-name="Line 113" x1="16.82" transform="translate(-20627.803 -1691.625)" fill="none" stroke="#fff" stroke-width="1.5"/>
  </g>
</svg>
