<svg xmlns="http://www.w3.org/2000/svg" width="59.465" height="68.234" viewBox="0 0 59.465 68.234"><g transform="translate(20648.805 1562.89)"><path d="M100.117,167.169V153.533L78.63,147.4l-21.487,6.171,21.487,7.042,20.73-6.76" transform="translate(-20697.701 -1709.537)" fill="none" stroke="#fff" stroke-linecap="round" stroke-linejoin="round" stroke-width="1.5"/><path d="M64.666,160.454v2.558c3.116,2.744,8.04,4.5,13.449,4.5s10.33-1.759,13.447-4.5v-7.261" transform="translate(-20697.186 -1708.964)" fill="none" stroke="#fff" stroke-linejoin="round" stroke-width="1.5"/><g transform="translate(-20630.73 -1544.521)"><path d="M66.341,168.954c.821,8.62,5.628,15.677,11.536,15.677,5.942,0,10.717-7.057,11.536-15.677a43.172,43.172,0,0,0,.235-5.069" transform="translate(-66.341 -163.885)" fill="none" stroke="#fff" stroke-linejoin="round" stroke-width="1.5"/></g><path d="M108.036,211.447l-1.084-14.433c-1.071-7.97-5.861-8.857-5.861-8.857s-5.217-1.474-10.756-2.4L79.108,200.741,67.88,185.756c-5.541.926-10.756,2.4-10.756,2.4s-4.79.888-5.862,8.857l-1.082,14.433" transform="translate(-20698.18 -1706.906)" fill="none" stroke="#fff" stroke-linecap="round" stroke-linejoin="round" stroke-width="1.5"/><line x2="7.747" transform="translate(-20607.691 -1509.135)" fill="none" stroke="#fff" stroke-linecap="round" stroke-linejoin="round" stroke-width="1.5"/></g></svg>