<svg xmlns="http://www.w3.org/2000/svg" width="59.932" height="60.202" viewBox="0 0 59.932 60.202"><g transform="translate(20647.75 1405)"><g transform="translate(-20825.701 -1443.501)"><line y1="31.521" transform="translate(207.916 39.369)" fill="none" stroke="#fff" stroke-linejoin="round" stroke-width="1.5"/><line x1="31.519" transform="translate(192.156 55.302)" fill="none" stroke="#fff" stroke-linejoin="round" stroke-width="1.5"/><path d="M206.668,40s-15.111,13.108,0,30.352" fill="none" stroke="#fff" stroke-linejoin="round" stroke-width="1.5"/><path d="M209.165,40s15.111,13.108,0,30.352" fill="none" stroke="#fff" stroke-linejoin="round" stroke-width="1.5"/><g fill="none" stroke-linejoin="round"><path d="M224.709,55.292A16.793,16.793,0,1,1,207.916,38.5,16.792,16.792,0,0,1,224.709,55.292Z" stroke="none"/><path d="M 207.9160003662109 40.00099945068359 C 203.8309020996094 40.00099945068359 199.9906005859375 41.59146881103516 197.1025085449219 44.47943878173828 C 194.2144927978516 47.36732864379883 192.6239929199219 51.20730972290039 192.6239929199219 55.29199981689453 C 192.6239929199219 59.37670135498047 194.2144927978516 63.21667098999023 197.1025085449219 66.10456848144531 C 199.9906005859375 68.99253082275391 203.8309020996094 70.58300018310547 207.9160003662109 70.58300018310547 C 212.0008392333984 70.58300018310547 215.8412017822266 68.99250793457031 218.7296905517578 66.10449981689453 C 221.6182098388672 63.21643829345703 223.2089996337891 59.37649154663086 223.2089996337891 55.29199981689453 C 223.2089996337891 51.20751953125 221.6182098388672 47.36756134033203 218.7296905517578 44.47949981689453 C 215.8412017822266 41.59149932861328 212.0008392333984 40.00099945068359 207.9160003662109 40.00099945068359 M 207.9160003662109 38.50099945068359 C 217.1900024414062 38.50099945068359 224.7089996337891 46.01801300048828 224.7089996337891 55.29199981689453 C 224.7089996337891 64.56599426269531 217.1900024414062 72.08300018310547 207.9160003662109 72.08300018310547 C 198.6410064697266 72.08300018310547 191.1239929199219 64.56599426269531 191.1239929199219 55.29199981689453 C 191.1239929199219 46.01801300048828 198.6410064697266 38.50099945068359 207.9160003662109 38.50099945068359 Z" stroke="none" fill="#fff"/></g></g><g transform="translate(-20825.701 -1443.501)"><path d="M230.259,64.531V51.555c-.013-2.154,1.389-3.927,3.328-3.94a3.749,3.749,0,0,1,3.545,3.9V76.7l-11.549,15.08s-1.251,1.459-.88,6.8" fill="none" stroke="#fff" stroke-linejoin="round" stroke-width="1.5"/><path d="M210.884,98.7,210.9,87c0-4.547,5.3-7.627,5.3-7.627a39.821,39.821,0,0,0,5.131-4.408l4.527-4.906c1.864-2.021,4.557-2.6,5.984-1.287s1.068,4.041-.8,6.062l-6.361,6.89" fill="none" stroke="#fff" stroke-miterlimit="10" stroke-width="1.5"/><path d="M185.574,64.531V51.555c.013-2.154-1.389-3.927-3.328-3.94a3.749,3.749,0,0,0-3.545,3.9V76.7l11.548,15.08s1.252,1.459.881,6.8" fill="none" stroke="#fff" stroke-linejoin="round" stroke-width="1.5"/><path d="M204.949,98.7,204.935,87c0-4.547-5.3-7.627-5.3-7.627a39.862,39.862,0,0,1-5.132-4.408l-4.526-4.906c-1.864-2.021-4.558-2.6-5.984-1.287s-1.068,4.041.8,6.062l6.361,6.89" fill="none" stroke="#fff" stroke-miterlimit="10" stroke-width="1.5"/></g></g></svg>