<svg xmlns="http://www.w3.org/2000/svg" width="90.859" height="80.698" viewBox="0 0 90.859 80.698"><g transform="translate(-305.439 -475.835)"><path d="M373.98,546.052H306.189l3.8-45.686h60.2Z" transform="translate(0 9.732)" fill="none" stroke="#ffb327" stroke-linejoin="round" stroke-width="1.5"/><path d="M313.959,533.307l2.1-25.944h41.671l2.1,25.944Z" transform="translate(3.193 12.606)" fill="none" stroke="#ffb327" stroke-linejoin="round" stroke-width="1.5"/><line x2="43.649" transform="translate(318.26 532.894)" fill="none" stroke="#ffb327" stroke-linejoin="round" stroke-width="1.5"/><line y2="25.755" transform="translate(340.084 519.962)" fill="none" stroke="#ffb327" stroke-linejoin="round" stroke-width="1.5"/><g transform="translate(345.827 476.682)"><g transform="translate(0 21.353)"><line x2="6.147" y2="0.857" transform="translate(43.48 6.067)" fill="none" stroke="#ffb327" stroke-linecap="round" stroke-linejoin="round" stroke-width="1.5"/><line x2="6.145" y2="0.857" fill="none" stroke="#ffb327" stroke-linecap="round" stroke-linejoin="round" stroke-width="1.5"/></g><g transform="translate(9.715 4.821)"><line x2="3.739" y2="4.953" transform="translate(26.455 35.035)" fill="none" stroke="#ffb327" stroke-linecap="round" stroke-linejoin="round" stroke-width="1.5"/><line x2="3.741" y2="4.952" fill="none" stroke="#ffb327" stroke-linecap="round" stroke-linejoin="round" stroke-width="1.5"/></g><g transform="translate(27.417)"><line x1="0.857" y2="6.149" fill="none" stroke="#ffb327" stroke-linecap="round" stroke-linejoin="round" stroke-width="1.5"/></g><g transform="translate(39.855 9.716)"><line x1="4.953" y2="3.74" fill="none" stroke="#ffb327" stroke-linecap="round" stroke-linejoin="round" stroke-width="1.5"/></g></g><path d="M343.857,499.6a11.551,11.551,0,1,1,17.488,7.868" transform="translate(15.41 3.873)" fill="none" stroke="#ffb327" stroke-linejoin="round" stroke-width="1.5"/></g></svg>