<svg xmlns="http://www.w3.org/2000/svg" width="87.063" height="64.346" viewBox="0 0 87.063 64.346"><g transform="translate(-306.494 -156.771)"><g transform="translate(321.097 182.068)"><path d="M317.673,208.236V200.8l7.756-1.274a21.626,21.626,0,0,1,2.358-5.71l-4.557-6.424,5.835-5.837,6.424,4.556a21.667,21.667,0,0,1,5.667-2.35L342.477,176h8.255l1.32,7.763a21.725,21.725,0,0,1,5.706,2.374l6.382-4.58,5.838,5.837-4.581,6.384a21.677,21.677,0,0,1,2.372,5.705l7.764,1.319v7.434" transform="translate(-317.673 -176.001)" fill="none" stroke="#ffb327" stroke-linejoin="round" stroke-width="1.5"/><path d="M330.853,192.287a14.127,14.127,0,0,0-1.826,9.683" transform="translate(-314.013 -170.654)" fill="none" stroke="#ffb327" stroke-linecap="round" stroke-linejoin="round" stroke-width="1.5"/><path d="M355.123,203.693a14.283,14.283,0,0,0,.2-2.421,14.124,14.124,0,0,0-21.213-12.215" transform="translate(-312.275 -172.341)" fill="none" stroke="#ffb327" stroke-linecap="round" stroke-linejoin="round" stroke-width="1.5"/></g><g transform="translate(307.244 157.521)"><line x2="73.58" transform="translate(5.992 15.759)" fill="none" stroke="#ffb327" stroke-linejoin="round" stroke-width="1.5"/><g transform="translate(10.016 6.958)"><g transform="translate(0 0)"><path d="M316.853,163.795a1.034,1.034,0,1,1-1.033-1.035A1.031,1.031,0,0,1,316.853,163.795Z" transform="translate(-314.785 -162.76)" fill="none" stroke="#ffb327" stroke-miterlimit="10" stroke-width="1.5"/></g><g transform="translate(9.895)"><circle cx="1.035" cy="1.035" r="1.035" fill="none" stroke="#ffb327" stroke-miterlimit="10" stroke-width="1.5"/></g><g transform="translate(19.792)"><circle cx="1.035" cy="1.035" r="1.035" fill="none" stroke="#ffb327" stroke-miterlimit="10" stroke-width="1.5"/></g></g><rect width="85.563" height="62.846" rx="3.574" fill="none" stroke="#ffb327" stroke-miterlimit="10" stroke-width="1.5"/></g></g></svg>