<svg xmlns="http://www.w3.org/2000/svg" width="41" height="41" viewBox="0 0 41 41"><g transform="translate(-364 -1757)"><rect width="41" height="41" rx="10" transform="translate(364 1757)"/><g transform="translate(374 1765)"><g transform="translate(4.713 3.126)"><path d="M198.623,45.267a4.6,4.6,0,1,1-4.6,4.6,4.607,4.607,0,0,1,4.6-4.6m0-.957a5.559,5.559,0,1,0,5.559,5.559,5.558,5.558,0,0,0-5.559-5.559Z" transform="translate(-193.064 -44.31)" fill="#ffb327"/></g><path d="M205.948,58V53.979l-1.379,1.1" transform="translate(-195.452 -47.152)" fill="rgba(0,0,0,0)" stroke="#ffb327" stroke-width="0.75"/><path d="M193.815,36.142l2.525,1.793,3.07.4.782,3,2.1,2.281-1.328,2.8L201.1,49.5l-2.815,1.29L196.4,53.253l-2.986-.821-3.021.674-1.76-2.549-2.748-1.427.29-3.083-1.188-2.86,2.205-2.176.927-2.954,3.087-.25Z" transform="translate(-183.365 -36.142)" fill="rgba(0,0,0,0)" stroke="#ffb327" stroke-width="0.75"/><g transform="translate(0 15.608)"><path d="M188.928,80.032l-3.088,6.2-1.056-4.31-4.034,1.8,3.316-6.805" transform="translate(-180.749 -76.918)" fill="rgba(0,0,0,0)" stroke="#ffb327" stroke-width="0.75"/><path d="M213.055,80.032l3.089,6.2,1.056-4.31,4.034,1.8-3.316-6.805" transform="translate(-200.689 -76.918)" fill="rgba(0,0,0,0)" stroke="#ffb327" stroke-width="0.75"/></g></g></g></svg>