<svg xmlns="http://www.w3.org/2000/svg" width="41" height="41" viewBox="0 0 41 41"><g transform="translate(-888 -1757)"><rect width="41" height="41" rx="10" transform="translate(888 1757)"/><g transform="translate(896 1767)"><g transform="translate(0 0)"><path d="M187.963,307.613a3.877,3.877,0,0,1-5.808-2.48,5.734,5.734,0,0,1,2.246-.506,3.317,3.317,0,0,1,1.3.25A4.884,4.884,0,0,1,187.963,307.613Z" transform="translate(-179.029 -288.506)" fill="rgba(0,0,0,0)" stroke="#ffb327" stroke-width="0.75"/><path d="M178.6,297.167a5.5,5.5,0,0,1-1.241-2.433,4.886,4.886,0,0,1,3.549.154,4.07,4.07,0,0,1,1.6,1.96" transform="translate(-176.07 -282.229)" fill="rgba(0,0,0,0)" stroke="#ffb327" stroke-width="0.75"/><path d="M174.7,286.147a7.229,7.229,0,0,1-.709-2.864,4.886,4.886,0,0,1,3.392,1.055,3.689,3.689,0,0,1,.927,1.714" transform="translate(-173.989 -275.326)" fill="rgba(0,0,0,0)" stroke="#ffb327" stroke-width="0.75"/><path d="M177.22,275.775a6.891,6.891,0,0,1-.127-2.141,4.887,4.887,0,0,1,3.294,1.329,4.53,4.53,0,0,1,.863,3.045" transform="translate(-175.885 -269.376)" fill="rgba(0,0,0,0)" stroke="#ffb327" stroke-width="0.75"/><path d="M180.688,265.44a5.351,5.351,0,0,1,.439-2.931,4.885,4.885,0,0,1,2.738,2.263,3.915,3.915,0,0,1,.145,2.3" transform="translate(-178.084 -262.509)" fill="rgba(0,0,0,0)" stroke="#ffb327" stroke-width="0.75"/><line x2="2.069" y2="0.974" transform="translate(8.965 19.13)" fill="none" stroke="#ffb327" stroke-width="0.75"/></g><path d="M201.59,270.88h-2.77V269.57a11.5,11.5,0,0,0,2.77-1.65h2.6v8.732l1.9.935v1.293h-6.753v-1.293l2.251-.935Z" transform="translate(-189.315 -265.849)" fill="rgba(0,0,0,0)" stroke="#ffb327" stroke-width="0.75"/><g transform="translate(14.686 0)"><path d="M217.844,307.613a3.877,3.877,0,0,0,5.808-2.48,5.734,5.734,0,0,0-2.246-.506,3.317,3.317,0,0,0-1.3.25A4.884,4.884,0,0,0,217.844,307.613Z" transform="translate(-215.743 -288.506)" fill="rgba(0,0,0,0)" stroke="#ffb327" stroke-width="0.75"/><path d="M228.267,297.167a5.5,5.5,0,0,0,1.241-2.433,4.886,4.886,0,0,0-3.549.154,4.07,4.07,0,0,0-1.6,1.96" transform="translate(-219.765 -282.229)" fill="rgba(0,0,0,0)" stroke="#ffb327" stroke-width="0.75"/><path d="M233.509,286.147a7.228,7.228,0,0,0,.709-2.864,4.886,4.886,0,0,0-3.392,1.055,3.688,3.688,0,0,0-.927,1.714" transform="translate(-223.184 -275.326)" fill="rgba(0,0,0,0)" stroke="#ffb327" stroke-width="0.75"/><path d="M231.187,275.775a6.891,6.891,0,0,0,.127-2.141,4.887,4.887,0,0,0-3.294,1.329,4.53,4.53,0,0,0-.863,3.045" transform="translate(-221.488 -269.376)" fill="rgba(0,0,0,0)" stroke="#ffb327" stroke-width="0.75"/><path d="M228.852,265.44a5.35,5.35,0,0,0-.439-2.931,4.885,4.885,0,0,0-2.738,2.263,3.915,3.915,0,0,0-.145,2.3" transform="translate(-220.422 -262.509)" fill="rgba(0,0,0,0)" stroke="#ffb327" stroke-width="0.75"/><line x1="2.069" y2="0.974" transform="translate(0 19.13)" fill="none" stroke="#ffb327" stroke-width="0.75"/></g></g></g></svg>