<svg xmlns="http://www.w3.org/2000/svg" width="41" height="41" viewBox="0 0 41 41"><g transform="translate(-888 -1930)"><rect width="41" height="41" rx="10" transform="translate(888 1930)"/><g transform="translate(898 1937)"><g transform="translate(0 0)"><line y2="10.253" transform="translate(10.309 16.999)" fill="none" stroke="#ffb327" stroke-width="0.75"/><g transform="translate(0 16.194)"><path d="M179.514,204.432l-.978-11.058-1.93.586s-3.812.952-3.812,4.094v6.378" transform="translate(-172.795 -193.374)" fill="rgba(0,0,0,0)" stroke="#ffb327" stroke-width="0.75"/><path d="M197.241,204.432l.978-11.058,1.929.586s3.813.952,3.813,4.094v6.378" transform="translate(-183.343 -193.374)" fill="rgba(0,0,0,0)" stroke="#ffb327" stroke-width="0.75"/></g><g transform="translate(5.032)"><path d="M186.916,164.867c-5.238,0-5.528,3.166-5.162,7.014s2.791,7.012,5.162,7.012,4.8-3.156,5.163-7.012S192.156,164.867,186.916,164.867Z" transform="translate(-181.645 -164.867)" fill="rgba(0,0,0,0)" stroke="#ffb327" stroke-width="0.75"/><path d="M190.935,170.6s-.663,2.25-4.192,2.468" transform="translate(-183.845 -167.343)" fill="rgba(0,0,0,0)" stroke="#ffb327" stroke-width="0.75"/><path d="M193.243,172.331a12.143,12.143,0,0,0,3.786,1.745" transform="translate(-186.65 -168.091)" fill="rgba(0,0,0,0)" stroke="#ffb327" stroke-width="0.75"/></g></g></g></g></svg>