<svg xmlns="http://www.w3.org/2000/svg" width="73.033" height="81.791" viewBox="0 0 73.033 81.791"><g transform="translate(-44.732 -698.763)"><g transform="translate(45.482 699.513)"><g transform="translate(14.564 14.636)"><path d="M67.58,734.137v10.027l-9.787,29.3,32.642-29.1" transform="translate(-57.793 -707.812)" fill="none" stroke="#ffb327" stroke-linejoin="round" stroke-width="1.5"/><path d="M66.066,711.885v7.794" transform="translate(-56.279 -711.885)" fill="none" stroke="#ffb327" stroke-linejoin="round" stroke-width="1.5"/><path d="M88.89,733.768v10.464l9.785,29.3-32.557-29.1" transform="translate(-56.269 -707.88)" fill="none" stroke="#ffb327" stroke-linejoin="round" stroke-width="1.5"/><path d="M85.367,711.885v8.453" transform="translate(-52.746 -711.885)" fill="none" stroke="#ffb327" stroke-linejoin="round" stroke-width="1.5"/></g><g transform="translate(0 39.886)"><path d="M68.635,733.278l-23.153,9.61h71.534l-23.275-9.659" transform="translate(-45.482 -733.228)" fill="none" stroke="#ffb327" stroke-linecap="round" stroke-linejoin="round" stroke-width="1.5"/></g><g transform="translate(5.561 14.593)"><path d="M92.6,720.755h17.991l-18.831-8.907H69.012l-18.829,8.907H67.741" transform="translate(-50.183 -711.848)" fill="none" stroke="#ffb327" stroke-linecap="round" stroke-linejoin="round" stroke-width="1.5"/></g><g transform="translate(24.303)"><path d="M88.953,714.149l-7.777-14.636H73.8l-7.777,14.636" transform="translate(-66.025 -699.513)" fill="none" stroke="#ffb327" stroke-linejoin="round" stroke-width="1.5"/></g><g transform="translate(8.86 28.402)"><line y2="4.764" fill="none" stroke="#ffb327" stroke-linejoin="round" stroke-width="1.5"/><line y2="2.297" transform="translate(0 2.467)" fill="none" stroke="#ffb327" stroke-linecap="round" stroke-linejoin="round" stroke-width="1.5"/><g transform="translate(53.817)"><line y2="4.764" fill="none" stroke="#ffb327" stroke-linejoin="round" stroke-width="1.5"/><line y2="2.297" transform="translate(0 2.467)" fill="none" stroke="#ffb327" stroke-linecap="round" stroke-linejoin="round" stroke-width="1.5"/></g></g><g transform="translate(3.807 54.43)"><g transform="translate(63.92)"><line y2="4.764" fill="none" stroke="#ffb327" stroke-linejoin="round" stroke-width="1.5"/><line y2="2.297" transform="translate(0 2.467)" fill="none" stroke="#ffb327" stroke-linecap="round" stroke-linejoin="round" stroke-width="1.5"/></g><line y2="4.764" fill="none" stroke="#ffb327" stroke-linejoin="round" stroke-width="1.5"/><line y2="2.297" transform="translate(0 2.467)" fill="none" stroke="#ffb327" stroke-linecap="round" stroke-linejoin="round" stroke-width="1.5"/></g></g><ellipse cx="18.385" cy="18.385" rx="18.385" ry="18.385" transform="translate(62.864 717.146)" fill="#fff" stroke="#ffb327" stroke-linejoin="round" stroke-width="1.5"/><g transform="translate(72.586 726.867)"><line x2="17.327" y2="17.327" transform="translate(-0.001 0)" fill="none" stroke="#ffb327" stroke-linecap="round" stroke-linejoin="round" stroke-width="1.5"/><line y1="17.327" x2="17.327" transform="translate(-0.001 0)" fill="none" stroke="#ffb327" stroke-linecap="round" stroke-linejoin="round" stroke-width="1.5"/></g></g></svg>