<svg xmlns="http://www.w3.org/2000/svg" xmlns:xlink="http://www.w3.org/1999/xlink" width="328.172" height="244.661" viewBox="0 0 328.172 244.661"><defs><filter id="a" x="-15.018" y="-16.422" width="358.764" height="276.854" filterUnits="userSpaceOnUse"><feOffset dy="3" input="SourceAlpha"/><feGaussianBlur stdDeviation="15" result="b"/><feFlood flood-opacity="0.11"/><feComposite operator="in" in2="b"/><feComposite in="SourceGraphic"/></filter><filter id="c" x="0" y="0" width="328.172" height="244.661" filterUnits="userSpaceOnUse"><feOffset dy="3" input="SourceAlpha"/><feGaussianBlur stdDeviation="10" result="d"/><feFlood flood-opacity="0.122"/><feComposite operator="in" in2="d"/><feComposite in="SourceGraphic"/></filter><clipPath id="e"><g transform="matrix(1, 0, 0, 1, 0, 0)" filter="url(#a)"><rect width="268.763" height="186.855" transform="translate(0 0)" fill="none"/></g></clipPath></defs><g transform="translate(29.971 25.898)"><g transform="matrix(1, 0, 0, 1, -29.97, -25.9)" filter="url(#c)"><path d="M262.807,192.661H7.365A6.365,6.365,0,0,1,1,186.3V14.365A6.365,6.365,0,0,1,7.365,8H262.807a6.365,6.365,0,0,1,6.365,6.365V186.3a6.365,6.365,0,0,1-6.365,6.365" transform="translate(29 19)" fill="#fff"/></g><g transform="translate(0.012 -0.32)" clip-path="url(#e)"><path d="M262.807,192.661H7.365A6.365,6.365,0,0,1,1,186.3V14.365A6.365,6.365,0,0,1,7.365,8H262.807a6.365,6.365,0,0,1,6.365,6.365V186.3a6.365,6.365,0,0,1-6.365,6.365" transform="translate(-0.984 -6.578)" fill="#fff"/><path d="M268.172,17.639H0V6.365A6.365,6.365,0,0,1,6.365,0H261.807a6.365,6.365,0,0,1,6.365,6.365Z" transform="translate(-0.14 0.173)" fill="#ffb327"/><path d="M343.124,189.546H129.273a8.273,8.273,0,1,1,0-16.546H343.124a8.273,8.273,0,0,1,0,16.546" transform="translate(-102.252 -145.822)" fill="#f7f7f7"/><rect width="71.03" height="65.271" transform="translate(52.473 60.152)" fill="#f7f7f7"/><rect width="71.03" height="49.913" transform="translate(52.473 136.941)" fill="#f7f7f7"/><rect width="70.39" height="49.913" transform="translate(137.581 136.941)" fill="#f7f7f7"/><rect width="70.39" height="65.271" transform="translate(137.581 60.152)" fill="#f7f7f7"/><path d="M1483,201.411a.238.238,0,0,1,.066.176.321.321,0,0,1-.066.2l-.22.2a.275.275,0,0,1-.2.088.21.21,0,0,1-.176-.088l-2.839-2.84a.21.21,0,0,1-.088-.176v-.22a4.568,4.568,0,0,1-3.1,1.211,4.446,4.446,0,0,1-2.3-.617,4.625,4.625,0,0,1-1.662-1.662,4.6,4.6,0,0,1,0-4.6,4.63,4.63,0,0,1,1.662-1.662,4.6,4.6,0,0,1,4.6,0,4.626,4.626,0,0,1,1.662,1.662,4.446,4.446,0,0,1,.616,2.3,4.567,4.567,0,0,1-1.211,3.1h.22a.275.275,0,0,1,.2.088Zm-6.625-2.157a3.855,3.855,0,1,0-1.948-.517,3.812,3.812,0,0,0,1.948.517" transform="translate(-1242.199 -160.845)" fill="#ffb327"/><path d="M496.88,1026.618H463.02a.937.937,0,0,1-.933-1.014l1.9-22.819a.937.937,0,0,1,.933-.859h30.067a.936.936,0,0,1,.933.859l1.9,22.819a.937.937,0,0,1-.934,1.014m-32.843-1.873h31.825l-1.741-20.946H465.779Z" transform="translate(-390.094 -845.356)" fill="#d9d9d9"/><path d="M521.01,1048.342H498.1a.937.937,0,0,1-.933-1.012l1.047-12.959a.937.937,0,0,1,.933-.861h20.814a.937.937,0,0,1,.933.861l1.047,12.959a.937.937,0,0,1-.933,1.012m-21.893-1.873h20.878l-.9-11.086H500.012Z" transform="translate(-419.699 -872.01)" fill="#d9d9d9"/><rect width="21.802" height="1.873" transform="translate(78.955 167.956)" fill="#d9d9d9"/><rect width="1.873" height="12.864" transform="translate(88.92 162.433)" fill="#d9d9d9"/><path d="M1033.88,1026.618h-33.86a.937.937,0,0,1-.933-1.014l1.9-22.819a.937.937,0,0,1,.933-.859h30.067a.937.937,0,0,1,.933.859l1.9,22.819a.937.937,0,0,1-.933,1.014m-32.843-1.873h31.825l-1.741-20.946h-28.343Z" transform="translate(-843.271 -845.356)" fill="#d9d9d9"/><path d="M1058.01,1048.342H1035.1a.937.937,0,0,1-.934-1.012l1.047-12.959a.937.937,0,0,1,.933-.861h20.814a.937.937,0,0,1,.933.861l1.047,12.959a.937.937,0,0,1-.934,1.012m-21.893-1.873h20.878l-.9-11.086h-19.086Z" transform="translate(-872.876 -872.01)" fill="#d9d9d9"/><rect width="21.802" height="1.873" transform="translate(162.779 167.956)" fill="#d9d9d9"/><rect width="1.873" height="12.864" transform="translate(172.743 162.433)" fill="#d9d9d9"/><path d="M1033.88,526.618h-33.86a.937.937,0,0,1-.933-1.014l1.9-22.819a.937.937,0,0,1,.933-.859h30.067a.937.937,0,0,1,.933.859l1.9,22.819a.937.937,0,0,1-.933,1.014m-32.843-1.873h31.825l-1.741-20.946h-28.343Z" transform="translate(-843.271 -423.404)" fill="#d9d9d9"/><path d="M1058.01,548.342H1035.1a.936.936,0,0,1-.934-1.012l1.047-12.959a.937.937,0,0,1,.933-.861h20.814a.937.937,0,0,1,.933.861l1.047,12.959a.937.937,0,0,1-.934,1.012m-21.893-1.873h20.878l-.9-11.086h-19.086Z" transform="translate(-872.876 -450.058)" fill="#d9d9d9"/><rect width="21.802" height="1.873" transform="translate(162.779 89.908)" fill="#d9d9d9"/><rect width="1.873" height="12.864" transform="translate(172.743 84.385)" fill="#d9d9d9"/><path d="M493.88,526.618H460.02a.937.937,0,0,1-.933-1.014l1.9-22.819a.937.937,0,0,1,.933-.859h30.067a.937.937,0,0,1,.933.859l1.9,22.819a.937.937,0,0,1-.933,1.014m-32.843-1.873h31.825L491.122,503.8H462.779Z" transform="translate(-387.562 -423.404)" fill="#d9d9d9"/><path d="M518.01,548.342H495.1a.937.937,0,0,1-.933-1.012l1.047-12.959a.937.937,0,0,1,.934-.861h20.814a.937.937,0,0,1,.933.861l1.047,12.959a.937.937,0,0,1-.934,1.012m-21.893-1.873h20.878l-.9-11.086H497.012Z" transform="translate(-417.167 -450.058)" fill="#d9d9d9"/><rect width="21.802" height="1.873" transform="translate(78.487 89.908)" fill="#d9d9d9"/><rect width="1.873" height="12.864" transform="translate(88.451 84.385)" fill="#d9d9d9"/><path d="M305.562,348.392a6.048,6.048,0,1,1-6.047,6.048,6.048,6.048,0,0,1,6.047-6.048" transform="translate(-252.902 -293.836)"/><path d="M858.563,348.392a6.048,6.048,0,1,1-6.047,6.048,6.048,6.048,0,0,1,6.047-6.048" transform="translate(-719.581 -293.836)"/><path d="M305.562,845.392a6.048,6.048,0,1,1-6.047,6.048,6.048,6.048,0,0,1,6.047-6.048" transform="translate(-252.902 -713.257)"/><path d="M858.563,845.392a6.048,6.048,0,1,1-6.047,6.048,6.048,6.048,0,0,1,6.047-6.048" transform="translate(-719.581 -713.257)"/><path d="M333.251,376.61h-.521v-.786h1.449v3.571h-.928Z" transform="translate(-280.932 -316.986)" fill="#fff"/><path d="M883.752,378.882h-2.875l.886-.919q.35-.364.549-.618a3.406,3.406,0,0,0,.3-.429,1.12,1.12,0,0,0,.121-.284.892.892,0,0,0,.024-.185.481.481,0,0,0-.026-.156.4.4,0,0,0-.078-.135.38.38,0,0,0-.3-.13.371.371,0,0,0-.3.123.454.454,0,0,0-.107.308,1.178,1.178,0,0,0,.014.152h-1.013a1.524,1.524,0,0,1,.1-.568,1.289,1.289,0,0,1,.286-.441,1.266,1.266,0,0,1,.438-.284,1.513,1.513,0,0,1,.557-.1,1.566,1.566,0,0,1,.552.095,1.316,1.316,0,0,1,.438.265,1.219,1.219,0,0,1,.289.4,1.244,1.244,0,0,1,.1.509,1.188,1.188,0,0,1-.126.542,1.907,1.907,0,0,1-.4.509l-.592.554h1.156Z" transform="translate(-743.516 -316.473)" fill="#fff"/><path d="M883.038,876.949h.431v.711h-.431v.734h-.862v-.734h-1.724v-.6l1.364-2.24h1.222Zm-.862,0v-1.407l-.82,1.407Z" transform="translate(-743.157 -738.094)" fill="#fff"/><path d="M331.289,873.677a.538.538,0,0,0,.064,0h.045a.394.394,0,0,0,.284-.1.357.357,0,0,0,.109-.27.348.348,0,0,0-.1-.26.36.36,0,0,0-.263-.1.354.354,0,0,0-.275.114.418.418,0,0,0-.1.294h-.857a1.537,1.537,0,0,1,.14-.5,1.2,1.2,0,0,1,.273-.367,1.141,1.141,0,0,1,.388-.227,1.6,1.6,0,0,1,.973,0,1.083,1.083,0,0,1,.369.208.907.907,0,0,1,.237.327,1.069,1.069,0,0,1,.083.429.811.811,0,0,1-.1.419.871.871,0,0,1-.277.282.793.793,0,0,1,.429.305.924.924,0,0,1,.154.542,1.088,1.088,0,0,1-.4.857,1.341,1.341,0,0,1-.445.241,1.793,1.793,0,0,1-.566.085,1.681,1.681,0,0,1-.744-.161,1.215,1.215,0,0,1-.53-.512,1.024,1.024,0,0,1-.121-.312,1.632,1.632,0,0,1-.031-.317h.919a.529.529,0,0,0,.147.381.514.514,0,0,0,.369.13.45.45,0,0,0,.36-.132.486.486,0,0,0,.114-.327.438.438,0,0,0-.137-.35.484.484,0,0,0-.327-.118.568.568,0,0,0-.09.007l-.095.016Z" transform="translate(-278.653 -735.867)" fill="#fff"/><path d="M1308.12,733.023l8.909,27.014a.269.269,0,0,0,.51,0l3.6-10.362a.269.269,0,0,1,.218-.178l11.43-1.569a.269.269,0,0,0,.1-.5l-24.376-14.727a.269.269,0,0,0-.395.315" transform="translate(-1104.056 -618.129)"/></g></g></svg>