<svg xmlns="http://www.w3.org/2000/svg" xmlns:xlink="http://www.w3.org/1999/xlink" width="323.078" height="186.841" viewBox="0 0 323.078 186.841"><defs><clipPath id="a"><rect width="323.078" height="186.841" fill="none"/></clipPath><clipPath id="c"><rect width="310.815" height="8.621" fill="none"/></clipPath><clipPath id="d"><rect width="16.296" height="19.428" fill="none"/></clipPath><clipPath id="e"><rect width="13.176" height="10.684" fill="none"/></clipPath><clipPath id="f"><rect width="30.68" height="41.645" fill="none"/></clipPath><clipPath id="g"><rect width="90.18" height="104.536" fill="none"/></clipPath><clipPath id="h"><rect width="16.836" height="18.149" fill="none"/></clipPath><clipPath id="i"><rect width="34.304" height="27.674" fill="none"/></clipPath><clipPath id="j"><rect width="14.457" height="22.236" fill="none"/></clipPath><clipPath id="k"><rect width="6.467" height="7.83" fill="none"/></clipPath><clipPath id="l"><rect width="13.762" height="9.348" fill="none"/></clipPath><clipPath id="m"><rect width="7.413" height="8.198" fill="none"/></clipPath><clipPath id="n"><rect width="12.299" height="10.347" fill="none"/></clipPath><clipPath id="o"><rect width="19.258" height="13.118" fill="none"/></clipPath><clipPath id="p"><rect width="34.55" height="43.666" fill="none"/></clipPath><clipPath id="q"><rect width="7.787" height="9.754" fill="none"/></clipPath><clipPath id="r"><rect width="15.769" height="10.426" fill="none"/></clipPath><clipPath id="s"><rect width="20.027" height="13.229" fill="none"/></clipPath></defs><g clip-path="url(#a)"><g clip-path="url(#a)"><g transform="translate(6.274 178.22)" opacity="0.11"><g clip-path="url(#c)"><path d="M320.633,401H17.808a4.007,4.007,0,0,1-3.995-4v-.631a4.007,4.007,0,0,1,3.995-3.995H320.633a4.006,4.006,0,0,1,3.995,3.995V397a4.006,4.006,0,0,1-3.995,4" transform="translate(-13.813 -392.377)"/></g></g><path d="M548.212,100.85l12.363.139a2.184,2.184,0,0,1,2,1.491l13.505,36.535a2.535,2.535,0,0,1-2.145,3.48H547.155a2.306,2.306,0,0,1-2.186-2.485l.911-36.673a2.444,2.444,0,0,1,2.331-2.485" transform="translate(-297.44 -55.043)" fill="#bddfe0"/><path d="M421.577,305.786c-8.557,0-15.743,10.04-16.051,22.425s6.4,21.759,14.954,21.759,15.726-9.374,16.034-21.759-6.38-22.425-14.937-22.425" transform="translate(-221.328 -166.896)" fill="#323231"/><path d="M438.461,349.971h13.321l1.1-44.184H439.558Z" transform="translate(-239.309 -166.896)" fill="#323231"/><path d="M450.906,305.786c-8.557,0-15.743,10.04-16.051,22.425s6.4,21.759,14.953,21.759,15.727-9.374,16.034-21.759-6.38-22.425-14.937-22.425" transform="translate(-237.336 -166.896)" fill="#414141"/><path d="M456.807,321.9c-5.763,0-10.6,6.763-10.811,15.1s4.3,15.1,10.061,15.1,10.6-6.763,10.81-15.1-4.3-15.1-10.06-15.1" transform="translate(-243.418 -175.693)" fill="#282828"/><path d="M546.886,338.508H463.951a4.338,4.338,0,0,0-4.3,4.2l-.149,5.987a4.085,4.085,0,0,0,4.092,4.2h82.935a4.338,4.338,0,0,0,4.3-4.2l.148-5.987a4.085,4.085,0,0,0-4.092-4.2" transform="translate(-250.793 -184.756)" fill="#353535"/><path d="M146.894,305.786c-8.557,0-15.74,9.926-16.044,22.171s6.4,21.513,14.959,21.513,15.724-9.268,16.028-21.513-6.386-22.171-14.943-22.171" transform="translate(-71.412 -166.896)" fill="#323231"/><path d="M163.8,349.47H177.12l1.085-43.685H164.883Z" transform="translate(-89.4 -166.896)" fill="#323231"/><path d="M176.224,305.786c-8.557,0-15.74,9.926-16.044,22.171s6.4,21.513,14.959,21.513,15.724-9.268,16.028-21.513-6.386-22.171-14.943-22.171" transform="translate(-87.42 -166.896)" fill="#414141"/><path d="M182.127,321.723c-5.763,0-10.6,6.686-10.806,14.933s4.3,14.933,10.065,14.933,10.6-6.686,10.806-14.933-4.3-14.933-10.065-14.933" transform="translate(-93.502 -175.595)" fill="#282828"/><path d="M399.222,310.856H271.856a4.013,4.013,0,0,1-4.013-4.013V269.818a4.013,4.013,0,0,1,4.013-4.013H399.222a4.013,4.013,0,0,1,4.013,4.013v37.025a4.013,4.013,0,0,1-4.013,4.013" transform="translate(-146.187 -145.075)" fill="#353535"/><path d="M269.332,338.508H186.4a4.339,4.339,0,0,0-4.3,4.2l-.149,5.987a4.085,4.085,0,0,0,4.092,4.2h82.935a4.337,4.337,0,0,0,4.3-4.2l.149-5.987a4.085,4.085,0,0,0-4.092-4.2" transform="translate(-99.305 -184.756)" fill="#353535"/><path d="M518.63,297.52h75.577c-.117-5.4-9.526-32.139-10.4-37.46-.743-4.5-58.776,12.009-61.307,8.781a10.127,10.127,0,0,1-1.838-3.556c-.623-1.331-1.3-2.631-2.027-3.9Z" transform="translate(-283.065 -141.512)" fill="#2b2b2b"/><path d="M582.855,118.368l.584-.216.7,2.1-.557.206a2.813,2.813,0,0,0-1.7,3.512l2.669,7.8a2.625,2.625,0,0,0,1.43,1.564,2.716,2.716,0,0,0,2.144.028l.355-.144.7,2.106-.263.107a4.982,4.982,0,0,1-2.6.324,4.891,4.891,0,0,1-1.293-.375,4.764,4.764,0,0,1-2.594-2.839l-2.669-7.8a5.107,5.107,0,0,1,3.087-6.376" transform="translate(-316.291 -64.487)" fill="#565656"/><path d="M589.968,130.81l-16.445-11.2a12.682,12.682,0,0,1-3.875-3.868L545.7,54.133c-2.227-3.726-6.236-6.523-10.625-6.523L511.5,47.519l-2.94,134.425h35.232l1-.225c.411-2.3,1.733-4.127,3.24-6.06,1.688-2.165,3.17-4.464,5.064-6.469a24.373,24.373,0,0,1,15.722-7.892c8.357-.562,18.255,5.362,19.888,20.645l7.224-.2.968-38.988c.125-5.017-2.885-8.868-6.935-11.943M555.982,111.9a1.771,1.771,0,0,1-.05.349.76.76,0,0,1-.074.178,1.2,1.2,0,0,1-.82.458,37.449,37.449,0,0,1-4.886.265c-1.938.178-3.89.231-5.831.268-3.83.074-7.655-.026-11.479-.126l-3.294-.086c-.986-.026-2.958-.376-3.573-1.194a2.856,2.856,0,0,1-.374-1.749l.024-10.506c.006-2.645.238-5.287.337-7.931.1-2.622-.253-5.235-.091-7.845q.253-4.1.568-8.189c.118-1.527.406-3.318,1.766-4.052a4.609,4.609,0,0,1,2.236-.366l6.936.034a13.056,13.056,0,0,1,3.122.266c2.434.612,3.154,2.941,3.953,5.13.533,1.461.894,2.98,1.286,4.487a106.781,106.781,0,0,0,6.58,18.266c1.832,3.923,3.956,7.975,3.663,12.343" transform="translate(-277.569 -25.936)" fill="#f9a928"/><path d="M442.877,203.826h0c0,.111,0,.055,0,0" transform="translate(-241.72 -111.247)" fill="#564f4f"/><path d="M442.877,203.749c0-.054,0-.1,0,0l0,0" transform="translate(-241.72 -111.172)" fill="#564f4f"/><path d="M311.379,305.655c-8.346,0-15.355,9.793-15.655,21.872s6.222,21.872,14.568,21.872,15.355-9.793,15.655-21.872-6.222-21.872-14.568-21.872" transform="translate(-161.399 -166.825)" fill="#323231"/><path d="M327.81,349.4H340.8l1.086-43.744H328.9Z" transform="translate(-178.917 -166.825)" fill="#323231"/><path d="M339.985,305.655c-8.346,0-15.355,9.793-15.655,21.872S330.552,349.4,338.9,349.4s15.355-9.793,15.655-21.872-6.223-21.872-14.569-21.872" transform="translate(-177.012 -166.825)" fill="#414141"/><path d="M345.741,321.376c-5.621,0-10.342,6.6-10.544,14.732s4.191,14.731,9.812,14.731,10.342-6.6,10.544-14.731-4.191-14.732-9.812-14.732" transform="translate(-182.945 -175.405)" fill="#323231"/><path d="M348.116,327.863c-4.5,0-8.274,5.276-8.435,11.785s3.353,11.786,7.85,11.786,8.273-5.277,8.435-11.786-3.353-11.785-7.85-11.785" transform="translate(-185.393 -178.946)" fill="#c8cac4"/><path d="M348.116,327.863c-4.5,0-8.274,5.276-8.435,11.785s3.353,11.786,7.85,11.786,8.273-5.277,8.435-11.786-3.353-11.785-7.85-11.785" transform="translate(-185.393 -178.946)" fill="#c8cac4"/><path d="M355.29,331.359a5.262,5.262,0,0,0-2.567.7c2.592,1.48,4.367,5.169,4.26,9.5s-2.066,8.019-4.732,9.5a5.065,5.065,0,0,0,2.532.7c3.891,0,7.159-4.565,7.3-10.2s-2.9-10.2-6.792-10.2" transform="translate(-192.257 -180.854)" fill="#8c8c8c"/><path d="M345.511,342.854c-1.943,0-3.574,2.251-3.643,5.028s1.451,5.028,3.393,5.028,3.574-2.251,3.644-5.028-1.451-5.028-3.394-5.028" transform="translate(-186.589 -187.128)" fill="#414141"/><path d="M339.764,357.108a16.24,16.24,0,0,0,.209,1.781.966.966,0,0,0,.493-.858.823.823,0,0,0-.7-.923" transform="translate(-185.441 -194.907)" fill="#414141"/><path d="M340.082,347.538a16.754,16.754,0,0,0-.258,1.8c.01,0,.018.007.028.007a.966.966,0,0,0,.23-1.8" transform="translate(-185.474 -189.684)" fill="#414141"/><path d="M343.691,340.31a.871.871,0,0,0-.756.924.822.822,0,0,0,.709.925.871.871,0,0,0,.756-.925.82.82,0,0,0-.709-.924" transform="translate(-187.172 -185.739)" fill="#414141"/><path d="M349.011,337.257a.87.87,0,0,0-.756.924.821.821,0,0,0,.709.925.871.871,0,0,0,.756-.925.82.82,0,0,0-.709-.924" transform="translate(-190.076 -184.073)" fill="#414141"/><path d="M354.972,340.819a.871.871,0,0,0-.756.924.822.822,0,0,0,.71.925.871.871,0,0,0,.755-.925.82.82,0,0,0-.709-.924" transform="translate(-193.329 -186.017)" fill="#414141"/><path d="M358.034,347.434a.872.872,0,0,0-.756.925.821.821,0,0,0,.709.924.871.871,0,0,0,.756-.924.821.821,0,0,0-.709-.925" transform="translate(-195 -189.627)" fill="#414141"/><path d="M357.794,357.1a.871.871,0,0,0-.756.924.822.822,0,0,0,.709.925.871.871,0,0,0,.756-.925.82.82,0,0,0-.709-.924" transform="translate(-194.869 -194.905)" fill="#414141"/><path d="M353.987,364.228a.871.871,0,0,0-.756.925.821.821,0,0,0,.709.924.871.871,0,0,0,.756-.924.821.821,0,0,0-.709-.925" transform="translate(-192.792 -198.794)" fill="#414141"/><path d="M347.861,367.282a.871.871,0,0,0-.756.925.821.821,0,0,0,.71.924.87.87,0,0,0,.755-.924.821.821,0,0,0-.71-.925" transform="translate(-189.448 -200.46)" fill="#414141"/><path d="M342.3,364.228a.862.862,0,0,0-.75.893c.1.272.2.532.312.79a.606.606,0,0,0,.392.167.871.871,0,0,0,.756-.924.821.821,0,0,0-.709-.925" transform="translate(-186.415 -198.794)" fill="#414141"/><g transform="translate(154.282 148.917)" opacity="0.25"><g clip-path="url(#d)"><path d="M348.116,327.863c-4.5,0-8.274,5.276-8.435,11.785a14.886,14.886,0,0,0,1.761,7.642c3.6-3.925,9.273-7.821,14.479-6.893.017-.249.039-.5.045-.749.162-6.509-3.353-11.785-7.85-11.785" transform="translate(-339.675 -327.863)"/></g></g><path d="M601.517,305.655c-8.53,0-15.692,9.9-16,22.122s6.366,22.122,14.9,22.122,15.691-9.9,16-22.122-6.366-22.122-14.9-22.122" transform="translate(-319.569 -166.825)" fill="#323231"/><path d="M618.331,349.9h13.28l1.1-44.244H619.43Z" transform="translate(-337.481 -166.825)" fill="#323231"/><path d="M630.756,305.655c-8.53,0-15.692,9.9-16,22.122s6.366,22.122,14.9,22.122,15.692-9.9,16-22.122-6.366-22.122-14.9-22.122" transform="translate(-335.528 -166.825)" fill="#414141"/><path d="M636.64,321.556c-5.746,0-10.569,6.671-10.774,14.9s4.288,14.9,10.033,14.9,10.569-6.67,10.773-14.9-4.288-14.9-10.033-14.9" transform="translate(-341.59 -175.503)" fill="#323231"/><path d="M639.069,328.116c-4.6,0-8.456,5.337-8.619,11.92s3.43,11.92,8.027,11.92,8.455-5.336,8.618-11.92-3.43-11.92-8.026-11.92" transform="translate(-344.093 -179.084)" fill="#c8cac4"/><path d="M640.04,330.741c-4.136,0-7.61,4.8-7.756,10.727s3.087,10.728,7.224,10.728,7.609-4.8,7.756-10.728-3.087-10.727-7.224-10.727" transform="translate(-345.094 -180.517)" fill="#c8cac4"/><path d="M647.532,330.741a5.382,5.382,0,0,0-1,.105c3.647.7,6.365,5.183,6.23,10.622s-3.076,9.923-6.758,10.622a5.219,5.219,0,0,0,.993.106c4.137,0,7.609-4.8,7.756-10.728s-3.087-10.727-7.224-10.727" transform="translate(-352.586 -180.517)" fill="#afafad"/><path d="M642.062,332.1c-.937.388-1.563,1.211-1.4,1.84s1.06.824,2,.436,1.564-1.211,1.4-1.84-1.06-.824-2-.437" transform="translate(-349.656 -181.151)" fill="#414141"/><path d="M633.234,350.6c-.709,0-1.309.923-1.337,2.062s.525,2.062,1.235,2.062,1.309-.923,1.337-2.062-.525-2.062-1.235-2.062" transform="translate(-344.886 -191.357)" fill="#414141"/><path d="M642.064,371.475c-.937-.359-1.867-.064-2.075.661a1.818,1.818,0,0,0,1.321,1.963c.938.359,1.867.063,2.075-.661a1.819,1.819,0,0,0-1.321-1.963" transform="translate(-349.279 -202.666)" fill="#414141"/><path d="M658.207,364.756c-.544.911-.792,1.822-.554,2.034s.873-.354,1.418-1.265.792-1.821.554-2.034-.873.354-1.418,1.265" transform="translate(-358.894 -198.367)" fill="#414141"/><path d="M659.033,337.908c-.225.162-.075,1.007.337,1.886s.928,1.462,1.154,1.3.075-1.006-.337-1.886-.928-1.461-1.154-1.3" transform="translate(-359.64 -184.413)" fill="#414141"/><path d="M646.378,344.588c-1.751,0-3.221,2.008-3.283,4.484s1.309,4.484,3.06,4.484,3.222-2.008,3.283-4.484-1.309-4.484-3.06-4.484" transform="translate(-350.996 -188.074)" fill="#414141"/><path d="M640.363,357.3a.779.779,0,0,0-.681.825.734.734,0,0,0,.64.825.779.779,0,0,0,.681-.825.734.734,0,0,0-.64-.825" transform="translate(-349.135 -195.011)" fill="#414141"/><path d="M640.578,348.673a.779.779,0,0,0-.681.825.735.735,0,0,0,.64.825.779.779,0,0,0,.681-.825.735.735,0,0,0-.64-.825" transform="translate(-349.252 -190.304)" fill="#414141"/><path d="M644.735,342.318a.778.778,0,0,0-.681.824.735.735,0,0,0,.64.825.78.78,0,0,0,.681-.825.734.734,0,0,0-.64-.824" transform="translate(-351.521 -186.835)" fill="#414141"/><path d="M649.529,339.6a.779.779,0,0,0-.681.824.735.735,0,0,0,.64.825.779.779,0,0,0,.681-.825.734.734,0,0,0-.64-.824" transform="translate(-354.137 -185.349)" fill="#414141"/><path d="M654.9,342.772a.779.779,0,0,0-.681.824.734.734,0,0,0,.64.825.779.779,0,0,0,.681-.825.734.734,0,0,0-.64-.824" transform="translate(-357.071 -187.083)" fill="#414141"/><path d="M657.665,348.673a.78.78,0,0,0-.681.825.735.735,0,0,0,.64.825.779.779,0,0,0,.681-.825.734.734,0,0,0-.64-.825" transform="translate(-358.578 -190.304)" fill="#414141"/><path d="M657.451,357.3a.779.779,0,0,0-.681.825.734.734,0,0,0,.64.825.78.78,0,0,0,.681-.825.735.735,0,0,0-.64-.825" transform="translate(-358.461 -195.011)" fill="#414141"/><path d="M654.022,363.653a.779.779,0,0,0-.681.825.735.735,0,0,0,.64.825.78.78,0,0,0,.681-.825.734.734,0,0,0-.64-.825" transform="translate(-356.589 -198.48)" fill="#414141"/><path d="M648.5,366.377a.779.779,0,0,0-.681.825.734.734,0,0,0,.64.825.78.78,0,0,0,.681-.825.734.734,0,0,0-.64-.825" transform="translate(-353.576 -199.966)" fill="#414141"/><path d="M643.478,363.653a.779.779,0,0,0-.681.825.735.735,0,0,0,.64.825.779.779,0,0,0,.681-.825.734.734,0,0,0-.64-.825" transform="translate(-350.835 -198.48)" fill="#414141"/><path d="M611.474,290.687a25.215,25.215,0,0,0-16.141,5.5c-4.718,3.681-8.922,9.53-11.5,18.468l3.708.711a4.656,4.656,0,0,0,5.018-2.508c2.778-5.579,9.615-16.505,20.536-16.505,14.664,0,16.7,18.3,16.7,18.3s-1.275-23.438-18.322-23.971" transform="translate(-318.654 -158.65)" fill="#ffaf2e"/><path d="M695.573,318.532l-5.685-.025a1.283,1.283,0,0,0-1.281,1.245l-.3,12.093a1.209,1.209,0,0,0,1.224,1.245l4.93-.04a4.133,4.133,0,0,0,4.111-4.011l.18-7.25a3.163,3.163,0,0,0-3.178-3.259" transform="translate(-375.673 -173.839)" fill="#474747"/><path d="M695.573,318.532l-5.685-.025a1.283,1.283,0,0,0-1.281,1.245l-.3,12.093a1.209,1.209,0,0,0,1.224,1.245l4.93-.04a4.133,4.133,0,0,0,4.111-4.011l.18-7.25a3.163,3.163,0,0,0-3.178-3.259" transform="translate(-375.673 -173.839)" fill="#474747"/><path d="M691.351,318.513l-1.463-.006a1.283,1.283,0,0,0-1.281,1.245l-.3,12.093a1.209,1.209,0,0,0,1.224,1.245l1.383-.012a1.331,1.331,0,0,0,1.315-1.292l.3-12.061a1.177,1.177,0,0,0-1.177-1.212" transform="translate(-375.673 -173.839)" fill="#3d3d3d"/><path d="M544.934,201.857H531.275a3.744,3.744,0,0,1-2.7-1.145,4.121,4.121,0,0,1-1.143-2.97l2.617-105.4a4.1,4.1,0,0,1,3.984-4.054h19.49a3.83,3.83,0,0,1,3.531,2.418l15.091,37.88a4.151,4.151,0,0,1,.306,1.686l-.445,41.091c-.056,2.254-1.076,4.744-3.183,4.926-13.687,1.18-19.453,20.385-20.065,22.571a4.037,4.037,0,0,1-3.824,3m-10.9-111.12A1.637,1.637,0,0,0,532.5,92.4l-2.618,105.4a1.636,1.636,0,0,0,.448,1.2,1.31,1.31,0,0,0,.944.406h13.659A1.582,1.582,0,0,0,546.4,198.2c.659-2.353,6.884-23.03,22.214-24.351.341-.03.911-1.2.944-2.529L570,130.226a1.774,1.774,0,0,0-.127-.723L554.784,91.624a1.367,1.367,0,0,0-1.26-.886Z" transform="translate(-287.869 -48.187)" fill="#d6850d"/><path d="M575.575,181.873H545.028l-.059,2.358a2.306,2.306,0,0,0,2.186,2.485h26.779a2.535,2.535,0,0,0,2.145-3.48Z" transform="translate(-297.44 -99.265)" fill="#6d6d6d"/><path d="M543.862,217.535h.811a1.483,1.483,0,0,1,1.5,1.507l-.269,10.84a1.575,1.575,0,0,1-1.578,1.507h-.81a1.483,1.483,0,0,1-1.5-1.507l.269-10.84a1.575,1.575,0,0,1,1.577-1.507" transform="translate(-295.829 -118.729)" fill="#3d3d3d"/><path d="M572.462,142.247h-26.78a3.287,3.287,0,0,1-2.366-1.011,3.787,3.787,0,0,1-1.043-2.731l.911-36.673a3.672,3.672,0,0,1,3.532-3.681h.037l12.363.139a3.4,3.4,0,0,1,3.134,2.292l13.506,36.534a3.926,3.926,0,0,1-.462,3.6,3.434,3.434,0,0,1-2.832,1.526M546.716,100.6a1.241,1.241,0,0,0-1.083,1.291l-.911,36.673a1.324,1.324,0,0,0,.347.959.852.852,0,0,0,.613.271h26.78a1.026,1.026,0,0,0,.822-.476,1.5,1.5,0,0,0,.175-1.354l-13.506-36.534a.964.964,0,0,0-.864-.69l-12.363-.139h-.01" transform="translate(-295.969 -53.57)" fill="#3a3a3a"/><path d="M690.419,271.049l1.085,14.1a.927.927,0,0,0,.929.858h4.026a.985.985,0,0,0,.979-.955l.35-14.092a.927.927,0,0,0-.93-.955L691.4,270a.983.983,0,0,0-.977,1.051" transform="translate(-376.825 -147.363)" fill="#3d3d3d"/><path d="M696.865,275.838l.755,9.95a.619.619,0,0,0,.618.531h2.608a.623.623,0,0,0,.653-.562l.248-9.984a.587.587,0,0,0-.625-.563h-3.6a.612.612,0,0,0-.651.628" transform="translate(-380.344 -150.208)" fill="#ea5615"/><path d="M637.2,181.081h-7.065a2.926,2.926,0,0,0-2.575,3.073l0,.169a2.756,2.756,0,0,0,2.422,3.073h7.064a2.925,2.925,0,0,0,2.575-3.073l0-.169a2.756,2.756,0,0,0-2.422-3.073" transform="translate(-342.517 -98.833)" fill="#303030"/><path d="M657.654,165.889H646.313c-1.121,0-2.07,1.284-2.109,2.854l-.186,7.507c-.039,1.57.846,2.854,1.968,2.854h11.34c1.121,0,2.071-1.284,2.11-2.854l.186-7.507c.039-1.57-.846-2.854-1.968-2.854" transform="translate(-351.5 -90.541)" fill="#303030"/><path d="M650.766,165.889h-11.34c-1.121,0-2.071,1.284-2.11,2.854l-.186,7.507c-.039,1.57.847,2.854,1.968,2.854h11.34c1.121,0,2.071-1.284,2.11-2.854l.187-7.507c.039-1.57-.847-2.854-1.968-2.854" transform="translate(-347.741 -90.541)" fill="#3d3d3d"/><path d="M652.765,178.358l.216-8.682a.971.971,0,0,0-.976-1H641.045a1.031,1.031,0,0,0-1.026,1l-.215,8.682a.971.971,0,0,0,.976,1h10.959a1.031,1.031,0,0,0,1.026-1" transform="translate(-349.202 -92.062)" fill="#bddfe0"/><g transform="translate(290.603 76.613)" opacity="0.21"><g clip-path="url(#e)"><path d="M652.926,171.832l.054-2.157a.971.971,0,0,0-.976-1h-4.865l-7.3,8.219-.036,1.464a.971.971,0,0,0,.976,1h4.82Z" transform="translate(-639.804 -168.675)" fill="#fff"/></g></g><g transform="translate(248.125 45.806)" opacity="0.4"><g clip-path="url(#f)"><path d="M571.905,125.78l-22.019-24.92-.957-.011a2.444,2.444,0,0,0-2.331,2.485l-.314,12.651,21.9,26.507h6.466a2.535,2.535,0,0,0,2.146-3.479Z" transform="translate(-546.284 -100.849)" fill="#fff"/></g></g><path d="M648.377,276.921h6.207a1.062,1.062,0,0,0,1.06-1.059V271.77a1.063,1.063,0,0,0-1.06-1.06h-6.207a1.063,1.063,0,0,0-1.06,1.06v4.092a1.063,1.063,0,0,0,1.06,1.059" transform="translate(-353.302 -147.752)" fill="#3d3d3d"/><path d="M650.535,276.921h6.207a1.063,1.063,0,0,0,1.06-1.059V271.77a1.063,1.063,0,0,0-1.06-1.06h-6.207a1.063,1.063,0,0,0-1.06,1.06v4.092a1.063,1.063,0,0,0,1.06,1.059" transform="translate(-354.48 -147.752)" fill="#474747"/><path d="M653.577,277.2h3.806a.729.729,0,0,0,.727-.727V274.5a.729.729,0,0,0-.727-.728h-3.806a.73.73,0,0,0-.727.728v1.972a.729.729,0,0,0,.727.727" transform="translate(-356.322 -149.425)" fill="#ea5615"/><path d="M446.382,342.847h70.645a1.159,1.159,0,0,0,1.156-1.156v-1.433a1.159,1.159,0,0,0-1.156-1.156H446.382a1.16,1.16,0,0,0-1.156,1.156v1.433a1.16,1.16,0,0,0,1.156,1.156" transform="translate(-243.002 -185.08)" fill="#3f3f3f"/><path d="M380.149,0H263.165c-2.9,0,1.119,2.284,1.038,5.184l-2.9,146.529c-.086,3.092-2.188,5.42.906,5.42,3.312,0,6.67-1.009,9.977-.832,3.473.186,7.212-1.187,8.692-4.686.563-1.33.683-2.817,1.264-4.139a12.836,12.836,0,0,1,3-3.8c2.767-2.713,5.6-5.471,9.069-7.193a30.354,30.354,0,0,1,11.175-2.6c3.636-.287,7.47-.3,10.707,1.383a4.456,4.456,0,0,1,1.681,1.347,6.843,6.843,0,0,1,.7,1.61A29.272,29.272,0,0,0,323,145.721a33.324,33.324,0,0,0,6.337,6.962c4.463,3.342,9.314,2.122,14.465,2.441l32.446,2.008a5.315,5.315,0,0,0,5.334-5.183L385.671,5.674A5.542,5.542,0,0,0,380.149,0" transform="translate(-142.193)" fill="#ffb327"/><path d="M135.782,157.132H39.3c-2.812,0-4.58-2.321-4.5-5.133L39.011,9.979A10.284,10.284,0,0,1,49.29,0H153.435S144.7,2.777,144.7,10.03l-4.115,142.431a4.805,4.805,0,0,1-4.8,4.671" transform="translate(-18.992)" fill="#ffc569"/><path d="M53.155,21.552,49.608,162.685c-.069,2.467,1.482,4.5,3.95,4.5H138.23a4.217,4.217,0,0,0,4.215-4.1L146.42,21.552Z" transform="translate(-27.075 -11.763)" fill="#ef9411"/><path d="M146.475,214.335l3.373-102.294H59.739L57.225,212.073c-.069,2.467,1.483,4.5,3.95,4.5h84.672c2.283,0,3.4.04.628-2.242" transform="translate(-31.232 -61.151)" fill="#5b5b5b"/><g transform="translate(28.436 50.89)" opacity="0.45"><g clip-path="url(#g)"><path d="M149.414,214.335l3.373-102.294-90.18,2.815,86.179,101.722c2.283,0,3.4.04.628-2.242" transform="translate(-62.607 -112.041)" fill="#424242"/></g></g><path d="M151.3,65.512l1.135-43.959h-91.9L59.471,65.512Z" transform="translate(-32.459 -11.763)" fill="#ffb327"/><path d="M57.483,21.552l1.792,2.234,92.071.271v-2.5Z" transform="translate(-31.374 -11.763)" fill="#ef9411"/><path d="M152.012,47.114l-92.54-.063V44.6l92.672.063Z" transform="translate(-32.459 -24.343)" fill="#ef9411"/><path d="M151.8,70.381l-92.332-.055v-2.45h92.417Z" transform="translate(-32.459 -37.046)" fill="#ef9411"/><path d="M151.705,93.6H59.471V91.15H151.8Z" transform="translate(-32.459 -49.749)" fill="#ef9411"/><path d="M152.738,106.922H137.347a.8.8,0,0,1-.793-.871l.1-1.022a.8.8,0,0,1,.793-.722h15.391a.8.8,0,0,1,.793.871l-.1,1.021a.8.8,0,0,1-.793.722" transform="translate(-74.529 -56.931)" fill="#ef9411"/><path d="M177.124,310.211l-6.849-14.862a13.7,13.7,0,0,0-12.439-7.964H139.858A13.769,13.769,0,0,0,128.093,294l-9.328,15.341,45.687,1.8c-.258-.257,13.126-.561,12.672-.935" transform="translate(-64.821 -156.854)" fill="#7a7a7a"/><path d="M153.63,294.012,144.3,309.351l37.986,1.5c3.829-.186,9.061-.395,8.774-.63l-6.849-14.858a13.694,13.694,0,0,0-12.439-7.961h-6.379a13.765,13.765,0,0,0-11.764,6.612" transform="translate(-78.759 -156.861)" fill="#707070"/><path d="M33.826,287.385l-3.248.006a1.5,1.5,0,0,1-1.558-1.507l.947-25.118a1.512,1.512,0,0,1,1.552-1.4l3.248-.006a1.5,1.5,0,0,1,1.558,1.506l-.946,25.119a1.512,1.512,0,0,1-1.552,1.4" transform="translate(-15.838 -141.555)" fill="#efefef"/><path d="M268.037,287.385l-6.679.006a1.5,1.5,0,0,1-1.558-1.507l.947-25.118a1.512,1.512,0,0,1,1.552-1.4l6.678-.006a1.5,1.5,0,0,1,1.558,1.506l-.946,25.119a1.512,1.512,0,0,1-1.552,1.4" transform="translate(-141.797 -141.555)" fill="#fff"/><path d="M273.514,259.356l-4.422,0-.98,28.028,4.462,0a1.512,1.512,0,0,0,1.552-1.4l.946-25.119a1.5,1.5,0,0,0-1.558-1.506" transform="translate(-146.334 -141.555)" fill="#f4f4f4"/><path d="M271.379,264.368l.132-3.506a1.5,1.5,0,0,0-1.558-1.506l-6.678.006a1.512,1.512,0,0,0-1.552,1.4l-.136,3.6Z" transform="translate(-142.773 -141.555)" fill="#ea5615"/><path d="M259.947,309.236l-.146,3.873a1.5,1.5,0,0,0,1.558,1.507l6.678-.006a1.511,1.511,0,0,0,1.552-1.4l.15-3.969Z" transform="translate(-141.797 -168.779)" fill="#ea5615"/><path d="M268.037,287.385l-6.679.006a1.5,1.5,0,0,1-1.558-1.507l.947-25.118a1.512,1.512,0,0,1,1.552-1.4l6.678-.006a1.5,1.5,0,0,1,1.558,1.506l-.946,25.119A1.512,1.512,0,0,1,268.037,287.385Z" transform="translate(-141.797 -141.555)" fill="none" stroke="#515151" stroke-miterlimit="10" stroke-width="4"/><path d="M37.151,264.573l.14-3.71a1.5,1.5,0,0,0-1.558-1.506l-3.248.005a1.512,1.512,0,0,0-1.552,1.4l-.143,3.806Z" transform="translate(-16.805 -141.556)" fill="#ea5615"/><path d="M235.423,201.163l-.606,15.559,10.112.036.513-15.558Z" transform="translate(-128.162 -109.794)" fill="#aa8f74"/><path d="M226.285,217.25l-19.032-.069.606-16.119,18.719.069Z" transform="translate(-113.118 -109.738)" fill="#c1a685"/><path d="M29.171,308.967l-.15,4a1.5,1.5,0,0,0,1.558,1.507l3.248-.006a1.512,1.512,0,0,0,1.552-1.4l.154-4.092Z" transform="translate(-15.839 -168.632)" fill="#ea5615"/><path d="M38.184,255.374a2.452,2.452,0,0,0-1.238-.312H34.9a.987.987,0,0,0-.987.984v.058a.906.906,0,0,0,.9.909l2.134.01h0a.576.576,0,0,1,.575.6l-.946,26.835c-.011.322-.191.447-.524.465l-2.273-.027a.764.764,0,0,0-.766.761c0,.2,0,.407,0,.611a.764.764,0,0,0,.919.741l2.075-.014a2.527,2.527,0,0,0,2.529-2.446l.947-26.857a2.55,2.55,0,0,0-1.3-2.314" transform="translate(-18.02 -139.211)" fill="#515151"/><path d="M196.329,233.4v45.875h26.1L223.96,233.4Z" transform="translate(-107.155 -127.389)" fill="#b2997c"/><g transform="translate(99.968 106.012)" opacity="0.22"><g clip-path="url(#h)"><path d="M220.1,233.4l16.235,18.149.6-18.149Z" transform="translate(-220.095 -233.4)" fill="#424242"/></g></g><path d="M175.588,279.72H141.281l.49-46.278h33.817Z" transform="translate(-77.11 -127.411)" fill="#ceb897"/><g transform="translate(64.2 124.345)" opacity="0.09"><g clip-path="url(#i)"><path d="M141.811,273.764l-.227.308-.238,27.233,34.3.133-.026-14.759-10.786-12.821Z" transform="translate(-141.346 -273.764)" fill="#424242"/></g></g><path d="M156.336,301.053l-30.25-.121.947-27.228,29.269.121Z" transform="translate(-68.817 -149.386)" fill="#b2997c"/><path d="M112.745,301.857l-29.76-.122.947-28.208,29.269.121Z" transform="translate(-45.293 -149.29)" fill="#d8c1a3"/><path d="M257.112,309.837a2.106,2.106,0,0,0-2.1-2.107l-50.628-.088a2.63,2.63,0,0,1-2.551-1.779l-3.792-10.825a11.507,11.507,0,0,0-10.979-7.759l-17.736-.037H169.3a13.146,13.146,0,0,0-11.327,6.77l-7.142,12.565a3.7,3.7,0,0,1-3.1,1.937h-.006l-117.936-.243a2.106,2.106,0,0,0-2.111,2.1l-.005,2.649a2.106,2.106,0,0,0,2.1,2.11l117.936.243h.021a10.517,10.517,0,0,0,9.069-5.408l7.142-12.565a6.363,6.363,0,0,1,5.362-3.3h.011l17.736.037a4.664,4.664,0,0,1,4.518,3.166l3.792,10.825a9.448,9.448,0,0,0,9.012,6.372l50.634.088a2.106,2.106,0,0,0,2.11-2.107Z" transform="translate(-15.1 -156.776)" fill="#ffb327"/><path d="M381.827,307.73l-50.628-.088a2.63,2.63,0,0,1-2.551-1.779l-3.792-10.825a11.507,11.507,0,0,0-10.98-7.759l-17.735-.037h-.027a13.146,13.146,0,0,0-11.327,6.77l-7.142,12.565a3.7,3.7,0,0,1-3.1,1.937h-.006l-11.993-.025a2.518,2.518,0,0,0-2.523,2.518v2.144a2.2,2.2,0,0,0,2.194,2.2l12.308.025h.021a10.518,10.518,0,0,0,9.069-5.408l7.142-12.565a6.362,6.362,0,0,1,5.362-3.3h.011l17.736.037a4.663,4.663,0,0,1,4.518,3.166l3.792,10.825a9.448,9.448,0,0,0,9.012,6.372l50.634.088a2.106,2.106,0,0,0,2.11-2.106v-2.648a2.106,2.106,0,0,0-2.1-2.107" transform="translate(-141.917 -156.776)" fill="#ffbc50"/><path d="M394.962,76.332H306.528a1.367,1.367,0,0,1-1.363-1.363v-.216a1.367,1.367,0,0,1,1.363-1.363h88.435a1.367,1.367,0,0,1,1.363,1.363v.216a1.367,1.367,0,0,1-1.363,1.363" transform="translate(-166.557 -40.056)" fill="#ffbc50"/><path d="M390.646,221.823H302.212a1.367,1.367,0,0,1-1.363-1.363v-.216a1.367,1.367,0,0,1,1.363-1.363h88.435a1.367,1.367,0,0,1,1.363,1.363v.216a1.367,1.367,0,0,1-1.363,1.363" transform="translate(-164.202 -119.465)" fill="#ffbc50"/><path d="M50.344,130.808s3.922-3.036,3.513-4.017-8.985-1.413-13.764.3,2.328,6.453,2.328,6.453Z" transform="translate(-20.981 -68.732)" fill="#c6321e"/><path d="M14.538,198.423S1.265,204.11.162,198.938,3.7,183.1,10.7,178.874Z" transform="translate(0 -97.628)" fill="#e79d84"/><g transform="translate(0.081 81.246)" opacity="0.59"><g clip-path="url(#j)"><path d="M10.794,178.874a22.387,22.387,0,0,0-7.3,7.815c1.946-.287,4.171,1.058,3.7,3.555-.044.233-.1.456-.156.673a3.643,3.643,0,0,1,1.222,2.149c.694,3.791-4.282,8.28-7.746,5.688a4.291,4.291,0,0,1-.343-.286c.023.161.049.318.081.47,1.1,5.172,14.376-.515,14.376-.515Z" transform="translate(-0.178 -178.874)" fill="#db8f7b"/></g></g><path d="M74.834,139.636l4.411,26.423L59.966,180.478l-13.4-6.282s-33.412-22.041-33-22.307c1.224-.795,61.263-12.253,61.263-12.253" transform="translate(-7.405 -76.213)" fill="#b2997c"/><path d="M31.709,139.295l43.13.083L55.723,151.606l-42.148.1Z" transform="translate(-7.409 -76.026)" fill="#ceb897"/><path d="M59.971,195.2H17.823l-4.248-28.59H55.723Z" transform="translate(-7.409 -90.936)" fill="#9f856c"/><path d="M86.812,361.857,85.7,368.631l2.517,4.468-8.247-1.307.965-10.58Z" transform="translate(-43.646 -197.147)" fill="#5f6468"/><g transform="translate(36.699 164.064)" opacity="0.08"><g clip-path="url(#k)"><path d="M83.2,367.777a10.184,10.184,0,0,1,3.181,1.265l-.231-.411,1.116-6.774-5.88-.645-.588,6.441a7.745,7.745,0,0,1,2.4.124" transform="translate(-80.799 -361.212)"/></g></g><path d="M81.729,389.051a91.118,91.118,0,0,0,15.42-.5c0-.248.007-.549.013-.919.028-2.034-.684-2.518-3.675-2.236-2.192.207-5.675-3.51-7.608-5.6-1.417.13.319,2.018-1.385,2.362a5.117,5.117,0,0,1-3.193-1.173c-.977-1.075-3-.831-3.216.521a36.85,36.85,0,0,0-.349,6.988.888.888,0,0,0,.748.881s.686.032,1.874.1a2.335,2.335,0,0,1,1.371-.426" transform="translate(-42.406 -207.29)" fill="#4b515b"/><g transform="translate(40.995 172.505)" opacity="0.52"><g clip-path="url(#l)"><path d="M91.073,383.074a6.669,6.669,0,0,1,1.1,3.295,6.2,6.2,0,0,1-.49,2.745,74.535,74.535,0,0,0,12.325-.56c0-.248.007-.549.013-.919.028-2.034-.685-2.518-3.675-2.236-2.192.207-5.675-3.509-7.608-5.6-1.417.13.319,2.018-1.385,2.362a2.539,2.539,0,0,1-1.094-.11l.01.012a11.9,11.9,0,0,1,.806,1.015" transform="translate(-90.257 -379.796)" fill="#434851"/></g></g><path d="M44,360.714l-2.7,7.83,1.715,4.057-7.37-1.307,2.47-10.995Z" transform="translate(-19.459 -196.65)" fill="#5f6468"/><g transform="translate(17.132 163.65)" opacity="0.08"><g clip-path="url(#m)"><path d="M42.452,368.5l2.68-7.784-5.881-.414-1.532,6.817a7.591,7.591,0,0,1,4.733,1.381" transform="translate(-37.719 -360.299)"/></g></g><path d="M36.845,380.985a4.3,4.3,0,0,0,2.854,1.173c1.523-.343-.029-2.231,1.238-2.362,1.727,2.094,4.84,5.811,6.8,5.6,2.672-.282,3.309.2,3.284,2.236l-.025,2.033a33.953,33.953,0,0,1-8.471.346c-4.783-.465-8.2-.64-8.2-.64a.862.862,0,0,1-.668-.881,41.225,41.225,0,0,1,.312-6.989c.2-1.351,2-1.6,2.874-.521" transform="translate(-18.351 -207.29)" fill="#4b515b"/><g transform="translate(20.37 172.505)" opacity="0.52"><g clip-path="url(#n)"><path d="M53.862,385.4c-1.959.207-5.072-3.51-6.8-5.6-1.267.13.286,2.018-1.237,2.362a2.043,2.043,0,0,1-.978-.11l.009.012a11.742,11.742,0,0,1,.721,1.015,7.215,7.215,0,0,1,.981,3.295,6.835,6.835,0,0,1-.719,3.391c.866.073,1.806.157,2.812.255a33.932,33.932,0,0,0,8.471-.346l.025-2.033c.025-2.034-.611-2.518-3.284-2.236" transform="translate(-44.847 -379.796)" fill="#434851"/></g></g><path d="M21.478,147.281a2.386,2.386,0,0,1,1.769,4.213,2.386,2.386,0,0,1-1.769-4.213" transform="translate(-11.224 -80.33)" fill="#de8f78"/><path d="M44.886,165.89l-6.283,1.7-.4-7.686a2.611,2.611,0,0,1,2.319-2.9l.649-.045a2.705,2.705,0,0,1,2.777,2.55Z" transform="translate(-20.848 -85.66)" fill="#e79d84"/><path d="M61.967,143.562c.941.042,1.658,1.1,1.6,2.368s-.865,2.258-1.806,2.216-1.658-1.1-1.6-2.368.865-2.258,1.806-2.216" transform="translate(-32.833 -78.355)" fill="#e79d84"/><path d="M29.885,125.32l3.123-.357a7.548,7.548,0,0,1,8.332,6.621l.645,5.639a7.548,7.548,0,0,1-6.621,8.332l-3.122.357a7.547,7.547,0,0,1-8.332-6.62l-.646-5.639a7.548,7.548,0,0,1,6.621-8.332" transform="translate(-12.671 -68.177)" fill="#e79d84"/><path d="M23.141,126.637c-.073.047-.07.03-.009-.034l.009.034" transform="translate(-12.6 -69.099)" fill="#6d4d4b"/><path d="M39.69,135.657a17.225,17.225,0,0,1-2.355-.119,3.164,3.164,0,0,1-2.046-1.257c-.034-.042-.061-.087-.092-.13H23.472a8.525,8.525,0,0,1-.024.95,15.763,15.763,0,0,1-.337,1.9,3,3,0,0,1-1.491,2.011c.216.731.423,1.569.588,2.153.771,2.729,1.316,4.806,2.914,5.477,2.693,1.132,6.694.483,9.2-.006,4.184-.817,4.031-4.841,4.853-7.088a2.147,2.147,0,0,1,1.493-1.213,5.267,5.267,0,0,0,.084-.526c.064-.715.074-1.533.08-2.385a3.791,3.791,0,0,1-1.139.235" transform="translate(-11.8 -73.218)" fill="#4f372d"/><g transform="translate(9.82 60.932)" opacity="0.15"><g clip-path="url(#o)"><path d="M39.69,135.657a17.225,17.225,0,0,1-2.355-.119,3.164,3.164,0,0,1-2.046-1.257c-.034-.042-.061-.087-.092-.13H23.472a8.525,8.525,0,0,1-.024.95,15.763,15.763,0,0,1-.337,1.9,3,3,0,0,1-1.491,2.011c.216.731.423,1.569.588,2.153.771,2.729,1.316,4.806,2.914,5.477,2.693,1.132,6.694.483,9.2-.006,4.185-.817,4.031-4.841,4.853-7.088a2.147,2.147,0,0,1,1.493-1.213c.013-.1.03-.28.047-.521.064-.719.127-1.547.166-2.408a3.81,3.81,0,0,1-1.188.253" transform="translate(-21.62 -134.15)"/></g></g><path d="M46.576,176.512c-.558-1.855-4.654-3.714-13.914-3.734-1.381.8-5.072,1.12-6.184.376a19.037,19.037,0,0,0-6.9,2.393c-1.423.905-4.03,4.854-3.116,7.577.562,1.675,6.765,19.172,6.765,19.172s23.8,2.225,22.758-2.79c-1.2-5.752.115-11.488.667-15.683a19.908,19.908,0,0,0-.074-7.311" transform="translate(-8.88 -94.301)" fill="#d8462a"/><path d="M54.059,215.546s-8.569-.572-10.742-6.023a22.571,22.571,0,0,1-1.535-6.834l-2.99.068a2.293,2.293,0,0,1-1.673,2.466c-1.245.3-2.118-.894-2.354-1.505l-2.857.893a30.8,30.8,0,0,1,1.479,8.8c.063,1.742-1.84,3.765-3.542,4.146V226s-.176,7.384,3.7,10.353c4.451,3.411,24.955-3.132,24.911-3.264-4.119-12.393-4.4-17.545-4.4-17.545" transform="translate(-16.289 -110.626)" fill="#596e9e"/><path d="M44.48,172.737c.1-.282-3-.659-3.59-.193-3.618,3.628-2.5,13.344-2.3,15.982a9.974,9.974,0,0,1-1.524,3.781,6.828,6.828,0,0,1-1.484-2.42c-4.74-10.718-3.023-15.532-2.506-16.9-.088-.34-2.977.4-3.117.841-1.488,3.06-.728,9.079,2.891,17.264.859,1.943,2.262,4.5,4.515,4.25.072-.008.144-.019.214-.032,2.529-.492,3.623-4.612,3.981-6.4l.04-.2-.016-.208c-.486-6.135.207-13.746,2.9-15.768" transform="translate(-15.957 -94.054)" fill="#596e9e"/><path d="M77.735,310.075l-8.861-.648a.74.74,0,0,1-.679-.858c1.5-9.073,3.434-22.662,3.483-24.994-.629-2.58-5.6-10.089-10.016-19.956l12.2-7.3c.861,3.348,7.636,21.612,8.1,26.7.318,3.461-2.209,20.452-3.148,26.2a1.018,1.018,0,0,1-1.081.85" transform="translate(-33.655 -139.897)" fill="#596e9e"/><path d="M30.24,260.02c1.971,11.755,7.072,19.629,6.872,24.853-.088,2.28-3.5,17.491-5.559,25.663a.885.885,0,0,0,.754,1.095l8.3,1a.993.993,0,0,0,1.082-.74c1.232-4.826,5.319-22.654,5.679-26.138.208-2,1.873-4.463-4.07-20.64-.609-.023-9.87-4.926-13.061-5.093" transform="translate(-16.505 -141.917)" fill="#596e9e"/><g transform="translate(13.787 104.89)" opacity="0.06"><g clip-path="url(#p)"><path d="M45.578,251.944c4.138,8.784,8.43,15.387,9.011,17.774-.005.272-.038.7-.091,1.26a5.039,5.039,0,0,1,3.3-2.248,5.719,5.719,0,0,1,6.064,3.707,14.75,14.75,0,0,1,.721,2.16,36.734,36.734,0,0,0,.294-5.433c-.332-3.606-3.828-13.821-6.145-20.662-4.118-12.39-4.394-17.542-4.394-17.542s-.114-.009-.307-.029c.588,3.793,1.11,8.015-1.113,11.389-1.823,2.766-4.952,3.661-8.119,3.669-1.5,0-3.009-.167-4.509-.074-1.959.12-3.888.869-5.867.619a5,5,0,0,1-4.049-2.832c.016.194.035.4.06.615h-.078a10.85,10.85,0,0,0,.39,2.064c2.171,10.437,6.551,17.607,6.442,22.49,2.179-1.561,5.158-1.947,7.321-.033A6.827,6.827,0,0,1,46.717,274c.373-1.879.636-3.354.716-4.125.194-1.877,1.666-4.154-3.03-17.725q.585-.1,1.175-.207" transform="translate(-30.353 -230.931)"/></g></g><path d="M91.63,192.643s10.765,8.9,12.62,9.067a15.892,15.892,0,0,0,8.292-1.558l1.308-.978a7.794,7.794,0,0,1-.941,3.619c-1.275,1.991-7.841,7.406-12.375,6.753s-13.315-8.754-13.315-8.754Z" transform="translate(-47.604 -105.143)" fill="#e79d84"/><g transform="translate(39.615 87.5)" opacity="0.59"><g clip-path="url(#q)"><path d="M95.005,195.365c-1.925-1.524-3.375-2.722-3.375-2.722l-4.411,8.148s.71.655,1.829,1.606a11.856,11.856,0,0,0,5.958-7.032" transform="translate(-87.219 -192.643)" fill="#db8f7b"/></g></g><g transform="translate(50.478 94.03)" opacity="0.59"><g clip-path="url(#r)"><path d="M125.6,208a15.892,15.892,0,0,1-8.292,1.558,1.261,1.261,0,0,1-.208-.049,5.028,5.028,0,0,1,.144,4.41c-1.144,2.365-3.769,2.722-6.105,2.644a9.022,9.022,0,0,0,2.453.83c4.533.653,11.1-4.762,12.375-6.753a7.792,7.792,0,0,0,.941-3.619Z" transform="translate(-111.135 -207.022)" fill="#db8f7b"/></g></g><path d="M80.475,183.987c-2.952-2.577-9.72-8.659-13.754-9.187l-4.954,9.759a48.444,48.444,0,0,0,12.173,8.026c3.227-.9,6.535-6.351,6.535-8.6" transform="translate(-33.712 -95.405)" fill="#d8462a"/><path d="M13.633,192.45c.585-.508,1.278-1.037,1.953-1.6l-2.354-11.977c-3.678,2.223-6.7,6.223-8.586,10.269a19.792,19.792,0,0,0,7,5.665c.6-.531,1.389-1.835,1.991-2.357" transform="translate(-2.536 -97.628)" fill="#d8462a"/><path d="M29.03,114.676c-11.32,1.287-8.017,13.686-8.017,13.686a7.774,7.774,0,0,0,2.77.616,5.233,5.233,0,0,1,.581-2.97,3.93,3.93,0,0,1,5.792-1.524,5.009,5.009,0,0,1,1.728,3.389c.054.3.073.613.1.922,5.9-.94,8.6-4.193,8.6-4.193s.655-11.314-11.557-9.925" transform="translate(-11.224 -62.525)" fill="#d8462a"/><g transform="translate(9.342 53.224)" opacity="0.07"><g clip-path="url(#s)"><path d="M36.175,117.18a4.091,4.091,0,0,1,.148,1.9c-.581,4.258-5.835,5.69-9.412,5.63a11.928,11.928,0,0,1-6.02-1.816,16.184,16.184,0,0,0,.123,6.9,7.779,7.779,0,0,0,2.771.616,5.237,5.237,0,0,1,.581-2.97,3.93,3.93,0,0,1,5.792-1.524,5.01,5.01,0,0,1,1.728,3.389c.054.3.073.614.1.922,5.9-.94,8.6-4.193,8.6-4.193s.352-6.194-4.413-8.852" transform="translate(-20.567 -117.18)"/></g></g><path d="M25.957,144.139l.132-1.438a21.126,21.126,0,0,0,9.08-.188l.287,1.447a19.949,19.949,0,0,1-9.5.179" transform="translate(-14.167 -77.783)" fill="#ddd7d0"/><path d="M42.32,400.379c-4.232,0-8.091-.043-9.668-.063a.749.749,0,0,1-.74-.763l.009-.591a.608.608,0,0,1,.621-.6c2.779.06,14.212.283,17.445-.077a.457.457,0,0,1,.508.475l-.024.54a.461.461,0,0,1-.335.427,30.637,30.637,0,0,1-7.816.654" transform="translate(-17.417 -217.379)" fill="#878e91"/><path d="M87.788,400.379c-4.731,0-9.046-.043-10.809-.063a.793.793,0,0,1-.827-.763l.01-.591a.651.651,0,0,1,.695-.6c3.108.06,15.889.283,19.5-.077a.489.489,0,0,1,.567.475l-.026.54a.475.475,0,0,1-.375.427,38.186,38.186,0,0,1-8.739.654" transform="translate(-41.563 -217.379)" fill="#878e91"/></g></g></svg>