<svg xmlns="http://www.w3.org/2000/svg" xmlns:xlink="http://www.w3.org/1999/xlink" width="318.43" height="263.369" viewBox="0 0 318.43 263.369"><defs><clipPath id="a"><path d="M103.147,168.288-43.311,252.846l5.871,3.389,146.457-84.557-5.871-3.389Z" transform="translate(43.311 -168.288)" fill="none"/></clipPath><clipPath id="c"><path d="M313.4,290.116l-137.868,79.6v60.154L313.4,350.27Z" transform="translate(-175.529 -290.116)" fill="none"/></clipPath><clipPath id="d"><path d="M-25.514,314.7,24.55,292.08l52.094,81.6-5.106-2.948v60.154l-97.053-56.034Z" transform="translate(25.514 -292.08)" fill="none"/></clipPath><clipPath id="e"><path d="M44.737,464.745,5.881,442.311V431.464l20.191-25.88,19.242,17.543v41.636Z" transform="translate(-5.881 -405.583)" fill="none"/></clipPath><clipPath id="g"><path d="M-25.514,321.237,20.278,298.21l1.619,5.121-40.4,17.813-7.015,1.029Z" transform="translate(25.514 -298.21)" fill="none"/></clipPath><clipPath id="h"><path d="M320.928,329.4a5.095,5.095,0,0,0-7.642-4.412l-93.828,54.172A21.054,21.054,0,0,0,208.931,397.4v32.058l112-64.661Z" transform="translate(-208.931 -324.309)" fill="none"/></clipPath><clipPath id="i"><path d="M208.931,426.742l95.6-55.194,16.4,9.467v8.213l-112,64.661Z" transform="translate(-208.931 -371.547)" fill="none"/></clipPath><clipPath id="k"><path d="M281.641,400.835l12.473-7.2v18.175l-12.473,7.2Z" transform="translate(-281.641 -393.633)" fill="none"/></clipPath><clipPath id="m"><path d="M406.964,347.112V330.046l8.756-5.055a5.095,5.095,0,0,1,7.641,4.412v27.179Z" transform="translate(-406.964 -324.308)" fill="none"/></clipPath><clipPath id="o"><path d="M451.347,359.169V317.7a1.581,1.581,0,0,1,.79-1.369l8.161-4.712v-6.868a1.581,1.581,0,1,1,3.161,0v7.781a1.581,1.581,0,0,1-.79,1.369l-8.161,4.712v37.823l.824-.476a1.581,1.581,0,0,1,1.58,2.738l-3.188,1.841a1.581,1.581,0,0,1-2.322-.956,1.544,1.544,0,0,1-.054-.415Z" transform="translate(-451.347 -303.172)" fill="none"/></clipPath><clipPath id="p"><path d="M322,294.645,175.547,379.2l5.871,3.389,146.457-84.557L322,294.644Z" transform="translate(-175.547 -294.644)" fill="none"/></clipPath><clipPath id="r"><path d="M143.778,470.374a12.051,12.051,0,0,0-6.025-10.435l-4.353-2.513a4.869,4.869,0,0,0-7.3,4.217v32.04l17.682,10.209V470.374Z" transform="translate(-126.096 -456.774)" fill="none"/></clipPath><clipPath id="s"><path d="M142.561,458.892l3.708,2.141a12.051,12.051,0,0,1,4.832,5.207l-8.54,4.931Z" transform="translate(-142.561 -458.892)" fill="none"/></clipPath><clipPath id="t"><path d="M306.528,252.456l-22.9.628-22.9,25.82v20.242L306.528,272.7V252.455Z" transform="translate(-260.72 -252.455)" fill="none"/></clipPath><clipPath id="u"><path d="M282.058,287.7l10.112-5.838v15.118l-10.112,5.838Z" transform="translate(-282.058 -281.863)" fill="none"/></clipPath><clipPath id="v"><path d="M313.329,269.647l10.112-5.838v15.118l-10.112,5.838Z" transform="translate(-313.329 -263.808)" fill="none"/></clipPath><clipPath id="w"><path d="M217.946,282.545l20.65,11.924v20.243l-.415-.241Z" transform="translate(-217.946 -282.545)" fill="none"/></clipPath><clipPath id="x"><path d="M61.757,343.917,47.863,335.9v20.773l13.894,8.02Z" transform="translate(-47.863 -335.895)" fill="none"/></clipPath><clipPath id="y"><path d="M50.553,346.247v-8.8l12.6,7.272v8.8Z" transform="translate(-50.553 -337.447)" fill="none"/></clipPath><clipPath id="aa"><path d="M76.255,430.735l-16.491-9.521v24.656l16.491,9.521Z" transform="translate(-59.764 -421.213)" fill="none"/></clipPath><clipPath id="ab"><path d="M76.348,434.809l-13.894-8.022V447.56l13.894,8.022Z" transform="translate(-62.454 -426.787)" fill="none"/></clipPath><clipPath id="ac"><path d="M65.143,437.387v-9.047l12.6,7.272v9.048Z" transform="translate(-65.143 -428.339)" fill="none"/></clipPath><clipPath id="ae"><path d="M23.766,409.444,4.371,426.07V466.1l19.4-11.2Z" transform="translate(-4.371 -409.444)" fill="none"/></clipPath><clipPath id="af"><path d="M13.986,442.473,24.1,436.634v15.12l-10.112,5.838Z" transform="translate(-13.986 -436.634)" fill="none"/></clipPath><clipPath id="ag"><path d="M-29.9,424.1l-31.986-18.467v40.034L-29.9,464.13Z" transform="translate(61.889 -405.629)" fill="none"/></clipPath><clipPath id="ah"><path d="M-32.515,428.432l-13.894-8.022v20.774l13.894,8.022Z" transform="translate(46.409 -420.41)" fill="none"/></clipPath><clipPath id="aj"><path d="M60.848,259.724l-5.759,3.325,5.1,2.945,5.759-3.325Z" transform="translate(-55.088 -259.724)" fill="none"/></clipPath><clipPath id="ak"><path d="M54.774,250.049a10.342,10.342,0,0,1,9.351,0c2.58,1.49,2.581,3.91,0,5.4a10.345,10.345,0,0,1-9.351,0C52.193,253.958,52.193,251.538,54.774,250.049Z" transform="translate(-52.839 -248.932)" fill="none"/></clipPath></defs><g transform="translate(-1001.025 -2238.083)"><circle cx="105.609" cy="105.609" r="105.609" transform="translate(1041.043 2252.42)" fill="#ffb327"/><g transform="translate(1001.025 2238.083)"><g transform="translate(13.159 22.193)"><g transform="translate(0)"><g clip-path="url(#a)"><g transform="translate(146.091 0.211)"><path d="M259.315,168.725l5.871,3.389c0,1.871-1.315,2.63-2.936,1.695a6.491,6.491,0,0,1-2.936-5.084Z" transform="translate(-259.315 -168.725)" fill="#fff4df" fill-rule="evenodd"/></g></g></g></g><g transform="translate(13.159 22.192)"><path d="M103.146,168.288-43.311,252.845l5.871,3.389,146.457-84.557-5.871-3.389Z" transform="translate(43.311 -168.288)" fill="#edeced" fill-rule="evenodd"/></g><g transform="translate(13.159 22.193)"><g transform="translate(0)"><g clip-path="url(#a)"><g transform="translate(2.935 -0.001)"><path d="M-33.266,261.317l152.7-88.159-7.266-4.872L-37.23,254.539l3.963,6.779Z" transform="translate(37.23 -168.286)" fill="#58595b" fill-rule="evenodd"/><path d="M260.073,168.288l5.871,3.389c0,1.871-1.315,2.63-2.936,1.695a6.491,6.491,0,0,1-2.936-5.084Z" transform="translate(-116.551 -168.287)" fill="#fff4df" fill-rule="evenodd"/></g></g></g></g><g transform="translate(21.75 81.004)"><path d="M112.354,298.65l-137.868,79.6,97.053,56.033,137.866-79.6L112.352,298.65Z" transform="translate(25.514 -294.53)" fill="#ffdd9f" fill-rule="evenodd"/><path d="M313.4,290.116l-137.868,79.6v60.154L313.4,350.27Z" transform="translate(-78.476 -290.116)" fill="#b8b8b8" fill-rule="evenodd"/></g><g transform="translate(118.803 81.004)"><g transform="translate(0 0)"><g clip-path="url(#c)"><g transform="translate(-0.871 2.853)"><path d="M316.678,405.121,173.724,487.656v1.164l142.954-82.535v-1.164Z" transform="translate(-173.724 -352.456)" fill="#a8a8a8" fill-rule="evenodd"/><path d="M316.678,394.212,173.724,476.747v1.167l142.954-82.535v-1.167Z" transform="translate(-173.724 -346.814)" fill="#a8a8a8" fill-rule="evenodd"/><path d="M316.678,383.3,173.724,465.837V467l142.954-82.535Z" transform="translate(-173.724 -341.17)" fill="#a8a8a8" fill-rule="evenodd"/><path d="M316.678,372.391,173.724,454.926v1.163l142.954-82.535V372.39Z" transform="translate(-173.724 -335.526)" fill="#a8a8a8" fill-rule="evenodd"/><path d="M316.678,361.483,173.724,444.018v1.164l142.954-82.535v-1.164Z" transform="translate(-173.724 -329.884)" fill="#a8a8a8" fill-rule="evenodd"/><path d="M316.678,350.574,173.724,433.109v1.164l142.954-82.535Z" transform="translate(-173.724 -324.242)" fill="#a8a8a8" fill-rule="evenodd"/><path d="M316.678,339.664,173.724,422.2v1.164L316.678,340.83Z" transform="translate(-173.724 -318.598)" fill="#a8a8a8" fill-rule="evenodd"/><path d="M316.678,328.755,173.724,411.29v1.164l142.954-82.535Z" transform="translate(-173.724 -312.956)" fill="#a8a8a8" fill-rule="evenodd"/><path d="M316.678,317.843,173.724,400.378v1.164l142.954-82.536v-1.164Z" transform="translate(-173.724 -307.311)" fill="#a8a8a8" fill-rule="evenodd"/><path d="M316.678,306.936,173.724,389.471v1.164L316.678,308.1v-1.164Z" transform="translate(-173.724 -301.67)" fill="#a8a8a8" fill-rule="evenodd"/><path d="M316.678,296.027,173.724,378.561v1.164l142.954-82.535v-1.164Z" transform="translate(-173.724 -296.027)" fill="#a8a8a8" fill-rule="evenodd"/><path d="M452.422,323.4V365.99a1.175,1.175,0,1,1-2.35,0V323.1a1.177,1.177,0,0,1,.142-.56l3.312-6.113a1.175,1.175,0,0,1,2.067,1.12Z" transform="translate(-316.666 -306.261)" fill="#939393" fill-rule="evenodd"/></g></g></g></g><g transform="translate(21.75 81.952)"><path d="M-25.514,314.7,24.551,292.08l52.094,81.6-5.106-2.948v60.154L-25.514,374.85Z" transform="translate(25.514 -292.08)" fill="#fff" fill-rule="evenodd"/></g><g transform="translate(21.75 81.953)"><g transform="translate(0)"><g clip-path="url(#d)"><g transform="translate(-0.395 33.46)"><path d="M73.585,517.235l-99.918-57.688v1.536l99.918,57.688Z" transform="translate(26.333 -412.163)" fill="#fff" fill-rule="evenodd"/><path d="M73.585,504.969l-99.918-57.688v1.536L73.585,506.5Z" transform="translate(26.333 -405.818)" fill="#fff" fill-rule="evenodd"/><path d="M73.585,492.7l-99.918-57.688v1.536l99.918,57.688Z" transform="translate(26.333 -399.47)" fill="#fff" fill-rule="evenodd"/><path d="M73.585,480.427l-99.918-57.688v1.536l99.918,57.688v-1.536Z" transform="translate(26.333 -393.124)" fill="#fff" fill-rule="evenodd"/><path d="M73.585,468.157l-99.918-57.688V412l99.918,57.688v-1.536Z" transform="translate(26.333 -386.777)" fill="#fff" fill-rule="evenodd"/><path d="M73.585,455.887-26.333,398.2v1.536l99.918,57.688Z" transform="translate(26.333 -380.431)" fill="#fff" fill-rule="evenodd"/><path d="M73.585,443.618-26.333,385.93v1.536l99.918,57.688Z" transform="translate(26.333 -374.084)" fill="#fff" fill-rule="evenodd"/><path d="M73.585,431.349l-99.918-57.688V375.2l99.918,57.688Z" transform="translate(26.333 -367.738)" fill="#fff" fill-rule="evenodd"/><path d="M73.585,419.08l-99.918-57.688v1.536l99.918,57.688Z" transform="translate(26.333 -361.392)" fill="#fff" fill-rule="evenodd"/><path d="M5.882,463.558l39.433,1.2V423.126L26.073,405.583,5.882,431.463Z" transform="translate(9.67 -384.25)" fill="#f9fafa" fill-rule="evenodd"/></g></g></g></g><g transform="translate(36.906 136.746)"><g transform="translate(0 0)"><g clip-path="url(#e)"><g transform="translate(-15.551 -15.41)"><path d="M73.584,517.235l-99.918-57.688v1.536l99.918,57.688Z" transform="translate(26.334 -418.086)" fill="#a6a5a5" fill-rule="evenodd"/><path d="M73.584,504.97l-99.918-57.688v1.536l99.918,57.688Z" transform="translate(26.334 -411.742)" fill="#a6a5a5" fill-rule="evenodd"/><path d="M73.584,492.7l-99.918-57.688v1.536l99.918,57.688Z" transform="translate(26.334 -405.393)" fill="#a6a5a5" fill-rule="evenodd"/><path d="M73.584,480.427l-99.918-57.688v1.536l99.918,57.688v-1.536Z" transform="translate(26.334 -399.047)" fill="#a6a5a5" fill-rule="evenodd"/><path d="M73.584,468.158-26.334,410.47v1.536l99.918,57.688v-1.536Z" transform="translate(26.334 -392.701)" fill="#a6a5a5" fill-rule="evenodd"/><path d="M73.584,455.887-26.334,398.2v1.536l99.918,57.688Z" transform="translate(26.334 -386.353)" fill="#a6a5a5" fill-rule="evenodd"/><path d="M73.584,443.619l-99.918-57.688v1.536l99.918,57.688Z" transform="translate(26.334 -380.008)" fill="#a6a5a5" fill-rule="evenodd"/><path d="M73.584,431.349l-99.918-57.688V375.2l99.918,57.688Z" transform="translate(26.334 -373.661)" fill="#a6a5a5" fill-rule="evenodd"/></g></g></g></g><g transform="translate(21.75 81.953)"><g transform="translate(0)"><g clip-path="url(#d)"><g transform="translate(-2.627 -13.924)"><path d="M73.585,406.81l-99.918-57.688v1.536l99.918,57.688Z" transform="translate(28.565 -307.661)" fill="#fff" fill-rule="evenodd"/><path d="M73.585,394.542l-99.918-57.688v1.536l99.918,57.688Z" transform="translate(28.565 -301.316)" fill="#fff" fill-rule="evenodd"/><path d="M73.585,382.271l-99.918-57.688v1.536l99.918,57.688Z" transform="translate(28.565 -294.968)" fill="#fff" fill-rule="evenodd"/><path d="M73.585,370l-99.918-57.688v1.536l99.918,57.688Z" transform="translate(28.565 -288.622)" fill="#fff" fill-rule="evenodd"/><path d="M73.585,357.733l-99.918-57.688v1.536l99.918,57.688Z" transform="translate(28.565 -282.276)" fill="#fff" fill-rule="evenodd"/><path d="M73.585,345.463l-99.918-57.688v1.536L73.585,347Z" transform="translate(28.565 -275.929)" fill="#fff" fill-rule="evenodd"/><path d="M73.585,333.194l-99.918-57.688v1.536L73.585,334.73v-1.536Z" transform="translate(28.565 -269.583)" fill="#fff" fill-rule="evenodd"/><path d="M73.585,320.925l-99.918-57.688v1.536l99.918,57.688Z" transform="translate(28.565 -263.237)" fill="#fff" fill-rule="evenodd"/><path d="M-30.957,322.559l9.643-1.415,40.4-17.813-1.619-5.12-48.419,24.348Z" transform="translate(30.957 -281.327)" fill="#c8c8c8" fill-rule="evenodd"/></g></g></g></g><g transform="translate(21.75 84.912)"><g transform="translate(0)"><g clip-path="url(#g)"><g transform="translate(-0.395 -16.884)"><path d="M73.585,394.541l-99.918-57.688v1.536l99.918,57.688Z" transform="translate(26.333 -301.315)" fill="#bdbcbc" fill-rule="evenodd"/><path d="M73.585,382.271l-99.918-57.688v1.536l99.918,57.688Z" transform="translate(26.333 -294.968)" fill="#bdbcbc" fill-rule="evenodd"/><path d="M73.585,370l-99.918-57.688v1.536l99.918,57.688Z" transform="translate(26.333 -288.622)" fill="#bdbcbc" fill-rule="evenodd"/><path d="M73.585,357.732l-99.918-57.688v1.536l99.918,57.688Z" transform="translate(26.333 -282.275)" fill="#bdbcbc" fill-rule="evenodd"/><path d="M73.585,345.463l-99.918-57.688v1.536L73.585,347Z" transform="translate(26.333 -275.929)" fill="#bdbcbc" fill-rule="evenodd"/><path d="M73.585,333.193l-99.918-57.688v1.536l99.918,57.688v-1.536Z" transform="translate(26.333 -269.582)" fill="#bdbcbc" fill-rule="evenodd"/><path d="M73.585,320.924l-99.918-57.688v1.536L73.585,322.46Z" transform="translate(26.333 -263.236)" fill="#bdbcbc" fill-rule="evenodd"/></g></g></g></g><g transform="translate(134.928 97.511)"><path d="M320.928,329.4a5.095,5.095,0,0,0-7.642-4.412l-93.828,54.172A21.054,21.054,0,0,0,208.931,397.4v32.058l112-64.661Z" transform="translate(-208.931 -324.309)" fill="#b8b8b8" fill-rule="evenodd"/></g><g transform="translate(134.928 97.511)"><g transform="translate(0 0)"><g clip-path="url(#h)"><g transform="translate(-43.124 22.804)"><path d="M258.324,371.547,119.6,451.641l26.846,15.5,138.722-80.091-26.846-15.5Z" transform="translate(-119.6 -371.547)" fill="#707171" fill-rule="evenodd"/></g></g></g></g><g transform="translate(134.927 120.315)"><g clip-path="url(#i)"><g transform="translate(-33.262 -0.057)"><path d="M243.513,449.338l-32.195,18.586,7.078,4.086,32.195-18.586Z" transform="translate(-176.904 -411.728)" fill="#6e6e6f" fill-rule="evenodd"/><path d="M281.624,371.43l-141.6,81.75.676.389,141.6-81.75-.676-.389Z" transform="translate(-140.029 -371.43)" fill="#595a5a" fill-rule="evenodd"/><path d="M294.558,378.9l-141.6,81.75.676.389,141.593-81.75-.676-.389Z" transform="translate(-146.719 -375.293)" fill="#595a5a" fill-rule="evenodd"/><path d="M307.494,386.366l-141.6,81.75.676.389,141.6-81.75-.676-.389Z" transform="translate(-153.409 -379.155)" fill="#595a5a" fill-rule="evenodd"/></g></g></g><g transform="translate(134.928 97.511)"><g transform="translate(0 0)"><g clip-path="url(#h)"><g transform="translate(-45.604 -35.682)"><path d="M299.683,434.887a2.931,2.931,0,0,0-2.634-.109l-8.593,4.96c-.676.39-.59,1.071.189,1.521l2.823,1.63A2.929,2.929,0,0,0,294.1,443l8.593-4.96c.676-.39.59-1.071-.189-1.521Z" transform="translate(-204.226 -345.632)" fill="#f6f7f7" fill-rule="evenodd"/><path d="M257.417,359.488,114.463,442.023v1.164l142.954-82.535Z" transform="translate(-114.463 -306.823)" fill="#a8a8a8" fill-rule="evenodd"/><path d="M257.417,348.579,114.463,431.116v1.164l142.954-82.537Z" transform="translate(-114.463 -301.181)" fill="#a8a8a8" fill-rule="evenodd"/><path d="M257.417,337.669,114.463,420.2v1.164l142.954-82.535Z" transform="translate(-114.463 -295.537)" fill="#a8a8a8" fill-rule="evenodd"/><path d="M257.417,326.76,114.463,409.293v1.164l142.954-82.533Z" transform="translate(-114.463 -289.895)" fill="#a8a8a8" fill-rule="evenodd"/><path d="M257.417,315.851,114.463,398.386v1.164l142.954-82.535Z" transform="translate(-114.463 -284.252)" fill="#a8a8a8" fill-rule="evenodd"/><path d="M257.417,304.941,114.463,387.476v1.164l142.954-82.535Z" transform="translate(-114.463 -278.609)" fill="#a8a8a8" fill-rule="evenodd"/><path d="M257.417,294.036,114.463,376.569v1.164L257.417,295.2Z" transform="translate(-114.463 -272.968)" fill="#a8a8a8" fill-rule="evenodd"/><path d="M257.417,283.122,114.463,365.657v1.164l142.954-82.535v-1.164Z" transform="translate(-114.463 -267.323)" fill="#a8a8a8" fill-rule="evenodd"/><path d="M257.417,272.21,114.463,354.746v1.164l142.954-82.535Z" transform="translate(-114.463 -261.678)" fill="#a8a8a8" fill-rule="evenodd"/><path d="M257.417,261.3,114.463,343.838V345l142.954-82.535Z" transform="translate(-114.463 -256.037)" fill="#a8a8a8" fill-rule="evenodd"/><path d="M257.417,250.394,114.463,332.929v1.164l142.954-82.535v-1.164Z" transform="translate(-114.463 -250.394)" fill="#a8a8a8" fill-rule="evenodd"/><path d="M294.021,374.986l-15.07,8.7v26.427l15.07-8.7Z" transform="translate(-199.545 -314.84)" fill="#fff" fill-rule="evenodd"/><path d="M277.888,411.426l-.992-.573v17.4l.992.573Z" transform="translate(-198.482 -333.392)" fill="#a6a8ab" fill-rule="evenodd"/><path d="M294.114,379.242l-12.473,7.2v25.122l12.473-7.2V379.243Z" transform="translate(-200.936 -317.041)" fill="#707171" fill-rule="evenodd"/></g></g></g></g><g transform="translate(170.028 130.977)"><g transform="translate(0 0)"><g clip-path="url(#k)"><g transform="translate(-0.884 -7.359)"><path d="M292.281,378.389l-12.472,7.2v25.122l12.473-7.2V378.389Z" transform="translate(-279.809 -378.389)" fill="#d0d2d3" fill-rule="evenodd"/><path d="M306.416,394.622l-.992-.573v17.4l.992.573Z" transform="translate(-293.058 -386.49)" fill="#a6a8ab" fill-rule="evenodd"/></g></g></g></g><g transform="translate(134.928 97.511)"><g transform="translate(0 0)"><g clip-path="url(#h)"><g transform="translate(95.6 -13.314)"><path d="M426.338,307.914l-19.374-11.185v36.119l19.374,11.185Z" transform="translate(-406.964 -296.729)" fill="#fff" fill-rule="evenodd"/></g></g></g></g><g transform="translate(230.527 97.51)"><g transform="translate(0 0)"><g clip-path="url(#m)"><g transform="translate(-3.282 9.109)"><path d="M402.663,368.846l-2.5,1.443,19,10.972,2.5-1.442Z" transform="translate(-400.165 -356.455)" fill="#707171" fill-rule="evenodd"/><path d="M415.2,352.146l1.255.724v14.94l-1.255-.724Z" transform="translate(-407.939 -347.817)" fill="#d5d6d5" fill-rule="evenodd"/><path d="M417.793,355.1l1.255-.724v11.182l-1.255.724Z" transform="translate(-409.283 -348.97)" fill="#8c8b8b" fill-rule="evenodd"/><path d="M406.34,347.034l1.255.724V362.7l-1.255-.724Z" transform="translate(-403.359 -345.173)" fill="#d5d6d5" fill-rule="evenodd"/><path d="M408.939,349.986l1.255-.724v11.182l-1.255.724Z" transform="translate(-404.703 -346.325)" fill="#8c8b8b" fill-rule="evenodd"/><path d="M425.5,358.1l1.255.724v14.94l-1.255-.724Z" transform="translate(-413.27 -350.896)" fill="#d5d6d5" fill-rule="evenodd"/><path d="M428.1,361.047l1.255-.724V371.5l-1.255.724Z" transform="translate(-414.613 -352.046)" fill="#8c8b8b" fill-rule="evenodd"/><path d="M435.8,364.045l1.255.724v14.94l-1.255-.724Z" transform="translate(-418.6 -353.972)" fill="#e8e7e7" fill-rule="evenodd"/><path d="M438.407,367l1.255-.724v11.182l-1.255.724Z" transform="translate(-419.946 -355.124)" fill="#8c8b8b" fill-rule="evenodd"/><path d="M404.889,346.2l21.153,12.213v1.85l-21.153-12.213V346.2Z" transform="translate(-402.608 -344.739)" fill="#e8e7e7" fill-rule="evenodd"/><path d="M407.413,343.178l21.144,12.209-2.524,1.457-21.144-12.209,2.524-1.457Z" transform="translate(-402.608 -343.178)" fill="#b4b4b5" fill-rule="evenodd"/></g></g></g></g><g transform="translate(134.928 97.511)"><g transform="translate(0 0)"><g clip-path="url(#h)"><g transform="translate(-3.078 -3.423)"><path d="M438.245,320.57l-5.806-3.352v41.735l5.806,3.352Z" transform="translate(-321.463 -317.218)" fill="#868686" fill-rule="evenodd"/><path d="M429.281,389.645l-1.255.724v14.94l1.255-.724Z" transform="translate(-319.18 -354.681)" fill="#b8b8b8" fill-rule="evenodd"/><path d="M426.682,392.6l-1.255-.724v11.182l1.255.724Z" transform="translate(-317.836 -355.834)" fill="#d5d6d5" fill-rule="evenodd"/><path d="M438.136,384.532l-1.255.724V400.2l1.255-.724Z" transform="translate(-323.761 -352.036)" fill="#b8b8b8" fill-rule="evenodd"/><path d="M435.537,387.485l-1.255-.724v11.182l1.255.724Z" transform="translate(-322.416 -353.189)" fill="#d5d6d5" fill-rule="evenodd"/><path d="M418.976,395.594l-1.255.724v14.94l1.255-.724Z" transform="translate(-313.85 -357.758)" fill="#b8b8b8" fill-rule="evenodd"/><path d="M416.377,398.546l-1.255-.724V409l1.255.724Z" transform="translate(-312.506 -358.911)" fill="#d5d6d5" fill-rule="evenodd"/><path d="M408.671,401.544l-1.255.724v14.94l1.255-.724Z" transform="translate(-308.52 -360.836)" fill="#b8b8b8" fill-rule="evenodd"/><path d="M406.072,404.5l-1.255-.724v11.182l1.255.724Z" transform="translate(-307.175 -361.988)" fill="#d5d6d5" fill-rule="evenodd"/><path d="M398.363,407.494l-1.255.724v14.94l1.255-.724Z" transform="translate(-303.188 -363.914)" fill="#b8b8b8" fill-rule="evenodd"/><path d="M395.767,410.446l-1.255-.724V420.9l1.255.724Z" transform="translate(-301.845 -365.066)" fill="#d5d6d5" fill-rule="evenodd"/><path d="M416.7,383.7,394.091,396.75v1.85L416.7,385.545Z" transform="translate(-301.627 -351.604)" fill="#b8b8b8" fill-rule="evenodd"/><path d="M410.474,380.677l-23.546,13.594,2.524,1.457L413,382.134Z" transform="translate(-297.922 -350.042)" fill="#d1d1d1" fill-rule="evenodd"/><path d="M389.452,410.293l-2.524-1.457v2.252l2.524,1.457Z" transform="translate(-297.922 -364.608)" fill="#d5d6d5" fill-rule="evenodd"/><path d="M306.98,459.379l-1.255.724v14.94l1.255-.724Z" transform="translate(-255.92 -390.751)" fill="#b8b8b8" fill-rule="evenodd"/><path d="M304.381,462.336l-1.255-.724v11.182l1.255.724Z" transform="translate(-254.575 -391.906)" fill="#d5d6d5" fill-rule="evenodd"/><path d="M296.675,465.328l-1.255.724v14.94l1.255-.724Z" transform="translate(-250.589 -393.828)" fill="#b8b8b8" fill-rule="evenodd"/><path d="M294.076,468.281l-1.255-.724v11.182l1.255.724Z" transform="translate(-249.245 -394.981)" fill="#d5d6d5" fill-rule="evenodd"/><path d="M286.37,471.283l-1.255.724v14.94l1.255-.724Z" transform="translate(-245.259 -396.909)" fill="#b8b8b8" fill-rule="evenodd"/><path d="M283.771,474.231l-1.255-.724v11.182l1.255.724Z" transform="translate(-243.915 -398.059)" fill="#d5d6d5" fill-rule="evenodd"/><path d="M276.065,477.228l-1.255.724v14.94l1.255-.724Z" transform="translate(-239.929 -399.984)" fill="#b8b8b8" fill-rule="evenodd"/><path d="M273.466,480.18l-1.255-.724v11.182l1.255.724Z" transform="translate(-238.584 -401.136)" fill="#d5d6d5" fill-rule="evenodd"/><path d="M265.76,483.177l-1.255.724v14.94l1.255-.724Z" transform="translate(-234.598 -403.061)" fill="#b8b8b8" fill-rule="evenodd"/><path d="M263.161,486.13l-1.255-.724v11.182l1.255.724Z" transform="translate(-233.254 -404.214)" fill="#d5d6d5" fill-rule="evenodd"/><path d="M255.455,489.127l-1.255.724v14.94l1.255-.724Z" transform="translate(-229.268 -406.139)" fill="#b8b8b8" fill-rule="evenodd"/><path d="M252.856,492.079l-1.255-.724v11.181l1.255.724Z" transform="translate(-227.924 -407.291)" fill="#d5d6d5" fill-rule="evenodd"/><path d="M245.15,495.077l-1.255.724v14.941l1.255-.724Z" transform="translate(-223.938 -409.216)" fill="#b8b8b8" fill-rule="evenodd"/><path d="M242.551,498.029,241.3,497.3v11.182l1.255.724Z" transform="translate(-222.593 -410.369)" fill="#d5d6d5" fill-rule="evenodd"/><path d="M234.845,501.026l-1.255.724v14.94l1.255-.724Z" transform="translate(-218.607 -412.293)" fill="#b8b8b8" fill-rule="evenodd"/><path d="M232.246,503.982l-1.255-.724v11.18l1.255.724Z" transform="translate(-217.263 -413.448)" fill="#d5d6d5" fill-rule="evenodd"/><path d="M224.54,506.976l-1.255.724v14.94l1.255-.724Z" transform="translate(-213.277 -415.371)" fill="#b8b8b8" fill-rule="evenodd"/><path d="M221.941,509.928l-1.255-.724v11.182l1.255.724Z" transform="translate(-211.933 -416.523)" fill="#d5d6d5" fill-rule="evenodd"/><path d="M214.234,512.929l-1.255.724v14.94l1.255-.724Z" transform="translate(-207.946 -418.45)" fill="#b8b8b8" fill-rule="evenodd"/><path d="M211.635,515.878l-1.255-.724v11.182l1.255.724Z" transform="translate(-206.602 -419.601)" fill="#d5d6d5" fill-rule="evenodd"/><path d="M256.728,459.767l-48.945,28.258v1.85l48.945-28.258Z" transform="translate(-205.259 -390.952)" fill="#b8b8b8" fill-rule="evenodd"/><path d="M251.543,456.7,202.554,484.98l2.524,1.457,48.989-28.284Z" transform="translate(-202.554 -389.364)" fill="#d1d1d1" fill-rule="evenodd"/><path d="M286.443,446.737l-.434.25v4.524l.434-.25Z" transform="translate(-245.721 -384.212)" fill="#959595" fill-rule="evenodd"/><path d="M285.394,446.9l-.575-.332v4.524l.575.332Z" transform="translate(-245.106 -384.125)" fill="#d5d6d5" fill-rule="evenodd"/><path d="M262.007,448.065l-.434.25v4.524l.434-.25Z" transform="translate(-233.082 -384.899)" fill="#959595" fill-rule="evenodd"/><path d="M260.959,448.226l-.575-.333v4.524l.575.332v-4.524Z" transform="translate(-232.467 -384.81)" fill="#d5d6d5" fill-rule="evenodd"/><path d="M275.374,440.343l-.434.25v4.524l.434-.25Z" transform="translate(-239.996 -380.905)" fill="#959595" fill-rule="evenodd"/><path d="M274.325,440.509l-.575-.332V444.7l.575.332Z" transform="translate(-239.38 -380.819)" fill="#d5d6d5" fill-rule="evenodd"/><path d="M275.389,425.872l-.434.25v6.2l.434-.25Z" transform="translate(-240.004 -373.42)" fill="#b4b4b5" fill-rule="evenodd"/><path d="M274.34,426.037l-.575-.332v7.115l.575.332Z" transform="translate(-239.388 -373.333)" fill="#d5d6d5" fill-rule="evenodd"/><path d="M268.477,438.728l-6.886,3.975,5.336,3.081,6.886-3.975Z" transform="translate(-233.091 -380.069)" fill="#e8e7e7" fill-rule="evenodd"/><path d="M266.928,450.041l-5.336-3.081v.91l5.336,3.081Z" transform="translate(-233.092 -384.328)" fill="#d5d6d5" fill-rule="evenodd"/><path d="M279.531,445.107l-6.886,3.975v.911l6.886-3.975Z" transform="translate(-238.809 -383.369)" fill="#959595" fill-rule="evenodd"/><path d="M268.477,425.872l-6.886,3.975v2.721l6.886-3.975v-2.721Z" transform="translate(-233.091 -373.42)" fill="#b4b4b5" fill-rule="evenodd"/><path d="M262.023,433.589l-.434.25v6.2l.434-.25Z" transform="translate(-233.09 -377.411)" fill="#b4b4b5" fill-rule="evenodd"/><path d="M260.974,433.751l-.575-.332v7.115l.575.332Z" transform="translate(-232.475 -377.323)" fill="#d5d6d5" fill-rule="evenodd"/><path d="M273.077,454.456l-.434.25v4.524l.434-.25Z" transform="translate(-238.808 -388.205)" fill="#959595" fill-rule="evenodd"/><path d="M272.028,454.617l-.575-.332v4.524l.575.332Z" transform="translate(-238.192 -388.116)" fill="#d5d6d5" fill-rule="evenodd"/><path d="M267.285,425.184l-6.886,3.975.575.332,6.886-3.975Z" transform="translate(-232.475 -373.064)" fill="#d1d1d1" fill-rule="evenodd"/><path d="M234.332,457.456l-1.08.624v7.739l1.08-.624Z" transform="translate(-218.433 -389.757)" fill="#959595" fill-rule="evenodd"/><path d="M232.534,458.334l-.668-.386v7.738l.668.386Z" transform="translate(-217.716 -390.011)" fill="#d5d6d5" fill-rule="evenodd"/><path d="M247.9,465.291l-1.08.624v7.738l1.08-.624Z" transform="translate(-225.453 -393.809)" fill="#959595" fill-rule="evenodd"/><path d="M246.108,466.169l-.668-.386v7.738l.668.386Z" transform="translate(-224.737 -394.064)" fill="#d5d6d5" fill-rule="evenodd"/><path d="M258.788,443.336l-1.08.624V451.7l1.08-.624Z" transform="translate(-231.083 -382.453)" fill="#959595" fill-rule="evenodd"/><path d="M256.992,444.214l-.668-.386v7.739l.668.386Z" transform="translate(-230.367 -382.708)" fill="#d5d6d5" fill-rule="evenodd"/><path d="M272.36,451.172l-1.08.624v7.738l1.08-.624Z" transform="translate(-238.103 -386.506)" fill="#959595" fill-rule="evenodd"/><path d="M270.564,452.05l-.668-.386V459.4l.668.386Z" transform="translate(-237.387 -386.761)" fill="#d5d6d5" fill-rule="evenodd"/><path d="M244.754,444.422l-12.886,7.44,7.22,4.168,12.886-7.44-7.22-4.169Z" transform="translate(-217.717 -383.015)" fill="#959595" fill-rule="evenodd"/><path d="M244.754,442.537l-12.886,7.44,7.22,4.169,12.886-7.44-7.22-4.168Z" transform="translate(-217.717 -382.04)" fill="#e8e7e7" fill-rule="evenodd"/><path d="M239.088,462.122l-7.22-4.168v.91l7.22,4.169Z" transform="translate(-217.717 -390.014)" fill="#d5d6d5" fill-rule="evenodd"/><path d="M259.71,451.172l-12.886,7.44v.91l12.886-7.44Z" transform="translate(-225.453 -386.506)" fill="#959595" fill-rule="evenodd"/><path d="M239.076,478.345l-.434.25v4.524l.434-.25Z" transform="translate(-221.221 -400.562)" fill="#959595" fill-rule="evenodd"/><path d="M238.028,478.511l-.575-.332V482.7l.575.332Z" transform="translate(-220.606 -400.476)" fill="#d5d6d5" fill-rule="evenodd"/><path d="M214.64,479.672l-.434.25v4.524l.434-.25Z" transform="translate(-208.581 -401.248)" fill="#959595" fill-rule="evenodd"/><path d="M213.592,479.834l-.575-.332v4.525l.575.332v-4.524Z" transform="translate(-207.966 -401.16)" fill="#d5d6d5" fill-rule="evenodd"/><path d="M228.007,471.955l-.434.25v4.524l.434-.25Z" transform="translate(-215.495 -397.256)" fill="#959595" fill-rule="evenodd"/><path d="M226.959,472.117l-.575-.333v4.524l.575.332Z" transform="translate(-214.88 -397.168)" fill="#d5d6d5" fill-rule="evenodd"/><path d="M228.022,457.479l-.434.25v6.2l.434-.25Z" transform="translate(-215.503 -389.769)" fill="#b4b4b5" fill-rule="evenodd"/><path d="M226.973,457.641l-.575-.332v7.115l.575.332Z" transform="translate(-214.887 -389.681)" fill="#d5d6d5" fill-rule="evenodd"/><path d="M221.11,470.332l-6.886,3.975,5.336,3.081,6.886-3.975Z" transform="translate(-208.59 -396.417)" fill="#e8e7e7" fill-rule="evenodd"/><path d="M219.56,481.653l-5.336-3.081v.909l5.336,3.081Z" transform="translate(-208.59 -400.679)" fill="#d5d6d5" fill-rule="evenodd"/><path d="M232.164,476.714l-6.886,3.975v.91l6.886-3.975Z" transform="translate(-214.308 -399.718)" fill="#959595" fill-rule="evenodd"/><path d="M221.11,457.479l-6.886,3.975v2.721l6.886-3.975Z" transform="translate(-208.59 -389.769)" fill="#b4b4b5" fill-rule="evenodd"/><path d="M214.656,465.2l-.434.25v6.205l.434-.25Z" transform="translate(-208.589 -393.76)" fill="#b4b4b5" fill-rule="evenodd"/><path d="M213.607,465.358l-.575-.332v7.115l.575.332Z" transform="translate(-207.974 -393.672)" fill="#d5d6d5" fill-rule="evenodd"/><path d="M225.71,486.063l-.434.25v4.524l.434-.25Z" transform="translate(-214.307 -404.554)" fill="#959595" fill-rule="evenodd"/><path d="M224.661,486.224l-.575-.332v4.524l.575.332Z" transform="translate(-213.692 -404.465)" fill="#d5d6d5" fill-rule="evenodd"/><path d="M219.922,456.79l-6.886,3.975.575.332,6.886-3.975-.575-.333Z" transform="translate(-207.976 -389.412)" fill="#d1d1d1" fill-rule="evenodd"/></g></g></g></g><g transform="translate(118.995 2.382)"><path d="M310.041,127.252l52.094,81.6L259.976,149.87l50.065-22.617Z" transform="translate(-219.402 -127.252)" fill="#fff5e3" fill-rule="evenodd"/><path d="M322.778,290.925,175.927,375.709v7.082l146.851-84.784Z" transform="translate(-175.927 -211.913)" fill="#f1f1f2" fill-rule="evenodd"/><path d="M451.348,359.169V317.7a1.581,1.581,0,0,1,.79-1.369l8.161-4.712v-6.868a1.581,1.581,0,1,1,3.161,0v7.781a1.58,1.58,0,0,1-.79,1.369l-8.161,4.712v37.823l.824-.476a1.581,1.581,0,0,1,1.58,2.738l-3.189,1.841a1.581,1.581,0,0,1-2.322-.956,1.543,1.543,0,0,1-.054-.415Z" transform="translate(-318.39 -218.247)" fill="#e6e7e8" fill-rule="evenodd"/></g><g transform="translate(251.953 87.307)"><g transform="translate(0 0)"><g clip-path="url(#o)"><g transform="translate(1.638 16.001)"><path d="M455.792,336.318a2.413,2.413,0,0,1-1.051.263v37.406l1.035-1.24.015-36.428Z" transform="translate(-454.741 -336.318)" fill="#f1f1f2" fill-rule="evenodd"/></g></g></g></g><g transform="translate(118.812 83.19)"><path d="M327.712,298.926a6.562,6.562,0,0,1-1.911-4.281l5.871,3.389a2.173,2.173,0,0,1-.714,1.8v.012l-146.687,84.69-1.385-3.993L327.71,298.925Z" transform="translate(-179.343 -294.645)" fill="#e6e7e8" fill-rule="evenodd"/><path d="M175.749,469.687l5.871,3.389c0,1.871-1.315,2.63-2.936,1.695a6.491,6.491,0,0,1-2.936-5.084Z" transform="translate(-175.651 -385.186)" fill="#d0d2d3" fill-rule="evenodd"/><path d="M322,294.644,175.547,379.2l5.871,3.389,146.457-84.557L322,294.644Z" transform="translate(-175.547 -294.644)" fill="#ffebc6" fill-rule="evenodd"/></g><g transform="translate(118.811 83.19)"><g transform="translate(0 0)"><g clip-path="url(#p)"><g transform="translate(146.091 0.211)"><path d="M478.172,295.082l5.871,3.389c0,1.871-1.315,2.63-2.935,1.695a6.491,6.491,0,0,1-2.936-5.084Z" transform="translate(-478.172 -295.082)" fill="#fff4df" fill-rule="evenodd"/></g></g></g></g><g transform="translate(118.812 83.19)"><path d="M322,294.644,175.547,379.2l5.871,3.389,146.457-84.557L322,294.644Z" transform="translate(-175.547 -294.644)" fill="#fff" fill-rule="evenodd"/></g><g transform="translate(118.811 83.19)"><g transform="translate(0 0)"><g clip-path="url(#p)"><g transform="translate(-6.899 -5.249)"><path d="M168.155,376.967l152.7-88.159-.367-5.037L161.256,369.595l6.9,7.372Z" transform="translate(-161.256 -283.771)" fill="#fbfcfb" fill-rule="evenodd"/><path d="M478.93,294.645l5.871,3.389c0,1.871-1.315,2.63-2.936,1.695a6.491,6.491,0,0,1-2.936-5.084Z" transform="translate(-325.574 -289.396)" fill="#f1f1f2" fill-rule="evenodd"/></g></g></g></g><g transform="translate(66.816 0)"><path d="M67.842,207.231l52.027,81.56,147.059-84.9-52.141-81.569L67.84,207.232Z" transform="translate(-67.84 -122.317)" fill="#414141" fill-rule="evenodd"/></g><g transform="translate(16.688 0)"><path d="M258.581,296.475H296.73L329.248,268.6l-16.339-8.892L279.938,247.5,258.58,296.475Z" transform="translate(-116.372 -187.069)" fill-rule="evenodd"/><path d="M14.13,207.157-36,229.81l147.059-84.9,50.018-22.587L14.128,207.157Z" transform="translate(36.001 -122.318)" fill="#6c6c6c" fill-rule="evenodd"/><path d="M-36,320.635l1.431,2.538,50.192-22.608-1.468-2.655L-36,320.636Z" transform="translate(36.001 -213.144)" fill="#fff" fill-rule="evenodd"/><path d="M116.671,386.388l-.193-6.813-51.984-81.7-3.129,1.759,55.306,86.749Z" transform="translate(-14.362 -213.128)" fill="#fff" fill-rule="evenodd"/><path d="M143.779,470.374a12.051,12.051,0,0,0-6.025-10.435l-4.353-2.513a4.869,4.869,0,0,0-7.3,4.217v32.04l17.682,10.209V470.374Z" transform="translate(-47.845 -295.317)" fill="#b8b8b8" fill-rule="evenodd"/></g><g transform="translate(94.939 161.458)"><g clip-path="url(#r)"><g transform="translate(-5.616 -83.83)"><path d="M258.324,371.548,119.6,451.642l29.9,17.26L288.219,388.81l-29.895-17.26Z" transform="translate(-117.12 -328.861)" fill="#707171" fill-rule="evenodd"/><path d="M257.416,359.489,114.462,442.024v1.164l142.954-82.535Z" transform="translate(-114.462 -322.623)" fill="#a8a8a8" fill-rule="evenodd"/><path d="M257.416,348.579,114.462,431.116v1.164l142.954-82.537Z" transform="translate(-114.462 -316.98)" fill="#a8a8a8" fill-rule="evenodd"/><path d="M257.416,337.67,114.462,420.2v1.164l142.954-82.535Z" transform="translate(-114.462 -311.337)" fill="#a8a8a8" fill-rule="evenodd"/><path d="M257.416,326.76,114.462,409.293v1.164l142.954-82.533Z" transform="translate(-114.462 -305.694)" fill="#a8a8a8" fill-rule="evenodd"/><path d="M257.416,315.851,114.462,398.386v1.164l142.954-82.535Z" transform="translate(-114.462 -300.051)" fill="#a8a8a8" fill-rule="evenodd"/><path d="M257.416,304.941,114.462,387.476v1.164l142.954-82.535Z" transform="translate(-114.462 -294.408)" fill="#a8a8a8" fill-rule="evenodd"/><path d="M257.416,294.036,114.462,376.569v1.164L257.416,295.2Z" transform="translate(-114.462 -288.767)" fill="#a8a8a8" fill-rule="evenodd"/><path d="M257.416,283.122,114.462,365.657v1.164l142.954-82.535v-1.164Z" transform="translate(-114.462 -283.122)" fill="#a8a8a8" fill-rule="evenodd"/><path d="M135.1,513.857l1.255.724v14.94L135.1,528.8Z" transform="translate(-125.138 -402.471)" fill="#d5d6d5" fill-rule="evenodd"/><path d="M137.7,516.81l1.255-.724v11.182l-1.255.724Z" transform="translate(-126.482 -403.624)" fill="#8c8b8b" fill-rule="evenodd"/><path d="M126.248,508.745l1.255.724v14.94l-1.255-.724Z" transform="translate(-120.558 -399.826)" fill="#d5d6d5" fill-rule="evenodd"/><path d="M128.847,511.7l1.255-.724v11.182l-1.255.724Z" transform="translate(-121.903 -400.979)" fill="#8c8b8b" fill-rule="evenodd"/><path d="M145.407,519.807l1.255.724v14.94l-1.255-.724Z" transform="translate(-130.468 -405.548)" fill="#d5d6d5" fill-rule="evenodd"/><path d="M148.007,522.76l1.255-.724v11.182l-1.255.724Z" transform="translate(-131.813 -406.701)" fill="#8c8b8b" fill-rule="evenodd"/><path d="M155.713,525.756l1.255.724v14.94l-1.255-.724v-14.94Z" transform="translate(-135.799 -408.625)" fill="#e8e7e7" fill-rule="evenodd"/><path d="M158.312,528.709l1.255-.724v11.182l-1.255.724Z" transform="translate(-137.144 -409.778)" fill="#8c8b8b" fill-rule="evenodd"/><path d="M124.8,507.907,145.95,520.12v1.852L124.8,509.759v-1.85Z" transform="translate(-119.808 -399.393)" fill="#e8e7e7" fill-rule="evenodd"/><path d="M127.321,504.889,148.465,517.1l-2.524,1.457L124.8,506.347l2.524-1.457Z" transform="translate(-119.808 -397.832)" fill="#fff" fill-rule="evenodd"/><path d="M138.692,426.842l17.629-10.178v26.358L138.692,453.2Z" transform="translate(-126.995 -352.197)" fill="#fff" fill-rule="evenodd"/><path d="M139.871,428.627l16.491-9.521v24.656l-16.491,9.521Z" transform="translate(-127.605 -353.46)" fill="#fff" fill-rule="evenodd"/><path d="M142.56,432.7l13.894-8.022v20.773l-13.894,8.022Z" transform="translate(-128.996 -356.343)" fill="#fff" fill-rule="evenodd"/></g></g></g><g transform="translate(102.888 162.48)"><g clip-path="url(#s)"><g transform="translate(-1.299 -17.265)"><path d="M139.871,431.149l13.9-8.022V443.9l-13.894,8.022V431.149Z" transform="translate(-139.871 -423.127)" fill="#cccbcb" fill-rule="evenodd"/><path d="M141.02,450.333l13.894-8.022v1.611l-13.894,8.023Z" transform="translate(-140.465 -433.05)" fill="#fff5e3" fill-rule="evenodd"/><path d="M142.095,440.216l1.193-.689v9.183l-1.193.689Z" transform="translate(-141.021 -431.61)" fill="#fcfdff" fill-rule="evenodd"/></g></g></g><g transform="translate(159.928 62.824)"><path d="M306.529,252.456l-22.9.628-22.9,25.82v20.242L306.528,272.7V252.455Z" transform="translate(-260.72 -252.455)" fill="#b8b8b8" fill-rule="evenodd"/></g><g transform="translate(159.928 62.824)"><g clip-path="url(#t)"><g transform="translate(-38.787 -65.696)"><path d="M323.33,225.462,180.373,308v1.164L323.33,226.626Z" transform="translate(-180.373 -172.797)" fill="#a8a8a8" fill-rule="evenodd"/><path d="M323.33,214.553,180.373,297.088v1.164L323.33,215.717Z" transform="translate(-180.373 -167.154)" fill="#a8a8a8" fill-rule="evenodd"/><path d="M323.33,203.644,180.373,286.179v1.162L323.33,204.808Z" transform="translate(-180.373 -161.511)" fill="#a8a8a8" fill-rule="evenodd"/><path d="M323.33,192.734,180.373,275.269v1.164L323.33,193.9Z" transform="translate(-180.373 -155.868)" fill="#a8a8a8" fill-rule="evenodd"/><path d="M323.33,181.825,180.373,264.36v1.164L323.33,182.989Z" transform="translate(-180.373 -150.225)" fill="#a8a8a8" fill-rule="evenodd"/><path d="M323.33,170.915,180.373,253.45v1.164L323.33,172.081v-1.164Z" transform="translate(-180.373 -144.582)" fill="#a8a8a8" fill-rule="evenodd"/><path d="M323.33,160.006,180.373,242.541V243.7L323.33,161.17Z" transform="translate(-180.373 -138.939)" fill="#a8a8a8" fill-rule="evenodd"/><path d="M323.33,149.093,180.373,231.628v1.164L323.33,150.255v-1.162Z" transform="translate(-180.373 -133.294)" fill="#a8a8a8" fill-rule="evenodd"/><path d="M323.33,138.186,180.373,220.721v1.164L323.33,139.35v-1.164Z" transform="translate(-180.373 -127.653)" fill="#a8a8a8" fill-rule="evenodd"/><path d="M323.33,127.277,180.373,209.812v1.164L323.33,128.441Z" transform="translate(-180.373 -122.01)" fill="#a8a8a8" fill-rule="evenodd"/><path d="M323.33,116.367,180.373,198.9v1.164L323.33,117.531Z" transform="translate(-180.373 -116.367)" fill="#a8a8a8" fill-rule="evenodd"/></g></g></g><g transform="translate(168.87 74.204)"><path d="M279.243,283.436l12.83-7.407v19.182l-12.83,7.407Z" transform="translate(-279.243 -276.029)" fill="#fff" fill-rule="evenodd"/><path d="M280.1,284.736l12-6.929v17.944l-12,6.929Z" transform="translate(-279.686 -276.949)" fill="#fff" fill-rule="evenodd"/><path d="M282.058,287.7l10.112-5.838V296.98l-10.112,5.838Z" transform="translate(-280.699 -279.046)" fill="#fff" fill-rule="evenodd"/></g><g transform="translate(170.229 77.02)"><g transform="translate(0 0)"><g clip-path="url(#u)"><g transform="translate(-0.945 -1.716)"><path d="M280.1,286.571l10.112-5.838v15.118L280.1,301.689Z" transform="translate(-280.1 -279.562)" fill="#8d8d8d" fill-rule="evenodd"/><path d="M280.1,286.571l10.112-5.838v7.649L280.1,294.219v-7.649Z" transform="translate(-280.1 -279.562)" fill="#cccbcb" fill-rule="evenodd"/><path d="M301.047,278.308l2.306,1.331v16.289l-2.306-1.331Z" transform="translate(-290.935 -278.308)" fill="#e6e7e8" fill-rule="evenodd"/><path d="M280.937,300.534l10.112-5.838v1.173l-10.112,5.838v-1.173Z" transform="translate(-280.533 -286.785)" fill="#e6e7e8" fill-rule="evenodd"/><path d="M290.671,294.244l.377.218-9.734,5.62-.378-.218,9.734-5.62Z" transform="translate(-280.533 -286.551)" fill="#fff" fill-rule="evenodd"/><path d="M300.083,282.568l.869-.5v6.683l-.869.5Z" transform="translate(-290.436 -280.252)" fill="#fcfdff" fill-rule="evenodd"/><path d="M281.719,293.171l.869-.5v6.683l-.869.5Z" transform="translate(-280.937 -285.736)" fill="#fcfdff" fill-rule="evenodd"/><path d="M299.27,282.351l.393.227v6.266l-.393-.227Z" transform="translate(-290.016 -280.399)" fill="#e6e7e8" fill-rule="evenodd"/></g></g></g></g><g transform="translate(183.966 65.49)"><path d="M310.514,265.384l12.83-7.406V277.16l-12.83,7.407V265.385Z" transform="translate(-310.514 -257.978)" fill="#fff" fill-rule="evenodd"/><path d="M311.372,266.681l12-6.929V277.7l-12,6.929V266.681Z" transform="translate(-310.958 -258.896)" fill="#fff" fill-rule="evenodd"/><path d="M313.329,269.646l10.112-5.838v15.118l-10.112,5.838Z" transform="translate(-311.97 -260.994)" fill="#fff" fill-rule="evenodd"/></g><g transform="translate(185.325 68.304)"><g transform="translate(0 0)"><g clip-path="url(#v)"><g transform="translate(-0.945 -1.718)"><path d="M311.371,268.517l10.112-5.838V277.8l-10.112,5.838Z" transform="translate(-311.371 -261.506)" fill="#8d8d8d" fill-rule="evenodd"/><path d="M311.371,268.517l10.112-5.838v7.94l-10.112,5.838Z" transform="translate(-311.371 -261.506)" fill="#cccbcb" fill-rule="evenodd"/><path d="M332.318,260.25l2.306,1.331v16.29l-2.306-1.331Z" transform="translate(-322.206 -260.25)" fill="#e6e7e8" fill-rule="evenodd"/><path d="M312.207,282.478l10.112-5.838v1.173l-10.112,5.838Z" transform="translate(-311.803 -268.728)" fill="#e6e7e8" fill-rule="evenodd"/><path d="M321.942,276.189l.377.218-9.734,5.62-.378-.218Z" transform="translate(-311.804 -268.495)" fill="#fff" fill-rule="evenodd"/><path d="M331.355,264.512l.869-.5v6.683l-.869.5Z" transform="translate(-321.708 -262.195)" fill="#fcfdff" fill-rule="evenodd"/><path d="M312.989,275.116l.869-.5V281.3l-.869.5v-6.683Z" transform="translate(-312.208 -267.68)" fill="#fcfdff" fill-rule="evenodd"/><path d="M330.541,264.294l.393.227v6.267l-.393-.227Z" transform="translate(-321.287 -262.342)" fill="#e6e7e8" fill-rule="evenodd"/></g></g></g></g><g transform="translate(139.279 77.349)"><path d="M217.946,282.545l20.65,11.924v20.244l-.415-.241Z" transform="translate(-217.946 -282.545)" fill="#fff" fill-rule="evenodd"/></g><g transform="translate(139.279 77.35)"><g transform="translate(0 0)"><g clip-path="url(#w)"><g transform="translate(-53.545 -57.567)"><path d="M206.947,405.027l-99.918-57.688v1.536l99.918,57.688v-1.536Z" transform="translate(-107.029 -258.493)" fill="#fff" fill-rule="evenodd"/><path d="M206.947,392.758,107.029,335.07v1.536l99.917,57.688v-1.536Z" transform="translate(-107.029 -252.147)" fill="#fff" fill-rule="evenodd"/><path d="M206.947,380.488,107.029,322.8v1.536l99.918,57.688v-1.536Z" transform="translate(-107.029 -245.801)" fill="#fff" fill-rule="evenodd"/><path d="M206.947,368.219l-99.918-57.688v1.536l99.918,57.688v-1.536Z" transform="translate(-107.029 -239.454)" fill="#fff" fill-rule="evenodd"/><path d="M206.947,355.95l-99.918-57.688V299.8l99.917,57.688V355.95Z" transform="translate(-107.029 -233.108)" fill="#fff" fill-rule="evenodd"/><path d="M206.947,343.68l-99.918-57.688v1.536l99.918,57.688V343.68Z" transform="translate(-107.029 -226.761)" fill="#fff" fill-rule="evenodd"/><path d="M206.947,331.41l-99.918-57.688v1.536l99.918,57.688V331.41Z" transform="translate(-107.029 -220.415)" fill="#fff" fill-rule="evenodd"/><path d="M206.947,319.141l-99.918-57.688v1.536l99.918,57.688v-1.536Z" transform="translate(-107.029 -214.069)" fill="#fff" fill-rule="evenodd"/><path d="M206.947,306.872l-99.918-57.688v1.536l99.918,57.688v-1.536Z" transform="translate(-107.029 -207.722)" fill="#fff" fill-rule="evenodd"/><path d="M206.947,294.6l-99.918-57.688v1.536l99.918,57.688V294.6Z" transform="translate(-107.029 -201.376)" fill="#fff" fill-rule="evenodd"/><path d="M206.947,282.333l-99.918-57.688v1.536l99.918,57.688v-1.536Z" transform="translate(-107.029 -195.029)" fill="#fff" fill-rule="evenodd"/><path d="M206.947,270.063l-99.918-57.688v1.536L206.947,271.6v-1.536Z" transform="translate(-107.029 -188.683)" fill="#fff" fill-rule="evenodd"/><path d="M206.947,257.794l-99.918-57.688v1.536l99.918,57.688v-1.536Z" transform="translate(-107.029 -182.337)" fill="#fff" fill-rule="evenodd"/><path d="M206.947,245.523l-99.918-57.688v1.536l99.917,57.688v-1.536Z" transform="translate(-107.029 -175.989)" fill="#fff" fill-rule="evenodd"/><path d="M206.947,233.255l-99.918-57.688V177.1l99.918,57.688v-1.536Z" transform="translate(-107.029 -169.644)" fill="#fff" fill-rule="evenodd"/><path d="M206.947,220.985,107.029,163.3v1.536l99.918,57.688v-1.536Z" transform="translate(-107.029 -163.297)" fill="#fff" fill-rule="evenodd"/></g></g></g></g><g transform="translate(55.305 52.043)"><path d="M212.284,257.858l24.881,14.365L262.8,244.16l-23.693-13.68-26.824,27.378Z" transform="translate(-131.043 -230.308)" fill="#535453" fill-rule="evenodd"/><path d="M291.668,243.974l22.888-.637-22.888-13.215-23.577.241" transform="translate(-159.91 -230.123)" fill-rule="evenodd"/><path d="M61.624,338.056,43.995,327.878v26.358l17.629,10.178Z" transform="translate(-43.995 -280.687)" fill="#fff" fill-rule="evenodd"/><path d="M61.665,339.842l-16.491-9.521v24.656L61.665,364.5Z" transform="translate(-44.605 -281.951)" fill="#fff" fill-rule="evenodd"/><path d="M61.757,343.917l-13.894-8.022v20.773l13.894,8.02Z" transform="translate(-45.996 -284.834)" fill="#fff" fill-rule="evenodd"/></g><g transform="translate(57.172 103.104)"><g transform="translate(0 0)"><g clip-path="url(#x)"><g transform="translate(1.299 -0.75)"><path d="M64.447,342.364l-13.894-8.022v20.773l13.894,8.022Z" transform="translate(-50.553 -334.342)" fill="#8d8d8d" fill-rule="evenodd"/><path d="M64.447,342.364l-13.894-8.022v10.3l13.894,8.022Z" transform="translate(-50.553 -334.342)" fill="#cccbcb" fill-rule="evenodd"/></g></g></g></g><g transform="translate(58.471 103.853)"><g clip-path="url(#y)"><g transform="translate(-20.456 -12.96)"><path d="M48.924,326.1,8.178,349.628v2.925l40.746-23.525V326.1Z" transform="translate(-8.178 -318.619)" fill="#dededd" fill-rule="evenodd"/><path d="M49.953,310.6,9.207,334.125v6.484l40.746-23.525Z" transform="translate(-8.71 -310.6)" fill="#dededd" fill-rule="evenodd"/></g></g></g><g transform="translate(57.172 103.104)"><g transform="translate(0 0)"><g clip-path="url(#x)"><g transform="translate(-1.87 -2.361)"><path d="M47.158,331.005l-3.169,1.83v22.384l3.169-1.83Z" transform="translate(-43.989 -331.005)" fill="#edeced" fill-rule="evenodd"/><path d="M63.3,361.549,49.4,353.527v1.611L63.3,363.16Z" transform="translate(-46.79 -342.655)" fill="#edeced" fill-rule="evenodd"/><path d="M49.925,352.906l-.519.3,13.375,7.724.519-.3-13.375-7.724Z" transform="translate(-46.791 -342.333)" fill="#edeced" fill-rule="evenodd"/><path d="M50.6,336.862l-1.193-.689v9.183l1.193.689Z" transform="translate(-46.793 -333.678)" fill="#edeced" fill-rule="evenodd"/><path d="M75.832,351.431l-1.193-.689v9.183l1.193.689Z" transform="translate(-59.843 -341.214)" fill="#edeced" fill-rule="evenodd"/><path d="M52.416,336.562l-.54.312v8.61l.54-.311Z" transform="translate(-48.069 -333.879)" fill="#edeced" fill-rule="evenodd"/></g></g></g></g><g transform="translate(62.918 144.291)"><path d="M76.255,430.734l-16.491-9.521v24.656l16.491,9.521Z" transform="translate(-59.764 -421.213)" fill="#fff" fill-rule="evenodd"/></g><g transform="translate(62.917 144.291)"><g clip-path="url(#aa)"><g transform="translate(-26.012 -7.546)"><path d="M5.88,463.558l39.433,1.2V423.126L26.071,405.583,5.88,431.463Z" transform="translate(-5.88 -405.583)" fill="#f1f1f2" fill-rule="evenodd"/></g></g></g><g transform="translate(64.216 146.982)"><path d="M76.348,434.809l-13.894-8.022V447.56l13.894,8.022Z" transform="translate(-62.454 -426.787)" fill="#fff" fill-rule="evenodd"/></g><g transform="translate(64.216 146.982)"><g clip-path="url(#ab)"><g transform="translate(1.298 -0.75)"><path d="M79.037,433.256l-13.894-8.022v20.773l13.894,8.022Z" transform="translate(-65.143 -425.234)" fill="#cccbcb" fill-rule="evenodd"/><path d="M79.037,433.256l-13.894-8.022v10.546L79.037,443.8Z" transform="translate(-65.143 -425.234)" fill="#9d9d9d" fill-rule="evenodd"/></g></g></g><g transform="translate(65.514 147.731)"><g clip-path="url(#ac)"><g transform="translate(-29.454 -11.475)"><path d="M4.129,462.545l39.433,1.2V422.113L24.319,404.57,4.129,430.45Z" transform="translate(-4.129 -404.57)" fill="#9d9d9d" fill-rule="evenodd"/></g></g></g><g transform="translate(64.216 146.982)"><g clip-path="url(#ab)"><g transform="translate(-1.87 -2.361)"><path d="M61.749,421.9l-3.169,1.83v22.384l3.169-1.83Z" transform="translate(-58.58 -421.897)" fill="#d0d2d3" fill-rule="evenodd"/><path d="M77.885,452.441l-13.894-8.022v1.611l13.894,8.02v-1.611Z" transform="translate(-61.379 -433.547)" fill="#f1f1f2" fill-rule="evenodd"/><path d="M64.517,443.8l-.519.3,13.375,7.724.519-.3Z" transform="translate(-61.382 -433.225)" fill="#fff" fill-rule="evenodd"/><path d="M65.188,427.754l-1.194-.689v9.183l1.194.689Z" transform="translate(-61.38 -424.57)" fill="#fcfdff" fill-rule="evenodd"/><path d="M90.423,442.323l-1.194-.689v9.183l1.194.689Z" transform="translate(-74.433 -432.106)" fill="#fcfdff" fill-rule="evenodd"/><path d="M67.007,427.454l-.54.312v8.61l.54-.311Z" transform="translate(-62.66 -424.771)" fill="#d0d2d3" fill-rule="evenodd"/></g></g></g><g transform="translate(36.177 138.609)"><path d="M23.767,409.444l-19.4,16.625V466.1l19.4-11.2Z" transform="translate(-4.371 -409.444)" fill="#989898" fill-rule="evenodd"/></g><g transform="translate(36.177 138.61)"><g transform="translate(0 0)"><g clip-path="url(#ae)"><g transform="translate(-2.765 -76.493)"><path d="M141.6,360.084-1.356,442.619v1.164L141.6,361.248Z" transform="translate(1.356 -307.419)" fill="#8c8b8b" fill-rule="evenodd"/><path d="M141.6,349.175-1.356,431.71v1.164L141.6,350.339Z" transform="translate(1.356 -301.777)" fill="#8c8b8b" fill-rule="evenodd"/><path d="M141.6,338.266-1.356,420.8v1.164L141.6,339.43Z" transform="translate(1.356 -296.134)" fill="#8c8b8b" fill-rule="evenodd"/><path d="M141.6,327.356-1.356,409.89v1.164L141.6,328.52Z" transform="translate(1.356 -290.491)" fill="#8c8b8b" fill-rule="evenodd"/><path d="M141.6,316.447-1.356,398.982v1.164L141.6,317.612v-1.164Z" transform="translate(1.356 -284.848)" fill="#8c8b8b" fill-rule="evenodd"/><path d="M141.6,305.537-1.356,388.072v1.164L141.6,306.7Z" transform="translate(1.356 -279.205)" fill="#8c8b8b" fill-rule="evenodd"/><path d="M141.6,294.628-1.356,377.163v1.164L141.6,295.792Z" transform="translate(1.356 -273.562)" fill="#8c8b8b" fill-rule="evenodd"/><path d="M141.6,283.718-1.356,366.253v1.164L141.6,284.882v-1.164Z" transform="translate(1.356 -267.919)" fill="#8c8b8b" fill-rule="evenodd"/><path d="M141.6,272.806-1.356,355.341v1.164L141.6,273.97Z" transform="translate(1.356 -262.274)" fill="#8c8b8b" fill-rule="evenodd"/><path d="M141.6,261.9-1.356,344.434V345.6L141.6,263.063V261.9Z" transform="translate(1.356 -256.633)" fill="#8c8b8b" fill-rule="evenodd"/><path d="M141.6,250.99-1.356,333.525v1.164L141.6,252.154Z" transform="translate(1.356 -250.99)" fill="#8c8b8b" fill-rule="evenodd"/></g></g></g></g><g transform="translate(39.46 148.919)"><path d="M11.171,438.208,24,430.8v19.182l-12.83,7.407Z" transform="translate(-11.171 -430.801)" fill="#fff" fill-rule="evenodd"/><path d="M12.028,439.508l12-6.929v17.944l-12,6.929Z" transform="translate(-11.614 -431.721)" fill="#fff" fill-rule="evenodd"/><path d="M13.986,442.472,24.1,436.634v15.12l-10.112,5.838Z" transform="translate(-12.627 -433.818)" fill="#fff" fill-rule="evenodd"/></g><g transform="translate(40.818 151.735)"><g transform="translate(0)"><g clip-path="url(#af)"><g transform="translate(-0.945 -1.718)"><path d="M12.029,441.343l10.112-5.838v15.118l-10.112,5.838Z" transform="translate(-12.029 -434.332)" fill="#cccbcb" fill-rule="evenodd"/><path d="M12.029,441.343l10.112-5.838v7.9L12.029,449.24Z" transform="translate(-12.029 -434.332)" fill="#9d9d9d" fill-rule="evenodd"/><path d="M32.975,433.076l2.306,1.331V450.7l-2.306-1.331Z" transform="translate(-22.863 -433.076)" fill="#bbbdbf" fill-rule="evenodd"/><path d="M12.864,455.3l10.112-5.838v1.173l-10.112,5.838v-1.173Z" transform="translate(-12.461 -441.554)" fill="#f1f1f2" fill-rule="evenodd"/><path d="M22.6,449.015l.378.218-9.734,5.621-.378-.219,9.735-5.62Z" transform="translate(-12.461 -441.321)" fill="#fff" fill-rule="evenodd"/><path d="M32.012,437.335l.869-.5v6.683l-.869.5Z" transform="translate(-22.365 -435.019)" fill="#fcfdff" fill-rule="evenodd"/><path d="M13.646,447.943l.869-.5v6.683l-.869.5Z" transform="translate(-12.865 -440.506)" fill="#fcfdff" fill-rule="evenodd"/><path d="M31.2,437.12l.393.227v6.267l-.393-.227Z" transform="translate(-21.944 -435.168)" fill="#e6e7e8" fill-rule="evenodd"/></g></g></g></g><g transform="translate(4.19 136.768)"><path d="M-29.9,424.1l-31.986-18.467v40.034L-29.9,464.13Z" transform="translate(61.889 -405.629)" fill="#fff" fill-rule="evenodd"/></g><g transform="translate(4.19 136.768)"><g transform="translate(0 0)"><g clip-path="url(#ag)"><g transform="translate(-35.969 -57.098)"><path d="M-36.479,492.273-136.4,434.585v1.536l99.918,57.688Z" transform="translate(136.397 -363.509)" fill="#fff" fill-rule="evenodd"/><path d="M-36.479,480-136.4,422.315v1.536l99.918,57.688V480Z" transform="translate(136.397 -357.162)" fill="#fff" fill-rule="evenodd"/><path d="M-36.479,467.734-136.4,410.046v1.536l99.918,57.688v-1.536Z" transform="translate(136.397 -350.816)" fill="#fff" fill-rule="evenodd"/><path d="M-36.479,455.464-136.4,397.776v1.536L-36.479,457Z" transform="translate(136.397 -344.469)" fill="#fff" fill-rule="evenodd"/><path d="M-36.479,443.19-136.4,385.5v1.536l99.918,57.688Z" transform="translate(136.397 -338.12)" fill="#fff" fill-rule="evenodd"/><path d="M-36.479,430.925-136.4,373.237v1.536l99.918,57.688Z" transform="translate(136.397 -331.776)" fill="#fff" fill-rule="evenodd"/><path d="M-36.479,418.656-136.4,360.968V362.5l99.918,57.688v-1.536Z" transform="translate(136.397 -325.43)" fill="#fff" fill-rule="evenodd"/><path d="M-36.479,406.387-136.4,348.7v1.536l99.918,57.688Z" transform="translate(136.397 -319.084)" fill="#fff" fill-rule="evenodd"/><path d="M-36.479,394.117-136.4,336.429v1.536l99.918,57.688Z" transform="translate(136.397 -312.737)" fill="#fff" fill-rule="evenodd"/><path d="M-36.479,381.848-136.4,324.16V325.7l99.918,57.688Z" transform="translate(136.397 -306.391)" fill="#fff" fill-rule="evenodd"/><path d="M-36.479,369.579-136.4,311.891v1.536l99.918,57.688Z" transform="translate(136.397 -300.045)" fill="#fff" fill-rule="evenodd"/><path d="M-36.479,357.312-136.4,299.624v1.536l99.918,57.688Z" transform="translate(136.397 -293.7)" fill="#fff" fill-rule="evenodd"/><path d="M-36.479,345.04-136.4,287.352v1.536l99.918,57.688Z" transform="translate(136.397 -287.352)" fill="#fff" fill-rule="evenodd"/></g></g></g></g><g transform="translate(9.794 140.033)"><path d="M-32.652,422.571l-17.629-10.178v26.358l17.629,10.178Z" transform="translate(50.281 -412.393)" fill="#fff" fill-rule="evenodd"/><path d="M-32.611,424.357-49.1,414.836v24.656l16.491,9.521Z" transform="translate(49.671 -413.657)" fill="#fff" fill-rule="evenodd"/><path d="M-32.515,428.432l-13.894-8.022v20.773l13.894,8.022Z" transform="translate(48.278 -416.54)" fill="#fff" fill-rule="evenodd"/></g><g transform="translate(11.663 143.903)"><g clip-path="url(#ah)"><g transform="translate(-1.872 -2.361)"><path d="M-29.83,426.879l-13.894-8.022V439.63l13.894,8.022Z" transform="translate(46.892 -417.246)" fill="#ffcd72" fill-rule="evenodd"/><path d="M-47.118,415.52l-3.169,1.83v22.384l3.169-1.83Z" transform="translate(50.287 -415.52)" fill="#ffebc6" fill-rule="evenodd"/><path d="M-30.978,446.063l-13.894-8.022v1.611l13.894,8.022Z" transform="translate(47.486 -427.169)" fill="#fff5e3" fill-rule="evenodd"/><path d="M-44.353,437.425l-.519.3,13.375,7.724.519-.3-13.375-7.724Z" transform="translate(47.486 -426.85)" fill="#fff" fill-rule="evenodd"/><path d="M-43.679,421.377l-1.193-.689v9.183l1.193.689Z" transform="translate(47.486 -418.193)" fill="#fcfdff" fill-rule="evenodd"/><path d="M-18.444,435.946l-1.193-.689v9.183l1.193.689Z" transform="translate(34.433 -425.729)" fill="#fcfdff" fill-rule="evenodd"/><path d="M-41.86,421.077l-.54.312V430l.54-.312Z" transform="translate(46.207 -418.394)" fill="#ffebc6" fill-rule="evenodd"/></g></g></g><g transform="translate(11.663 143.903)"><path d="M-32.515,428.432l-13.894-8.022v20.773l13.894,8.022Z" transform="translate(46.409 -420.41)" fill="#fff" fill-rule="evenodd"/></g><g transform="translate(11.663 143.903)"><g clip-path="url(#ah)"><g transform="translate(-1.872 -2.361)"><path d="M-29.83,426.879l-13.894-8.022V439.63l13.894,8.022Z" transform="translate(46.892 -417.246)" fill="#cccbcb" fill-rule="evenodd"/><path d="M-29.83,426.879l-13.894-8.022v10.6l13.894,8.022Z" transform="translate(46.892 -417.246)" fill="#9d9d9d" fill-rule="evenodd"/><path d="M-47.118,415.52l-3.169,1.83v22.384l3.169-1.83Z" transform="translate(50.287 -415.52)" fill="#bbbdbf" fill-rule="evenodd"/><path d="M-30.978,446.063l-13.894-8.022v1.611l13.894,8.022Z" transform="translate(47.486 -427.169)" fill="#f1f1f2" fill-rule="evenodd"/><path d="M-44.353,437.425l-.519.3,13.375,7.724.519-.3-13.375-7.724Z" transform="translate(47.486 -426.85)" fill="#fff" fill-rule="evenodd"/><path d="M-43.679,421.377l-1.193-.689v9.183l1.193.689Z" transform="translate(47.486 -418.193)" fill="#fcfdff" fill-rule="evenodd"/><path d="M-18.444,435.946l-1.193-.689v9.183l1.193.689Z" transform="translate(34.433 -425.729)" fill="#fcfdff" fill-rule="evenodd"/><path d="M-41.86,421.077l-.54.312V430l.54-.312Z" transform="translate(46.207 -418.394)" fill="#d0d2d3" fill-rule="evenodd"/></g></g></g><g transform="translate(0 65.356)"><path d="M-12.064,379.079l-21.924,24.926-36.581-21.12,21.923-24.926" transform="translate(70.569 -309.56)" fill="#414141" fill-rule="evenodd"/><path d="M-34.069,430.666l-36.5-21.072v3.444l36.5,21.072Z" transform="translate(70.567 -336.268)" fill-rule="evenodd"/><path d="M5.035,430.031l22.007-24.818v-3.5L5.035,426.587v3.444Z" transform="translate(31.463 -332.19)" fill-rule="evenodd"/><path d="M59.138,257.7l-7.553,4.361,6.692,3.862,7.553-4.361Z" transform="translate(7.384 -257.701)" fill="#d0d2d3" fill-rule="evenodd"/><path d="M60.848,259.724l-5.759,3.325,5.1,2.945,5.759-3.325Z" transform="translate(5.572 -258.747)" fill="#a6a8ab" fill-rule="evenodd"/></g><g transform="translate(60.661 66.333)"><g transform="translate(0 0)"><g clip-path="url(#aj)"><g transform="translate(-2.189 -2.384)"><path d="M58.6,254.787l-8.05,4.648V272.5l8.05-4.648Z" transform="translate(-50.555 -254.787)" fill="#404041" fill-rule="evenodd"/></g></g></g></g><g transform="translate(58.969 61.123)"><path d="M73,265.7l-7.553,4.361v9.484L73,275.189Z" transform="translate(-58.756 -257.608)" fill="#2e2e2e" fill-rule="evenodd"/><path d="M51.585,282.917V266.731l6.692,3.862v9.462l-6.692,2.86Z" transform="translate(-51.585 -258.138)" fill="#616262" fill-rule="evenodd"/><path d="M237.12,301.534,212.284,287.2v2.537l24.836,14.338Z" transform="translate(-134.707 -268.724)" fill="#fff" fill-rule="evenodd"/><path d="M263.731,288.716,290,259.8l22.105-.917.1-1.371-22.791.633-25.682,28.038v2.534Z" transform="translate(-161.318 -253.369)" fill="#e8e7e7" fill-rule="evenodd"/><path d="M391.6,429.364l13.176,11.291.028,2.378-13.131-11.306-.073-2.365Z" transform="translate(-227.457 -342.26)" fill="#d5d6d5" fill-rule="evenodd"/><path d="M391.6,428.953l13.2,11.521,1.3-.59L392.91,428.446Z" transform="translate(-227.458 -341.786)" fill="#e8e7e7" fill-rule="evenodd"/><path d="M420.291,432.975l-1.255.724v15.218l1.255-.724Z" transform="translate(-241.651 -344.129)" fill="#b8b8b8" fill-rule="evenodd"/><path d="M417.691,433.693l-1.255-.724v10.636l1.255,1.25Z" transform="translate(-240.306 -344.126)" fill="#d5d6d5" fill-rule="evenodd"/><path d="M420.726,433.039l-1.78,1.028V435.5l1.78-1.028Z" transform="translate(-241.604 -344.162)" fill="#b8b8b8" fill-rule="evenodd"/><path d="M399.475,416.7l-1.079.623V425.7l1.079-.623Z" transform="translate(-230.974 -335.709)" fill="#b8b8b8" fill-rule="evenodd"/><path d="M397.051,412.6l-1.255-.724v11.182l1.255.724Z" transform="translate(-229.63 -333.215)" fill="#d5d6d5" fill-rule="evenodd"/><path d="M406.845,422.934l-1.079.623v8.375l1.079-.624Z" transform="translate(-234.787 -338.935)" fill="#b8b8b8" fill-rule="evenodd"/><path d="M404.425,418.835l-1.255-.724v11.182l1.255.724Z" transform="translate(-233.444 -336.44)" fill="#d5d6d5" fill-rule="evenodd"/><path d="M413.226,428.686l-1.079.623v8.375l1.079-.623Z" transform="translate(-238.087 -341.91)" fill="#b8b8b8" fill-rule="evenodd"/><path d="M410.8,424.587l-1.255-.724v11.18l1.255.724Z" transform="translate(-236.742 -339.415)" fill="#d5d6d5" fill-rule="evenodd"/><path d="M391.6,411.17l13.176,11.291.028,2.378-13.131-11.306-.073-2.365Z" transform="translate(-227.457 -332.849)" fill="#d5d6d5" fill-rule="evenodd"/><path d="M391.506,410.4l13.247,11.4,1.78-1.028-13.174-11.446Z" transform="translate(-227.41 -331.898)" fill="#e8e7e7" fill-rule="evenodd"/><path d="M346.483,431.732,306.3,456.752l6.908,3.988,41.76-24.11Z" transform="translate(-183.337 -343.486)" fill="#707171" fill-rule="evenodd"/><path d="M362.369,450.288l-41.76,24.11,5.93,3.424,41.76-24.11-5.93-3.424Z" transform="translate(-190.739 -353.084)" fill="#707171" fill-rule="evenodd"/><path d="M362.369,441.877l-41.76,24.111v4.06l41.76-24.11v-4.06Z" transform="translate(-190.739 -348.733)" fill="#919090" fill-rule="evenodd"/><path d="M375.773,456.04,332.889,480.8v4.06L375.773,460.1Z" transform="translate(-197.091 -356.059)" fill="#919090" fill-rule="evenodd"/><path d="M308.325,484.729l5.93,3.424v4.06l5.93,3.424v4.06l-11.86-6.848Z" transform="translate(-184.385 -370.899)" fill="#d1d1d1" fill-rule="evenodd"/><path d="M305.544,479.048l13.176,11.29.027,2.378L305.617,481.41l-.073-2.365Z" transform="translate(-182.946 -367.959)" fill="#d5d6d5" fill-rule="evenodd"/><path d="M305.545,478.632l13.2,11.521,1.3-.589-13.188-11.436-1.313.507Z" transform="translate(-182.947 -367.484)" fill="#e8e7e7" fill-rule="evenodd"/><path d="M334.239,482.657l-1.255.724V498.6l1.255-.724Z" transform="translate(-197.14 -369.827)" fill="#b8b8b8" fill-rule="evenodd"/><path d="M331.64,483.374l-1.255-.724v10.636l1.255,1.249Z" transform="translate(-195.795 -369.823)" fill="#d5d6d5" fill-rule="evenodd"/><path d="M334.674,482.717l-1.78,1.028v1.436l1.78-1.028Z" transform="translate(-197.093 -369.858)" fill="#b8b8b8" fill-rule="evenodd"/><path d="M313.425,466.38l-1.078.624v8.375l1.079-.623V466.38Z" transform="translate(-186.465 -361.408)" fill="#b8b8b8" fill-rule="evenodd"/><path d="M311,462.281l-1.255-.724v11.182l1.255.724Z" transform="translate(-185.119 -358.913)" fill="#d5d6d5" fill-rule="evenodd"/><path d="M320.793,472.616l-1.079.623v8.375l1.079-.623Z" transform="translate(-190.276 -364.633)" fill="#b8b8b8" fill-rule="evenodd"/><path d="M318.373,468.518l-1.255-.724v11.182l1.255.724Z" transform="translate(-188.933 -362.139)" fill="#d5d6d5" fill-rule="evenodd"/><path d="M327.173,478.368l-1.079.623v8.375l1.079-.623v-8.375Z" transform="translate(-193.576 -367.609)" fill="#b8b8b8" fill-rule="evenodd"/><path d="M324.75,474.269l-1.255-.724v11.182l1.255.724Z" transform="translate(-192.232 -365.114)" fill="#d5d6d5" fill-rule="evenodd"/><path d="M305.544,460.852l13.175,11.291.028,2.378-13.131-11.306-.073-2.366Z" transform="translate(-182.946 -358.547)" fill="#d5d6d5" fill-rule="evenodd"/><path d="M305.545,460.723l13.2,11.1,1.78-1.028L307.3,459.661l-1.75,1.062Z" transform="translate(-182.947 -357.932)" fill="#e8e7e7" fill-rule="evenodd"/><path d="M468.873,303.972a3.392,3.392,0,0,1,3.067,0,.935.935,0,0,1,0,1.771,3.389,3.389,0,0,1-3.067,0A.935.935,0,0,1,468.873,303.972Z" transform="translate(-267.1 -277.212)" fill="#929497" fill-rule="evenodd"/><path d="M451.287,371.495h.009a.857.857,0,0,0,.459.552,2.5,2.5,0,0,0,2.26,0,.859.859,0,0,0,.459-.552h.009v1.293h-.009a.859.859,0,0,1-.459.552,2.5,2.5,0,0,1-2.26,0,.857.857,0,0,1-.459-.552h-.009Z" transform="translate(-258.332 -312.328)" fill="#ffd992" fill-rule="evenodd"/><path d="M451.2,371.556h.01a.88.88,0,0,0,.471.567,2.565,2.565,0,0,0,2.322,0,.881.881,0,0,0,.471-.567h.01v1.328h-.01a.88.88,0,0,1-.471.567,2.565,2.565,0,0,1-2.322,0,.88.88,0,0,1-.471-.567h-.01Z" transform="translate(-258.285 -312.36)" fill="#fff" fill-rule="evenodd"/><path d="M451.287,338.948h.009a.857.857,0,0,0,.459.552,2.5,2.5,0,0,0,2.26,0,.859.859,0,0,0,.459-.552h.009v1.292h-.009a.859.859,0,0,1-.459.552,2.5,2.5,0,0,1-2.26,0,.857.857,0,0,1-.459-.552h-.009Z" transform="translate(-258.332 -295.493)" fill="#ffd992" fill-rule="evenodd"/><path d="M451.2,339.009h.01a.88.88,0,0,0,.471.567,2.568,2.568,0,0,0,2.322,0,.881.881,0,0,0,.471-.567h.01v1.328h-.01a.881.881,0,0,1-.471.567,2.565,2.565,0,0,1-2.322,0,.88.88,0,0,1-.471-.567h-.01Z" transform="translate(-258.285 -295.525)" fill="#fff" fill-rule="evenodd"/><path d="M451.287,410.3h.009a.857.857,0,0,0,.459.552,2.5,2.5,0,0,0,2.26,0,.859.859,0,0,0,.459-.552h.009v1.292h-.009a.859.859,0,0,1-.459.552,2.5,2.5,0,0,1-2.26,0,.857.857,0,0,1-.459-.552h-.009Z" transform="translate(-258.332 -332.399)" fill="#ffd992" fill-rule="evenodd"/><path d="M451.2,410.359h.01a.88.88,0,0,0,.471.567,2.568,2.568,0,0,0,2.322,0,.881.881,0,0,0,.471-.567h.01v1.328h-.01a.881.881,0,0,1-.471.567,2.565,2.565,0,0,1-2.322,0,.88.88,0,0,1-.471-.567h-.01Z" transform="translate(-258.285 -332.431)" fill="#fff" fill-rule="evenodd"/><path d="M71.7,262.063l-4.476-3.15a.162.162,0,1,1,.187-.265l4.683,3.3a.163.163,0,0,1,.068.14.159.159,0,0,1-.081.133l-6.521,3.765a.161.161,0,0,1-.165,0,.163.163,0,0,1-.078-.145l.263-6.375a.162.162,0,1,1,.324.013l-.251,6.083,6.046-3.491Z" transform="translate(-58.69 -253.942)" fill="#b7b7b7" fill-rule="evenodd"/><path d="M53.478,260.931l4.957-2.862a.163.163,0,0,1,.222.059h0a.163.163,0,0,1-.059.222h0L53,261.584a.162.162,0,0,1-.213-.235l3.53-4.96a.162.162,0,0,1,.264.188l-3.1,4.353Z" transform="translate(-52.19 -252.754)" fill="#b7b7b7" fill-rule="evenodd"/><path d="M54.774,250.049a10.342,10.342,0,0,1,9.351,0c2.58,1.49,2.581,3.91,0,5.4a10.345,10.345,0,0,1-9.351,0C52.193,253.958,52.193,251.538,54.774,250.049Z" transform="translate(-52.233 -248.932)" fill="#e6e7e8" fill-rule="evenodd"/></g><g transform="translate(59.574 61.123)"><g clip-path="url(#ak)"><g transform="translate(6.67 1.017)"><path d="M66.655,251.518l1.738,6.421,4.6-1.255.772-2.582-6.2-3.063" transform="translate(-66.655 -251.038)" fill="#f1f1f2" fill-rule="evenodd"/></g></g></g><g transform="translate(50.075 124.671)"><path d="M585.744,520.145a1.347,1.347,0,0,1,1.215,0,.37.37,0,0,1,0,.7,1.344,1.344,0,0,1-1.215,0,.37.37,0,0,1,0-.7Z" transform="translate(-318.856 -452.691)" fill="#e8e7e7" fill-rule="evenodd"/><path d="M241.226,505.388c-.73-.422-1.323-.044-1.323.842a3,3,0,0,0,1.323,2.37c.73.422,1.323.044,1.323-.842A3,3,0,0,0,241.226,505.388Z" transform="translate(-140.099 -445.044)" fill="#fff" fill-rule="evenodd"/><path d="M213.829,520.326c-.879-.507-1.593-.053-1.593,1.014a3.612,3.612,0,0,0,1.593,2.852c.879.507,1.593.053,1.593-1.014A3.616,3.616,0,0,0,213.829,520.326Z" transform="translate(-125.788 -452.753)" fill="#fff" fill-rule="evenodd"/><path d="M204.079,397.3l-3.5-15.9a1.053,1.053,0,0,0-2.057.453l1.563,7.1-10.121,5.841-1.42-6.449a1.053,1.053,0,0,0-2.057.453l28.258,128.365a1.053,1.053,0,1,0,2.057-.453l-1.162-5.279,10.121-5.841,1.019,4.627a1.053,1.053,0,0,0,2.057-.453l-20.8-94.491,0-.019L204.318,398.4a1.05,1.05,0,0,0-.24-1.091Zm19.443,98.121,1.762,8.007-10.121,5.841-1.772-8.051a1.047,1.047,0,0,0,.282-.112l9.848-5.687Zm-2.386-10.84,1.911,8.681-10.121,5.841-1.911-8.682.018-.01,10.1-5.833Zm-2.165-9.833,1.69,7.676-10.122,5.841-1.693-7.692a1.052,1.052,0,0,0,.173-.08l9.952-5.745Zm-2.15-9.767,1.675,7.608-10.121,5.841-1.682-7.641a1.037,1.037,0,0,0,.241-.1l9.888-5.708Zm-2.169-9.852,1.693,7.693-10.121,5.841-1.706-7.747a1.048,1.048,0,0,0,.313-.119l9.82-5.67Zm-2.333-10.6,1.858,8.439-10.121,5.841-1.858-8.44.037-.021,10.084-5.822Zm-1.976-8.976,1.5,6.817-10.121,5.842-1.5-6.828a1.033,1.033,0,0,0,.134-.065l9.99-5.768Zm-.475-2.159-10.121,5.841-1.317-5.986,10.121-5.841Zm-3.583-16.278,1.791,8.134L197.954,431.1l-1.806-8.2a1.045,1.045,0,0,0,.353-.127l9.783-5.648Zm-1.912-8.685,1.437,6.526L195.688,420.8l-1.448-6.573a1.038,1.038,0,0,0,.29-.114l9.84-5.681Zm-1.911-8.679,1.435,6.52-10.121,5.841-1.466-6.659a1.045,1.045,0,0,0,.515-.141l9.637-5.564Zm-.475-2.159-10.121,5.841-1.428-6.488,10.121-5.841Z" transform="translate(-112.455 -380.571)" fill="#fff" fill-rule="evenodd"/><path d="M343.743,506.4l1.829-1.056-1.1,1.905-26.11,15.075-32.6-38.046,26.107-15.076,31.875,37.2Z" transform="translate(-163.817 -426.418)" fill="#707171" fill-rule="evenodd"/><path d="M288.037,480.333l32.6,38.047,26.11-15.074-32.6-38.047Z" transform="translate(-164.996 -424.376)" fill="#a8a8a8" fill-rule="evenodd"/><path d="M293.565,483.163l30.072,35.093L346.7,504.938l-30.072-35.092Z" transform="translate(-167.856 -426.749)" fill="#2e2e2e" fill-rule="evenodd"/><path d="M286.86,496.485l-1.1,1.905,32.6,38.051L319.7,534.4Z" transform="translate(-163.818 -440.528)" fill="#b8b8b8" fill-rule="evenodd"/><path d="M317.106,483.441l30.172,35.036a.27.27,0,1,0,.408-.352l-30.172-35.036a.27.27,0,0,0-.408.352Z" transform="translate(-179.998 -433.551)" fill="#a8a8a8" fill-rule="evenodd"/><path d="M305.557,490.109l30.172,35.036a.27.27,0,1,0,.408-.352l-30.171-35.036a.27.27,0,0,0-.408.352Z" transform="translate(-174.025 -437)" fill="#a8a8a8" fill-rule="evenodd"/><path d="M329.46,476.308l30.172,35.036a.27.27,0,0,0,.408-.352l-30.172-35.036a.27.27,0,0,0-.408.352Z" transform="translate(-186.388 -429.861)" fill="#a8a8a8" fill-rule="evenodd"/><path d="M313.1,505.974l23.147-13.364a.269.269,0,0,0-.269-.467h0l-23.149,13.365a.269.269,0,1,0,.269.467h0Z" transform="translate(-177.748 -438.264)" fill="#a8a8a8" fill-rule="evenodd"/><path d="M335.22,532.131l24.049-13.886a.27.27,0,0,0-.269-.467L334.95,531.666a.269.269,0,1,0,.269.467Z" transform="translate(-189.192 -451.523)" fill="#a8a8a8" fill-rule="evenodd"/><path d="M365.176,512.239,367,511.183l-1.1,1.905-26.11,15.074-32.6-38.047L333.3,475.042Z" transform="translate(-174.904 -429.437)" fill="#707171" fill-rule="evenodd"/><path d="M309.47,486.169l32.6,38.047,26.11-15.074-32.6-38.047Z" transform="translate(-176.082 -427.395)" fill="#a8a8a8" fill-rule="evenodd"/><path d="M314.995,489l30.072,35.093,23.065-13.316-30.07-35.093L315,489Z" transform="translate(-178.94 -429.768)" fill="#2e2e2e" fill-rule="evenodd"/><path d="M308.291,502.321l-1.1,1.905,32.6,38.051,1.341-2.044Z" transform="translate(-174.904 -443.547)" fill="#b8b8b8" fill-rule="evenodd"/><path d="M338.539,489.277l30.172,35.036a.27.27,0,1,0,.408-.352l-30.172-35.036a.27.27,0,0,0-.408.352Z" transform="translate(-191.084 -436.569)" fill="#a8a8a8" fill-rule="evenodd"/><path d="M326.989,495.946l30.172,35.036a.27.27,0,0,0,.408-.352L327.4,495.594a.27.27,0,0,0-.408.352Z" transform="translate(-185.11 -440.019)" fill="#a8a8a8" fill-rule="evenodd"/><path d="M350.894,482.145l30.172,35.036a.27.27,0,1,0,.408-.352L351.3,481.793a.27.27,0,0,0-.408.352h0Z" transform="translate(-197.476 -432.88)" fill="#a8a8a8" fill-rule="evenodd"/><path d="M334.529,511.806l23.149-13.365a.269.269,0,0,0-.269-.467L334.259,511.34a.269.269,0,1,0,.269.467h0Z" transform="translate(-188.835 -441.28)" fill="#a8a8a8" fill-rule="evenodd"/><path d="M356.653,537.969,380.7,524.084a.269.269,0,0,0-.269-.467h0L356.383,537.5a.269.269,0,1,0,.269.467Z" transform="translate(-200.279 -454.544)" fill="#a8a8a8" fill-rule="evenodd"/><path d="M33.16,484.265l18.174,10.417v14.6L33.16,498.86Z" transform="translate(-33.16 -434.207)" fill="#fff3dc" fill-rule="evenodd"/><path d="M70.807,501.731l6.7-3.84v14.6l-6.7,3.84Z" transform="translate(-52.633 -441.255)" fill="#ffebc6" fill-rule="evenodd"/><path d="M74.776,508.072a.557.557,0,0,1,.233-.444l3.106-1.793c.128-.074.233,0,.233.176v.62a.559.559,0,0,1-.233.445l-3.106,1.793c-.128.074-.233,0-.233-.176Z" transform="translate(-54.686 -445.35)" fill="#ffdd9f" fill-rule="evenodd"/><path d="M39.86,476.313,58.033,486.73l-6.7,3.84L33.16,480.154l6.7-3.84Z" transform="translate(-33.16 -430.094)" fill="#fff8ee" fill-rule="evenodd"/><path d="M49.838,498.826c-2.954-1.693-5.352-.185-5.352,3.366a12.024,12.024,0,0,0,5.352,9.5c2.954,1.693,5.352.185,5.352-3.366A12.024,12.024,0,0,0,49.838,498.826Z" transform="translate(-39.018 -441.379)" fill="#fdbe4d" fill-rule="evenodd"/><path d="M51.916,501.527l2.792,3.954-1.4,1.413,2.259,2.152L54.5,512.219l-2.259-2.152v2.743l-3.451-1.993v-2.742l-2.259-.457-1.066-4.4,2.259.456-1.4-3.024,2.792-.73,1.4,3.024,1.4-1.413Z" transform="translate(-39.527 -442.302)" fill="#fcb93d" fill-rule="evenodd"/><path d="M52.066,504.285c-1.808-1.036-3.275-.113-3.275,2.059a7.357,7.357,0,0,0,3.275,5.814c1.808,1.035,3.275.113,3.275-2.059A7.357,7.357,0,0,0,52.066,504.285Z" transform="translate(-41.245 -444.343)" fill="#ffe0a5" fill-rule="evenodd"/><path d="M379.237,638.082l-12.754,7.724.139,6.662,12.754-7.724Z" transform="translate(-205.573 -513.77)" fill="#ffb327" fill-rule="evenodd"/><path d="M357.072,648.906l-8.784-4.828.139,6.662,8.786,4.827-.139-6.662Z" transform="translate(-196.161 -516.871)" fill="#dd9614" fill-rule="evenodd"/><path d="M361.042,628.078,348.288,635.8l8.784,4.827,12.754-7.724Z" transform="translate(-196.161 -508.595)" fill="#ffca67" fill-rule="evenodd"/><path d="M369.562,632.764l-12.754,7.724.279.153,12.754-7.724Z" transform="translate(-200.568 -511.019)" fill="#474748" fill-rule="evenodd"/><path d="M353.549,649.781l-3.6-1.979.086,4.112,3.6,1.982-.086-4.112Z" transform="translate(-197.018 -518.797)" fill="#fff" fill-rule="evenodd"/><path d="M361.295,654.041l-2.959-1.627.021,1.017,2.959,1.627-.021-1.016Z" transform="translate(-201.359 -521.183)" fill="#fff" fill-rule="evenodd"/><path d="M360.365,656.358l-1.969-1.082.021,1.016,1.969,1.082-.021-1.017Z" transform="translate(-201.39 -522.663)" fill="#fff" fill-rule="evenodd"/><path d="M373.435,626.061l-12.754,7.724.139,6.662,12.754-7.724Z" transform="translate(-202.572 -507.552)" fill="#ffb327" fill-rule="evenodd"/><path d="M351.27,636.883l-8.784-4.827.139,6.662,8.786,4.827-.139-6.662Z" transform="translate(-193.16 -510.653)" fill="#dd9614" fill-rule="evenodd"/><path d="M355.24,616.057l-12.754,7.724,8.784,4.827,12.754-7.724Z" transform="translate(-193.16 -502.377)" fill="#ffca67" fill-rule="evenodd"/><path d="M363.759,620.741l-12.753,7.724.279.154,12.754-7.724-.279-.154Z" transform="translate(-197.567 -504.8)" fill="#dd9614" fill-rule="evenodd"/><path d="M347.742,637.761l-3.6-1.982.086,4.112,3.6,1.982Z" transform="translate(-194.015 -512.578)" fill="#fff" fill-rule="evenodd"/><path d="M355.491,642.02l-2.959-1.627.021,1.017,2.959,1.627Z" transform="translate(-198.356 -514.965)" fill="#fff" fill-rule="evenodd"/><path d="M354.562,644.337l-1.969-1.082.021,1.018,1.969,1.082Z" transform="translate(-198.388 -516.445)" fill="#fff" fill-rule="evenodd"/></g></g></g></svg>