<svg xmlns="http://www.w3.org/2000/svg" xmlns:xlink="http://www.w3.org/1999/xlink" width="201.416" height="265.026" viewBox="0 0 201.416 265.026"><defs><clipPath id="a"><rect width="109.083" height="265.026" fill="none"/></clipPath><clipPath id="c"><rect width="17.846" height="27.187" fill="none"/></clipPath><clipPath id="d"><rect width="16.226" height="24.133" fill="none"/></clipPath><clipPath id="e"><rect width="11.128" height="6.956" fill="none"/></clipPath><clipPath id="f"><rect width="12.006" height="10.111" fill="none"/></clipPath><clipPath id="g"><rect width="23.887" height="57.227" fill="none"/></clipPath><clipPath id="h"><rect width="27.995" height="62.541" fill="none"/></clipPath><clipPath id="i"><rect width="11.826" height="3.314" fill="none"/></clipPath><clipPath id="j"><rect width="18.136" height="6.325" fill="none"/></clipPath><clipPath id="k"><rect width="15.229" height="3.797" fill="none"/></clipPath><clipPath id="l"><rect width="7.854" height="12.051" fill="none"/></clipPath><clipPath id="m"><rect width="9.711" height="13.167" fill="none"/></clipPath><clipPath id="n"><rect width="5.854" height="12.014" fill="#f45f5c"/></clipPath><clipPath id="o"><rect width="6.228" height="11.868" fill="#f45f5c"/></clipPath><clipPath id="p"><rect width="48.731" height="40.729" fill="none"/></clipPath><clipPath id="q"><rect width="18.879" height="15.911" fill="none"/></clipPath><clipPath id="r"><rect width="12.523" height="13.64" fill="none"/></clipPath><clipPath id="t"><rect width="12.444" height="13.555" fill="none"/></clipPath><clipPath id="u"><rect width="12.366" height="13.47" fill="none"/></clipPath><clipPath id="v"><rect width="12.288" height="13.385" fill="none"/></clipPath><clipPath id="w"><rect width="12.21" height="13.299" fill="none"/></clipPath><clipPath id="x"><rect width="12.131" height="13.214" fill="none"/></clipPath><clipPath id="y"><rect width="12.053" height="13.129" fill="none"/></clipPath><clipPath id="z"><rect width="11.975" height="13.044" fill="none"/></clipPath><clipPath id="aa"><rect width="11.896" height="12.959" fill="none"/></clipPath><clipPath id="ab"><rect width="11.818" height="12.872" fill="none"/></clipPath><clipPath id="ac"><rect width="11.74" height="12.787" fill="none"/></clipPath><clipPath id="ad"><rect width="11.662" height="12.702" fill="none"/></clipPath><clipPath id="ae"><rect width="11.583" height="12.617" fill="none"/></clipPath><clipPath id="af"><rect width="11.505" height="12.532" fill="none"/></clipPath><clipPath id="ag"><rect width="11.427" height="12.446" fill="none"/></clipPath><clipPath id="ah"><rect width="11.349" height="12.361" fill="none"/></clipPath><clipPath id="ai"><rect width="11.27" height="12.276" fill="none"/></clipPath><clipPath id="aj"><rect width="11.192" height="12.191" fill="none"/></clipPath><clipPath id="ak"><rect width="11.114" height="12.106" fill="none"/></clipPath><clipPath id="al"><rect width="11.036" height="12.02" fill="none"/></clipPath><clipPath id="am"><rect width="10.957" height="11.935" fill="none"/></clipPath><clipPath id="an"><rect width="10.879" height="11.85" fill="none"/></clipPath><clipPath id="ao"><rect width="10.801" height="11.765" fill="none"/></clipPath><clipPath id="ap"><rect width="10.722" height="11.679" fill="none"/></clipPath><clipPath id="aq"><rect width="10.644" height="11.594" fill="none"/></clipPath><clipPath id="ar"><rect width="10.566" height="11.509" fill="none"/></clipPath><clipPath id="as"><rect width="10.488" height="11.424" fill="none"/></clipPath><clipPath id="at"><rect width="10.409" height="11.339" fill="none"/></clipPath><clipPath id="au"><rect width="10.331" height="11.252" fill="none"/></clipPath><clipPath id="av"><rect width="10.253" height="11.167" fill="none"/></clipPath><clipPath id="aw"><rect width="10.175" height="11.082" fill="none"/></clipPath><clipPath id="ax"><rect width="10.096" height="10.997" fill="none"/></clipPath><clipPath id="ay"><rect width="10.018" height="10.912" fill="none"/></clipPath><clipPath id="az"><rect width="9.94" height="10.826" fill="none"/></clipPath><clipPath id="ba"><rect width="9.862" height="10.741" fill="none"/></clipPath><clipPath id="bb"><rect width="9.783" height="10.656" fill="none"/></clipPath><clipPath id="bc"><rect width="9.705" height="10.571" fill="none"/></clipPath><clipPath id="bd"><rect width="9.627" height="10.486" fill="none"/></clipPath><clipPath id="be"><rect width="9.549" height="10.4" fill="none"/></clipPath><clipPath id="bf"><rect width="9.47" height="10.315" fill="none"/></clipPath><clipPath id="bg"><rect width="9.392" height="10.23" fill="none"/></clipPath><clipPath id="bh"><rect width="9.314" height="10.145" fill="none"/></clipPath><clipPath id="bi"><rect width="9.235" height="10.06" fill="none"/></clipPath><clipPath id="bj"><rect width="9.157" height="9.974" fill="none"/></clipPath><clipPath id="bk"><rect width="9.079" height="9.889" fill="none"/></clipPath><clipPath id="bl"><rect width="9.001" height="9.804" fill="none"/></clipPath><clipPath id="bm"><rect width="8.922" height="9.719" fill="none"/></clipPath><clipPath id="bn"><rect width="8.844" height="9.634" fill="none"/></clipPath><clipPath id="bo"><rect width="8.766" height="9.548" fill="none"/></clipPath><clipPath id="bp"><rect width="8.688" height="9.463" fill="none"/></clipPath><clipPath id="bq"><rect width="8.609" height="9.378" fill="none"/></clipPath><clipPath id="br"><rect width="8.531" height="9.293" fill="none"/></clipPath><clipPath id="bs"><rect width="8.453" height="9.208" fill="none"/></clipPath><clipPath id="bt"><rect width="8.374" height="9.121" fill="none"/></clipPath><clipPath id="bu"><rect width="8.296" height="9.036" fill="none"/></clipPath><clipPath id="bv"><rect width="8.218" height="8.951" fill="none"/></clipPath><clipPath id="bw"><rect width="8.14" height="8.866" fill="none"/></clipPath><clipPath id="bx"><rect width="8.061" height="8.781" fill="none"/></clipPath><clipPath id="by"><rect width="7.983" height="8.695" fill="none"/></clipPath><clipPath id="bz"><rect width="7.905" height="8.61" fill="none"/></clipPath><clipPath id="ca"><rect width="7.827" height="8.525" fill="none"/></clipPath><clipPath id="cb"><rect width="7.748" height="8.44" fill="none"/></clipPath><clipPath id="cc"><rect width="7.67" height="8.355" fill="none"/></clipPath><clipPath id="cd"><rect width="7.592" height="8.269" fill="none"/></clipPath><clipPath id="ce"><rect width="7.514" height="8.184" fill="none"/></clipPath><clipPath id="cf"><rect width="7.435" height="8.099" fill="none"/></clipPath><clipPath id="cg"><rect width="7.357" height="8.014" fill="none"/></clipPath><clipPath id="ch"><rect width="7.279" height="7.928" fill="none"/></clipPath><clipPath id="ci"><rect width="7.2" height="7.843" fill="none"/></clipPath><clipPath id="cj"><rect width="7.122" height="7.758" fill="none"/></clipPath><clipPath id="ck"><rect width="7.044" height="7.673" fill="none"/></clipPath><clipPath id="cl"><rect width="6.966" height="7.588" fill="none"/></clipPath><clipPath id="cm"><rect width="6.887" height="7.501" fill="none"/></clipPath><clipPath id="cn"><rect width="6.809" height="7.416" fill="none"/></clipPath><clipPath id="co"><rect width="6.731" height="7.331" fill="none"/></clipPath><clipPath id="cp"><rect width="6.653" height="7.246" fill="none"/></clipPath><clipPath id="cq"><rect width="6.574" height="7.161" fill="none"/></clipPath><clipPath id="cr"><rect width="6.496" height="7.075" fill="none"/></clipPath><clipPath id="cs"><rect width="6.418" height="6.99" fill="none"/></clipPath><clipPath id="ct"><rect width="6.34" height="6.905" fill="none"/></clipPath><clipPath id="cu"><rect width="6.261" height="6.82" fill="none"/></clipPath><clipPath id="cv"><rect width="13.64" height="13.64" fill="none"/></clipPath><clipPath id="cx"><rect width="13.555" height="13.555" fill="none"/></clipPath><clipPath id="cy"><rect width="13.469" height="13.47" fill="none"/></clipPath><clipPath id="cz"><rect width="13.384" height="13.384" fill="none"/></clipPath><clipPath id="da"><rect width="13.299" height="13.299" fill="none"/></clipPath><clipPath id="db"><rect width="13.214" height="13.214" fill="none"/></clipPath><clipPath id="dc"><rect width="13.128" height="13.129" fill="none"/></clipPath><clipPath id="dd"><rect width="13.043" height="13.044" fill="none"/></clipPath><clipPath id="de"><rect width="12.958" height="12.958" fill="none"/></clipPath><clipPath id="df"><rect width="12.873" height="12.872" fill="none"/></clipPath><clipPath id="dg"><rect width="12.788" height="12.787" fill="none"/></clipPath><clipPath id="dh"><rect width="12.702" height="12.702" fill="none"/></clipPath><clipPath id="di"><rect width="12.617" height="12.617" fill="none"/></clipPath><clipPath id="dj"><rect width="12.532" height="12.532" fill="none"/></clipPath><clipPath id="dk"><rect width="12.447" height="12.446" fill="none"/></clipPath><clipPath id="dl"><rect width="12.361" height="12.361" fill="none"/></clipPath><clipPath id="dm"><rect width="12.276" height="12.276" fill="none"/></clipPath><clipPath id="dn"><rect width="12.191" height="12.191" fill="none"/></clipPath><clipPath id="do"><rect width="12.105" height="12.105" fill="none"/></clipPath><clipPath id="dp"><rect width="12.02" height="12.02" fill="none"/></clipPath><clipPath id="dq"><rect width="11.935" height="11.935" fill="none"/></clipPath><clipPath id="dr"><rect width="11.85" height="11.85" fill="none"/></clipPath><clipPath id="ds"><rect width="11.764" height="11.765" fill="none"/></clipPath><clipPath id="dt"><rect width="11.679" height="11.679" fill="none"/></clipPath><clipPath id="du"><rect width="11.594" height="11.594" fill="none"/></clipPath><clipPath id="dv"><rect width="11.509" height="11.509" fill="none"/></clipPath><clipPath id="dw"><rect width="11.423" height="11.424" fill="none"/></clipPath><clipPath id="dx"><rect width="11.338" height="11.339" fill="none"/></clipPath><clipPath id="dy"><rect width="11.253" height="11.253" fill="none"/></clipPath><clipPath id="dz"><rect width="11.168" height="11.167" fill="none"/></clipPath><clipPath id="ea"><rect width="11.082" height="11.082" fill="none"/></clipPath><clipPath id="eb"><rect width="10.997" height="10.997" fill="none"/></clipPath><clipPath id="ec"><rect width="10.912" height="10.912" fill="none"/></clipPath><clipPath id="ed"><rect width="10.827" height="10.827" fill="none"/></clipPath><clipPath id="ee"><rect width="10.742" height="10.741" fill="none"/></clipPath><clipPath id="ef"><rect width="10.656" height="10.656" fill="none"/></clipPath><clipPath id="eg"><rect width="10.571" height="10.571" fill="none"/></clipPath><clipPath id="eh"><rect width="10.486" height="10.486" fill="none"/></clipPath><clipPath id="ei"><rect width="10.401" height="10.4" fill="none"/></clipPath><clipPath id="ej"><rect width="10.315" height="10.315" fill="none"/></clipPath><clipPath id="ek"><rect width="10.23" height="10.23" fill="none"/></clipPath><clipPath id="el"><rect width="10.145" height="10.145" fill="none"/></clipPath><clipPath id="em"><rect width="10.059" height="10.06" fill="none"/></clipPath><clipPath id="en"><rect width="9.974" height="9.974" fill="none"/></clipPath><clipPath id="eo"><rect width="9.889" height="9.889" fill="none"/></clipPath><clipPath id="ep"><rect width="9.804" height="9.804" fill="none"/></clipPath><clipPath id="eq"><rect width="9.718" height="9.719" fill="none"/></clipPath><clipPath id="er"><rect width="9.633" height="9.634" fill="none"/></clipPath><clipPath id="es"><rect width="9.548" height="9.548" fill="none"/></clipPath><clipPath id="et"><rect width="9.463" height="9.463" fill="none"/></clipPath><clipPath id="eu"><rect width="9.377" height="9.378" fill="none"/></clipPath><clipPath id="ev"><rect width="9.292" height="9.293" fill="none"/></clipPath><clipPath id="ew"><rect width="9.207" height="9.207" fill="none"/></clipPath><clipPath id="ex"><rect width="9.122" height="9.121" fill="none"/></clipPath><clipPath id="ey"><rect width="9.037" height="9.036" fill="none"/></clipPath><clipPath id="ez"><rect width="8.951" height="8.951" fill="none"/></clipPath><clipPath id="fa"><rect width="8.866" height="8.866" fill="none"/></clipPath><clipPath id="fb"><rect width="8.781" height="8.781" fill="none"/></clipPath><clipPath id="fc"><rect width="8.696" height="8.695" fill="none"/></clipPath><clipPath id="fd"><rect width="8.61" height="8.61" fill="none"/></clipPath><clipPath id="fe"><rect width="8.525" height="8.525" fill="none"/></clipPath><clipPath id="ff"><rect width="8.44" height="8.44" fill="none"/></clipPath><clipPath id="fg"><rect width="8.355" height="8.354" fill="none"/></clipPath><clipPath id="fh"><rect width="8.269" height="8.269" fill="none"/></clipPath><clipPath id="fi"><rect width="8.184" height="8.184" fill="none"/></clipPath><clipPath id="fj"><rect width="8.099" height="8.099" fill="none"/></clipPath><clipPath id="fk"><rect width="8.014" height="8.014" fill="none"/></clipPath><clipPath id="fl"><rect width="7.928" height="7.928" fill="none"/></clipPath><clipPath id="fm"><rect width="7.843" height="7.843" fill="none"/></clipPath><clipPath id="fn"><rect width="7.758" height="7.758" fill="none"/></clipPath><clipPath id="fo"><rect width="7.672" height="7.673" fill="none"/></clipPath><clipPath id="fp"><rect width="7.587" height="7.588" fill="none"/></clipPath><clipPath id="fq"><rect width="7.502" height="7.502" fill="none"/></clipPath><clipPath id="fr"><rect width="7.417" height="7.416" fill="none"/></clipPath><clipPath id="fs"><rect width="7.331" height="7.331" fill="none"/></clipPath><clipPath id="ft"><rect width="7.246" height="7.246" fill="none"/></clipPath><clipPath id="fu"><rect width="7.161" height="7.161" fill="none"/></clipPath><clipPath id="fv"><rect width="7.076" height="7.076" fill="none"/></clipPath><clipPath id="fw"><rect width="6.99" height="6.99" fill="none"/></clipPath><clipPath id="fx"><rect width="6.905" height="6.905" fill="none"/></clipPath><clipPath id="fy"><rect width="6.82" height="6.82" fill="none"/></clipPath><clipPath id="fz"><rect width="9.579" height="11.15" fill="none"/></clipPath><clipPath id="ga"><rect width="10.291" height="11.049" fill="none"/></clipPath><clipPath id="gb"><path d="M60.152,51.028a3.334,3.334,0,0,0-.115,1.65c.164.015.328.031.51.038a11.769,11.769,0,0,0,2.238-.1,3.755,3.755,0,0,0,.291-.666c.407-1.284.082-2.533-.726-2.788a.982.982,0,0,0-.3-.046c-.737,0-1.539.78-1.9,1.908" transform="translate(-59.981 -49.12)" fill="none"/></clipPath><linearGradient id="gc" x1="-8.177" y1="53.505" x2="-8.038" y2="53.505" gradientUnits="objectBoundingBox"><stop offset="0" stop-color="#5c3333"/><stop offset="1" stop-color="#231f20"/></linearGradient><clipPath id="ge"><rect width="2.206" height="1.576" fill="none"/></clipPath><clipPath id="gf"><path d="M85.4,51.058a2.906,2.906,0,0,0,.093,2.227,7.259,7.259,0,0,0,1.858.224,3.262,3.262,0,0,0,.973-1.525c.406-1.284.081-2.532-.726-2.788a1,1,0,0,0-.3-.046c-.737,0-1.54.78-1.9,1.909" transform="translate(-85.23 -49.149)" fill="none"/></clipPath><linearGradient id="gg" x1="-10.176" y1="52.018" x2="-10.055" y2="52.018" xlink:href="#gc"/><clipPath id="gi"><rect width="2.181" height="1.503" fill="none"/></clipPath><clipPath id="gj"><rect width="11.755" height="2.76" fill="none"/></clipPath><clipPath id="gk"><rect width="5.154" height="6.542" fill="none"/></clipPath><clipPath id="gl"><rect width="0.017" height="0.003" fill="none"/></clipPath><clipPath id="gm"><path d="M90.329,10.574h0Z" transform="translate(-90.329 -10.574)" fill="none"/></clipPath><clipPath id="gn"><rect width="29.826" height="8.261" fill="none"/></clipPath><clipPath id="go"><rect width="0.012" height="0.001" fill="none"/></clipPath><clipPath id="gp"><rect width="5.585" height="2.615" fill="none"/></clipPath></defs><g transform="translate(-560 -2699.824)"><circle cx="100.708" cy="100.708" r="100.708" transform="translate(560 2719.687)" fill="#ffb327"/><g transform="translate(605.872 2699.824)"><g clip-path="url(#a)"><g clip-path="url(#a)"><path d="M92.59,90.644A34.759,34.759,0,0,1,107.839,92.6c18.006,6.893,33.8,26.994,33.8,26.994L130.2,133.964l-24.831-15.11Z" transform="translate(-35.561 -34.752)" fill="#a54951"/><path d="M159.477,145.331c-3.993,4.687-10.925,4.6-17.454.848a10.729,10.729,0,0,1-2.993-16.124c3.993-4.687,12.861-4.2,17.432.73,4.793,5.168,7.008,9.859,3.015,14.545" transform="translate(-52.463 -48.7)" fill="#b76068"/><path d="M24.438,175c.861-3.968,2.4-10.146,3.24-15.567-1.411-.264-2.825-.514-4.243-.742-4-.642-8.792-1.27-12.824-1.681a48.549,48.549,0,0,0-.24,5.994c-.045,6.529-3.138,17.59-4.514,27.92C4.721,199.463-1.208,217.8.221,219.584S4.759,224.665,5.975,225s4.172,3.237,5.094,3.053,3.119,1.029,3.636.735,1.145-.994-.543-2.634-5.343-4.638-5.112-5.583,1.306-5.664,1.829-5.826,2.654,7.182,4.115,7.1,1.373-.426,1.011-1.819c-.167-.644.138-8.9-.325-10.071s-3.04-4.5-2.47-6.258,9.736-21.824,11.228-28.7" transform="translate(0 -60.303)" fill="#e5a185"/><g transform="translate(9.832 96.707)" opacity="0.64"><g clip-path="url(#c)"><path d="M29.566,158.691c-4-.642-8.792-1.27-12.824-1.681A48.548,48.548,0,0,0,16.5,163a41.664,41.664,0,0,1-.539,5.717,15.01,15.01,0,0,1,1.847.188c8.95,1.06,9.629,11.661,9.665,15.289a72.348,72.348,0,0,0,3.093-9.2c.861-3.969,2.4-10.146,3.24-15.567-1.411-.264-2.825-.514-4.243-.742" transform="translate(-15.963 -157.01)" fill="#d58a73"/></g></g><g transform="translate(0.004 144.396)" opacity="0.4"><g clip-path="url(#d)"><path d="M15.682,239.692c-.386-.977-2.23-3.44-2.511-5.256-.846,3.737-1.953,7.69-4.48,10.614A10.05,10.05,0,0,1,.006,248.3a1.816,1.816,0,0,0,.217,1.023c1.429,1.787,4.538,5.081,5.754,5.415s4.172,3.237,5.094,3.053,3.119,1.029,3.636.735,1.144-.994-.543-2.634-5.343-4.638-5.113-5.583,1.306-5.664,1.83-5.826,2.654,7.182,4.115,7.1,1.372-.426,1.011-1.819c-.166-.644.139-8.9-.325-10.071" transform="translate(-0.006 -234.436)" fill="#d58a73"/></g></g><path d="M31.486,139.758a67.505,67.505,0,0,0-7.895-1.047c-2.524-.177-5.056-.221-7.589-.185,4.2-42.619,22.275-44.053,26.085-45.113l-1.715,18.128c-2.476,5.065-7.442,17.841-8.886,28.216" transform="translate(-6.146 -35.877)" fill="#a54951"/><path d="M14.393,145.089s-1.46,12.013-1.208,14.943a2.033,2.033,0,0,0,1.969,1.573s9.73-1.312,14.574,3.161c0,0,2.119-.882,2.807-5.067.8-4.877,1.343-8.82.983-10.981-.541-3.248-16.814-7.318-19.124-3.628" transform="translate(-5.053 -55.162)" fill="#b76068"/><path d="M73.919,422.688c-1.872.059-7.448.29-14.288,1.171l.046,2.558c1.191-.212,2.4-.443,3.161-.59a.669.669,0,0,1,.79.644v.009a.669.669,0,0,0,.666.655h9.723a.641.641,0,0,0,.644-.655l-.057-3.137a.668.668,0,0,0-.686-.655" transform="translate(-22.902 -162.341)" fill="#495259"/><path d="M116.776,386.861c.346,0,.885,14.037.885,14.037l10.558-.317-.575-14.839Z" transform="translate(-44.85 -148.152)" fill="#f7f7f7"/><g transform="translate(71.926 237.59)" opacity="0.09"><g clip-path="url(#e)"><path d="M127.9,392.451l-.261-6.71-10.867,1.12a37.941,37.941,0,0,1,.511,5.837c2.775-2.454,7.368-2.231,10.617-.246" transform="translate(-116.776 -385.741)"/></g></g><path d="M58.9,383.8c.35,0,1.7,17.109,1.7,17.109H71.442l-1.264-16.453Z" transform="translate(-22.622 -147.405)" fill="#f7f7f7"/><g transform="translate(36.279 236.37)" opacity="0.09"><g clip-path="url(#f)"><path d="M66.317,391.329a12.123,12.123,0,0,1,4.591,2.544l-.728-9.465L58.9,383.762a66.02,66.02,0,0,1,.924,7.877c1.82-1.138,4.677-.83,6.492-.31" transform="translate(-58.901 -383.762)"/></g></g><path d="M58.306,405.431q-.347.288-.724.543a5.313,5.313,0,0,1-4.807.893,7.937,7.937,0,0,1-4.515-3.523q-.115-.18-.211-.367a2.256,2.256,0,0,0-2.01-1.167h-.456A1.677,1.677,0,0,0,44,402.9c-.566,1.531-4.825,5.442-10.983,6.878-3.516.82-6.506-.065-8.077,2.126a5.056,5.056,0,0,0-.5,4.369l16.912,1.256,20.959-1.256c.443-3.253-2.057-10.066-2.057-10.066a1.211,1.211,0,0,0-1.951-.775" transform="translate(-9.277 -154.323)" fill="#404751"/><path d="M66.115,329.217c-7.791-34.973-3.692-82.284-2.884-87.566-.085,0-1.895.374-1.982.365-6.908-.758-13.584-8.557-20.477-9.416-1.047,13.249,1.048,64.534,7.9,96.888A1.363,1.363,0,0,0,50,330.564H65.042a1.1,1.1,0,0,0,1.073-1.348" transform="translate(-15.562 -89.335)" fill="#363c42"/><path d="M112.462,418.852c.39-4.549.345-10.511,1.425-12.17,1.34-2.055,3.17,1.221,7.167,1.3s5.215-2.426,6.9-2.419c1.9.007,3.391,6.281,4.4,13.364Z" transform="translate(-43.193 -155.764)" fill="#30353a"/><path d="M102.99,330.825h14.739a1.041,1.041,0,0,0,1.05-1.048c-.022-7.266-1.168-29.725-5.962-44.311-5.3-16.126-4.023-51.733-4.006-52.187l-22.528,3.564c-4.534.485.892,34.875,7.691,54.568,4,11.6,6.715,30.814,7.8,38.359a1.233,1.233,0,0,0,1.218,1.055" transform="translate(-32.498 -89.595)" fill="#363c42"/><g transform="translate(26.695 184.004)" opacity="0.11"><g clip-path="url(#g)"><path d="M67.2,354.619c-3.97-17.821-4.852-38.843-4.656-55.878-1.6,6.493-8.977,11.937-15.48,9.7a8.591,8.591,0,0,1-3.722-2.355c1.31,16.7,3.4,34.58,6.412,48.8a1.363,1.363,0,0,0,1.333,1.076H66.127a1.1,1.1,0,0,0,1.073-1.348" transform="translate(-43.341 -298.741)"/></g></g><g transform="translate(58.286 178.689)" opacity="0.11"><g clip-path="url(#h)"><path d="M116.665,307.3a84.383,84.383,0,0,1-3.1-17.182c-.089,4.421-.332,8.874-3.4,12.333a10.654,10.654,0,0,1-15.528.153c1,3.8,2.078,7.416,3.19,10.64,4,11.6,6.715,30.814,7.8,38.36a1.234,1.234,0,0,0,1.217,1.055h14.739a1.042,1.042,0,0,0,1.05-1.048c-.023-7.265-1.168-29.725-5.962-44.311" transform="translate(-94.631 -290.112)"/></g></g><path d="M115.972,413.586s.358-9.511,7.091-9.9c6.884-.395,7.906,9.953,7.906,9.953Z" transform="translate(-44.541 -155.04)" fill="#383d42"/><path d="M111.713,421.846s-.934-5.215,9.773-5.976,11.477,6.027,11.477,6.027l-12.69,1.385Z" transform="translate(-42.898 -159.7)" fill="#404751"/><g transform="translate(70.725 256.112)" opacity="0.07"><g clip-path="url(#i)"><path d="M120.051,419.12a9.505,9.505,0,0,0,4.719-.816,5.389,5.389,0,0,0,1.883-2.339,19.416,19.416,0,0,0-3.963-.093c-4.082.289-6.468,1.228-7.863,2.276a16.64,16.64,0,0,0,5.224.972" transform="translate(-114.826 -415.813)" fill="#fff"/></g></g><path d="M51.919,426.469v.01a.669.669,0,0,0,.666.655h9.723a.641.641,0,0,0,.644-.655l-.057-3.137a.669.669,0,0,0-.686-.655,154.283,154.283,0,0,0-17.372,1.6c-6.533.988-18.421-.787-21.111-1.269a.641.641,0,0,0-.745.5l-.2.929a.665.665,0,0,0,.5.783,97.3,97.3,0,0,0,21.258,1.688c.933-.016,4.892-.765,6.587-1.093a.668.668,0,0,1,.79.644" transform="translate(-8.746 -162.341)" fill="#6b737c"/><path d="M120.663,428.08c-4.4-.016-8.5-.342-10.324-.51a.872.872,0,0,1-.8-1.057l.227-1.115a1.093,1.093,0,0,1,1.154-.847c1.783.162,5.8.48,10.021.5,6.342.023,9.782-.224,11.273-.374a.888.888,0,0,1,1.008.779l.111,1.106a1.066,1.066,0,0,1-.966,1.123,114.7,114.7,0,0,1-11.708.4" transform="translate(-42.064 -163.056)" fill="#6b737c"/><g transform="translate(19.669 250.729)" opacity="0.07"><g clip-path="url(#j)"><path d="M36,411.8a25.853,25.853,0,0,1-4.069.485c.023.007,9.457,2.582,15.841-.119,5.769-2.442-.971-4.586-2.536-5.091A21.317,21.317,0,0,1,36,411.8" transform="translate(-31.934 -407.073)" fill="#fff"/></g></g><path d="M41.237,221.431c-.384,9.253-.735,16.933-.735,16.933a294.562,294.562,0,0,0,30.249,1.43c10.194-.091,18.91.739,19.492-3.8.541-4.219.924-9.276,1.208-14.56Z" transform="translate(-15.556 -85.045)" fill="#363c42"/><g transform="translate(41.004 151.746)" opacity="0.11"><g clip-path="url(#k)"><path d="M73.9,246.419c-15.167.56-2.328,2.863-.886,2.878,2.561.059,1.959.084,4.687.084a5.611,5.611,0,0,1,.026.785c.046-.019,11.306-4.306-3.827-3.747" transform="translate(-66.573 -246.369)"/></g></g><path d="M73.191,66.588h0c-3.943-.018-7.654,1.569-7.663,4.388L64.97,85.817c-.009,2.818,4.154,1.6,8.1,1.616s7.083.223,7.091-2.6l-.964-13.222c.009-2.818-2.059-5.011-6-5.028" transform="translate(-24.953 -25.574)" fill="#d78c74"/><path d="M97.577,220.158,92.057,230.6l4.416.269,5.3-10.912Z" transform="translate(-35.356 -84.48)" fill="#3d4041"/><path d="M83.031,101.9l-.687-10.557c-8.727-2.125-20.425-1.551-28.489,2.3l.625,9.6Z" transform="translate(-20.684 -34.614)" fill="#d78c74"/><path d="M79.689,97.118c-.625-.1-1.252-.167-1.882-.229-.214-.017-.428-.036-.642-.054-.071.014-.156.03-.272.049a4.657,4.657,0,0,1-3-.37c-2.521,1.578-6.409,2.209-10.548,2.471-6.117.388-8.984-.8-10.37-5.446a34.863,34.863,0,0,0-9.824,4.308l5.381,82.661A84.713,84.713,0,0,0,68,181.532a80.562,80.562,0,0,0,19.092-3.279L81.837,97.525c-.711-.16-1.426-.3-2.148-.407" transform="translate(-16.573 -35.925)" fill="#dfe5ea"/><path d="M57.364,101.075c-.344-1.269-4.45-4.791-5.5-8.307-3.675.173-10.807,3.505-12.906,5.8-4.493,4.911-3.8,16.408-3.17,33.134.677,17.948,1.281,19.541-.46,50.321a127.527,127.527,0,0,0,23.627,2.567c-3.325-24.73-1.723-79.466-1.593-83.515" transform="translate(-13.569 -35.629)" fill="#d06e77"/><path d="M93.835,91.518c-.757-.177-4.228-.911-5.033-1.081-.435,4.259-2.208,3.492-6.894,9.319-.171,4.936-1.458,45.392,1.963,84.513A84.028,84.028,0,0,0,111,177.509c.651-17.373-4.719-33.172-5.713-71.535-.042-1.619-.535-12.73-11.456-14.455" transform="translate(-31.313 -34.734)" fill="#d06e77"/><g transform="translate(35.941 57.401)" opacity="0.08"><g clip-path="url(#l)"><path d="M58.761,93.229h0s-1.316,8.461.777,12.016c0,0,.136-5.259,2.5-4.457,1.571.533,3.215,2.64,4.152,3.962,0-1.828,0-3.054.015-3.511-.333-1.23-4.192-4.576-5.384-7.982a10.9,10.9,0,0,0-2.061-.027" transform="translate(-58.352 -93.194)" fill="#002a3d"/></g></g><path d="M62.141,151.917c-.416-22.584,1.335-49.172,1.582-52.783q-.168-.221-.333-.446l-1.46-.131c-.02.288-2.062,29.116-1.616,53.361.3,16.1,1.259,28.236,1.928,34.66.6.032,1.368.089,1.991.114-.663-6.308-1.793-18.519-2.092-34.774" transform="translate(-23.14 -37.853)" fill="#a54951"/><path d="M89.535,151.209c-1.588-25.275-.352-52.4-.34-52.676l-1.111-.071c-.231.214-.48.445-.745.7-.186,4.542-1.075,29.1.372,52.131,1.048,16.684,2.526,28.993,3.422,35.511q.912-.128,1.8-.275c-.892-6.491-2.359-18.728-3.4-35.319" transform="translate(-33.375 -37.816)" fill="#a54951"/><g transform="translate(50.458 56.376)" opacity="0.08"><g clip-path="url(#m)"><path d="M88.009,99.352c2.246-1.019,3.065,4.2,3.065,4.2,1.619-3.731-.788-12.016-.788-12.016h0a10.281,10.281,0,0,0-1.44.118c-.58,3.392-2.416,3.091-6.788,8.527-.019.565-.158,2.369-.133,4.522,1.444-1.691,4.826-4.775,6.084-5.346" transform="translate(-81.922 -91.53)" fill="#002a3d"/></g></g><path d="M38.157,121.17l.8-1.963,14.506-3.24.411,1.784Z" transform="translate(-14.655 -44.539)" fill="#a54951"/><path d="M65.761,98.763s-5.314-5.879-6.277-1.71c-.656,2.836-.926,4.524-.926,4.524s-2.74-6.963-.456-10.5,4.135-4.328,4.135-4.328a18.754,18.754,0,0,0,1.781,7.42,23.861,23.861,0,0,1,1.743,4.595" transform="translate(-21.966 -33.318)" fill="#a54951"/><path d="M67.412,157.166a1.134,1.134,0,0,1-1.151,1.139,1.185,1.185,0,0,1-1.292-1.024,1.136,1.136,0,0,1,1.151-1.139,1.185,1.185,0,0,1,1.292,1.024" transform="translate(-24.952 -59.969)" fill="#763c4a"/><path d="M66.925,183.887a1.136,1.136,0,0,1-1.151,1.139A1.186,1.186,0,0,1,64.482,184a1.135,1.135,0,0,1,1.151-1.139,1.185,1.185,0,0,1,1.292,1.024" transform="translate(-24.765 -70.231)" fill="#763c4a"/><path d="M67.533,204.622a1.134,1.134,0,0,1-1.151,1.139,1.184,1.184,0,0,1-1.292-1.024,1.135,1.135,0,0,1,1.151-1.139,1.185,1.185,0,0,1,1.292,1.024" transform="translate(-24.999 -78.195)" fill="#763c4a"/><path d="M68.928,226.063a1.135,1.135,0,0,1-1.151,1.139,1.185,1.185,0,0,1-1.292-1.024,1.135,1.135,0,0,1,1.151-1.139,1.184,1.184,0,0,1,1.292,1.024" transform="translate(-25.534 -86.43)" fill="#763c4a"/><path d="M68.321,114.111a1.135,1.135,0,0,1-1.151,1.139,1.185,1.185,0,0,1-1.292-1.024,1.135,1.135,0,0,1,1.151-1.139,1.184,1.184,0,0,1,1.292,1.024" transform="translate(-25.301 -43.433)" fill="#763c4a"/><path d="M67.626,134.052a1.134,1.134,0,0,1-1.151,1.139,1.185,1.185,0,0,1-1.292-1.024,1.136,1.136,0,0,1,1.151-1.139,1.185,1.185,0,0,1,1.292,1.024" transform="translate(-25.034 -51.091)" fill="#763c4a"/><path d="M103.418,118.31,88.47,115.963l.253-1.8,14.947,2.348Z" transform="translate(-33.978 -43.846)" fill="#a54951"/><path d="M82.136,98.452s6.39-6.5,7.889-2.45c1.019,2.758,1.508,4.409,1.508,4.409s1.819-7.178-.911-10.479-4.31-3.348-4.31-3.348.226,1.458-1.071,4.95c-.854,2.3-2.938,4.021-3.1,6.918" transform="translate(-31.546 -33.255)" fill="#a54951"/><g transform="translate(37.941 53.431)" opacity="0.12"><g clip-path="url(#n)"><path d="M65.711,94.169a18.756,18.756,0,0,1-1.781-7.42,5.629,5.629,0,0,0-1.218.848c-1.7,1.816-1.186,5.3-.2,7.982,1.9-.173,4.939,3.184,4.939,3.184a23.861,23.861,0,0,0-1.743-4.595" transform="translate(-61.6 -86.749)" fill="#f45f5c"/></g></g><g transform="translate(50.59 53.33)" opacity="0.12"><g clip-path="url(#o)"><path d="M88.266,94.676c.265-2.876.1-5.758-1.916-8.088l-.039,0s.225,1.457-1.071,4.95c-.854,2.3-2.939,4.021-3.1,6.918,0,0,3.7-3.763,6.13-3.776" transform="translate(-82.136 -86.584)" fill="#f45f5c"/></g></g><path d="M39.559,99.335a65.579,65.579,0,0,0-4.223,17.21c-.041,4.822.211,10.5.455,16.959.044,1.186.086,2.284.124,3.315.363-28.2,5.46-37.166,7.131-39.357a8.166,8.166,0,0,0-3.486,1.872" transform="translate(-13.57 -37.433)" fill="#a54951"/><path d="M114.326,133.486l-.69-11.529c-1.129-7.953-6.988-26.722-9.783-31.131a8.341,8.341,0,0,0-3.055-.283c-.071.078.1.091,0,0,1.653,1.3,12.173,25.109,13.528,42.943" transform="translate(-38.706 -34.764)" fill="#953941"/><path d="M40.286,140.46l-.091,10.786a2.9,2.9,0,0,0,1.52,2.562l2.717,1.472a2.234,2.234,0,0,0,2.36-.131l3.256-2.313a2.694,2.694,0,0,0,1.131-2.17l.119-10.725Z" transform="translate(-15.438 -53.747)" fill="#a54951"/><path d="M93.239,139.932l.69,10.606a3.2,3.2,0,0,0,1.491,2.49l2.323,1.461a3.242,3.242,0,0,0,3.911-.323l3.091-2.815a3.856,3.856,0,0,0,1.234-3.237l-.864-8.742Z" transform="translate(-35.81 -53.529)" fill="#a54951"/><g transform="translate(57.384 57.929)" opacity="0.08"><g clip-path="url(#p)"><path d="M136.322,117.154c-3.236-2.837-12.824-3.631-18.11-5.5s-7.364-4.238-7.364-4.238-4.073-4.605-4.785-6.648-1.48-3.64-.776-5.542c.167-.451-.311-1.478-1.178-1.091-2.485,1.108-2.268,4.385-1.851,6.573a8.416,8.416,0,0,1-.378,4.033c-.394,1.258-6.11,2.864-7.1,3.741a3.575,3.575,0,0,0-1.345,3.174,1.575,1.575,0,0,0,.96,1.21S93,114.41,93.184,115.5a1.525,1.525,0,0,0,1.494,1.335s-1.111,1.638-.673,2.8,2.269.817,2.269.817a2.215,2.215,0,0,0-.079,1.961c.787,1.282,8.062.4,10.608-.551,1.3-.483,4.038-2.119,4.99-1.676s9.313,8.005,11.478,11.2,8.66,4.161,12.835,2.781,3.912-.467,5.072-1.842c.82-.973,1.043-6.531.121-7.528-1.77-1.912-2.1-5.125-4.976-7.645" transform="translate(-93.166 -94.051)"/></g></g><path d="M110.539,100.615s-4.123-5.152-4.842-7.274-1.083-4.145-.367-5.915c.169-.419-.726-1.168-1.605-.917-2.521.719-3.038,3.815-2.618,6.034.242,1.283.782,2.793.342,4.089-.4,1.182-6.2,1.908-7.208,2.623a3.009,3.009,0,0,0-1.368,2.929,1.919,1.919,0,0,0,.972,1.337s-1.416,1.311-1.227,2.415a1.849,1.849,0,0,0,1.513,1.541s-1.129,1.448-.686,2.662,2.3,1.146,2.3,1.146a2.055,2.055,0,0,0-.084,1.922c.8,1.382,8.175,1.6,10.757,1.048,1.316-.282,4.1-1.484,5.06-.9s9.449,9.457,11.64,12.93,8.47,5.559,12.7,4.825,4.273-.031,5.45-1.214c.833-.836,1.067-6.283.132-7.4-1.792-2.151-2.124-5.368-5.035-8.284-3.277-3.283-13-5.5-18.355-8.139s-7.477-5.449-7.477-5.449" transform="translate(-35.565 -33.206)" fill="#e5a185"/><g transform="translate(57.035 65.42)" opacity="0.56"><g clip-path="url(#q)"><path d="M105.94,121.118a20.081,20.081,0,0,1-7.063.227c-1.319-.181-2.407-.575-2.593-1.555-.128-.674,2.442-1.239,2.81-1.316-.087-.3-.176-.593-.253-.89-.78.147-3.365.611-3.854.392a1.453,1.453,0,0,1-.607-1.813c.261-.563,3.108-1.212,3.855-1.373-.049-.263-.1-.527-.144-.79a10.255,10.255,0,0,1-3.77.408,1.219,1.219,0,0,1-.789-1.9c.506-.928,3.328-1.438,3.975-1.6-.053-.254-.113-.509-.172-.764-.386.076-2.538.475-3.248-.038-.429-.31-.847-.963-.314-2.157.308-.691,1.578-1.368,2.31-1.736-.042.01-.083.017-.124.026a6.653,6.653,0,0,0-1.718.6,3.009,3.009,0,0,0-1.368,2.929,1.917,1.917,0,0,0,.972,1.337s-1.417,1.311-1.227,2.415a1.849,1.849,0,0,0,1.513,1.541,3.6,3.6,0,0,0-.757,2.392,2.334,2.334,0,0,0,.071.27,1.436,1.436,0,0,0,.546.691,2.076,2.076,0,0,0,.376.2,2.853,2.853,0,0,0,.394.132c.13.033.256.057.373.075a3.679,3.679,0,0,0,.611.042,2.055,2.055,0,0,0-.084,1.922c.8,1.383,8.175,1.6,10.757,1.048,1.268-.272,4.007-1.485,5.061-.9-.642-1.161-3.774-.143-5.539.18" transform="translate(-92.601 -106.213)" fill="#d78c74"/></g></g><path d="M45.776,49.795c-1.789.614-2.564,3.248-1.73,5.885s2.96,4.275,4.75,3.661,2.564-3.249,1.73-5.885-2.961-4.275-4.75-3.661" transform="translate(-16.788 -19.075)" fill="#d78c74"/><path d="M65.332,10.907s0-.03-.01-.08c.006.051.01.08.01.08" transform="translate(-25.088 -4.158)" fill="#381911"/><path d="M79.388,20.126C78.3,13.9,60.673,11.181,55.6,19.806a76.13,76.13,0,0,0-5,18.8c0-.079,0-.126,0-.126S46.062,58.116,63.493,59.114,82.748,50.9,81.864,39.469v0a83.925,83.925,0,0,0-2.475-19.345" transform="translate(-19.231 -5.508)" fill="#e5a185"/><g transform="translate(31.246 29.883)" opacity="0.38"><g clip-path="url(#r)"><g clip-path="url(#r)"><path d="M57,48.517a6.845,6.845,0,0,0-.017,13.64A6.845,6.845,0,0,0,57,48.517" transform="translate(-50.729 -48.517)" fill="#e5a185"/></g><g transform="translate(0.039 0.042)"><g clip-path="url(#t)"><path d="M57.024,48.586a6.8,6.8,0,0,0-.017,13.555,6.8,6.8,0,0,0,.017-13.555" transform="translate(-50.793 -48.586)" fill="#e5a084"/></g></g><g transform="translate(0.078 0.085)"><g clip-path="url(#u)"><path d="M57.048,48.655a6.759,6.759,0,0,0-.017,13.47,6.76,6.76,0,0,0,.017-13.47" transform="translate(-50.856 -48.655)" fill="#e59f83"/></g></g><g transform="translate(0.117 0.127)"><g clip-path="url(#v)"><path d="M57.073,48.725a6.717,6.717,0,0,0-.017,13.384,6.717,6.717,0,0,0,.017-13.384" transform="translate(-50.92 -48.724)" fill="#e49e83"/></g></g><g transform="translate(0.157 0.171)"><g clip-path="url(#w)"><path d="M57.1,48.794a6.674,6.674,0,1,0,6.1,6.657,6.4,6.4,0,0,0-6.1-6.657" transform="translate(-50.983 -48.794)" fill="#e49d82"/></g></g><g transform="translate(0.196 0.213)"><g clip-path="url(#x)"><path d="M57.122,48.863a6.631,6.631,0,1,0,6.057,6.614,6.354,6.354,0,0,0-6.057-6.614" transform="translate(-51.048 -48.863)" fill="#e49c81"/></g></g><g transform="translate(0.235 0.256)"><g clip-path="url(#y)"><path d="M57.146,48.932A6.588,6.588,0,1,0,63.164,55.5a6.312,6.312,0,0,0-6.018-6.571" transform="translate(-51.111 -48.932)" fill="#e49b80"/></g></g><g transform="translate(0.274 0.298)"><g clip-path="url(#z)"><path d="M57.17,49A6.546,6.546,0,1,0,63.15,55.53,6.272,6.272,0,0,0,57.17,49" transform="translate(-51.174 -49.001)" fill="#e49a80"/></g></g><g transform="translate(0.313 0.341)"><g clip-path="url(#aa)"><path d="M57.194,49.07a6.5,6.5,0,1,0,5.941,6.486,6.232,6.232,0,0,0-5.941-6.486" transform="translate(-51.238 -49.07)" fill="#e3997f"/></g></g><g transform="translate(0.352 0.384)"><g clip-path="url(#ab)"><path d="M57.218,49.14a6.46,6.46,0,1,0,5.9,6.443,6.19,6.19,0,0,0-5.9-6.443" transform="translate(-51.301 -49.14)" fill="#e3987e"/></g></g><g transform="translate(0.391 0.426)"><g clip-path="url(#ac)"><path d="M57.243,49.209a6.417,6.417,0,1,0,5.862,6.4,6.149,6.149,0,0,0-5.862-6.4" transform="translate(-51.365 -49.209)" fill="#e3977d"/></g></g><g transform="translate(0.43 0.469)"><g clip-path="url(#ad)"><path d="M57.267,49.278a6.374,6.374,0,1,0,5.822,6.358,6.107,6.107,0,0,0-5.822-6.358" transform="translate(-51.429 -49.278)" fill="#e3967c"/></g></g><g transform="translate(0.47 0.511)"><g clip-path="url(#ae)"><path d="M57.292,49.347a6.331,6.331,0,1,0,5.784,6.315,6.067,6.067,0,0,0-5.784-6.315" transform="translate(-51.492 -49.347)" fill="#e2957c"/></g></g><g transform="translate(0.509 0.554)"><g clip-path="url(#af)"><path d="M57.316,49.417A6.289,6.289,0,1,0,63.06,55.69a6.026,6.026,0,0,0-5.744-6.273" transform="translate(-51.556 -49.416)" fill="#e2947b"/></g></g><g transform="translate(0.548 0.597)"><g clip-path="url(#ag)"><path d="M57.34,49.486a6.246,6.246,0,1,0,5.706,6.23,5.985,5.985,0,0,0-5.706-6.23" transform="translate(-51.619 -49.486)" fill="#e2937a"/></g></g><g transform="translate(0.587 0.639)"><g clip-path="url(#ah)"><path d="M57.365,49.555a6.2,6.2,0,1,0,5.666,6.188,5.944,5.944,0,0,0-5.666-6.188" transform="translate(-51.682 -49.555)" fill="#e29279"/></g></g><g transform="translate(0.626 0.682)"><g clip-path="url(#ai)"><path d="M57.389,49.624a6.161,6.161,0,1,0,5.627,6.145,5.9,5.9,0,0,0-5.627-6.145" transform="translate(-51.746 -49.624)" fill="#e29179"/></g></g><g transform="translate(0.665 0.724)"><g clip-path="url(#aj)"><path d="M57.414,49.693A6.118,6.118,0,1,0,63,55.8a5.861,5.861,0,0,0-5.588-6.1" transform="translate(-51.81 -49.693)" fill="#e19078"/></g></g><g transform="translate(0.704 0.767)"><g clip-path="url(#ak)"><path d="M57.438,49.762a6.075,6.075,0,1,0,5.549,6.06,5.821,5.821,0,0,0-5.549-6.06" transform="translate(-51.874 -49.762)" fill="#e18f77"/></g></g><g transform="translate(0.744 0.81)"><g clip-path="url(#al)"><path d="M57.463,49.832a6.032,6.032,0,1,0,5.51,6.017,5.78,5.78,0,0,0-5.51-6.017" transform="translate(-51.937 -49.832)" fill="#e18e76"/></g></g><g transform="translate(0.783 0.852)"><g clip-path="url(#am)"><path d="M57.486,49.9a5.989,5.989,0,1,0,5.471,5.974A5.739,5.739,0,0,0,57.486,49.9" transform="translate(-52 -49.901)" fill="#e18d75"/></g></g><g transform="translate(0.822 0.895)"><g clip-path="url(#an)"><path d="M57.51,49.97A5.947,5.947,0,1,0,62.943,55.9,5.7,5.7,0,0,0,57.51,49.97" transform="translate(-52.064 -49.97)" fill="#e18c75"/></g></g><g transform="translate(0.861 0.937)"><g clip-path="url(#ao)"><path d="M57.535,50.039a5.9,5.9,0,1,0,5.393,5.889,5.657,5.657,0,0,0-5.393-5.889" transform="translate(-52.127 -50.039)" fill="#e08b74"/></g></g><g transform="translate(0.9 0.981)"><g clip-path="url(#ap)"><path d="M57.559,50.108a5.861,5.861,0,1,0,5.354,5.846,5.616,5.616,0,0,0-5.354-5.846" transform="translate(-52.191 -50.109)" fill="#e08a73"/></g></g><g transform="translate(0.939 1.023)"><g clip-path="url(#aq)"><path d="M57.584,50.178a5.818,5.818,0,1,0,5.315,5.8,5.574,5.574,0,0,0-5.315-5.8" transform="translate(-52.255 -50.178)" fill="#e08972"/></g></g><g transform="translate(0.978 1.066)"><g clip-path="url(#ar)"><path d="M57.608,50.247a5.775,5.775,0,1,0,5.275,5.761,5.534,5.534,0,0,0-5.275-5.761" transform="translate(-52.318 -50.247)" fill="#e08872"/></g></g><g transform="translate(1.017 1.108)"><g clip-path="url(#as)"><path d="M57.633,50.316a5.733,5.733,0,1,0,5.237,5.718,5.493,5.493,0,0,0-5.237-5.718" transform="translate(-52.382 -50.316)" fill="#df8771"/></g></g><g transform="translate(1.057 1.151)"><g clip-path="url(#at)"><path d="M57.657,50.385a5.69,5.69,0,1,0,5.2,5.675,5.452,5.452,0,0,0-5.2-5.675" transform="translate(-52.445 -50.385)" fill="#df8670"/></g></g><g transform="translate(1.096 1.194)"><g clip-path="url(#au)"><path d="M57.682,50.455a5.647,5.647,0,1,0,5.158,5.633,5.41,5.41,0,0,0-5.158-5.633" transform="translate(-52.509 -50.455)" fill="#df856f"/></g></g><g transform="translate(1.135 1.236)"><g clip-path="url(#av)"><path d="M57.706,50.524a5.6,5.6,0,1,0,5.119,5.59,5.369,5.369,0,0,0-5.119-5.59" transform="translate(-52.573 -50.524)" fill="#df846f"/></g></g><g transform="translate(1.174 1.279)"><g clip-path="url(#aw)"><path d="M57.73,50.593a5.562,5.562,0,1,0,5.08,5.548,5.329,5.329,0,0,0-5.08-5.548" transform="translate(-52.636 -50.593)" fill="#df836e"/></g></g><g transform="translate(1.213 1.321)"><g clip-path="url(#ax)"><path d="M57.753,50.662a5.518,5.518,0,1,0,5.042,5.5,5.288,5.288,0,0,0-5.042-5.5" transform="translate(-52.699 -50.662)" fill="#de826d"/></g></g><g transform="translate(1.252 1.364)"><g clip-path="url(#ay)"><path d="M57.778,50.732a5.476,5.476,0,1,0,5,5.462,5.247,5.247,0,0,0-5-5.462" transform="translate(-52.762 -50.731)" fill="#de816c"/></g></g><g transform="translate(1.291 1.407)"><g clip-path="url(#az)"><path d="M57.8,50.8a5.433,5.433,0,1,0,4.964,5.42A5.206,5.206,0,0,0,57.8,50.8" transform="translate(-52.826 -50.801)" fill="#de806b"/></g></g><g transform="translate(1.331 1.449)"><g clip-path="url(#ba)"><path d="M57.826,50.87a5.39,5.39,0,1,0,4.924,5.376,5.165,5.165,0,0,0-4.924-5.376" transform="translate(-52.89 -50.87)" fill="#de7f6b"/></g></g><g transform="translate(1.37 1.492)"><g clip-path="url(#bb)"><path d="M57.851,50.939a5.348,5.348,0,1,0,4.886,5.334,5.124,5.124,0,0,0-4.886-5.334" transform="translate(-52.953 -50.939)" fill="#de7e6a"/></g></g><g transform="translate(1.409 1.534)"><g clip-path="url(#bc)"><path d="M57.875,51.008A5.3,5.3,0,1,0,62.721,56.3a5.084,5.084,0,0,0-4.846-5.291" transform="translate(-53.017 -51.008)" fill="#dd7d69"/></g></g><g transform="translate(1.448 1.577)"><g clip-path="url(#bd)"><path d="M57.9,51.077a5.262,5.262,0,1,0,4.807,5.248A5.042,5.042,0,0,0,57.9,51.077" transform="translate(-53.08 -51.077)" fill="#dd7c68"/></g></g><g transform="translate(1.487 1.62)"><g clip-path="url(#be)"><path d="M57.924,51.147a5.219,5.219,0,1,0,4.768,5.206,5,5,0,0,0-4.768-5.206" transform="translate(-53.144 -51.147)" fill="#dd7b68"/></g></g><g transform="translate(1.526 1.662)"><g clip-path="url(#bf)"><path d="M57.948,51.216a5.177,5.177,0,1,0,4.729,5.163,4.96,4.96,0,0,0-4.729-5.163" transform="translate(-53.207 -51.216)" fill="#dd7a67"/></g></g><g transform="translate(1.565 1.705)"><g clip-path="url(#bg)"><path d="M57.973,51.285a5.134,5.134,0,1,0,4.69,5.12,4.919,4.919,0,0,0-4.69-5.12" transform="translate(-53.271 -51.285)" fill="#dd7a66"/></g></g><g transform="translate(1.604 1.747)"><g clip-path="url(#bh)"><path d="M58,51.354a5.091,5.091,0,1,0,4.651,5.078A4.878,4.878,0,0,0,58,51.354" transform="translate(-53.334 -51.354)" fill="#dc7965"/></g></g><g transform="translate(1.644 1.79)"><g clip-path="url(#bi)"><path d="M58.022,51.423a5.048,5.048,0,1,0,4.611,5.035,4.837,4.837,0,0,0-4.611-5.035" transform="translate(-53.398 -51.423)" fill="#dc7864"/></g></g><g transform="translate(1.683 1.833)"><g clip-path="url(#bj)"><path d="M58.047,51.493a5.005,5.005,0,1,0,4.573,4.993,4.8,4.8,0,0,0-4.573-4.993" transform="translate(-53.462 -51.493)" fill="#dc7764"/></g></g><g transform="translate(1.722 1.876)"><g clip-path="url(#bk)"><path d="M58.071,51.562a4.963,4.963,0,1,0,4.534,4.95,4.755,4.755,0,0,0-4.534-4.95" transform="translate(-53.526 -51.562)" fill="#dc7663"/></g></g><g transform="translate(1.761 1.918)"><g clip-path="url(#bl)"><path d="M58.1,51.631a4.92,4.92,0,1,0,4.494,4.907A4.713,4.713,0,0,0,58.1,51.631" transform="translate(-53.589 -51.631)" fill="#db7562"/></g></g><g transform="translate(1.8 1.961)"><g clip-path="url(#bm)"><path d="M58.12,51.7a4.877,4.877,0,1,0,4.455,4.865A4.672,4.672,0,0,0,58.12,51.7" transform="translate(-53.653 -51.7)" fill="#db7461"/></g></g><g transform="translate(1.839 2.003)"><g clip-path="url(#bn)"><path d="M58.144,51.77a4.834,4.834,0,1,0,4.416,4.822,4.631,4.631,0,0,0-4.416-4.822" transform="translate(-53.716 -51.769)" fill="#db7361"/></g></g><g transform="translate(1.878 2.046)"><g clip-path="url(#bo)"><path d="M58.169,51.838a4.792,4.792,0,1,0,4.377,4.78,4.591,4.591,0,0,0-4.377-4.78" transform="translate(-53.78 -51.839)" fill="#db7260"/></g></g><g transform="translate(1.918 2.089)"><g clip-path="url(#bp)"><path d="M58.193,51.908a4.749,4.749,0,1,0,4.338,4.737,4.55,4.55,0,0,0-4.338-4.737" transform="translate(-53.843 -51.908)" fill="#db715f"/></g></g><g transform="translate(1.957 2.131)"><g clip-path="url(#bq)"><path d="M58.217,51.977a4.706,4.706,0,1,0,4.3,4.694,4.509,4.509,0,0,0-4.3-4.694" transform="translate(-53.907 -51.977)" fill="#da705e"/></g></g><g transform="translate(1.996 2.174)"><g clip-path="url(#br)"><path d="M58.241,52.046A4.663,4.663,0,1,0,62.5,56.7a4.468,4.468,0,0,0-4.26-4.651" transform="translate(-53.97 -52.046)" fill="#da6f5d"/></g></g><g transform="translate(2.035 2.216)"><g clip-path="url(#bs)"><path d="M58.266,52.115a4.62,4.62,0,1,0,4.221,4.608,4.427,4.427,0,0,0-4.221-4.608" transform="translate(-54.034 -52.115)" fill="#da6e5d"/></g></g><g transform="translate(2.074 2.259)"><g clip-path="url(#bt)"><path d="M58.29,52.185a4.578,4.578,0,1,0,4.182,4.566,4.387,4.387,0,0,0-4.182-4.566" transform="translate(-54.097 -52.185)" fill="#da6d5c"/></g></g><g transform="translate(2.113 2.302)"><g clip-path="url(#bu)"><path d="M58.315,52.254a4.535,4.535,0,1,0,4.143,4.523,4.345,4.345,0,0,0-4.143-4.523" transform="translate(-54.161 -52.254)" fill="#da6c5b"/></g></g><g transform="translate(2.152 2.344)"><g clip-path="url(#bv)"><path d="M58.338,52.323a4.492,4.492,0,1,0,4.1,4.48,4.3,4.3,0,0,0-4.1-4.48" transform="translate(-54.224 -52.323)" fill="#d96b5a"/></g></g><g transform="translate(2.191 2.387)"><g clip-path="url(#bw)"><path d="M58.363,52.392a4.449,4.449,0,1,0,4.065,4.438,4.264,4.264,0,0,0-4.065-4.438" transform="translate(-54.288 -52.392)" fill="#d96a5a"/></g></g><g transform="translate(2.231 2.429)"><g clip-path="url(#bx)"><path d="M58.387,52.461a4.406,4.406,0,1,0,4.026,4.4,4.223,4.223,0,0,0-4.026-4.4" transform="translate(-54.351 -52.461)" fill="#d96959"/></g></g><g transform="translate(2.27 2.472)"><g clip-path="url(#by)"><path d="M58.412,52.531A4.364,4.364,0,1,0,62.4,56.883a4.181,4.181,0,0,0-3.987-4.352" transform="translate(-54.415 -52.531)" fill="#d96858"/></g></g><g transform="translate(2.309 2.515)"><g clip-path="url(#bz)"><path d="M58.436,52.6a4.321,4.321,0,1,0,3.947,4.31,4.14,4.14,0,0,0-3.947-4.31" transform="translate(-54.479 -52.6)" fill="#d86757"/></g></g><g transform="translate(2.348 2.557)"><g clip-path="url(#ca)"><path d="M58.461,52.669a4.278,4.278,0,1,0,3.909,4.267,4.1,4.1,0,0,0-3.909-4.267" transform="translate(-54.542 -52.669)" fill="#d86657"/></g></g><g transform="translate(2.387 2.6)"><g clip-path="url(#cb)"><path d="M58.485,52.738a4.236,4.236,0,1,0,3.869,4.225,4.058,4.058,0,0,0-3.869-4.225" transform="translate(-54.606 -52.738)" fill="#d86556"/></g></g><g transform="translate(2.426 2.642)"><g clip-path="url(#cc)"><path d="M58.51,52.808a4.193,4.193,0,1,0,3.83,4.182,4.017,4.017,0,0,0-3.83-4.182" transform="translate(-54.669 -52.807)" fill="#d86455"/></g></g><g transform="translate(2.465 2.685)"><g clip-path="url(#cd)"><path d="M58.534,52.877a4.15,4.15,0,1,0,3.79,4.139,3.976,3.976,0,0,0-3.79-4.139" transform="translate(-54.733 -52.877)" fill="#d86354"/></g></g><g transform="translate(2.504 2.728)"><g clip-path="url(#ce)"><path d="M58.558,52.946a4.107,4.107,0,1,0,3.752,4.1,3.934,3.934,0,0,0-3.752-4.1" transform="translate(-54.796 -52.946)" fill="#d76253"/></g></g><g transform="translate(2.544 2.77)"><g clip-path="url(#cf)"><path d="M58.583,53.015a4.064,4.064,0,1,0,3.712,4.054,3.894,3.894,0,0,0-3.712-4.054" transform="translate(-54.86 -53.015)" fill="#d76153"/></g></g><g transform="translate(2.583 2.813)"><g clip-path="url(#cg)"><path d="M58.607,53.084A4.022,4.022,0,1,0,62.281,57.1a3.853,3.853,0,0,0-3.673-4.012" transform="translate(-54.923 -53.084)" fill="#d76052"/></g></g><g transform="translate(2.622 2.856)"><g clip-path="url(#ch)"><path d="M58.631,53.153a3.979,3.979,0,1,0,3.635,3.968,3.812,3.812,0,0,0-3.635-3.968" transform="translate(-54.987 -53.154)" fill="#d75f51"/></g></g><g transform="translate(2.661 2.899)"><g clip-path="url(#ci)"><path d="M58.655,53.223a3.936,3.936,0,1,0,3.6,3.926,3.771,3.771,0,0,0-3.6-3.926" transform="translate(-55.05 -53.223)" fill="#d75e50"/></g></g><g transform="translate(2.7 2.941)"><g clip-path="url(#cj)"><path d="M58.68,53.292a3.893,3.893,0,1,0,3.556,3.883,3.73,3.73,0,0,0-3.556-3.883" transform="translate(-55.114 -53.292)" fill="#d65d50"/></g></g><g transform="translate(2.739 2.984)"><g clip-path="url(#ck)"><path d="M58.7,53.361a3.85,3.85,0,1,0,3.518,3.84,3.689,3.689,0,0,0-3.518-3.84" transform="translate(-55.177 -53.361)" fill="#d65c4f"/></g></g><g transform="translate(2.778 3.026)"><g clip-path="url(#cl)"><path d="M58.728,53.43a3.807,3.807,0,1,0,3.478,3.8,3.648,3.648,0,0,0-3.478-3.8" transform="translate(-55.241 -53.43)" fill="#d65b4e"/></g></g><g transform="translate(2.818 3.069)"><g clip-path="url(#cm)"><path d="M58.753,53.5a3.765,3.765,0,1,0,3.439,3.755A3.607,3.607,0,0,0,58.753,53.5" transform="translate(-55.304 -53.5)" fill="#d65a4d"/></g></g><g transform="translate(2.857 3.112)"><g clip-path="url(#cn)"><path d="M58.777,53.569a3.722,3.722,0,1,0,3.4,3.712,3.566,3.566,0,0,0-3.4-3.712" transform="translate(-55.368 -53.569)" fill="#d5594c"/></g></g><g transform="translate(2.896 3.154)"><g clip-path="url(#co)"><path d="M58.8,53.638a3.679,3.679,0,1,0,3.361,3.67,3.526,3.526,0,0,0-3.361-3.67" transform="translate(-55.431 -53.638)" fill="#d5584c"/></g></g><g transform="translate(2.935 3.197)"><g clip-path="url(#cp)"><path d="M58.826,53.707a3.636,3.636,0,1,0,3.322,3.627,3.485,3.485,0,0,0-3.322-3.627" transform="translate(-55.495 -53.707)" fill="#d5574b"/></g></g><g transform="translate(2.974 3.239)"><g clip-path="url(#cq)"><path d="M58.851,53.776a3.593,3.593,0,1,0,3.283,3.584,3.443,3.443,0,0,0-3.283-3.584" transform="translate(-55.559 -53.776)" fill="#d5564a"/></g></g><g transform="translate(3.013 3.282)"><g clip-path="url(#cr)"><path d="M58.875,53.846a3.551,3.551,0,1,0,3.243,3.542,3.4,3.4,0,0,0-3.243-3.542" transform="translate(-55.622 -53.846)" fill="#d55549"/></g></g><g transform="translate(3.052 3.325)"><g clip-path="url(#cs)"><path d="M58.9,53.915a3.508,3.508,0,1,0,3.2,3.5,3.361,3.361,0,0,0-3.2-3.5" transform="translate(-55.686 -53.915)" fill="#d45449"/></g></g><g transform="translate(3.092 3.367)"><g clip-path="url(#ct)"><path d="M58.923,53.984a3.465,3.465,0,1,0,3.166,3.457,3.32,3.32,0,0,0-3.166-3.457" transform="translate(-55.749 -53.984)" fill="#d45348"/></g></g><g transform="translate(3.131 3.41)"><g clip-path="url(#cu)"><path d="M58.947,54.053a3.423,3.423,0,1,0,3.126,3.413,3.28,3.28,0,0,0-3.126-3.413" transform="translate(-55.813 -54.053)" fill="#d45247"/></g></g></g></g><g transform="translate(47.629 29.903)" opacity="0.38"><g clip-path="url(#cv)"><g clip-path="url(#cv)"><path d="M84.157,48.55a6.82,6.82,0,1,0,6.812,6.828,6.82,6.82,0,0,0-6.812-6.828" transform="translate(-77.329 -48.55)" fill="#e5a185"/></g><g transform="translate(0.043 0.042)"><g clip-path="url(#cx)"><path d="M84.184,48.619A6.777,6.777,0,1,0,90.953,55.4a6.777,6.777,0,0,0-6.769-6.786" transform="translate(-77.398 -48.619)" fill="#e5a084"/></g></g><g transform="translate(0.085 0.085)"><g clip-path="url(#cy)"><path d="M84.211,48.689a6.735,6.735,0,1,0,6.727,6.743,6.734,6.734,0,0,0-6.727-6.743" transform="translate(-77.468 -48.688)" fill="#e59f83"/></g></g><g transform="translate(0.128 0.128)"><g clip-path="url(#cz)"><path d="M84.237,48.757a6.692,6.692,0,1,0,6.684,6.7,6.692,6.692,0,0,0-6.684-6.7" transform="translate(-77.537 -48.758)" fill="#e49e83"/></g></g><g transform="translate(0.17 0.171)"><g clip-path="url(#da)"><path d="M84.263,48.827A6.65,6.65,0,1,0,90.9,55.485a6.65,6.65,0,0,0-6.641-6.658" transform="translate(-77.606 -48.827)" fill="#e49d82"/></g></g><g transform="translate(0.213 0.213)"><g clip-path="url(#db)"><path d="M84.29,48.9a6.607,6.607,0,1,0,6.6,6.614,6.607,6.607,0,0,0-6.6-6.614" transform="translate(-77.675 -48.896)" fill="#e49c81"/></g></g><g transform="translate(0.256 0.256)"><g clip-path="url(#dc)"><path d="M84.317,48.965a6.564,6.564,0,1,0,6.557,6.572,6.564,6.564,0,0,0-6.557-6.572" transform="translate(-77.744 -48.965)" fill="#e49b80"/></g></g><g transform="translate(0.298 0.298)"><g clip-path="url(#dd)"><path d="M84.342,49.034a6.522,6.522,0,1,0,6.514,6.529,6.522,6.522,0,0,0-6.514-6.529" transform="translate(-77.813 -49.034)" fill="#e49a80"/></g></g><g transform="translate(0.341 0.341)"><g clip-path="url(#de)"><path d="M84.369,49.1a6.479,6.479,0,1,0,6.472,6.487A6.478,6.478,0,0,0,84.369,49.1" transform="translate(-77.883 -49.104)" fill="#e3997f"/></g></g><g transform="translate(0.384 0.384)"><g clip-path="url(#df)"><path d="M84.4,49.173a6.436,6.436,0,1,0,6.429,6.444A6.436,6.436,0,0,0,84.4,49.173" transform="translate(-77.952 -49.173)" fill="#e3987e"/></g></g><g transform="translate(0.426 0.426)"><g clip-path="url(#dg)"><path d="M84.422,49.242a6.394,6.394,0,1,0,6.386,6.4,6.394,6.394,0,0,0-6.386-6.4" transform="translate(-78.021 -49.242)" fill="#e3977d"/></g></g><g transform="translate(0.469 0.469)"><g clip-path="url(#dh)"><path d="M84.449,49.311a6.351,6.351,0,1,0,6.343,6.359,6.351,6.351,0,0,0-6.343-6.359" transform="translate(-78.09 -49.311)" fill="#e3967c"/></g></g><g transform="translate(0.511 0.511)"><g clip-path="url(#di)"><path d="M84.475,49.38a6.308,6.308,0,1,0,6.3,6.316,6.309,6.309,0,0,0-6.3-6.316" transform="translate(-78.159 -49.38)" fill="#e2957c"/></g></g><g transform="translate(0.554 0.554)"><g clip-path="url(#dj)"><path d="M84.5,49.45a6.266,6.266,0,1,0,6.258,6.273A6.266,6.266,0,0,0,84.5,49.45" transform="translate(-78.229 -49.45)" fill="#e2947b"/></g></g><g transform="translate(0.597 0.597)"><g clip-path="url(#dk)"><path d="M84.529,49.519a6.223,6.223,0,1,0,6.216,6.231,6.224,6.224,0,0,0-6.216-6.231" transform="translate(-78.298 -49.519)" fill="#e2937a"/></g></g><g transform="translate(0.639 0.639)"><g clip-path="url(#dl)"><path d="M84.555,49.588a6.181,6.181,0,1,0,6.173,6.188,6.181,6.181,0,0,0-6.173-6.188" transform="translate(-78.367 -49.588)" fill="#e29279"/></g></g><g transform="translate(0.682 0.682)"><g clip-path="url(#dm)"><path d="M84.582,49.657a6.138,6.138,0,1,0,6.13,6.145,6.138,6.138,0,0,0-6.13-6.145" transform="translate(-78.436 -49.657)" fill="#e29179"/></g></g><g transform="translate(0.725 0.724)"><g clip-path="url(#dn)"><path d="M84.608,49.727a6.1,6.1,0,1,0,6.088,6.1,6.094,6.094,0,0,0-6.088-6.1" transform="translate(-78.506 -49.726)" fill="#e19078"/></g></g><g transform="translate(0.767 0.767)"><g clip-path="url(#do)"><path d="M84.634,49.795a6.053,6.053,0,1,0,6.045,6.06,6.053,6.053,0,0,0-6.045-6.06" transform="translate(-78.575 -49.796)" fill="#e18f77"/></g></g><g transform="translate(0.81 0.81)"><g clip-path="url(#dp)"><path d="M84.661,49.865a6.01,6.01,0,1,0,6,6.018,6.011,6.011,0,0,0-6-6.018" transform="translate(-78.644 -49.865)" fill="#e18e76"/></g></g><g transform="translate(0.852 0.852)"><g clip-path="url(#dq)"><path d="M84.688,49.934a5.967,5.967,0,1,0,5.96,5.975,5.968,5.968,0,0,0-5.96-5.975" transform="translate(-78.713 -49.934)" fill="#e18d75"/></g></g><g transform="translate(0.895 0.895)"><g clip-path="url(#dr)"><path d="M84.714,50a5.925,5.925,0,1,0,5.918,5.932A5.926,5.926,0,0,0,84.714,50" transform="translate(-78.782 -50.003)" fill="#e18c75"/></g></g><g transform="translate(0.938 0.937)"><g clip-path="url(#ds)"><path d="M84.741,50.072a5.882,5.882,0,1,0,5.875,5.89,5.883,5.883,0,0,0-5.875-5.89" transform="translate(-78.851 -50.072)" fill="#e08b74"/></g></g><g transform="translate(0.98 0.981)"><g clip-path="url(#dt)"><path d="M84.767,50.142A5.84,5.84,0,1,0,90.6,55.988a5.839,5.839,0,0,0-5.833-5.846" transform="translate(-78.921 -50.142)" fill="#e08a73"/></g></g><g transform="translate(1.023 1.023)"><g clip-path="url(#du)"><path d="M84.794,50.211a5.8,5.8,0,1,0,5.79,5.8,5.8,5.8,0,0,0-5.79-5.8" transform="translate(-78.99 -50.211)" fill="#e08972"/></g></g><g transform="translate(1.066 1.066)"><g clip-path="url(#dv)"><path d="M84.82,50.28a5.755,5.755,0,1,0,5.747,5.761A5.755,5.755,0,0,0,84.82,50.28" transform="translate(-79.059 -50.28)" fill="#e08872"/></g></g><g transform="translate(1.108 1.108)"><g clip-path="url(#dw)"><path d="M84.847,50.349a5.712,5.712,0,1,0,5.7,5.719,5.712,5.712,0,0,0-5.7-5.719" transform="translate(-79.128 -50.349)" fill="#df8771"/></g></g><g transform="translate(1.151 1.151)"><g clip-path="url(#dx)"><path d="M84.873,50.419a5.669,5.669,0,1,0,5.662,5.676,5.67,5.67,0,0,0-5.662-5.676" transform="translate(-79.197 -50.418)" fill="#df8670"/></g></g><g transform="translate(1.193 1.194)"><g clip-path="url(#dy)"><path d="M84.9,50.488a5.627,5.627,0,1,0,5.62,5.633,5.626,5.626,0,0,0-5.62-5.633" transform="translate(-79.267 -50.488)" fill="#df856f"/></g></g><g transform="translate(1.236 1.236)"><g clip-path="url(#dz)"><path d="M84.926,50.557A5.584,5.584,0,1,0,90.5,56.148a5.584,5.584,0,0,0-5.578-5.591" transform="translate(-79.336 -50.557)" fill="#df846f"/></g></g><g transform="translate(1.279 1.279)"><g clip-path="url(#ea)"><path d="M84.953,50.626a5.541,5.541,0,1,0,5.535,5.548,5.541,5.541,0,0,0-5.535-5.548" transform="translate(-79.405 -50.626)" fill="#df836e"/></g></g><g transform="translate(1.321 1.321)"><g clip-path="url(#eb)"><path d="M84.979,50.695A5.5,5.5,0,1,0,90.471,56.2a5.5,5.5,0,0,0-5.492-5.505" transform="translate(-79.474 -50.695)" fill="#de826d"/></g></g><g transform="translate(1.364 1.364)"><g clip-path="url(#ec)"><path d="M85.006,50.765a5.456,5.456,0,1,0,5.45,5.463,5.456,5.456,0,0,0-5.45-5.463" transform="translate(-79.544 -50.764)" fill="#de816c"/></g></g><g transform="translate(1.407 1.407)"><g clip-path="url(#ed)"><path d="M85.032,50.833a5.413,5.413,0,1,0,5.407,5.421,5.414,5.414,0,0,0-5.407-5.421" transform="translate(-79.613 -50.834)" fill="#de806b"/></g></g><g transform="translate(1.449 1.449)"><g clip-path="url(#ee)"><path d="M85.059,50.9a5.371,5.371,0,1,0,5.364,5.377A5.371,5.371,0,0,0,85.059,50.9" transform="translate(-79.682 -50.903)" fill="#de7f6b"/></g></g><g transform="translate(1.492 1.492)"><g clip-path="url(#ef)"><path d="M85.086,50.972a5.328,5.328,0,1,0,5.322,5.335,5.328,5.328,0,0,0-5.322-5.335" transform="translate(-79.751 -50.972)" fill="#de7e6a"/></g></g><g transform="translate(1.534 1.534)"><g clip-path="url(#eg)"><path d="M85.112,51.041a5.286,5.286,0,1,0,5.279,5.292,5.286,5.286,0,0,0-5.279-5.292" transform="translate(-79.82 -51.041)" fill="#dd7d69"/></g></g><g transform="translate(1.577 1.577)"><g clip-path="url(#eh)"><path d="M85.139,51.11a5.243,5.243,0,1,0,5.237,5.249,5.243,5.243,0,0,0-5.237-5.249" transform="translate(-79.89 -51.11)" fill="#dd7c68"/></g></g><g transform="translate(1.62 1.62)"><g clip-path="url(#ei)"><path d="M85.165,51.18a5.2,5.2,0,1,0,5.194,5.206,5.2,5.2,0,0,0-5.194-5.206" transform="translate(-79.959 -51.18)" fill="#dd7b68"/></g></g><g transform="translate(1.662 1.662)"><g clip-path="url(#ej)"><path d="M85.192,51.249a5.157,5.157,0,1,0,5.151,5.164,5.157,5.157,0,0,0-5.151-5.164" transform="translate(-80.028 -51.249)" fill="#dd7a67"/></g></g><g transform="translate(1.705 1.705)"><g clip-path="url(#ek)"><path d="M85.218,51.318a5.115,5.115,0,1,0,5.109,5.121,5.115,5.115,0,0,0-5.109-5.121" transform="translate(-80.097 -51.318)" fill="#dd7a66"/></g></g><g transform="translate(1.748 1.747)"><g clip-path="url(#el)"><path d="M85.244,51.387a5.072,5.072,0,1,0,5.067,5.078,5.073,5.073,0,0,0-5.067-5.078" transform="translate(-80.166 -51.387)" fill="#dc7965"/></g></g><g transform="translate(1.79 1.79)"><g clip-path="url(#em)"><path d="M85.271,51.457a5.03,5.03,0,1,0,5.024,5.036,5.03,5.03,0,0,0-5.024-5.036" transform="translate(-80.235 -51.456)" fill="#dc7864"/></g></g><g transform="translate(1.833 1.833)"><g clip-path="url(#en)"><path d="M85.3,51.525a4.987,4.987,0,1,0,4.982,4.993A4.987,4.987,0,0,0,85.3,51.525" transform="translate(-80.305 -51.526)" fill="#dc7764"/></g></g><g transform="translate(1.875 1.875)"><g clip-path="url(#eo)"><path d="M85.324,51.6a4.945,4.945,0,1,0,4.939,4.951A4.944,4.944,0,0,0,85.324,51.6" transform="translate(-80.374 -51.595)" fill="#dc7663"/></g></g><g transform="translate(1.918 1.918)"><g clip-path="url(#ep)"><path d="M85.351,51.664a4.9,4.9,0,1,0,4.9,4.908,4.9,4.9,0,0,0-4.9-4.908" transform="translate(-80.443 -51.664)" fill="#db7562"/></g></g><g transform="translate(1.961 1.96)"><g clip-path="url(#eq)"><path d="M85.378,51.733A4.859,4.859,0,1,0,90.231,56.6a4.858,4.858,0,0,0-4.854-4.865" transform="translate(-80.513 -51.733)" fill="#db7461"/></g></g><g transform="translate(2.003 2.003)"><g clip-path="url(#er)"><path d="M85.4,51.8a4.817,4.817,0,1,0,4.811,4.823A4.816,4.816,0,0,0,85.4,51.8" transform="translate(-80.582 -51.802)" fill="#db7361"/></g></g><g transform="translate(2.046 2.046)"><g clip-path="url(#es)"><path d="M85.43,51.872a4.774,4.774,0,1,0,4.768,4.78,4.775,4.775,0,0,0-4.768-4.78" transform="translate(-80.651 -51.872)" fill="#db7260"/></g></g><g transform="translate(2.089 2.089)"><g clip-path="url(#et)"><path d="M85.457,51.941a4.731,4.731,0,1,0,4.725,4.737,4.731,4.731,0,0,0-4.725-4.737" transform="translate(-80.72 -51.941)" fill="#db715f"/></g></g><g transform="translate(2.131 2.131)"><g clip-path="url(#eu)"><path d="M85.484,52.01A4.689,4.689,0,1,0,90.167,56.7a4.689,4.689,0,0,0-4.683-4.695" transform="translate(-80.789 -52.01)" fill="#da705e"/></g></g><g transform="translate(2.174 2.174)"><g clip-path="url(#ev)"><path d="M85.51,52.079a4.646,4.646,0,1,0,4.64,4.652,4.646,4.646,0,0,0-4.64-4.652" transform="translate(-80.858 -52.079)" fill="#da6f5d"/></g></g><g transform="translate(2.216 2.217)"><g clip-path="url(#ew)"><path d="M85.537,52.148a4.6,4.6,0,1,0,4.6,4.61,4.6,4.6,0,0,0-4.6-4.61" transform="translate(-80.928 -52.149)" fill="#da6e5d"/></g></g><g transform="translate(2.259 2.259)"><g clip-path="url(#ex)"><path d="M85.563,52.218a4.561,4.561,0,1,0,4.555,4.567,4.561,4.561,0,0,0-4.555-4.567" transform="translate(-80.997 -52.218)" fill="#da6d5c"/></g></g><g transform="translate(2.302 2.302)"><g clip-path="url(#ey)"><path d="M85.589,52.287A4.518,4.518,0,1,0,90.1,56.81a4.518,4.518,0,0,0-4.513-4.523" transform="translate(-81.066 -52.287)" fill="#da6c5b"/></g></g><g transform="translate(2.344 2.344)"><g clip-path="url(#ez)"><path d="M85.616,52.356a4.476,4.476,0,1,0,4.47,4.481,4.475,4.475,0,0,0-4.47-4.481" transform="translate(-81.136 -52.356)" fill="#d96b5a"/></g></g><g transform="translate(2.387 2.387)"><g clip-path="url(#fa)"><path d="M85.642,52.425a4.433,4.433,0,1,0,4.427,4.438,4.433,4.433,0,0,0-4.427-4.438" transform="translate(-81.204 -52.425)" fill="#d96a5a"/></g></g><g transform="translate(2.43 2.43)"><g clip-path="url(#fb)"><path d="M85.669,52.5a4.39,4.39,0,1,0,4.385,4.4,4.391,4.391,0,0,0-4.385-4.4" transform="translate(-81.274 -52.495)" fill="#d96959"/></g></g><g transform="translate(2.472 2.472)"><g clip-path="url(#fc)"><path d="M85.7,52.564a4.348,4.348,0,1,0,4.343,4.353A4.348,4.348,0,0,0,85.7,52.564" transform="translate(-81.343 -52.564)" fill="#d96858"/></g></g><g transform="translate(2.515 2.515)"><g clip-path="url(#fd)"><path d="M85.722,52.633a4.305,4.305,0,1,0,4.3,4.31,4.306,4.306,0,0,0-4.3-4.31" transform="translate(-81.412 -52.633)" fill="#d86757"/></g></g><g transform="translate(2.557 2.557)"><g clip-path="url(#fe)"><path d="M85.749,52.7a4.263,4.263,0,1,0,4.257,4.268A4.263,4.263,0,0,0,85.749,52.7" transform="translate(-81.481 -52.702)" fill="#d86657"/></g></g><g transform="translate(2.6 2.6)"><g clip-path="url(#ff)"><path d="M85.776,52.772A4.22,4.22,0,1,0,89.99,57a4.219,4.219,0,0,0-4.215-4.225" transform="translate(-81.551 -52.771)" fill="#d86556"/></g></g><g transform="translate(2.643 2.643)"><g clip-path="url(#fg)"><path d="M85.8,52.84a4.177,4.177,0,1,0,4.172,4.183A4.177,4.177,0,0,0,85.8,52.84" transform="translate(-81.62 -52.841)" fill="#d86455"/></g></g><g transform="translate(2.685 2.685)"><g clip-path="url(#fh)"><path d="M85.828,52.91a4.135,4.135,0,1,0,4.129,4.14,4.136,4.136,0,0,0-4.129-4.14" transform="translate(-81.689 -52.91)" fill="#d86354"/></g></g><g transform="translate(2.728 2.728)"><g clip-path="url(#fi)"><path d="M85.855,52.979a4.092,4.092,0,1,0,4.087,4.1,4.092,4.092,0,0,0-4.087-4.1" transform="translate(-81.758 -52.979)" fill="#d76253"/></g></g><g transform="translate(2.771 2.77)"><g clip-path="url(#fj)"><path d="M85.881,53.048A4.049,4.049,0,1,0,89.925,57.1a4.05,4.05,0,0,0-4.044-4.054" transform="translate(-81.827 -53.048)" fill="#d76153"/></g></g><g transform="translate(2.813 2.813)"><g clip-path="url(#fk)"><path d="M85.908,53.117a4.007,4.007,0,1,0,4,4.012,4.007,4.007,0,0,0-4-4.012" transform="translate(-81.896 -53.117)" fill="#d76052"/></g></g><g transform="translate(2.856 2.856)"><g clip-path="url(#fl)"><path d="M85.934,53.187a3.964,3.964,0,1,0,3.96,3.969,3.964,3.964,0,0,0-3.96-3.969" transform="translate(-81.966 -53.187)" fill="#d75f51"/></g></g><g transform="translate(2.899 2.899)"><g clip-path="url(#fm)"><path d="M85.961,53.256a3.921,3.921,0,1,0,3.917,3.927,3.921,3.921,0,0,0-3.917-3.927" transform="translate(-82.035 -53.256)" fill="#d75e50"/></g></g><g transform="translate(2.941 2.941)"><g clip-path="url(#fn)"><path d="M85.987,53.325a3.879,3.879,0,1,0,3.874,3.883,3.879,3.879,0,0,0-3.874-3.883" transform="translate(-82.104 -53.325)" fill="#d65d50"/></g></g><g transform="translate(2.984 2.984)"><g clip-path="url(#fo)"><path d="M86.014,53.394a3.836,3.836,0,1,0,3.832,3.841,3.836,3.836,0,0,0-3.832-3.841" transform="translate(-82.174 -53.394)" fill="#d65c4f"/></g></g><g transform="translate(3.026 3.026)"><g clip-path="url(#fp)"><path d="M86.04,53.463a3.794,3.794,0,1,0,3.789,3.8,3.794,3.794,0,0,0-3.789-3.8" transform="translate(-82.242 -53.463)" fill="#d65b4e"/></g></g><g transform="translate(3.069 3.069)"><g clip-path="url(#fq)"><path d="M86.067,53.533a3.751,3.751,0,1,0,3.746,3.755,3.751,3.751,0,0,0-3.746-3.755" transform="translate(-82.312 -53.533)" fill="#d65a4d"/></g></g><g transform="translate(3.112 3.112)"><g clip-path="url(#fr)"><path d="M86.094,53.6a3.709,3.709,0,1,0,3.7,3.713,3.708,3.708,0,0,0-3.7-3.713" transform="translate(-82.381 -53.602)" fill="#d5594c"/></g></g><g transform="translate(3.154 3.154)"><g clip-path="url(#fs)"><path d="M86.12,53.671a3.666,3.666,0,1,0,3.661,3.67,3.666,3.666,0,0,0-3.661-3.67" transform="translate(-82.45 -53.671)" fill="#d5584c"/></g></g><g transform="translate(3.197 3.197)"><g clip-path="url(#ft)"><path d="M86.147,53.74a3.623,3.623,0,1,0,3.619,3.627,3.623,3.623,0,0,0-3.619-3.627" transform="translate(-82.519 -53.74)" fill="#d5574b"/></g></g><g transform="translate(3.239 3.239)"><g clip-path="url(#fu)"><path d="M86.174,53.81a3.58,3.58,0,1,0,3.576,3.585,3.579,3.579,0,0,0-3.576-3.585" transform="translate(-82.589 -53.809)" fill="#d5564a"/></g></g><g transform="translate(3.282 3.282)"><g clip-path="url(#fv)"><path d="M86.2,53.878a3.538,3.538,0,1,0,3.534,3.542A3.537,3.537,0,0,0,86.2,53.878" transform="translate(-82.658 -53.879)" fill="#d55549"/></g></g><g transform="translate(3.325 3.325)"><g clip-path="url(#fw)"><path d="M86.226,53.948a3.5,3.5,0,1,0,3.49,3.5,3.5,3.5,0,0,0-3.49-3.5" transform="translate(-82.727 -53.948)" fill="#d45449"/></g></g><g transform="translate(3.367 3.367)"><g clip-path="url(#fx)"><path d="M86.253,54.017A3.453,3.453,0,1,0,89.7,57.474a3.453,3.453,0,0,0-3.448-3.457" transform="translate(-82.796 -54.017)" fill="#d45348"/></g></g><g transform="translate(3.41 3.41)"><g clip-path="url(#fy)"><path d="M86.28,54.086A3.41,3.41,0,1,0,89.685,57.5a3.41,3.41,0,0,0-3.405-3.414" transform="translate(-82.865 -54.086)" fill="#d45247"/></g></g></g></g><path d="M104.521,49.866c-1.789-.618-3.919,1.016-4.76,3.649s-.072,5.27,1.717,5.888,3.919-1.016,4.759-3.649.071-5.27-1.715-5.888" transform="translate(-38.184 -19.102)" fill="#e5a185"/><path d="M86.409,58.562a4.043,4.043,0,0,1-4.9-.283,17.594,17.594,0,0,1-3.486,10.709c-2.5,3.458-7.988,4.653-12.072,4.548-9.743-.251-12.338-3.2-14.384-7.194,1.422,4.392,4.837,8.433,12.5,8.872,14.2.813,18.042-5.149,18.5-13.57a2.384,2.384,0,0,0,.53.266c1.788.618,3.919-1.016,4.759-3.649a7.082,7.082,0,0,0,.337-2,4.4,4.4,0,0,1-1.786,2.3" transform="translate(-19.805 -21.607)" fill="#d78c74"/><g transform="translate(34.193 21.639)" opacity="0.52"><g clip-path="url(#fz)"><path d="M56.306,40.221a28.266,28.266,0,0,0-.791,4.837l7.512,1.224A17.645,17.645,0,0,0,64.9,35.132Z" transform="translate(-55.515 -35.132)" fill="#d78c74"/></g></g><path d="M103.007,55.609l1.632.215a3.646,3.646,0,0,1,1.853-3.446c-3.108-1.083-3.485,3.231-3.485,3.231" transform="translate(-39.562 -20.05)" fill="#d78c74"/><g transform="translate(49.232 21.545)" opacity="0.52"><g clip-path="url(#ga)"><path d="M81.76,34.98S78.3,41.033,80.9,45.8l8.62.232a13.224,13.224,0,0,0,.556-5.808c-.54-2.55-8.313-5.241-8.313-5.241" transform="translate(-79.931 -34.98)" fill="#d78c74"/></g></g><path d="M86.139,47.522A4.529,4.529,0,0,0,81.5,50.608s.617,2.251,4.425,2.271,4.063-2.18,4.063-2.18-.221-2.939-3.846-3.177" transform="translate(-31.301 -18.247)" fill="#fff"/><path d="M55.5,49.82s-.546,2.134,3.317,2.286,4.194-1.062,4.194-1.062S59.243,44.033,55.5,49.82" transform="translate(-21.305 -18.255)" fill="#fff"/></g><g transform="translate(36.944 30.255)"><g clip-path="url(#gb)"><rect width="4.457" height="4.395" transform="translate(-0.99 3.366) rotate(-74.268)" fill="url(#gc)"/></g></g><g clip-path="url(#a)"><g transform="translate(36.627 31.479)" opacity="0.6"><g clip-path="url(#ge)"><path d="M59.465,52.137l.133.547s2.289-.208,2.057-1.245-2.19.7-2.19.7" transform="translate(-59.465 -51.108)" fill="#fff"/></g></g></g><g transform="translate(52.495 30.272)"><g clip-path="url(#gf)"><rect width="5.077" height="4.514" transform="matrix(0.232, -0.973, 0.973, 0.232, -1.083, 4.124)" fill="url(#gg)"/></g></g><g clip-path="url(#a)"><g transform="translate(52.118 31.954)" opacity="0.6"><g clip-path="url(#gi)"><path d="M84.667,52.81l-.05.573s2.4-.119,2.165-1.157-2.115.583-2.115.583" transform="translate(-84.617 -51.88)" fill="#fff"/></g></g><path d="M59.076,46.582a3.589,3.589,0,0,0-3.561,2.874s.6-1.21,3.237-1.313,4.275,2.536,4.275,2.536.041-4.063-3.951-4.1" transform="translate(-21.322 -17.891)" fill="#381911"/><path d="M56.8,40.221c2.655-1.611,6.918-.615,8.415-2.191.571-.6.18-2.9.18-2.9-8.119,1.212-8.6,5.089-8.6,5.089" transform="translate(-21.815 -13.493)" fill="#422e26"/><path d="M82.427,34.98s-1.077,1.8-.665,2.439c1.285,1.978,6.792,1.29,8.972,2.924,0,0,.526-3.842-8.307-5.364" transform="translate(-31.366 -13.435)" fill="#422e26"/><path d="M86.025,47.262A3.947,3.947,0,0,0,81.5,50.5s.964-2.024,4.809-1.621c3.458.363,3.679,1.713,3.679,1.713s.062-2.967-3.961-3.333" transform="translate(-31.301 -18.142)" fill="#381911"/><path d="M70.741,67.148c-6.829.19-7.648-1.3-7.648-1.3s-1.329,5.554,6.972,5.51c7.931-.042,7.043-5.29,6.987-5.58.018.134-.042,1.191-6.311,1.366" transform="translate(-24.202 -25.265)" fill="#6c332e"/><path d="M85.8,65.758l0,.014,0-.014" transform="translate(-32.954 -25.256)" fill="#6c332e"/><path d="M76.177,67.2a24.614,24.614,0,0,1-4.775.478,20.8,20.8,0,0,1-6.159-.507,25.123,25.123,0,0,1-.508,2.851c.952,1.037,2.724,1.888,5.991,1.871,3.443-.018,5.222-1.018,6.131-2.166-.123-.313-.24-.629-.346-.952a9.032,9.032,0,0,1-.334-1.575" transform="translate(-24.863 -25.8)" fill="#fff"/><g transform="translate(40.239 41.376)" opacity="0.35"><g clip-path="url(#gj)"><path d="M76.405,67.2a24.614,24.614,0,0,1-4.775.478,20.8,20.8,0,0,1-6.159-.507c-.037.318-.091.636-.141.953,3.6-1.01,7.9.1,11.581,1.807.061-.068.119-.136.174-.205-.123-.313-.24-.629-.346-.952a9.034,9.034,0,0,1-.334-1.575" transform="translate(-65.331 -67.176)" fill="#c3bba5"/></g></g><path d="M69.147,52.045S66.566,50.2,65.69,53.478,71.341,58.632,73.1,55.2,70.13,45.45,70.13,45.45s.957,3.912-.983,6.595" transform="translate(-25.198 -17.456)" fill="#e5a185"/><g transform="translate(40.555 29.839)" opacity="0.2"><g clip-path="url(#gk)"><path d="M69.237,53.2s-2.5-1.732-3.394,1.212a23.242,23.242,0,0,0,4.071.58A17.785,17.785,0,0,0,71,48.6c-.185-.05-.371-.1-.557-.15a7.409,7.409,0,0,1-1.2,4.749" transform="translate(-65.843 -48.445)" fill="#fff"/></g></g><path d="M68.025,9.734C50,11.157,52.872,31.121,52.872,31.121c1-5.96,4.623-13.382,7.462-13.563a10.843,10.843,0,0,0,6.188,2.015c3.305.026,7.857-2.437,7.857-2.437,3.3-.118,7.195,10.04,7.739,18.259.124,1.88,1.731-.312,1.731-.312S85.69,8.34,68.025,9.734" transform="translate(-20.242 -3.718)" fill="#4f372d"/><path d="M78.557,8.433C73.119.359,55.766,2.941,55.766,2.941,54.2,12.2,60.681,14.2,60.681,14.2S75.7,11.329,77.995,12.909,84.9,27.348,84.9,27.348s3.678-13.53.779-18.453c-2.128-3.614-7.123-.462-7.123-.462" transform="translate(-21.324 -0.979)" fill="#4f372d"/><path d="M66.8,0a5.015,5.015,0,0,0,1.147,2.452s18.385,12.155,14.942,5S66.8,0,66.8,0" transform="translate(-25.655 0)" fill="#4f372d"/><path d="M93.378,6.445c-1.024.171-1.259.66-1.259.66a4.894,4.894,0,0,0,.19-3.189,2.983,2.983,0,0,0-1.77,2.769C89.531,4.641,86.5,4.041,86.5,4.041c.119,1.7,1.954,3.409,2.052,3.46l1.6,2.371L93.4,9.32l-.339-1.447a1.785,1.785,0,0,0,.321-1.428" transform="translate(-33.222 -1.504)" fill="#4f372d"/><path d="M54.5,14.59c-5.281,1.679-3.481,22.778-3.481,22.778,1-5.96,5.716-17.744,8.555-17.926A18.738,18.738,0,0,1,54.5,14.59" transform="translate(-19.481 -5.604)" fill="#422e26"/><g transform="translate(55.629 7.318)" opacity="0.12"><g clip-path="url(#gl)"><path d="M90.32,11.884c.007,0,.028,0,0,0Z" transform="translate(-90.316 -11.881)" fill="#fff"/></g></g><g transform="translate(55.636 6.513)" opacity="0.12"><g clip-path="url(#gm)"><path d="M90.334,10.574h0Z" transform="translate(-90.331 -10.574)" fill="#fff"/></g></g><g transform="translate(34.228 2.408)" opacity="0.11"><g clip-path="url(#gn)"><path d="M83.626,7.8c-.649.111-1.332.282-2.037.451a14.743,14.743,0,0,1-5.186.475,17.593,17.593,0,0,1-5.582-2c-.907-.444-1.811-.9-2.743-1.282a16.085,16.085,0,0,0-6.543-1.534,9.186,9.186,0,0,0-3.136.815,6.78,6.78,0,0,0-2.227,1.529,6.249,6.249,0,0,0-.6.722,11.271,11.271,0,0,0,.287,1.983c.068-.057.138-.115.213-.175A6.735,6.735,0,0,1,57.4,8.01a5.944,5.944,0,0,1,1.79-.478C61.8,7.3,64.231,8.315,66.6,9.257c.969.386,1.954.837,3,1.254a32.338,32.338,0,0,0,3.254,1.163,11.52,11.52,0,0,0,6.154.14c.261-.076.519-.14.768-.22a17.5,17.5,0,0,0,2.608-1.143c.748-.4,1.39-.759,1.955-1.033A7.139,7.139,0,0,1,85.4,8.978,3.219,3.219,0,0,0,83.626,7.8" transform="translate(-55.571 -3.909)" fill="#e5912f"/></g></g><g transform="translate(55.59 7.321)" opacity="0.12"><g clip-path="url(#go)"><path d="M90.254,11.888h0Z" transform="translate(-90.254 -11.886)" fill="#fff"/></g></g><path d="M50.52,51.322s-.04,8.372,5.5,8.951c0,0-1.283,7.178,8.942,7.14,9.885-.036,8.25-7.3,8.25-7.3s6.879-.086,7.625-9.173l1.752-.02s-1.577,5.3-.644,8.43c0,0,2.7,13.976-15.936,14.508S48.452,60.209,50.52,51.322" transform="translate(-18.984 -19.557)" fill="#4f372d"/><path d="M65.72,61.33a15.251,15.251,0,0,0-5.987.82c-3.414,1.078-4.767.477-4.767.477s.9,2.7,11.525,2.81c9.037.094,11.963-1.8,11.963-1.8S74.194,61.064,65.72,61.33" transform="translate(-21.11 -23.54)" fill="#4f372d"/><path d="M65.65,59.966c.407,2.677,5.878,3.907,7.463.812a3.291,3.291,0,0,0,.229-.591,16.2,16.2,0,0,1-7.692-.221" transform="translate(-25.214 -23.031)" fill="#d78c74"/><g transform="translate(43.009 48.925)" opacity="0.16"><g clip-path="url(#gp)"><path d="M70.879,79.455a9.764,9.764,0,0,0,3.575.078.834.834,0,0,1,.953.756c.052.77-.359,1.765-2.841,1.759s-2.831-1.078-2.722-1.9a.842.842,0,0,1,1.035-.694" transform="translate(-69.827 -79.432)"/></g></g></g></g></g></g></svg>