<svg xmlns="http://www.w3.org/2000/svg" width="112.389" height="107.457" viewBox="0 0 112.389 107.457"><g transform="translate(-41.834 -145.996)"><g transform="translate(97.787 146.746)"><path d="M105.865,186.825h26.859v-40.08H77.04v40.08H96.73l-13.8,12.483" transform="translate(-77.04 -146.746)" fill="none" stroke="#ffb327" stroke-linecap="round" stroke-linejoin="round" stroke-width="1.5"/><g transform="translate(10.833 13.967)"><line x2="34.064" fill="none" stroke="#ffb327" stroke-linejoin="round" stroke-width="1.5"/><line x2="24.29" transform="translate(0 12.133)" fill="none" stroke="#ffb327" stroke-linejoin="round" stroke-width="1.5"/></g></g><g transform="translate(42.625 177.082)"><g transform="translate(11.27)"><path d="M86.657,200.3V185.073c-.268-20.776-18.308-19.382-18.308-19.382h-.388s-18.042-1.395-18.3,19.382V200.3" transform="translate(-49.656 -165.672)" fill="none" stroke="#fff" stroke-linecap="round" stroke-linejoin="round" stroke-width="1.5"/><path d="M58.057,187.813c1.359,6.184,5.49,11.315,9.971,11.315,5.964,0,10.5-8.381,10.5-17.032,0,0,.329-5.693-2.569-9.4,0,0-6.243,7.54-25.858,8.641" transform="translate(-49.388 -161.44)" fill="none" stroke="#fff" stroke-linecap="round" stroke-linejoin="round" stroke-width="1.5"/></g><g transform="translate(0 41.28)"><path d="M50.311,194.836c-2.489,1.114-5.809,3.363-6.474,7.577l-1.212,21.256" transform="translate(-42.625 -189.37)" fill="none" stroke="#fff" stroke-linecap="round" stroke-miterlimit="10" stroke-width="1.5"/><g transform="translate(42.147 3.023)"><path d="M68.92,193.312l6.854,1.481s8.234,1.622,9.326,8.539l1.213,21.256" transform="translate(-68.92 -193.312)" fill="none" stroke="#fff" stroke-linecap="round" stroke-miterlimit="10" stroke-width="1.5"/></g><path d="M80.493,202.8l6.127-.323L77.19,191.426,68.146,216.6,59.1,191.426l-9.428,11.056,6.126.323" transform="translate(-38.376 -191.426)" fill="none" stroke="#fff" stroke-linecap="round" stroke-linejoin="round" stroke-width="1.5"/></g></g></g></svg>