<svg xmlns="http://www.w3.org/2000/svg" width="21" height="21" viewBox="0 0 21 21"><path d="M10.5-14.391a5.245,5.245,0,0,1,2.7.727A5.406,5.406,0,0,1,15.164-11.7,5.245,5.245,0,0,1,15.891-9a5.245,5.245,0,0,1-.727,2.7A5.406,5.406,0,0,1,13.2-4.336a5.245,5.245,0,0,1-2.7.727,5.245,5.245,0,0,1-2.7-.727A5.406,5.406,0,0,1,5.836-6.3,5.245,5.245,0,0,1,5.109-9a5.245,5.245,0,0,1,.727-2.7A5.406,5.406,0,0,1,7.8-13.664,5.245,5.245,0,0,1,10.5-14.391Zm0,8.906a3.386,3.386,0,0,0,2.484-1.031A3.386,3.386,0,0,0,14.016-9a3.386,3.386,0,0,0-1.031-2.484A3.386,3.386,0,0,0,10.5-12.516a3.386,3.386,0,0,0-2.484,1.031A3.386,3.386,0,0,0,6.984-9,3.386,3.386,0,0,0,8.016-6.516,3.386,3.386,0,0,0,10.5-5.484Zm6.891-9.141a1.46,1.46,0,0,1-.4.891,1.142,1.142,0,0,1-.867.375,1.217,1.217,0,0,1-.891-.375,1.217,1.217,0,0,1-.375-.891,1.217,1.217,0,0,1,.375-.891,1.217,1.217,0,0,1,.891-.375,1.217,1.217,0,0,1,.891.375A1.217,1.217,0,0,1,17.391-14.625Zm3.562,1.266Q21-12.047,21-9t-.07,4.383a8.84,8.84,0,0,1-.4,2.32A5.464,5.464,0,0,1,19.242-.258,5.464,5.464,0,0,1,17.2,1.031a8.84,8.84,0,0,1-2.32.4q-1.336.07-4.383.07T6.117,1.43A7.654,7.654,0,0,1,3.8.984,5,5,0,0,1,1.758-.258,5.464,5.464,0,0,1,.469-2.3a8.84,8.84,0,0,1-.4-2.32Q0-5.953,0-9t.07-4.383a8.84,8.84,0,0,1,.4-2.32,5.464,5.464,0,0,1,1.289-2.039A5.464,5.464,0,0,1,3.8-19.031a8.84,8.84,0,0,1,2.32-.4q1.336-.07,4.383-.07t4.383.07a8.84,8.84,0,0,1,2.32.4,5.464,5.464,0,0,1,2.039,1.289A5.464,5.464,0,0,1,20.531-15.7,9.536,9.536,0,0,1,20.953-13.359ZM18.7-2.812a9.87,9.87,0,0,0,.375-2.531q.047-1.031.047-2.906v-1.5q0-1.922-.047-2.906a9.406,9.406,0,0,0-.375-2.531A3.383,3.383,0,0,0,16.687-17.2a9.406,9.406,0,0,0-2.531-.375q-1.031-.047-2.906-.047H9.75q-1.875,0-2.906.047a9.87,9.87,0,0,0-2.531.375A3.383,3.383,0,0,0,2.3-15.187a9.406,9.406,0,0,0-.375,2.531q-.047,1.031-.047,2.906v1.5q0,1.875.047,2.906A9.87,9.87,0,0,0,2.3-2.812,3.554,3.554,0,0,0,4.312-.8a9.87,9.87,0,0,0,2.531.375q1.031.047,2.906.047h1.5q1.922,0,2.906-.047A9.406,9.406,0,0,0,16.687-.8,3.554,3.554,0,0,0,18.7-2.812Z" transform="translate(0 19.5)" fill="#ffb327"/></svg>