<svg xmlns="http://www.w3.org/2000/svg" width="24" height="19.5" viewBox="0 0 24 19.5"><path d="M21.516-13.875A10.819,10.819,0,0,0,24-16.453a10.573,10.573,0,0,1-2.812.8,4.885,4.885,0,0,0,2.156-2.719A10.014,10.014,0,0,1,20.2-17.2a5.567,5.567,0,0,0-1.617-1.125,4.7,4.7,0,0,0-1.992-.422,4.754,4.754,0,0,0-2.437.656,4.817,4.817,0,0,0-1.781,1.8,4.88,4.88,0,0,0-.656,2.461,6.832,6.832,0,0,0,.094,1.125,13.625,13.625,0,0,1-5.648-1.5,13.572,13.572,0,0,1-4.477-3.656,4.712,4.712,0,0,0-.7,2.461,4.728,4.728,0,0,0,.609,2.367A5.46,5.46,0,0,0,3.187-11.25a4.634,4.634,0,0,1-2.2-.656v.094A4.719,4.719,0,0,0,2.109-8.719,4.959,4.959,0,0,0,4.922-6.984a6.248,6.248,0,0,1-1.312.141q-.422,0-.891-.047A4.9,4.9,0,0,0,4.43-4.477a4.579,4.579,0,0,0,2.883.961A9.758,9.758,0,0,1,1.172-1.406Q.516-1.406,0-1.453A13.656,13.656,0,0,0,7.547.75a13.524,13.524,0,0,0,7.641-2.2,13.387,13.387,0,0,0,4.734-5.3,13.9,13.9,0,0,0,1.641-6.516A2.792,2.792,0,0,0,21.516-13.875Z" transform="translate(0 18.75)" fill="#ffb327"/></svg>