<svg xmlns="http://www.w3.org/2000/svg" width="21" height="21" viewBox="0 0 21 21"><path d="M21-18.328a1.1,1.1,0,0,0-.352-.844,1.164,1.164,0,0,0-.82-.328H1.172a1.142,1.142,0,0,0-.844.328A1.142,1.142,0,0,0,0-18.328V.328a1.164,1.164,0,0,0,.328.82,1.1,1.1,0,0,0,.844.352H11.2V-6.656H8.484V-9.8H11.2v-2.344a4.085,4.085,0,0,1,1.125-3.094,4.09,4.09,0,0,1,2.953-1.078q1.453,0,2.437.094v2.859H16.031a1.625,1.625,0,0,0-1.266.422,1.742,1.742,0,0,0-.281,1.125V-9.8h3.141L17.2-6.656H14.484V1.5h5.344a1.1,1.1,0,0,0,.844-.352A1.164,1.164,0,0,0,21,.328Z" transform="translate(0 19.5)" fill="#ffb327"/></svg>