<svg xmlns="http://www.w3.org/2000/svg" width="61.67" height="70.485" viewBox="0 0 61.67 70.485"><g transform="translate(-308.762 -144.514)"><line x2="13.085" y2="45.288" transform="translate(319.207 169.434)" fill="none" stroke="#fff" stroke-miterlimit="10" stroke-width="2"/><line y1="4.65" x2="16.13" transform="translate(309.038 190.403)" fill="none" stroke="#fff" stroke-miterlimit="10" stroke-width="2"/><path d="M343.72,179.841l-13.1,3.909,8.29,28.925" fill="none" stroke="#fff" stroke-miterlimit="10" stroke-width="2"/><path d="M325.905,167.425l2.765,9.652,11.769-3.549" fill="none" stroke="#fff" stroke-miterlimit="10" stroke-width="2"/><line y1="10.042" x2="34.862" transform="translate(335.293 189.778)" fill="none" stroke="#fff" stroke-miterlimit="10" stroke-width="2"/><path d="M364.314,158.008c0,6.9-12.495,27.943-12.495,27.943s-12.494-21.042-12.494-27.943a12.494,12.494,0,0,1,24.989,0Z" fill="none" stroke="#fff" stroke-linejoin="round" stroke-width="2"/><path d="M357.155,158.008a5.335,5.335,0,1,1-5.336-5.336A5.337,5.337,0,0,1,357.155,158.008Z" fill="none" stroke="#fff" stroke-linejoin="round" stroke-width="2"/><line x2="2.561" y2="9" transform="translate(360.844 192.425)" fill="none" stroke="#fff" stroke-miterlimit="10" stroke-width="2"/></g></svg>