<svg xmlns="http://www.w3.org/2000/svg" width="74.436" height="85.487" viewBox="0 0 74.436 85.487"><g transform="translate(-49.375 -146.647)"><path d="M111.236,172.285V155.121L84.189,147.4l-27.047,7.768,27.047,8.864,26.094-8.509" transform="translate(2.403)" fill="none" stroke="#fff" stroke-linecap="round" stroke-linejoin="round" stroke-width="1.5"/><path d="M64.666,161.671v3.22c3.922,3.454,10.12,5.668,16.929,5.668s13-2.214,16.926-5.668v-9.14" transform="translate(4.999 2.883)" fill="none" stroke="#fff" stroke-linejoin="round" stroke-width="1.5"/><g transform="translate(71.918 169.574)"><path d="M66.341,170.266C67.374,181.117,73.425,190,80.862,190c7.48,0,13.49-8.883,14.521-19.734a54.34,54.34,0,0,0,.3-6.381" transform="translate(-66.341 -163.885)" fill="none" stroke="#fff" stroke-linejoin="round" stroke-width="1.5"/></g><path d="M123.007,218.094l-1.364-18.168c-1.348-10.032-7.378-11.149-7.378-11.149s-6.567-1.855-13.539-3.021L86.593,204.618,72.46,185.756c-6.974,1.166-13.539,3.021-13.539,3.021s-6.03,1.118-7.379,11.149l-1.363,18.168" transform="translate(0 13.236)" fill="none" stroke="#fff" stroke-linecap="round" stroke-linejoin="round" stroke-width="1.5"/><line x2="9.752" transform="translate(100.918 214.117)" fill="none" stroke="#fff" stroke-linecap="round" stroke-linejoin="round" stroke-width="1.5"/></g></svg>