<svg xmlns="http://www.w3.org/2000/svg" width="48.803" height="54.866" viewBox="0 0 48.803 54.866"><g transform="translate(0.75 0.758)"><path d="M336.647,404.711l5.886-8.612H336.92l-5.178,11.173h4.142L331.9,417.791l10.084-13.19h-3.1" transform="translate(-312.848 -373.648)" fill="none" stroke="#ffb327" stroke-linecap="round" stroke-linejoin="round" stroke-width="1.5"/><g transform="translate(0)"><path d="M344.711,381.386a2.54,2.54,0,0,1,.048,2.283c-1.382,2.271-8.111.7-15.035-3.5s-11.419-9.454-10.039-11.723c1.251-2.058,6.9-.962,13.106,2.4" transform="translate(-310.17 -367.403)" fill="none" stroke="#ffb327" stroke-miterlimit="10" stroke-width="1.5"/><path d="M355.789,390.959a3.814,3.814,0,1,1,0-5.393A3.816,3.816,0,0,1,355.789,390.959Z" transform="translate(-316.665 -371.113)" fill="none" stroke="#ffb327" stroke-linejoin="round" stroke-width="1.5"/><path d="M354.677,383.6l-8.236-8.236-12.9-.218L307.592,401.09l21.356,21.355L354.894,396.5Z" transform="translate(-307.592 -369.088)" fill="none" stroke="#ffb327" stroke-linejoin="round" stroke-width="1.5"/></g></g></svg>