<svg xmlns="http://www.w3.org/2000/svg" width="24.955" height="36.467" viewBox="0 0 24.955 36.467"><g transform="translate(-53.971 -37.354)"><g transform="translate(54.471 38.32)"><g transform="translate(15.038 16.056)"><path d="M82.525,77.87a2.665,2.665,0,0,0,5.152,0c0-1.1-1.374-1.574-2.581-2.081s-2.582-.987-2.582-2.082a2.665,2.665,0,0,1,5.152,0" transform="translate(-82.514 -69.868)" fill="none" stroke="#394553" stroke-width="1"/><line y1="1.846" transform="translate(2.576)" fill="none" stroke="#394553" stroke-width="1"/><line y1="1.939" transform="translate(2.576 9.995)" fill="none" stroke="#394553" stroke-width="1"/></g><path d="M54.476,69.515l-.006-31.19,2.38,1.7,2.408-1.7,2.384,1.7,2.406-1.7,2.382,1.7,2.4-1.7,2.383,1.7,2.421-1.7,2.381,1.7,2.4-1.7.006,35-23.95,0" transform="translate(-54.471 -38.32)" fill="none" stroke="#394553" stroke-width="1"/><line x2="14.386" transform="translate(4.784 6.681)" fill="none" stroke="#394553" stroke-width="1"/><line x2="9.767" transform="translate(7.093 9.87)" fill="none" stroke="#394553" stroke-width="1"/><g transform="translate(4.186 17.509)"><rect width="0.459" height="0.459" fill="none" stroke="#394553" stroke-width="1"/><line x2="4.828" transform="translate(3.042 0.229)" fill="none" stroke="#394553" stroke-width="1"/><g transform="translate(0 4.285)"><rect width="0.459" height="0.459" fill="none" stroke="#394553" stroke-width="1"/><line x2="5.006" transform="translate(3.042 0.229)" fill="none" stroke="#394553" stroke-width="1"/></g><g transform="translate(0 8.57)"><rect width="0.459" height="0.459" fill="none" stroke="#394553" stroke-width="1"/><line x2="4.828" transform="translate(3.042 0.229)" fill="none" stroke="#394553" stroke-width="1"/></g></g></g></g></svg>