<svg xmlns="http://www.w3.org/2000/svg" width="60.84" height="54.413" viewBox="0 0 60.84 54.413"><path d="M289.75,131.81c0,4.9-2.582,8.229-5.67,11.71l-22.8,25.7a1.562,1.562,0,0,1-2.338,0l-11.628-13.106c-3.536-3.984-7.177-7.874-10.657-11.907-3.123-3.621-6.246-7.348-6.246-12.4a14.951,14.951,0,0,1,17.222-14.781,14.412,14.412,0,0,1,5.313,1.943c4,2.415,5.655,5.556,6.895,9.35a.252.252,0,0,0,.481,0c1.181-3.627,2.684-6.674,6.377-9.074a14.588,14.588,0,0,1,5.513-2.171A14.959,14.959,0,0,1,289.75,131.81Z" transform="translate(-229.66 -116.085)" fill="rgba(0,0,0,0)" stroke="#ffb327" stroke-width="1.5"/></svg>