<?xml version="1.0" standalone="no"?>
<!DOCTYPE svg PUBLIC "-//W3C//DTD SVG 1.1//EN" "http://www.w3.org/Graphics/SVG/1.1/DTD/svg11.dtd" >
<svg xmlns="http://www.w3.org/2000/svg" xmlns:xlink="http://www.w3.org/1999/xlink" version="1.1">
<metadata>
Created by FontForge 20190801 at Fri Mar 29 19:15:39 2013
 By Unknown
Futura was designed for Bauer company in 1927 by Paul Renner. This is a sans serif face based on geometrical shapes, representative of the aesthetics of the Bauhaus school of the 1920s-30s. Issued by the Bauer Foundry in a wide range of weights and widths, Futura became a very popular choice for text and display setting. Originally Cyrillic version of eight styles was developed at ParaType (ParaGraph) in 1995 by Vladimir Yefimov. Additional Cyrillic styles were developed in 2007-2009 by Isabella Chaeva. Simultaneously the old eight styles were partly revised to match the whole family. Now the new Futura is an uniform type system consisted of seven weights with corresponding obliques plus eight condensed styles. All these fonts are coordinated in letterforms, metrics, and weights to better working together.
</metadata>
<defs>
<font id="FuturaPT-LightObl" horiz-adv-x="500" >
  <font-face 
    font-family="Futura PT Light"
    font-weight="400"
    font-style="italic"
    font-stretch="normal"
    units-per-em="1000"
    panose-1="2 11 4 2 2 2 4 9 3 3"
    ascent="763"
    descent="-237"
    x-height="408"
    cap-height="667"
    bbox="-276 -250 1103 900"
    underline-thickness="50"
    underline-position="-100"
    slope="-7"
    stemh="42"
    stemv="42"
    unicode-range="U+0020-FB02"
  />
<missing-glyph horiz-adv-x="233" 
 />
    <glyph glyph-name="afii10017.var.accented" unicode="&#x410;`" horiz-adv-x="586" 
d="M526 0l-62 219h-284l-116 -219h-50l365 687l193 -687h-46zM201 259h252l-86 316zM464 854l47 -25l-150 -126l-29 18z" />
    <glyph glyph-name="afii10022.var.accented" unicode="&#x415;`" horiz-adv-x="464" 
d="M492 667l-5 -40h-276l-30 -242h270l-5 -40h-270l-37 -305h276l-5 -40h-278h-42l82 667h320zM403 854l47 -25l-150 -126l-29 18z" />
    <glyph glyph-name="afii10026.var.accented" unicode="&#x418;`" horiz-adv-x="700" 
d="M566 0l68 556l-546 -573l84 684h44l-70 -566l547 573l-83 -674h-44zM521 854l47 -25l-150 -126l-29 18z" />
    <glyph glyph-name="afii10032.var.accented" unicode="&#x41e;`" horiz-adv-x="805" 
d="M479 676c106 0 181 -41 231 -92c59 -61 82 -134 82 -215c0 -97 -28 -195 -112 -277c-80 -78 -169 -103 -267 -103c-87 0 -161 20 -227 85c-37 36 -91 108 -91 222c0 91 37 193 114 271c88 89 191 109 270 109zM407 29c108 0 188 41 240 92c66 66 100 162 100 246
c0 83 -33 149 -76 192c-44 44 -111 77 -196 77c-109 0 -184 -46 -232 -93c-70 -69 -102 -160 -102 -243s32 -147 73 -191c55 -58 121 -80 193 -80zM573 854l47 -25l-150 -126l-29 18z" />
    <glyph glyph-name="afii10037.var.accented" unicode="&#x423;`" horiz-adv-x="550" 
d="M96 667h48l178 -432l248 432h48l-387 -667h-46l108 186zM446 854l47 -25l-150 -126l-29 18z" />
    <glyph glyph-name="afii10045.var.accented" unicode="&#x42b;`" horiz-adv-x="690" 
d="M638 667h44l-82 -667h-44zM90 0l82 667h44l-35 -287h114c45 0 112 -5 159 -45c44 -37 52 -87 52 -126c0 -64 -22 -115 -51 -146c-48 -51 -127 -63 -210 -63h-155zM176 340l-37 -300h114c45 0 127 7 168 52c27 29 39 79 39 116c0 55 -25 86 -49 103c-39 28 -98 29 -136 29
h-99zM516 854l47 -25l-150 -126l-29 18z" />
    <glyph glyph-name="afii10047.var.accented" unicode="&#x42d;`" horiz-adv-x="680" 
d="M63 72l7 58c31 -38 65 -60 90 -73c42 -21 81 -28 129 -28c75 0 162 15 233 84c48 47 88 122 96 211h-444l5 40h442c4 110 -53 176 -83 204c-49 45 -117 68 -183 68c-44 0 -93 -12 -126 -27c-32 -15 -78 -47 -110 -78l7 58c29 23 63 44 92 57c42 19 89 30 142 30
c105 0 174 -40 215 -79c77 -72 92 -158 92 -226c0 -124 -43 -214 -103 -277c-76 -79 -162 -105 -271 -105c-47 0 -100 5 -149 28c-25 12 -57 34 -81 55zM465 854l47 -25l-150 -126l-29 18z" />
    <glyph glyph-name="afii10048.var.accented" unicode="&#x42e;`" horiz-adv-x="964" 
d="M180 372h101c16 86 56 153 99 198c54 56 141 106 256 106c93 0 175 -34 229 -88c50 -49 86 -120 86 -221c0 -131 -54 -219 -112 -275c-77 -75 -167 -103 -255 -103c-83 0 -158 24 -220 85c-86 86 -94 195 -89 258h-100l-41 -332h-44l82 667h44zM589 29
c104 0 175 48 217 90c67 67 100 161 100 243c0 81 -31 152 -75 197c-46 47 -115 77 -195 77c-71 0 -149 -20 -217 -88c-69 -69 -100 -162 -100 -239c0 -73 31 -155 80 -205c37 -38 100 -75 190 -75zM653 854l47 -25l-150 -126l-29 18z" />
    <glyph glyph-name="afii10049.var.accented" unicode="&#x42f;`" horiz-adv-x="470" 
d="M34 0l239 299c-45 2 -91 21 -119 49c-21 21 -43 58 -43 116c0 64 25 114 59 147c46 45 107 56 178 56h114l-82 -667h-44l37 299h-48l-237 -299h-54zM413 627h-52c-58 0 -116 -2 -160 -48c-14 -14 -43 -50 -43 -111c0 -48 19 -78 37 -95c22 -20 60 -34 108 -34h75z
M406 854l47 -25l-150 -126l-29 18z" />
    <glyph glyph-name="afii10023.var.accented" unicode="&#x401;`" horiz-adv-x="464" 
d="M492 667l-5 -40h-276l-30 -242h270l-5 -40h-270l-37 -305h276l-5 -40h-320l82 667h320zM412 775c0 13 5 23 13 31c9 9 19 12 28 12c10 0 20 -4 26 -10c5 -6 9 -15 9 -24c0 -12 -6 -23 -13 -30c-8 -8 -19 -12 -31 -12c-9 0 -17 3 -23 9c-8 7 -9 17 -9 24zM189 775
c0 13 5 23 13 31c9 9 19 12 28 12c10 0 20 -4 26 -10c5 -6 9 -15 9 -24c0 -12 -6 -23 -13 -30c-8 -8 -19 -12 -31 -12c-9 0 -17 3 -23 9c-8 7 -9 17 -9 24zM379 854l47 -25l-150 -126l-29 18z" />
    <glyph glyph-name="afii10065.var.accented" unicode="&#x430;`" horiz-adv-x="518" 
d="M446 328l10 80h40l-50 -408h-40l8 63c-16 -22 -36 -41 -60 -53s-55 -21 -94 -21c-47 0 -92 11 -130 47c-25 23 -59 69 -59 148c0 67 23 133 69 177c30 29 77 56 151 56c32 0 68 -6 99 -27c24 -16 44 -39 56 -62zM283 379c-45 0 -84 -14 -115 -45
c-33 -33 -55 -89 -55 -147c0 -52 20 -96 47 -122c34 -32 75 -38 104 -38c38 0 68 9 97 30c60 44 74 120 74 164c0 49 -16 91 -42 117c-17 18 -51 41 -110 41zM390 620l40 -25l-121 -128l-28 16z" />
    <glyph glyph-name="afii10070.var.accented" unicode="&#x435;`" horiz-adv-x="487" 
d="M463 199h-348c-9 -53 13 -104 41 -132c16 -16 48 -40 103 -40c32 0 69 9 97 29c22 16 42 41 53 64l31 -20c-17 -30 -44 -62 -73 -81c-21 -14 -56 -30 -109 -30s-99 14 -136 54c-36 38 -51 86 -51 139c0 76 28 136 68 176c32 32 79 59 146 59c54 0 99 -19 128 -47
c46 -44 55 -108 50 -171zM121 237h302c-1 43 -19 81 -41 104c-19 20 -50 38 -97 38c-59 0 -97 -28 -117 -49s-39 -52 -47 -93zM374 620l40 -25l-121 -128l-28 16z" />
    <glyph glyph-name="afii10074.var.accented" unicode="&#x438;`" horiz-adv-x="474" 
d="M122 408h40l-40 -329l333 352l-53 -431h-40l40 327l-333 -352zM368 620l40 -25l-121 -128l-28 16z" />
    <glyph glyph-name="afii10080.var.accented" unicode="&#x43e;`" horiz-adv-x="524" 
d="M300 417c57 0 116 -21 152 -57c30 -30 51 -75 51 -141c0 -78 -30 -135 -67 -170c-33 -31 -85 -60 -167 -60c-55 0 -105 15 -144 56c-32 33 -54 84 -54 142c0 63 26 128 68 169c43 41 104 61 161 61zM275 27c50 0 92 15 126 46c29 27 60 73 60 142c0 67 -32 104 -43 116
c-25 26 -65 48 -122 48c-52 0 -94 -19 -124 -46c-39 -35 -59 -89 -59 -140c0 -48 18 -92 46 -121c20 -21 56 -45 116 -45zM393 620l40 -25l-121 -128l-28 16z" />
    <glyph glyph-name="afii10085.var.accented" unicode="&#x443;`" horiz-adv-x="428" 
d="M78 -230l123 223l-143 415h44l127 -363l193 363h48l-346 -638h-46zM345 620l40 -25l-121 -128l-28 16z" />
    <glyph glyph-name="afii10093.var.accented" unicode="&#x44b;`" 
d="M438 408h40l-50 -408h-40zM121 408h41l-21 -170h86c21 0 69 -2 101 -32c26 -25 30 -60 30 -79c0 -44 -16 -72 -31 -87c-24 -24 -66 -40 -133 -40h-122zM117 38h92c15 0 55 2 80 22c13 11 27 31 27 64c0 30 -12 48 -23 57c-22 18 -61 19 -71 19h-85zM381 620l40 -25
l-121 -128l-28 16z" />
    <glyph glyph-name="afii10095.var.accented" unicode="&#x44d;`" horiz-adv-x="409" 
d="M39 15l5 42c41 -28 79 -30 108 -30c37 0 81 5 121 35c32 24 64 68 71 128h-241l5 38h239c-1 43 -17 81 -40 105c-22 23 -61 46 -127 46c-28 0 -61 -3 -100 -24l5 40c36 17 73 22 104 22c62 0 112 -21 144 -51c26 -25 55 -70 55 -140c0 -45 -12 -122 -69 -178
c-33 -33 -81 -59 -163 -59c-32 0 -77 5 -117 26zM295 620l40 -25l-121 -128l-28 16z" />
    <glyph glyph-name="afii10096.var.accented" unicode="&#x44e;`" horiz-adv-x="642" 
d="M140 228h68c8 60 37 103 64 130c42 41 91 59 153 59c74 0 119 -28 145 -54c41 -42 51 -95 51 -143c0 -82 -30 -136 -67 -172c-35 -34 -84 -59 -154 -59c-72 0 -116 29 -141 54c-32 33 -55 88 -55 147h-69l-23 -190h-40l50 408h40zM406 27c45 0 84 16 117 48
c27 26 56 71 56 140c0 54 -20 93 -43 118c-21 23 -57 46 -112 46s-95 -22 -120 -46c-37 -35 -58 -89 -58 -140c0 -48 18 -92 46 -121c20 -21 56 -45 114 -45zM452 620l40 -25l-121 -128l-28 16z" />
    <glyph glyph-name="afii10097.var.accented" unicode="&#x44f;`" horiz-adv-x="386" 
d="M28 0l152 178c-25 3 -55 14 -74 32c-16 15 -28 38 -28 72c0 38 14 70 34 90c35 35 87 36 118 36h134l-50 -408h-40l22 176h-68l-150 -176h-50zM300 214l19 156h-96c-26 0 -56 -3 -78 -24c-8 -7 -23 -26 -23 -62c0 -19 5 -40 25 -54c21 -15 51 -16 74 -16h79zM324 620
l40 -25l-121 -128l-28 16z" />
    <glyph glyph-name="afii10071.var.accented" unicode="&#x451;`" horiz-adv-x="487" 
d="M463 199h-348c-9 -53 13 -104 41 -132c16 -16 48 -40 103 -40c32 0 69 9 97 29c22 16 42 41 53 64l31 -20c-17 -30 -44 -62 -73 -81c-21 -14 -56 -30 -109 -30s-99 14 -136 54c-36 39 -51 86 -51 138c0 77 28 138 68 177c31 31 79 59 148 59c54 0 98 -20 126 -47
c46 -45 55 -108 50 -171zM121 237h302c-1 43 -19 81 -41 104c-19 20 -50 38 -97 38c-59 0 -97 -28 -117 -49s-39 -52 -47 -93zM348 523c0 8 3 18 12 27s19 12 29 12s19 -4 24 -10c4 -5 8 -12 8 -22c0 -11 -4 -20 -11 -27c-11 -12 -23 -13 -30 -13c-8 0 -16 3 -22 9
c-7 7 -10 16 -10 24zM164 523c0 8 3 18 12 27s19 12 29 12s19 -4 24 -10c4 -5 8 -12 8 -22c0 -11 -4 -20 -11 -27c-11 -12 -23 -13 -30 -13c-8 0 -16 3 -22 9c-7 7 -10 16 -10 24zM342 620l34 -25l-121 -128l-22 16z" />
    <glyph glyph-name="fi" unicode="fi" horiz-adv-x="442" 
d="M259 370h-102l-45 -370h-40l45 370h-46l5 38h46l20 163c5 42 12 90 50 128c34 34 75 42 111 42c39 0 81 -11 108 -36c29 -27 33 -61 33 -87c0 -17 -3 -46 -6 -64h-40c2 13 5 41 5 57c0 18 -3 46 -25 67c-15 14 -41 25 -76 25c-41 0 -68 -15 -84 -31
c-27 -28 -33 -75 -36 -101l-20 -163h102zM380 408h40l-50 -408h-40z" />
    <glyph glyph-name="fl" unicode="fl" horiz-adv-x="442" 
d="M259 370h-102l-45 -370h-40l45 370h-46l5 38h46l20 163c5 42 12 90 50 128c34 34 75 42 111 42c39 0 81 -11 108 -36c29 -27 33 -61 33 -87c0 -19 -2 -33 -4 -47l-70 -571h-40l70 571c1 12 3 29 3 40c0 18 -3 46 -25 67c-15 14 -41 25 -76 25c-41 0 -68 -15 -84 -31
c-27 -28 -33 -75 -36 -101l-20 -163h102z" />
    <glyph glyph-name=".notdef" horiz-adv-x="233" 
 />
    <glyph glyph-name="space" unicode=" " horiz-adv-x="233" 
 />
    <glyph glyph-name="exclam" unicode="!" horiz-adv-x="260" 
d="M167 119h-44l67 548h44zM97 25c0 12 5 24 13 31c6 5 15 11 28 11c8 0 17 -3 23 -8c7 -6 10 -14 10 -24c0 -13 -5 -23 -12 -30c-8 -8 -19 -12 -30 -12s-18 5 -22 8c-6 5 -10 14 -10 24z" />
    <glyph glyph-name="quotedbl" unicode="&#x22;" horiz-adv-x="280" 
d="M186 667l-40 -269h-30l26 269h44zM302 667l-40 -269h-30l26 269h44z" />
    <glyph glyph-name="numbersign" unicode="#" horiz-adv-x="600" 
d="M375 0h-40l60 221h-164l-60 -221h-40l60 221h-118l11 38h118l44 161h-118l10 38h118l58 209h40l-58 -209h164l58 209h40l-58 -209h118l-10 -38h-118l-44 -161h118l-11 -38h-118zM406 259l44 161h-164l-44 -161h164z" />
    <glyph glyph-name="dollar" unicode="$" horiz-adv-x="548" 
d="M514 590l-35 -27c-10 24 -25 40 -37 49c-15 12 -35 20 -57 23l-33 -269l30 -16c24 -13 56 -33 77 -55c28 -29 42 -62 42 -102c0 -56 -24 -115 -61 -150c-29 -28 -76 -51 -134 -51l-12 -99h-40l12 96c-38 1 -90 10 -127 49c-21 22 -42 59 -52 94l40 18
c7 -31 24 -64 44 -83c21 -20 57 -38 100 -38l38 310l-24 13c-30 16 -57 32 -78 55c-23 25 -35 55 -35 96c0 51 17 93 44 122c35 37 86 52 134 51l11 89h40l-11 -90c28 -4 56 -15 76 -29s36 -34 48 -56zM346 319l-35 -287c41 2 76 19 98 40c27 27 45 77 45 113
c0 30 -12 61 -35 86c-17 18 -39 31 -59 41zM314 386l31 250c-49 3 -80 -21 -95 -38c-18 -21 -31 -51 -31 -90c0 -32 8 -56 31 -79c15 -15 44 -33 64 -43z" />
    <glyph glyph-name="percent" unicode="%" horiz-adv-x="608" 
d="M92 1l478 681l28 -16l-478 -681zM461 256c32 0 71 -12 97 -38c23 -23 33 -51 33 -82c0 -42 -14 -78 -39 -103c-33 -34 -74 -39 -107 -39c-31 0 -64 5 -92 32c-20 20 -35 50 -35 86c0 40 17 78 39 101c27 28 67 43 104 43zM448 30c26 0 51 7 72 27c24 24 30 53 30 78
c0 21 -4 41 -21 59c-12 13 -33 26 -67 26c-38 0 -61 -16 -74 -29c-16 -16 -29 -41 -29 -74c0 -28 11 -49 23 -62c19 -20 44 -25 66 -25zM243 673c32 0 71 -12 97 -38c23 -23 33 -51 33 -82c0 -42 -14 -78 -39 -103c-33 -34 -74 -39 -107 -39c-31 0 -64 5 -92 32
c-20 20 -35 50 -35 86c0 40 17 78 39 101c27 28 67 43 104 43zM230 447c26 0 51 7 72 27c24 24 30 53 30 78c0 21 -4 41 -21 59c-12 13 -33 26 -67 26c-38 0 -61 -16 -74 -29c-16 -16 -29 -41 -29 -74c0 -28 11 -49 23 -62c19 -20 44 -25 66 -25z" />
    <glyph glyph-name="ampersand" unicode="&#x26;" horiz-adv-x="617" 
d="M599 266l26 -31c-27 -32 -59 -64 -94 -97l85 -138h-56l-64 105l-27 -28c-26 -27 -52 -44 -80 -59c-49 -25 -84 -31 -130 -31c-50 0 -91 9 -127 46c-27 28 -46 70 -46 122c0 57 22 99 59 135c32 31 71 52 113 77l58 35l-21 42c-14 29 -29 60 -29 100c0 44 18 76 39 97
c26 27 59 38 96 38c40 0 73 -14 92 -34c15 -16 28 -40 28 -78c0 -54 -24 -82 -46 -104c-17 -17 -34 -30 -55 -44l-44 -29l134 -217c32 29 61 60 89 93zM475 140l-139 228l-64 -37c-30 -18 -63 -38 -91 -65c-31 -31 -49 -66 -49 -113c0 -42 16 -71 35 -90
c30 -30 65 -36 102 -36c39 0 68 7 103 27c18 11 57 38 73 55zM333 466l22 -42l46 29c16 10 40 29 53 46c17 21 23 44 23 68c0 20 -5 37 -23 52c-16 13 -35 18 -55 18c-22 0 -43 -6 -61 -23c-13 -13 -27 -35 -27 -71c0 -32 11 -56 22 -77z" />
    <glyph glyph-name="quotesingle" unicode="'" horiz-adv-x="164" 
d="M186 667l-40 -269h-30l26 269h44z" />
    <glyph glyph-name="parenleft" unicode="(" horiz-adv-x="282" 
d="M265 740l35 -23c-38 -97 -61 -177 -70 -213c-51 -194 -59 -324 -59 -404c0 -66 5 -150 22 -237l-42 -23c-23 109 -27 210 -27 269c0 180 40 335 64 418c20 68 45 139 77 213z" />
    <glyph glyph-name="parenright" unicode=")" horiz-adv-x="282" 
d="M158 717l41 23c26 -130 28 -207 28 -270c0 -94 -7 -223 -54 -398c-26 -95 -57 -174 -84 -232l-38 23c30 70 50 130 70 202c34 122 60 254 60 403c0 71 -5 155 -23 249z" />
    <glyph glyph-name="asterisk" unicode="*" horiz-adv-x="548" 
d="M209 640l119 -44l14 133h44l-20 -133l131 44l9 -41l-133 -38l68 -106l-38 -25l-63 110l-89 -110l-32 25l94 106l-123 38z" />
    <glyph glyph-name="plus" unicode="+" 
d="M71 310v38h197v182h40v-182h197v-38h-197v-182h-40v182h-197z" />
    <glyph glyph-name="comma" unicode="," horiz-adv-x="228" 
d="M21 -137l85 202l39 -12l-99 -200z" />
    <glyph glyph-name="hyphen" unicode="-" horiz-adv-x="300" 
d="M73 184l5 46h200l-5 -46h-200z" />
    <glyph glyph-name="period" unicode="." horiz-adv-x="202" 
d="M68 25c0 12 5 24 13 31c6 5 15 11 28 11c8 0 17 -3 23 -8c7 -6 10 -14 10 -24c0 -13 -5 -23 -12 -30c-8 -8 -19 -12 -30 -12s-18 5 -22 8c-6 5 -10 14 -10 24z" />
    <glyph glyph-name="slash" unicode="/" horiz-adv-x="576" 
d="M1 -158l614 901l30 -16l-614 -901z" />
    <glyph glyph-name="zero" unicode="0" horiz-adv-x="548" 
d="M351 676c57 0 100 -22 131 -54c59 -61 75 -160 75 -229c0 -87 -24 -241 -120 -335c-44 -44 -95 -69 -166 -69c-54 0 -93 17 -126 50c-49 49 -79 136 -79 232c0 113 36 245 117 329c51 53 109 76 168 76zM272 29c54 0 93 18 129 53c84 82 110 228 110 315
c0 75 -20 150 -62 196c-28 30 -61 43 -102 43c-54 0 -95 -23 -128 -57c-70 -72 -108 -196 -108 -307c0 -98 26 -165 65 -204c26 -26 54 -39 96 -39z" />
    <glyph glyph-name="one" unicode="1" horiz-adv-x="548" 
d="M272 0l77 627h-104l25 40h128l-82 -667h-44z" />
    <glyph glyph-name="two" unicode="2" horiz-adv-x="548" 
d="M471 0h-411l291 282c24 24 73 73 97 106c30 42 41 82 41 118c0 43 -18 72 -36 90c-20 20 -55 40 -108 40s-90 -18 -115 -44c-27 -28 -45 -70 -48 -114h-44c5 52 28 107 60 140s83 58 149 58c56 0 106 -19 137 -47s51 -71 51 -118c0 -39 -11 -88 -48 -139
c-4 -6 -30 -41 -109 -118l-220 -214h318z" />
    <glyph glyph-name="three" unicode="3" horiz-adv-x="548" 
d="M94 162h44c3 -37 19 -75 40 -97c31 -32 72 -36 96 -36c47 0 83 14 113 47s45 82 45 125c0 37 -13 74 -38 96c-23 21 -60 31 -94 29l5 40c48 0 90 19 115 43c26 25 42 64 42 108c0 47 -20 74 -34 87c-19 18 -48 32 -89 32c-53 0 -83 -24 -97 -39c-19 -21 -34 -56 -39 -89
h-42c5 44 25 90 54 119c21 21 61 49 129 49c62 0 101 -25 122 -46c23 -23 43 -59 43 -110c0 -40 -12 -81 -35 -110s-59 -51 -91 -62c37 -12 59 -36 71 -54c20 -30 25 -63 25 -88c0 -58 -20 -116 -57 -156c-47 -50 -106 -61 -151 -61c-41 0 -87 9 -124 47
c-32 33 -49 83 -53 126z" />
    <glyph glyph-name="four" unicode="4" horiz-adv-x="548" 
d="M500 689l-64 -522h93l-5 -40h-93l-16 -127h-44l16 127h-359zM113 167h279l48 390z" />
    <glyph glyph-name="five" unicode="5" horiz-adv-x="548" 
d="M552 667l-5 -40h-224l-78 -180c17 4 33 6 51 6c69 0 117 -25 144 -51c51 -48 57 -111 57 -148c0 -83 -29 -151 -74 -196c-58 -59 -130 -69 -188 -69c-48 0 -85 9 -122 33c-26 17 -52 43 -71 77l41 16c14 -25 35 -48 59 -62c32 -20 70 -24 104 -24c56 0 103 15 145 58
c34 36 59 86 59 158c0 38 -7 84 -44 121c-22 23 -60 47 -120 47c-30 0 -68 -5 -110 -29l121 283h255z" />
    <glyph glyph-name="six" unicode="6" horiz-adv-x="548" 
d="M382 676l31 -26l-174 -210c23 11 46 16 77 16c67 0 124 -24 161 -60s61 -90 61 -152c0 -71 -30 -144 -73 -188c-55 -56 -124 -67 -179 -67c-62 0 -118 15 -164 61c-29 29 -63 79 -63 159c0 45 10 85 30 121c22 40 55 76 98 125zM288 29c35 0 93 6 141 53
c42 42 62 103 62 158c0 64 -27 104 -52 128c-28 26 -72 48 -135 48c-54 0 -98 -15 -136 -51c-28 -26 -62 -74 -62 -153c0 -49 13 -95 51 -133c35 -35 80 -50 131 -50z" />
    <glyph glyph-name="seven" unicode="7" horiz-adv-x="548" 
d="M56 14l473 613h-403l5 40h483l-526 -678z" />
    <glyph glyph-name="eight" unicode="8" horiz-adv-x="548" 
d="M399 344c28 -11 49 -29 63 -48c24 -33 28 -68 28 -98c0 -74 -29 -123 -57 -152c-48 -50 -106 -57 -151 -57c-49 0 -95 10 -134 50c-24 25 -48 64 -48 119c0 45 14 90 39 124c29 39 63 56 92 64c-20 13 -40 32 -54 55c-14 22 -22 45 -22 77c0 51 16 103 51 140
s86 58 142 58c54 0 93 -20 118 -43c37 -35 46 -79 46 -116c0 -55 -19 -91 -33 -111c-28 -39 -68 -57 -80 -62zM322 365c48 0 80 19 100 39c27 26 44 63 44 112c0 30 -7 64 -37 90c-11 10 -38 30 -87 30c-51 0 -81 -21 -96 -36c-28 -27 -44 -72 -44 -117c0 -43 18 -70 33 -85
c21 -20 52 -33 87 -33zM280 29c37 0 84 7 121 47c28 30 43 76 43 121c0 25 -6 65 -38 95c-16 15 -46 35 -99 35c-42 0 -81 -11 -112 -41s-48 -73 -48 -122c0 -44 16 -74 35 -95c29 -32 64 -40 98 -40z" />
    <glyph glyph-name="nine" unicode="9" horiz-adv-x="548" 
d="M243 -11l-31 26l171 207c-26 -8 -56 -14 -81 -14c-53 0 -114 20 -155 62c-36 36 -60 89 -60 151c0 69 25 136 74 185c52 51 113 70 178 70c80 0 130 -28 160 -55c39 -35 67 -88 67 -154c0 -31 -6 -68 -21 -102c-15 -35 -39 -68 -66 -99zM338 636c-57 0 -106 -21 -142 -55
c-28 -27 -63 -75 -63 -155c0 -49 14 -90 47 -126c40 -43 85 -52 133 -52c58 0 102 16 143 56c36 36 63 89 63 158c0 55 -20 96 -49 124c-32 32 -79 50 -132 50z" />
    <glyph glyph-name="colon" unicode=":" horiz-adv-x="202" 
d="M68 21c0 12 5 24 13 31c6 5 15 11 28 11c8 0 17 -3 23 -8c7 -6 10 -14 10 -24c0 -13 -5 -23 -12 -30c-8 -8 -19 -12 -30 -12s-18 5 -22 8c-6 5 -10 14 -10 24zM111 375c0 12 5 24 13 31c6 5 15 11 28 11c8 0 17 -3 23 -8c7 -6 10 -14 10 -24c0 -13 -5 -23 -12 -30
c-8 -8 -19 -12 -30 -12s-18 5 -22 8c-6 5 -10 14 -10 24z" />
    <glyph glyph-name="semicolon" unicode=";" horiz-adv-x="228" 
d="M21 -137l85 202l39 -12l-99 -200zM113 375c0 12 5 24 13 31c6 5 15 11 28 11c8 0 17 -3 23 -8c7 -6 10 -14 10 -23c0 -12 -4 -23 -12 -31s-19 -12 -30 -12s-18 5 -22 8c-6 5 -10 14 -10 24z" />
    <glyph glyph-name="less" unicode="&#x3c;" 
d="M85 347l434 192v-41l-390 -170l390 -170v-41l-434 192v38z" />
    <glyph glyph-name="equal" unicode="=" 
d="M71 381v38h434v-38h-434zM71 239v38h434v-38h-434z" />
    <glyph glyph-name="greater" unicode="&#x3e;" 
d="M496 309l-434 -192v41l390 170l-390 170v41l434 -192v-38z" />
    <glyph glyph-name="question" unicode="?" horiz-adv-x="470" 
d="M364 267h40c-5 -70 -28 -102 -52 -119c-22 -16 -54 -27 -95 -27c-38 0 -72 10 -99 37c-17 18 -34 46 -34 85c0 41 18 78 42 102c29 28 66 38 121 53c33 9 68 20 91 43c21 22 34 55 34 96s-15 65 -29 79c-23 23 -53 27 -79 27c-30 0 -64 -6 -89 -34
c-20 -21 -33 -59 -33 -99c0 -10 1 -21 3 -31h-44c-2 11 -3 23 -3 34c0 47 16 93 46 124c35 37 79 46 124 46c29 0 73 -4 109 -37c36 -34 42 -79 42 -107c0 -64 -26 -102 -49 -124c-26 -25 -67 -43 -98 -51l-30 -8c-29 -8 -64 -18 -86 -40c-17 -17 -27 -42 -27 -72
c0 -29 11 -48 23 -61c21 -21 47 -24 69 -24c20 0 42 2 64 19c18 14 37 38 39 89zM203 21c0 12 5 24 13 31c6 5 15 11 28 11c8 0 17 -3 23 -8c7 -6 10 -14 10 -24c0 -13 -5 -23 -12 -30c-8 -8 -19 -12 -30 -12s-18 5 -22 8c-6 5 -10 14 -10 24z" />
    <glyph glyph-name="at" unicode="@" horiz-adv-x="738" 
d="M543 413l24 78h32l-70 -222c-5 -16 -13 -39 -13 -61c0 -10 2 -21 11 -30s22 -11 32 -11c25 0 53 9 78 31c50 45 76 138 76 205c0 69 -26 126 -61 163c-49 51 -127 78 -208 78c-93 0 -181 -34 -241 -97c-57 -59 -96 -156 -96 -257s44 -162 71 -191c62 -66 143 -82 220 -82
c44 0 92 7 135 18c35 9 64 21 94 38l8 -29c-37 -20 -72 -33 -107 -41c-37 -9 -92 -16 -135 -16c-107 0 -192 38 -244 94c-40 43 -76 114 -76 211c0 114 46 216 110 280c60 60 147 102 266 102c69 0 156 -15 223 -82c42 -43 72 -104 72 -187c0 -63 -19 -163 -83 -224
c-30 -29 -61 -42 -103 -42c-14 0 -36 1 -52 17c-14 14 -19 36 -16 56c-13 -21 -30 -39 -49 -52c-17 -12 -44 -23 -79 -23c-40 0 -71 16 -90 35c-23 22 -38 56 -38 105c0 72 35 140 75 179c38 37 76 48 123 48c30 0 54 -5 77 -25c24 -21 32 -45 34 -66zM364 169
c38 0 67 16 92 42c47 50 62 125 62 163c0 33 -11 57 -25 72c-9 10 -30 26 -68 26c-34 0 -65 -11 -94 -40c-44 -44 -62 -112 -62 -152c0 -30 8 -62 26 -82c5 -6 27 -29 69 -29z" />
    <glyph glyph-name="A" unicode="A" horiz-adv-x="586" 
d="M526 0l-62 219h-284l-116 -219h-50l365 687l193 -687h-46zM201 259h252l-86 316z" />
    <glyph glyph-name="B" unicode="B" horiz-adv-x="536" 
d="M90 0l82 667h128c30 0 100 -3 143 -45c24 -23 40 -60 40 -105c0 -18 -2 -85 -51 -132c-17 -17 -35 -26 -47 -31c30 -8 60 -25 80 -45c33 -34 40 -76 40 -109c0 -60 -24 -112 -56 -144c-52 -51 -130 -56 -203 -56h-116h-40zM211 627l-32 -262h96c32 0 83 0 123 40
c23 23 39 60 39 107c0 48 -20 73 -35 86c-30 25 -79 29 -109 29h-82zM174 325l-35 -285h112c71 0 127 6 167 48c24 25 40 64 40 110c0 33 -9 62 -34 86c-37 35 -96 41 -146 41h-104z" />
    <glyph glyph-name="C" unicode="C" horiz-adv-x="682" 
d="M700 589l-7 -58c-7 9 -40 50 -89 76c-52 27 -109 29 -124 29c-78 0 -168 -29 -237 -98c-66 -66 -100 -158 -100 -240c0 -74 30 -144 77 -192s116 -77 190 -77c49 0 90 10 129 28c42 19 76 44 105 73l-7 -58c-27 -23 -62 -46 -96 -60c-19 -8 -64 -23 -132 -23
c-86 0 -160 25 -222 87c-51 51 -92 126 -92 224c0 88 33 189 118 270c91 87 194 106 268 106s122 -21 136 -27c29 -14 59 -35 83 -60z" />
    <glyph glyph-name="D" unicode="D" horiz-adv-x="620" 
d="M222 0h-90h-42l82 667h123c64 0 168 -8 243 -93c38 -43 69 -110 69 -208c0 -85 -21 -193 -104 -272c-76 -72 -174 -94 -281 -94zM211 627l-72 -587h87c131 0 199 43 243 87c76 75 93 175 93 244c0 87 -34 145 -65 178c-66 70 -154 78 -209 78h-77z" />
    <glyph glyph-name="E" unicode="E" horiz-adv-x="464" 
d="M492 667l-5 -40h-276l-30 -242h270l-5 -40h-270l-37 -305h276l-5 -40h-278h-42l82 667h320z" />
    <glyph glyph-name="F" unicode="F" horiz-adv-x="406" 
d="M442 667l-5 -40h-226l-30 -242h220l-5 -40h-220l-42 -345h-44l82 667h270z" />
    <glyph glyph-name="G" unicode="G" horiz-adv-x="773" 
d="M473 280l5 40h280c-6 -62 -29 -162 -104 -236c-87 -86 -187 -95 -239 -95c-91 0 -166 25 -230 89c-60 59 -90 131 -90 220c0 119 49 211 111 271c56 55 145 107 273 107c70 0 127 -18 176 -49c23 -15 67 -48 101 -107l-39 -28c-20 35 -50 73 -84 97
c-44 31 -101 47 -156 47c-94 0 -181 -39 -238 -94c-64 -63 -99 -154 -99 -239c0 -81 33 -148 76 -193c49 -51 117 -81 192 -81c85 0 165 33 220 90c30 31 67 84 80 161h-235z" />
    <glyph glyph-name="H" unicode="H" horiz-adv-x="672" 
d="M216 667l-35 -283h404l35 283h44l-82 -667h-44l42 344h-404l-42 -344h-44l82 667h44z" />
    <glyph glyph-name="I" unicode="I" horiz-adv-x="224" 
d="M172 667h44l-82 -667h-44z" />
    <glyph glyph-name="J" unicode="J" horiz-adv-x="268" 
d="M216 667h44l-65 -528c-6 -47 -13 -90 -42 -119c-28 -27 -63 -31 -88 -31c-26 0 -49 5 -71 23c-13 10 -27 27 -36 49l34 24c5 -14 15 -31 26 -40c10 -9 26 -16 50 -16c14 0 36 2 53 20c21 21 26 54 29 81z" />
    <glyph glyph-name="K" unicode="K" horiz-adv-x="540" 
d="M216 667l-39 -314l354 314h58l-364 -320l299 -347h-58l-275 318l-20 -17l-37 -301h-44l82 667h44z" />
    <glyph glyph-name="L" unicode="L" horiz-adv-x="334" 
d="M172 667h44l-77 -627h186l-5 -40h-230z" />
    <glyph glyph-name="M" unicode="M" horiz-adv-x="896" 
d="M127 0h-44l161 690l213 -617l365 617l-9 -690h-44l7 536l-331 -560l-193 560z" />
    <glyph glyph-name="N" unicode="N" horiz-adv-x="784" 
d="M134 0h-44l83 674l488 -588l71 581h44l-84 -684l-488 588z" />
    <glyph glyph-name="O" unicode="O" horiz-adv-x="805" 
d="M479 676c106 0 181 -41 231 -92c59 -61 82 -134 82 -215c0 -97 -28 -195 -112 -277c-80 -78 -169 -103 -267 -103c-87 0 -161 20 -227 85c-37 36 -91 108 -91 222c0 91 37 193 114 271c88 89 191 109 270 109zM407 29c108 0 188 41 240 92c66 66 100 162 100 246
c0 83 -33 149 -76 192c-44 44 -111 77 -196 77c-109 0 -184 -46 -232 -93c-70 -69 -102 -160 -102 -243s32 -147 73 -191c55 -58 121 -80 193 -80z" />
    <glyph glyph-name="P" unicode="P" horiz-adv-x="448" 
d="M259 317h-86l-39 -317h-44l82 667h129c32 0 93 -4 135 -47c20 -20 41 -55 41 -112c0 -56 -20 -105 -49 -135c-26 -27 -75 -56 -169 -56zM211 627l-33 -270h88c38 0 87 5 123 39c21 20 40 54 40 110c0 25 -4 55 -29 82c-36 39 -80 39 -118 39h-71z" />
    <glyph glyph-name="Q" unicode="Q" horiz-adv-x="805" 
d="M735 0h-54l-49 61c-76 -61 -166 -72 -218 -72c-113 0 -186 47 -230 92c-58 59 -89 139 -89 223c0 106 46 201 111 264c67 65 167 108 274 108c94 0 172 -36 225 -88c42 -41 87 -109 87 -217c0 -53 -11 -110 -39 -169c-21 -45 -48 -82 -90 -115zM515 273l123 -151
c31 30 59 66 75 98c22 42 34 94 34 145c0 86 -32 149 -76 193c-60 60 -135 79 -202 79c-93 0 -175 -40 -229 -93c-57 -56 -99 -144 -99 -231c0 -78 35 -159 86 -209c38 -37 99 -75 189 -75c82 0 147 34 189 65l-144 179h54z" />
    <glyph glyph-name="R" unicode="R" horiz-adv-x="470" 
d="M420 0h-50l-177 315h-20l-39 -315h-44l82 667h104c73 0 117 -23 141 -46c35 -34 41 -78 41 -111c0 -70 -26 -114 -53 -140c-46 -44 -117 -55 -164 -55zM211 627l-33 -272h64c75 0 112 23 130 40c23 22 40 62 40 109c0 27 -6 63 -36 90c-34 31 -79 33 -110 33h-55z" />
    <glyph glyph-name="S" unicode="S" horiz-adv-x="514" 
d="M497 581l-35 -27c-30 80 -104 82 -119 82c-48 0 -81 -18 -103 -40c-32 -32 -39 -68 -39 -94c0 -29 10 -51 28 -70c22 -24 50 -35 80 -52l33 -18c41 -23 76 -38 102 -65c30 -30 40 -62 40 -101c0 -58 -22 -111 -62 -149c-52 -50 -111 -58 -166 -58c-50 0 -95 10 -134 49
c-25 25 -43 61 -52 94l40 18c2 -7 13 -49 44 -80s69 -41 104 -41c47 0 99 13 132 44c20 19 46 55 46 116c0 33 -8 57 -32 81c-25 25 -62 41 -90 56l-46 25c-22 12 -56 35 -75 55c-24 25 -38 53 -38 94c0 59 28 99 51 122c31 30 75 54 139 54s125 -29 152 -95z" />
    <glyph glyph-name="T" unicode="T" horiz-adv-x="418" 
d="M481 627h-173l-77 -627h-44l77 627h-173l5 40h390z" />
    <glyph glyph-name="U" unicode="U" horiz-adv-x="633" 
d="M171 667h44l-51 -417c-7 -57 -18 -126 35 -178c38 -37 86 -43 124 -43c42 0 101 8 145 52c46 46 54 106 62 169l51 417h44l-51 -417c-7 -60 -15 -137 -78 -199c-55 -54 -118 -62 -174 -62c-46 0 -111 7 -159 55c-53 54 -53 125 -43 206z" />
    <glyph glyph-name="V" unicode="V" horiz-adv-x="510" 
d="M96 667h48l126 -568l260 568h48l-323 -694z" />
    <glyph glyph-name="W" unicode="W" horiz-adv-x="984" 
d="M96 667h46l114 -566l315 602l152 -602l279 566h50l-342 -692l-152 606l-322 -606z" />
    <glyph glyph-name="X" unicode="X" horiz-adv-x="470" 
d="M23 0l225 340l-135 327h46l116 -285l187 285h50l-214 -327l141 -340h-46l-124 300l-196 -300h-50z" />
    <glyph glyph-name="Y" unicode="Y" horiz-adv-x="516" 
d="M233 0l35 285l-172 382h48l151 -337l237 337h52l-272 -382l-35 -285h-44z" />
    <glyph glyph-name="Z" unicode="Z" horiz-adv-x="554" 
d="M599 667l-483 -627h395l-5 -40h-469l483 627h-367l5 40h441z" />
    <glyph glyph-name="bracketleft" unicode="[" horiz-adv-x="278" 
d="M323 689h-106l-100 -809h106l-5 -40h-103h-47l110 889h150z" />
    <glyph glyph-name="backslash" unicode="\" horiz-adv-x="576" 
d="M537 -158l-34 -16l-394 901l34 16z" />
    <glyph glyph-name="bracketright" unicode="]" horiz-adv-x="278" 
d="M25 -120h106l100 809h-106l5 40h150l-110 -889h-45h-105z" />
    <glyph glyph-name="asciicircum" unicode="^" 
d="M297 636l-167 -254h-46l186 285h54l186 -285h-46z" />
    <glyph glyph-name="underscore" unicode="_" 
d="M0 -116v38h500v-38h-500z" />
    <glyph glyph-name="grave" unicode="`" 
d="M305 467l-89 128l46 25l75 -137z" />
    <glyph glyph-name="a" unicode="a" horiz-adv-x="518" 
d="M446 328l10 80h40l-50 -408h-40l8 63c-16 -22 -36 -41 -60 -53s-55 -21 -94 -21c-47 0 -92 11 -130 47c-25 23 -59 69 -59 148c0 67 23 133 69 177c30 29 77 56 151 56c32 0 68 -6 99 -27c24 -16 44 -39 56 -62zM283 379c-45 0 -84 -14 -115 -45
c-33 -33 -55 -89 -55 -147c0 -52 20 -96 47 -122c34 -32 75 -38 104 -38c38 0 68 9 97 30c60 44 74 120 74 164c0 49 -16 91 -42 117c-17 18 -51 41 -110 41z" />
    <glyph glyph-name="b" unicode="b" horiz-adv-x="518" 
d="M162 729h40l-48 -388c12 17 30 37 57 52c28 16 60 24 95 24c56 0 106 -20 138 -52c29 -29 53 -76 53 -138c0 -72 -26 -137 -69 -180c-30 -29 -76 -58 -146 -58c-35 0 -70 8 -100 29c-25 17 -46 43 -59 68l-11 -86h-40zM288 27c52 0 87 20 110 43c35 34 57 97 57 157
c0 53 -22 88 -42 109c-28 28 -68 43 -106 43c-43 0 -86 -17 -117 -47c-35 -34 -56 -89 -56 -142c0 -54 20 -96 46 -122c23 -23 57 -41 108 -41z" />
    <glyph glyph-name="c" unicode="c" horiz-adv-x="444" 
d="M446 365l-7 -53c-15 17 -36 35 -56 46c-22 12 -49 21 -81 21c-76 0 -120 -37 -135 -53c-38 -38 -54 -94 -54 -140c0 -40 15 -84 42 -114c35 -38 81 -45 115 -45c33 0 57 5 84 19c30 16 50 36 64 54l-7 -58c-16 -13 -38 -28 -58 -37c-33 -14 -69 -16 -85 -16
c-70 0 -114 24 -144 54c-30 31 -53 79 -53 143c0 74 31 134 68 170c38 37 93 61 162 61c46 0 79 -14 89 -18c19 -8 39 -21 56 -34z" />
    <glyph glyph-name="d" unicode="d" horiz-adv-x="519" 
d="M447 326l50 403h40l-90 -729h-40l7 58c-5 -6 -29 -34 -64 -51c-31 -15 -60 -18 -85 -18c-59 0 -105 14 -142 54c-25 27 -52 74 -52 148c0 78 31 132 67 168c43 42 93 58 150 58c33 0 68 -6 102 -28c29 -19 46 -42 57 -63zM285 379c-45 0 -84 -18 -112 -45
c-34 -33 -58 -87 -58 -144c0 -42 14 -89 45 -121c25 -27 60 -42 105 -42c59 0 96 26 116 45c39 38 55 99 55 152c0 58 -22 93 -44 114c-27 27 -66 41 -107 41z" />
    <glyph glyph-name="e" unicode="e" horiz-adv-x="487" 
d="M463 199h-348c-9 -53 13 -104 41 -132c16 -16 48 -40 103 -40c32 0 69 9 97 29c22 16 42 41 53 64l31 -20c-17 -30 -44 -62 -73 -81c-21 -14 -56 -30 -109 -30s-99 14 -136 54c-36 38 -51 86 -51 139c0 76 28 136 68 176c32 32 79 59 146 59c54 0 99 -19 128 -47
c46 -44 55 -108 50 -171zM121 237h302c-1 43 -19 81 -41 104c-19 20 -50 38 -97 38c-59 0 -97 -28 -117 -49s-39 -52 -47 -93z" />
    <glyph glyph-name="f" unicode="f" horiz-adv-x="214" 
d="M259 370h-102l-45 -370h-40l45 370h-46l5 38h46l24 194c6 52 18 89 40 111c15 15 40 28 75 28c13 0 28 -2 43 -6l-4 -37c-17 5 -31 5 -35 5c-25 0 -41 -9 -51 -19c-11 -11 -22 -32 -29 -90l-23 -186h102z" />
    <glyph glyph-name="g" unicode="g" horiz-adv-x="520" 
d="M458 408h40l-48 -396c-7 -56 -18 -130 -67 -181c-35 -37 -91 -61 -160 -61c-68 0 -111 24 -135 48c-28 27 -50 73 -51 127h42c1 -33 12 -71 36 -96c19 -20 53 -41 113 -41c66 0 104 26 123 45c39 39 52 105 59 159l7 58c-17 -25 -38 -44 -66 -58c-33 -17 -65 -23 -95 -23
c-53 0 -100 13 -137 52c-29 31 -52 79 -52 143c0 62 21 126 66 172c46 48 97 61 154 61c32 0 73 -4 111 -28c10 -7 32 -23 51 -52zM288 379c-44 0 -87 -15 -119 -45c-36 -34 -58 -92 -58 -150c0 -56 23 -92 43 -114c28 -30 64 -43 112 -43c39 0 81 10 117 47
c34 36 54 92 54 150c0 53 -19 92 -43 115c-25 25 -65 40 -106 40z" />
    <glyph glyph-name="h" unicode="h" horiz-adv-x="442" 
d="M72 0l90 729h40l-48 -385c12 20 29 38 45 49c20 14 48 24 82 24c37 0 69 -11 90 -31c41 -38 35 -94 31 -129l-32 -257h-40l32 257c4 34 5 72 -21 98c-13 13 -35 24 -65 24c-42 0 -69 -18 -86 -35c-18 -18 -43 -55 -52 -132l-26 -212h-40z" />
    <glyph glyph-name="i" unicode="i" horiz-adv-x="184" 
d="M122 408h40l-50 -408h-40zM154 507c-13 0 -20 6 -23 9c-4 4 -8 11 -8 22c0 14 5 25 13 32c9 9 20 11 27 11c11 0 19 -5 23 -9c7 -7 9 -16 9 -23c0 -11 -3 -21 -12 -30c-8 -8 -17 -12 -29 -12z" />
    <glyph glyph-name="j" unicode="j" horiz-adv-x="184" 
d="M122 408h40l-79 -638h-40zM154 507c-13 0 -20 6 -23 9c-4 4 -8 11 -8 22c0 14 5 25 13 32c9 9 20 11 27 11c11 0 19 -5 23 -9c7 -7 9 -16 9 -23c0 -11 -3 -21 -12 -30c-8 -8 -17 -12 -29 -12z" />
    <glyph glyph-name="k" unicode="k" horiz-adv-x="393" 
d="M162 729h40l-61 -496l189 175h52l-195 -179l198 -229h-51l-176 202l-24 -21l-22 -181h-40z" />
    <glyph glyph-name="l" unicode="l" horiz-adv-x="184" 
d="M162 729h40l-90 -729h-40z" />
    <glyph glyph-name="m" unicode="m" horiz-adv-x="653" 
d="M72 0l50 408h40l-6 -51c12 21 27 34 40 42c21 13 44 18 67 18c27 0 55 -6 75 -21c14 -10 29 -28 36 -53c7 16 19 36 43 52c23 16 47 22 78 22c54 0 81 -23 91 -33c22 -23 28 -51 28 -76c0 -7 0 -26 -5 -68l-29 -240h-40l29 237c1 8 5 43 5 57c0 28 -9 48 -22 62
c-19 20 -44 23 -63 23c-24 0 -49 -5 -71 -26c-28 -27 -37 -70 -43 -117l-29 -236h-40l29 235c2 16 5 43 5 58c0 20 -2 44 -21 63c-12 12 -32 23 -63 23c-32 0 -56 -12 -72 -29c-25 -26 -38 -68 -44 -121l-28 -229h-40z" />
    <glyph glyph-name="n" unicode="n" horiz-adv-x="442" 
d="M72 0l50 408h40l-8 -64c14 26 33 42 47 51c24 16 50 22 81 22c47 0 76 -16 92 -32c15 -15 31 -39 31 -81c0 -20 -5 -61 -6 -72l-29 -232h-40l29 238c3 28 5 42 5 54c0 19 -4 43 -22 62c-11 12 -33 25 -69 25c-30 0 -59 -8 -84 -32c-30 -29 -43 -73 -51 -135l-26 -212h-40
z" />
    <glyph glyph-name="o" unicode="o" horiz-adv-x="524" 
d="M300 417c57 0 116 -21 152 -57c30 -30 51 -75 51 -141c0 -78 -30 -135 -67 -170c-33 -31 -85 -60 -167 -60c-55 0 -105 15 -144 56c-32 33 -54 84 -54 142c0 63 26 128 68 169c43 41 104 61 161 61zM275 27c50 0 92 15 126 46c29 27 60 73 60 142c0 67 -32 104 -43 116
c-25 26 -65 48 -122 48c-52 0 -94 -19 -124 -46c-39 -35 -59 -89 -59 -140c0 -48 18 -92 46 -121c20 -21 56 -45 116 -45z" />
    <glyph glyph-name="p" unicode="p" horiz-adv-x="518" 
d="M121 73l-36 -303h-40l77 638h40l-9 -71c12 18 31 38 61 55c32 18 66 25 102 25c64 0 107 -25 132 -50c24 -25 49 -67 49 -136c0 -81 -28 -143 -69 -183c-26 -26 -74 -59 -148 -59c-37 0 -75 10 -105 29c-30 20 -49 47 -54 55zM279 27c58 0 95 20 117 40
c35 32 59 89 59 157c0 53 -18 91 -45 117c-15 15 -47 38 -98 38c-49 0 -92 -19 -122 -49c-33 -33 -56 -87 -56 -149c0 -59 23 -94 45 -116c29 -28 62 -38 100 -38z" />
    <glyph glyph-name="q" unicode="q" horiz-adv-x="518" 
d="M418 -230h-40l37 303c-19 -29 -46 -52 -71 -64c-27 -13 -64 -20 -95 -20c-47 0 -93 12 -129 51c-22 23 -49 66 -49 136c0 79 31 142 71 182c45 44 99 59 156 59c25 0 62 -4 95 -25c21 -13 41 -35 54 -55l9 71h40zM292 379c-58 0 -98 -24 -125 -52
c-36 -38 -54 -91 -54 -148c0 -60 24 -96 45 -116c29 -28 61 -36 99 -36c56 0 92 21 116 42c36 33 62 92 62 158c0 55 -20 91 -42 113c-29 30 -66 39 -101 39z" />
    <glyph glyph-name="r" unicode="r" horiz-adv-x="260" 
d="M72 0l50 408h40l-6 -53c8 15 22 33 39 44c16 11 38 18 60 18c6 0 23 -1 40 -10l-24 -36c-4 3 -13 8 -29 8c-20 0 -41 -10 -56 -26c-33 -35 -42 -98 -48 -148l-26 -205h-40z" />
    <glyph glyph-name="s" unicode="s" horiz-adv-x="342" 
d="M331 351l-36 -18c-4 12 -12 25 -23 33c-3 2 -18 13 -45 13c-29 0 -47 -12 -57 -22c-11 -11 -18 -28 -18 -45c0 -12 4 -26 16 -39c5 -5 16 -14 42 -25l31 -13c39 -16 54 -30 60 -36c22 -23 27 -51 27 -72c0 -49 -22 -80 -36 -95c-21 -22 -57 -43 -112 -43
c-24 0 -64 5 -94 35c-18 18 -31 46 -36 73l40 12c1 -6 5 -35 27 -57c13 -13 33 -25 64 -25c30 0 57 9 75 26c17 17 29 43 29 69c0 18 -5 35 -19 49c-6 6 -19 16 -49 29l-24 10c-21 9 -47 25 -59 37c-16 16 -24 34 -24 59c0 31 11 56 30 75c26 27 56 36 90 36
c20 0 44 -3 66 -18c13 -9 28 -24 35 -48z" />
    <glyph glyph-name="t" unicode="t" horiz-adv-x="194" 
d="M231 370h-71l-45 -370h-40l45 370h-45l5 38h45l18 146h40l-18 -146h71z" />
    <glyph glyph-name="u" unicode="u" horiz-adv-x="437" 
d="M121 408h40l-30 -246c-6 -47 -1 -87 25 -111c18 -16 45 -24 70 -24c36 0 65 13 83 32c13 14 29 42 36 103l30 246h40l-34 -257c-6 -43 -12 -86 -41 -119c-35 -39 -84 -43 -116 -43c-33 0 -72 6 -102 37c-41 43 -35 101 -31 134z" />
    <glyph glyph-name="v" unicode="v" horiz-adv-x="390" 
d="M58 408h42l102 -339l184 339h46l-239 -433z" />
    <glyph glyph-name="w" unicode="w" horiz-adv-x="672" 
d="M58 408h42l100 -337l185 362l97 -362l186 337h46l-242 -433l-97 362l-185 -362z" />
    <glyph glyph-name="x" unicode="x" horiz-adv-x="398" 
d="M8 0l191 214l-127 194h47l108 -168l148 168h49l-172 -194l138 -214h-47l-120 188l-166 -188h-49z" />
    <glyph glyph-name="y" unicode="y" horiz-adv-x="428" 
d="M78 -230l123 223l-143 415h44l127 -363l193 363h48l-346 -638h-46z" />
    <glyph glyph-name="z" unicode="z" horiz-adv-x="452" 
d="M484 408l-375 -370h328l-5 -38h-414l379 370h-282l5 38h364z" />
    <glyph glyph-name="braceleft" unicode="{" horiz-adv-x="278" 
d="M73 270l4 29c15 4 33 13 43 23c20 20 26 53 29 78l23 193c4 31 10 70 37 99c30 33 72 37 114 37h7l-5 -40h-2c-21 0 -58 1 -82 -23c-21 -21 -23 -55 -26 -76l-24 -192c-3 -24 -7 -62 -30 -87c-12 -13 -31 -23 -47 -27c12 -5 25 -13 36 -30c6 -9 21 -35 14 -86l-22 -169
c-2 -14 -3 -35 -3 -47c0 -16 1 -41 16 -56s41 -16 61 -16h9l-5 -40h-9c-26 0 -67 2 -91 27c-19 19 -25 53 -25 83c0 8 3 38 4 50l21 170c3 27 8 59 -14 82c-8 8 -19 15 -33 18z" />
    <glyph glyph-name="bar" unicode="|" 
d="M230 -250v1000h40v-1000h-40z" />
    <glyph glyph-name="braceright" unicode="}" horiz-adv-x="278" 
d="M275 299l-4 -29c-20 -5 -33 -15 -41 -23c-22 -23 -27 -51 -30 -77l-22 -176c-5 -44 -14 -92 -44 -121s-74 -33 -107 -33h-9l5 40h7c23 0 53 2 74 23c12 12 23 35 30 90l22 175c3 20 10 63 36 90c10 10 26 20 42 26c-10 4 -25 13 -33 21c-11 11 -20 28 -20 56
c0 13 2 27 5 51l18 152c4 35 5 50 5 58c0 13 -1 37 -19 52c-14 12 -42 15 -64 15h-3l5 40h6c29 0 72 -3 98 -30c20 -20 23 -46 23 -66c0 -16 -3 -35 -7 -71l-17 -137c-4 -30 -5 -44 -5 -56c0 -16 2 -37 17 -53c7 -7 18 -14 32 -17z" />
    <glyph glyph-name="asciitilde" unicode="~" 
d="M112 195l-25 16c13 20 34 49 54 67c25 22 53 35 88 35c39 0 71 -18 109 -39c41 -23 63 -38 98 -38c32 0 55 11 76 32c12 12 26 31 36 46l26 -16c-12 -20 -29 -43 -44 -58c-27 -28 -55 -42 -97 -42c-35 0 -54 5 -119 42c-31 18 -61 35 -91 35c-27 0 -46 -7 -68 -27
c-15 -14 -31 -35 -43 -53z" />
    <glyph glyph-name="uni00A0" unicode="&#xa0;" horiz-adv-x="233" 
 />
    <glyph glyph-name="exclamdown" unicode="&#xa1;" horiz-adv-x="260" 
d="M156 318h44l-68 -548h-44zM152 402c0 12 5 24 13 31c6 5 15 11 28 11c8 0 17 -3 23 -8c7 -6 10 -14 10 -24c0 -13 -5 -23 -12 -30c-8 -8 -19 -12 -30 -12s-18 5 -22 8c-6 5 -10 14 -10 24z" />
    <glyph glyph-name="cent" unicode="&#xa2;" horiz-adv-x="548" 
d="M400 655l-12 -102c27 -2 51 -8 71 -17c17 -8 35 -19 52 -34l-7 -53c-13 19 -31 37 -52 48s-46 17 -69 18l-43 -352c25 -1 53 4 78 15c23 10 46 28 64 51l-7 -54c-17 -16 -37 -28 -62 -37c-26 -9 -50 -13 -77 -12l-14 -113h-38l14 114c-45 7 -84 28 -109 54
c-31 31 -53 81 -53 141c0 65 24 129 65 170c25 25 75 60 149 60l12 103h38zM302 165l43 349c-59 -1 -95 -30 -112 -47c-34 -34 -54 -93 -54 -147c0 -41 13 -83 40 -112c14 -15 41 -37 83 -43z" />
    <glyph glyph-name="sterling" unicode="&#xa3;" horiz-adv-x="548" 
d="M130 273l4 40h98l-16 35c-21 46 -45 91 -45 141c0 43 17 95 55 133c28 28 70 52 133 52c45 0 95 -16 125 -47c29 -30 37 -69 37 -102c0 -13 -1 -26 -3 -36h-44c2 10 3 19 3 28c0 32 -11 61 -29 81c-15 17 -44 36 -88 36c-46 0 -79 -20 -98 -39c-28 -27 -44 -66 -44 -106
c0 -24 7 -51 16 -71c9 -23 22 -44 33 -69l17 -36h121l-4 -40h-107c7 -21 11 -47 11 -71c0 -31 -10 -79 -61 -132l62 -22c32 -11 46 -17 71 -17c18 0 63 7 101 69l34 -22c-25 -47 -74 -91 -137 -91c-36 0 -70 16 -111 30c-34 12 -55 19 -77 19c-35 0 -65 -20 -96 -46l-20 32
c55 53 105 57 126 57c57 54 63 101 63 125c0 9 -1 37 -15 69h-115z" />
    <glyph glyph-name="currency" unicode="&#xa4;" horiz-adv-x="548" 
d="M84 90l-24 25l90 89c-43 47 -56 104 -56 146c0 41 11 96 53 143l-90 90l24 24l90 -89c43 40 102 56 147 56c44 0 100 -15 147 -56l90 89l24 -24l-90 -90c44 -48 54 -102 54 -144c0 -41 -10 -94 -55 -143l91 -91l-24 -24l-91 91c-48 -46 -106 -55 -144 -55s-97 9 -146 53z
M505 349c0 52 -24 104 -54 134c-33 34 -85 55 -133 55c-44 0 -92 -16 -130 -54c-35 -35 -56 -83 -56 -134c0 -52 22 -99 54 -132c29 -30 72 -55 132 -55c51 0 95 17 132 55c39 39 55 88 55 131z" />
    <glyph glyph-name="yen" unicode="&#xa5;" horiz-adv-x="548" 
d="M548 391h-145l-74 -103h206l-5 -40h-207l-30 -248h-44l30 248h-200l5 40h198l-46 103h-139l5 40h116l-105 236h49l149 -335l235 335h53l-168 -236h122z" />
    <glyph glyph-name="brokenbar" unicode="&#xa6;" 
d="M230 390v360h40v-360h-40zM230 -250v360h40v-360h-40z" />
    <glyph glyph-name="section" unicode="&#xa7;" horiz-adv-x="544" 
d="M114 13h44c-1 -5 -1 -12 -1 -21c0 -24 4 -60 27 -83c25 -26 61 -29 82 -29c27 0 65 5 91 34c20 22 30 59 30 87c0 38 -20 63 -37 78c-25 22 -59 31 -88 42c-28 10 -64 26 -89 52c-15 16 -42 51 -42 112c0 42 12 82 35 110c20 26 53 48 92 57c-17 9 -35 23 -51 47
c-15 23 -23 45 -23 76c0 51 20 93 46 119c23 23 62 46 124 46c51 0 92 -16 116 -40c39 -38 39 -89 39 -127v-5h-44v7c0 31 -2 70 -29 97c-17 17 -47 28 -85 28c-30 0 -62 -7 -87 -32c-20 -20 -33 -51 -33 -85c0 -25 9 -50 30 -70s50 -33 88 -48c36 -15 70 -29 96 -56
c29 -30 38 -65 38 -106c0 -32 -6 -71 -31 -104c-22 -30 -59 -54 -98 -65c20 -10 42 -27 56 -46c14 -20 24 -47 24 -83c0 -49 -16 -89 -41 -116c-38 -41 -89 -49 -127 -49c-63 0 -98 21 -115 38c-17 16 -38 49 -38 109c0 8 0 17 1 26zM311 421c-43 0 -74 -17 -95 -37
c-17 -17 -39 -49 -39 -101c0 -43 18 -71 34 -86c22 -22 59 -34 92 -34c40 0 75 16 96 38c22 23 37 60 37 101c0 39 -16 69 -37 88c-23 20 -57 31 -88 31z" />
    <glyph glyph-name="dieresis" unicode="&#xa8;" 
d="M361 523c0 8 3 18 12 27s19 12 29 12s19 -4 24 -10c4 -5 8 -12 8 -22c0 -11 -4 -20 -11 -27c-11 -12 -23 -13 -30 -13c-8 0 -16 3 -22 9c-7 7 -10 16 -10 24zM195 523c0 8 3 18 12 27s19 12 29 12s19 -4 24 -10c4 -5 8 -12 8 -22c0 -11 -4 -20 -11 -27
c-11 -12 -23 -13 -30 -13c-8 0 -16 3 -22 9c-7 7 -10 16 -10 24z" />
    <glyph glyph-name="copyright" unicode="&#xa9;" horiz-adv-x="740" 
d="M554 474v-53c-47 62 -103 68 -129 68c-45 0 -82 -13 -113 -45c-29 -30 -46 -68 -46 -116c0 -42 14 -80 46 -113s69 -45 113 -45c31 0 84 8 129 65v-52c-48 -39 -93 -49 -129 -49c-65 0 -112 26 -141 55c-29 28 -56 73 -56 137c0 62 24 113 58 146c37 36 88 53 138 53
c55 0 99 -22 130 -51zM754 334c0 -84 -35 -180 -104 -248c-57 -56 -140 -96 -239 -96s-182 40 -239 96c-69 68 -104 164 -104 248c0 83 35 179 104 247c57 56 140 96 239 96s182 -40 239 -96c69 -68 104 -164 104 -247zM411 647c-75 0 -151 -28 -210 -84
c-60 -57 -99 -144 -99 -229c0 -86 39 -173 99 -230c59 -56 135 -84 210 -84s151 28 210 84c60 57 99 144 99 230c0 85 -39 172 -99 229c-59 56 -135 84 -210 84z" />
    <glyph glyph-name="ordfeminine" unicode="&#xaa;" horiz-adv-x="340" 
d="M344 612l5 49h26l-33 -268h-26l5 43c-15 -20 -32 -30 -41 -35c-20 -11 -40 -14 -62 -14c-31 0 -61 7 -87 32c-28 27 -36 61 -36 95c0 53 21 90 41 111c19 20 52 42 105 42c22 0 44 -5 65 -17c18 -11 30 -24 38 -38zM238 643c-36 0 -64 -14 -81 -33
c-22 -24 -33 -63 -33 -94c0 -41 16 -65 29 -78c14 -14 37 -27 71 -27c41 0 66 18 79 33c21 22 33 58 33 95s-13 61 -27 76c-13 14 -35 28 -71 28zM78 325h255l-5 -34h-255z" />
    <glyph glyph-name="guillemotleft" unicode="&#xab;" horiz-adv-x="348" 
d="M105 207l93 -126l-29 -24l-112 150l149 150l23 -24zM211 207l93 -126l-29 -24l-112 150l149 150l23 -24z" />
    <glyph glyph-name="logicalnot" unicode="&#xac;" 
d="M480 0h-40v229h-394v38h434v-267z" />
    <glyph glyph-name="uni00AD" unicode="&#xad;" horiz-adv-x="300" 
d="M73 184l5 46h200l-5 -46h-200z" />
    <glyph glyph-name="registered" unicode="&#xae;" horiz-adv-x="740" 
d="M536 135h-40l-117 171h-7v-171h-34v370h71c22 0 57 -3 82 -26c13 -13 27 -34 27 -71c0 -23 -4 -51 -27 -73c-16 -16 -43 -29 -73 -30zM372 474v-137h36c15 0 40 0 58 19c10 10 17 28 17 50c0 19 -5 40 -17 51c-10 10 -29 17 -56 17h-38zM754 334
c0 -84 -35 -180 -104 -248c-57 -56 -140 -96 -239 -96s-182 40 -239 96c-69 68 -104 164 -104 248c0 83 35 179 104 247c57 56 140 96 239 96s182 -40 239 -96c69 -68 104 -164 104 -247zM411 647c-75 0 -151 -28 -210 -84c-60 -57 -99 -144 -99 -229c0 -86 39 -173 99 -230
c59 -56 135 -84 210 -84s151 28 210 84c60 57 99 144 99 230c0 85 -39 172 -99 229c-59 56 -135 84 -210 84z" />
    <glyph glyph-name="macron" unicode="&#xaf;" 
d="M176 493l4 39h270l-4 -39h-270z" />
    <glyph glyph-name="degree" unicode="&#xb0;" horiz-adv-x="502" 
d="M326 667c38 0 73 -14 97 -38c23 -24 31 -51 31 -80c0 -40 -14 -77 -39 -102c-26 -26 -65 -42 -106 -42c-46 0 -77 19 -95 38c-15 16 -32 43 -32 83c0 38 14 73 39 99c25 25 61 42 105 42zM313 441c32 0 56 11 71 25c20 18 30 48 30 78c0 36 -15 55 -24 64
c-15 14 -39 23 -67 23c-35 0 -57 -13 -70 -26c-18 -17 -31 -47 -31 -79c0 -30 13 -49 24 -60c18 -18 42 -25 67 -25z" />
    <glyph glyph-name="plusminus" unicode="&#xb1;" 
d="M60 339v38h197v181h40v-181h197v-38h-197v-181h-40v181h-197zM60 76v38h434v-38h-434z" />
    <glyph glyph-name="twosuperior" unicode="&#xb2;" horiz-adv-x="331" 
d="M316 266h-246l167 169c15 15 45 49 55 64c14 20 22 39 22 66c0 16 -3 34 -18 49c-17 17 -40 21 -59 21c-17 0 -41 -2 -59 -20c-15 -15 -26 -41 -28 -62h-36c4 28 17 62 38 84c28 29 62 34 88 34c23 0 60 -4 88 -32c20 -20 27 -44 27 -71c0 -30 -8 -52 -23 -75
c-6 -10 -19 -27 -52 -61l-126 -130h166z" />
    <glyph glyph-name="threesuperior" unicode="&#xb3;" horiz-adv-x="331" 
d="M93 365h36c0 -17 7 -37 18 -48c12 -12 32 -19 53 -19c26 0 45 9 58 20c24 22 26 52 26 68c0 19 -4 38 -22 53s-40 18 -61 18h-5l5 36c22 0 59 4 81 26c10 11 20 29 20 55c0 23 -9 37 -16 44c-11 11 -28 18 -48 18s-36 -5 -50 -22c-9 -11 -16 -28 -19 -42h-36
c7 44 31 68 35 72c16 16 40 28 71 28c28 0 56 -10 75 -28c15 -15 28 -37 28 -70s-13 -56 -28 -71c-12 -12 -28 -22 -48 -27c6 -2 25 -9 39 -27c15 -19 18 -44 18 -59c0 -47 -18 -77 -35 -94c-23 -24 -54 -34 -89 -34c-38 0 -64 14 -80 31s-26 44 -26 72z" />
    <glyph glyph-name="acute" unicode="&#xb4;" 
d="M381 620l40 -25l-121 -128l-28 16z" />
    <glyph glyph-name="mu" unicode="&#xb5;" horiz-adv-x="499" 
d="M83 -230h-40l78 638h40l-22 -186c-4 -32 -6 -52 -6 -70c0 -32 6 -64 33 -91c25 -25 54 -34 90 -34c42 0 72 11 99 38c38 37 50 89 58 153l24 190h40l-50 -408h-40l9 74c-14 -25 -35 -48 -54 -61c-30 -20 -63 -24 -89 -24c-24 0 -61 4 -90 27c-19 15 -34 39 -42 62z" />
    <glyph glyph-name="mu" unicode="&#x3bc;" horiz-adv-x="499" 
d="M83 -230h-40l78 638h40l-22 -186c-4 -32 -6 -52 -6 -70c0 -32 6 -64 33 -91c25 -25 54 -34 90 -34c42 0 72 11 99 38c38 37 50 89 58 153l24 190h40l-50 -408h-40l9 74c-14 -25 -35 -48 -54 -61c-30 -20 -63 -24 -89 -24c-24 0 -61 4 -90 27c-19 15 -34 39 -42 62z" />
    <glyph glyph-name="paragraph" unicode="&#xb6;" horiz-adv-x="533" 
d="M247 -95h-36l50 406h-3c-57 0 -101 17 -130 42c-23 20 -50 56 -50 117c0 60 22 110 53 141c48 48 119 56 185 56h231l-4 -33h-53l-91 -729h-36l91 729h-117z" />
    <glyph glyph-name="periodcentered" unicode="&#xb7;" horiz-adv-x="200" 
d="M94 332c0 15 6 30 15 40c8 8 20 16 39 16c14 0 24 -5 31 -12c8 -8 11 -18 11 -28c0 -16 -5 -28 -15 -39c-11 -12 -24 -17 -39 -17c-16 0 -26 7 -31 12c-8 8 -11 18 -11 28z" />
    <glyph glyph-name="cedilla" unicode="&#xb8;" 
d="M263 -50l44 -20l-119 -124l-26 16z" />
    <glyph glyph-name="onesuperior" unicode="&#xb9;" horiz-adv-x="330" 
d="M185 267l44 364h-62l17 36h88l-49 -400h-38z" />
    <glyph glyph-name="ordmasculine" unicode="&#xba;" horiz-adv-x="343" 
d="M245 667c42 0 75 -14 96 -33c19 -17 37 -47 37 -94c0 -54 -22 -90 -42 -110c-28 -28 -68 -43 -112 -43c-47 0 -76 19 -93 35s-37 46 -37 94c0 54 23 90 45 111c28 26 62 40 106 40zM78 325h267l-5 -34h-267zM243 643c-26 0 -58 -7 -85 -33c-24 -23 -36 -57 -36 -94
c0 -39 16 -62 28 -75c18 -19 47 -30 77 -30c36 0 68 14 88 34c17 16 35 46 35 93c0 26 -6 53 -28 75c-24 24 -52 30 -79 30z" />
    <glyph glyph-name="guillemotright" unicode="&#xbb;" horiz-adv-x="348" 
d="M187 207l-92 126l29 24l111 -150l-148 -150l-23 24zM293 207l-92 126l29 24l111 -150l-148 -150l-23 24z" />
    <glyph glyph-name="onequarter" unicode="&#xbc;" horiz-adv-x="760" 
d="M185 267l44 364h-62l17 36h88l-49 -400h-38zM188 1l478 681l28 -16l-478 -681zM731 413l-37 -301h56l-5 -36h-56l-9 -76h-38l9 76h-204zM522 112h134l23 190z" />
    <glyph glyph-name="onehalf" unicode="&#xbd;" horiz-adv-x="761" 
d="M185 267l44 364h-62l17 36h88l-49 -400h-38zM158 1l478 681l28 -16l-478 -681zM713 0h-246l167 169c15 15 45 49 55 64c14 20 22 39 22 66c0 16 -3 34 -18 49c-17 17 -40 21 -59 21c-17 0 -41 -2 -59 -20c-15 -15 -26 -41 -28 -62h-36c4 28 17 62 38 84
c28 29 62 34 88 34c23 0 60 -4 88 -32c20 -20 27 -44 27 -71c0 -30 -8 -52 -23 -75c-6 -10 -19 -27 -52 -61l-126 -130h166z" />
    <glyph glyph-name="threequarters" unicode="&#xbe;" horiz-adv-x="760" 
d="M93 365h36c0 -17 7 -37 18 -48c12 -12 32 -19 53 -19c26 0 45 9 58 20c24 22 26 52 26 68c0 19 -4 38 -22 53s-40 18 -61 18h-5l5 36c22 0 59 4 81 26c10 11 20 29 20 55c0 23 -9 37 -16 44c-11 11 -28 18 -48 18s-36 -5 -50 -22c-9 -11 -16 -28 -19 -42h-36
c7 44 31 68 35 72c16 16 40 28 71 28c28 0 56 -10 75 -28c15 -15 28 -37 28 -70s-13 -56 -28 -71c-12 -12 -28 -22 -48 -27c6 -2 25 -9 39 -27c15 -19 18 -44 18 -59c0 -47 -18 -77 -35 -94c-23 -24 -54 -34 -89 -34c-38 0 -64 14 -80 31s-26 44 -26 72zM208 1l478 681
l28 -16l-478 -681zM731 413l-37 -301h56l-5 -36h-56l-9 -76h-38l9 76h-204zM522 112h134l23 190z" />
    <glyph glyph-name="questiondown" unicode="&#xbf;" horiz-adv-x="469" 
d="M169 174h-40c0 38 14 79 37 104c17 18 50 42 109 42c30 0 69 -6 99 -37c26 -27 33 -60 33 -88c0 -44 -15 -76 -40 -99c-28 -26 -62 -36 -97 -46l-38 -11c-33 -10 -66 -27 -85 -50c-17 -21 -27 -52 -27 -85c0 -38 15 -64 30 -79c24 -23 56 -27 77 -27c47 0 74 16 91 33
c23 24 33 59 33 95c0 12 -1 24 -3 36h44c1 -9 2 -21 2 -33c0 -40 -9 -92 -45 -128c-22 -22 -59 -43 -120 -43c-30 0 -78 4 -115 41c-24 24 -40 59 -40 104c0 39 14 79 38 109c32 39 73 55 108 65l43 12c20 6 50 12 71 32c23 21 29 48 29 75c0 18 -4 43 -23 62
c-14 13 -36 24 -68 24c-35 0 -61 -12 -76 -29c-17 -19 -27 -51 -27 -79zM256 402c0 12 5 24 13 31c6 5 15 11 28 11c8 0 17 -3 23 -8c7 -6 10 -14 10 -24c0 -13 -5 -23 -12 -30c-8 -8 -19 -12 -30 -12s-18 5 -22 8c-6 5 -10 14 -10 24z" />
    <glyph glyph-name="Agrave" unicode="&#xc0;" horiz-adv-x="586" 
d="M526 0l-62 219h-284l-116 -219h-50l365 687l193 -687h-46zM201 259h252l-86 316zM397 703l-118 126l53 25l100 -133z" />
    <glyph glyph-name="Aacute" unicode="&#xc1;" horiz-adv-x="586" 
d="M526 0l-62 219h-284l-116 -219h-50l365 687l193 -687h-46zM201 259h252l-86 316zM464 854l47 -25l-150 -126l-29 18z" />
    <glyph glyph-name="Acircumflex" unicode="&#xc2;" horiz-adv-x="586" 
d="M526 0l-62 219h-284l-116 -219h-50l365 687l193 -687h-46zM201 259h252l-86 316zM390 786l-104 -64l-31 27l141 90l119 -90l-37 -27z" />
    <glyph glyph-name="Atilde" unicode="&#xc3;" horiz-adv-x="586" 
d="M526 0l-62 219h-284l-116 -219h-50l365 687l193 -687h-46zM201 259h252l-86 316zM280 717l-26 22c7 13 18 29 27 38c18 18 38 22 53 22c8 0 24 -2 49 -13l24 -11c20 -9 32 -11 41 -11c11 0 18 4 25 11c4 3 12 13 19 27l27 -22c-8 -15 -19 -30 -30 -40
c-17 -15 -34 -20 -48 -20c-11 0 -26 3 -52 14l-21 9c-15 6 -28 12 -41 12c-8 0 -19 -3 -29 -12c-7 -6 -14 -17 -18 -26z" />
    <glyph glyph-name="Adieresis" unicode="&#xc4;" horiz-adv-x="586" 
d="M526 0l-62 219h-284l-116 -219h-50l365 687l193 -687h-46zM201 259h252l-86 316zM444 775c0 13 5 23 13 31c9 9 19 12 28 12c10 0 20 -4 26 -10c5 -6 9 -15 9 -24c0 -12 -6 -23 -13 -30c-8 -8 -19 -12 -31 -12c-9 0 -17 3 -23 9c-8 7 -9 17 -9 24zM258 775
c0 13 5 23 13 31c9 9 19 12 28 12c10 0 20 -4 26 -10c5 -6 9 -15 9 -24c0 -12 -6 -23 -13 -30c-8 -8 -19 -12 -31 -12c-9 0 -17 3 -23 9c-8 7 -9 17 -9 24z" />
    <glyph glyph-name="Aring" unicode="&#xc5;" horiz-adv-x="586" 
d="M526 0l-62 219h-284l-116 -219h-50l365 687l193 -687h-46zM201 259h252l-86 316zM309 779c0 21 8 45 25 62c16 16 41 26 62 26s41 -8 55 -23c11 -12 20 -29 20 -52c0 -30 -15 -50 -25 -60c-14 -14 -35 -25 -62 -25c-22 0 -42 8 -54 20c-9 9 -21 26 -21 52zM349 783
c0 -14 6 -22 10 -26c7 -7 18 -11 29 -11c12 0 25 5 32 13c7 7 11 19 11 30c0 14 -5 23 -11 29c-7 6 -17 10 -28 10c-13 0 -23 -5 -30 -12s-13 -19 -13 -33z" />
    <glyph glyph-name="AE" unicode="&#xc6;" horiz-adv-x="852" 
d="M523 0l-62 219h-285l-114 -219h-48l351 667h289l12 -40h-275l69 -242h268l12 -40h-268l87 -305h273l13 -40h-322zM197 259h252l-89 314z" />
    <glyph glyph-name="Ccedilla" unicode="&#xc7;" horiz-adv-x="682" 
d="M700 589l-7 -58c-7 9 -40 50 -89 76c-52 27 -109 29 -124 29c-78 0 -168 -29 -237 -98c-66 -66 -100 -158 -100 -240c0 -74 30 -144 77 -192s116 -77 190 -77c49 0 90 10 129 28c42 19 76 44 105 73l-7 -58c-27 -23 -62 -46 -96 -60c-19 -8 -64 -23 -132 -23
c-86 0 -160 25 -222 87c-51 51 -92 126 -92 224c0 88 33 189 118 270c91 87 194 106 268 106s122 -21 136 -27c29 -14 59 -35 83 -60zM389 -50l44 -28l-129 -124l-28 20z" />
    <glyph glyph-name="Egrave" unicode="&#xc8;" horiz-adv-x="464" 
d="M492 667l-5 -40h-276l-30 -242h270l-5 -40h-270l-37 -305h276l-5 -40h-278h-42l82 667h320zM364 703l-118 126l53 25l100 -133z" />
    <glyph glyph-name="Eacute" unicode="&#xc9;" horiz-adv-x="464" 
d="M492 667l-5 -40h-276l-30 -242h270l-5 -40h-270l-37 -305h276l-5 -40h-278h-42l82 667h320zM421 854l47 -25l-150 -126l-29 18z" />
    <glyph glyph-name="Ecircumflex" unicode="&#xca;" horiz-adv-x="464" 
d="M492 667l-5 -40h-276l-30 -242h270l-5 -40h-270l-37 -305h276l-5 -40h-278h-42l82 667h320zM347 786l-104 -64l-31 27l141 90l119 -90l-37 -27z" />
    <glyph glyph-name="Edieresis" unicode="&#xcb;" horiz-adv-x="464" 
d="M492 667l-5 -40h-276l-30 -242h270l-5 -40h-270l-37 -305h276l-5 -40h-278h-42l82 667h320zM401 775c0 13 5 23 13 31c9 9 19 12 28 12c10 0 20 -4 26 -10c5 -6 9 -15 9 -24c0 -12 -6 -23 -13 -30c-8 -8 -19 -12 -31 -12c-9 0 -17 3 -23 9c-8 7 -9 17 -9 24zM215 775
c0 13 5 23 13 31c9 9 19 12 28 12c10 0 20 -4 26 -10c5 -6 9 -15 9 -24c0 -12 -6 -23 -13 -30c-8 -8 -19 -12 -31 -12c-9 0 -17 3 -23 9c-8 7 -9 17 -9 24z" />
    <glyph glyph-name="Igrave" unicode="&#xcc;" horiz-adv-x="224" 
d="M172 667h44l-82 -667h-44zM196 703l-88 134l58 17l73 -136z" />
    <glyph glyph-name="Iacute" unicode="&#xcd;" horiz-adv-x="224" 
d="M172 667h44l-82 -667h-44zM267 854l55 -17l-123 -134l-38 15z" />
    <glyph glyph-name="Icircumflex" unicode="&#xce;" horiz-adv-x="224" 
d="M172 667h44l-82 -667h-44zM208 782l-87 -60l-32 28l126 89l104 -89l-38 -27z" />
    <glyph glyph-name="Idieresis" unicode="&#xcf;" horiz-adv-x="224" 
d="M172 667h44l-82 -667h-44zM234 775c0 13 5 23 13 31c9 9 19 12 28 12c10 0 20 -4 26 -10c5 -6 9 -15 9 -24c0 -12 -6 -23 -13 -30c-8 -8 -19 -12 -31 -12c-9 0 -17 3 -23 9c-8 7 -9 17 -9 24zM106 775c0 13 5 23 13 31c9 9 19 12 28 12c10 0 20 -4 26 -10
c5 -6 9 -15 9 -24c0 -12 -6 -23 -13 -30c-8 -8 -19 -12 -31 -12c-9 0 -17 3 -23 9c-8 7 -9 17 -9 24z" />
    <glyph glyph-name="Eth" unicode="&#xd0;" horiz-adv-x="620" 
d="M221 0h-87h-45l43 345h-90l5 40h90l34 282h123c64 0 168 -8 243 -93c38 -43 69 -110 69 -208c0 -72 -16 -183 -98 -266c-70 -70 -166 -100 -287 -100zM210 627l-29 -242h136l-5 -40h-136l-38 -305h87c127 0 199 44 243 87c86 84 93 202 93 244c0 87 -34 145 -65 178
c-66 70 -154 78 -209 78h-77z" />
    <glyph glyph-name="Ntilde" unicode="&#xd1;" horiz-adv-x="784" 
d="M134 0h-44l83 674l488 -588l71 581h44l-84 -684l-488 588zM379 717l-26 22c7 13 18 29 27 38c18 18 38 22 53 22c8 0 24 -2 49 -13l24 -11c20 -9 32 -11 41 -11c11 0 18 4 25 11c4 3 12 13 19 27l27 -22c-8 -15 -19 -30 -30 -40c-17 -15 -34 -20 -48 -20
c-11 0 -26 3 -52 14l-21 9c-15 6 -28 12 -41 12c-8 0 -19 -3 -29 -12c-7 -6 -14 -17 -18 -26z" />
    <glyph glyph-name="Ograve" unicode="&#xd2;" horiz-adv-x="805" 
d="M479 676c106 0 181 -41 231 -92c59 -61 82 -134 82 -215c0 -97 -28 -195 -112 -277c-80 -78 -169 -103 -267 -103c-87 0 -161 20 -227 85c-37 36 -91 108 -91 222c0 91 37 193 114 271c88 89 191 109 270 109zM407 29c108 0 188 41 240 92c66 66 100 162 100 246
c0 83 -33 149 -76 192c-44 44 -111 77 -196 77c-109 0 -184 -46 -232 -93c-70 -69 -102 -160 -102 -243s32 -147 73 -191c55 -58 121 -80 193 -80zM504 703l-118 126l53 25l100 -133z" />
    <glyph glyph-name="Oacute" unicode="&#xd3;" horiz-adv-x="805" 
d="M479 676c106 0 181 -41 231 -92c59 -61 82 -134 82 -215c0 -97 -28 -195 -112 -277c-80 -78 -169 -103 -267 -103c-87 0 -161 20 -227 85c-37 36 -91 108 -91 222c0 91 37 193 114 271c88 89 191 109 270 109zM407 29c108 0 188 41 240 92c66 66 100 162 100 246
c0 83 -33 149 -76 192c-44 44 -111 77 -196 77c-109 0 -184 -46 -232 -93c-70 -69 -102 -160 -102 -243s32 -147 73 -191c55 -58 121 -80 193 -80zM571 854l47 -25l-150 -126l-29 18z" />
    <glyph glyph-name="Ocircumflex" unicode="&#xd4;" horiz-adv-x="805" 
d="M479 676c106 0 181 -41 231 -92c59 -61 82 -134 82 -215c0 -97 -28 -195 -112 -277c-80 -78 -169 -103 -267 -103c-87 0 -161 20 -227 85c-37 36 -91 108 -91 222c0 91 37 193 114 271c88 89 191 109 270 109zM407 29c108 0 188 41 240 92c66 66 100 162 100 246
c0 83 -33 149 -76 192c-44 44 -111 77 -196 77c-109 0 -184 -46 -232 -93c-70 -69 -102 -160 -102 -243s32 -147 73 -191c55 -58 121 -80 193 -80zM497 786l-104 -64l-31 27l141 90l119 -90l-37 -27z" />
    <glyph glyph-name="Otilde" unicode="&#xd5;" horiz-adv-x="805" 
d="M479 676c106 0 181 -41 231 -92c59 -61 82 -134 82 -215c0 -97 -28 -195 -112 -277c-80 -78 -169 -103 -267 -103c-87 0 -161 20 -227 85c-37 36 -91 108 -91 222c0 91 37 193 114 271c88 89 191 109 270 109zM407 29c108 0 188 41 240 92c66 66 100 162 100 246
c0 83 -33 149 -76 192c-44 44 -111 77 -196 77c-109 0 -184 -46 -232 -93c-70 -69 -102 -160 -102 -243s32 -147 73 -191c55 -58 121 -80 193 -80zM387 717l-26 22c7 13 18 29 27 38c18 18 38 22 53 22c8 0 24 -2 49 -13l24 -11c20 -9 32 -11 41 -11c11 0 18 4 25 11
c4 3 12 13 19 27l27 -22c-8 -15 -19 -30 -30 -40c-17 -15 -34 -20 -48 -20c-11 0 -26 3 -52 14l-21 9c-15 6 -28 12 -41 12c-8 0 -19 -3 -29 -12c-7 -6 -14 -17 -18 -26z" />
    <glyph glyph-name="Odieresis" unicode="&#xd6;" horiz-adv-x="805" 
d="M479 676c106 0 181 -41 231 -92c59 -61 82 -134 82 -215c0 -97 -28 -195 -112 -277c-80 -78 -169 -103 -267 -103c-87 0 -161 20 -227 85c-37 36 -91 108 -91 222c0 91 37 193 114 271c88 89 191 109 270 109zM407 29c108 0 188 41 240 92c66 66 100 162 100 246
c0 83 -33 149 -76 192c-44 44 -111 77 -196 77c-109 0 -184 -46 -232 -93c-70 -69 -102 -160 -102 -243s32 -147 73 -191c55 -58 121 -80 193 -80zM551 775c0 13 5 23 13 31c9 9 19 12 28 12c10 0 20 -4 26 -10c5 -6 9 -15 9 -24c0 -12 -6 -23 -13 -30
c-8 -8 -19 -12 -31 -12c-9 0 -17 3 -23 9c-8 7 -9 17 -9 24zM365 775c0 13 5 23 13 31c9 9 19 12 28 12c10 0 20 -4 26 -10c5 -6 9 -15 9 -24c0 -12 -6 -23 -13 -30c-8 -8 -19 -12 -31 -12c-9 0 -17 3 -23 9c-8 7 -9 17 -9 24z" />
    <glyph glyph-name="multiply" unicode="&#xd7;" 
d="M108 173l156 156l-156 156l27 27l156 -156l156 156l27 -27l-156 -156l156 -156l-27 -27l-156 156l-156 -156z" />
    <glyph glyph-name="Oslash" unicode="&#xd8;" horiz-adv-x="805" 
d="M473 676c103 0 171 -33 227 -85l91 82l25 -31l-89 -80c47 -62 63 -122 63 -193c0 -97 -28 -195 -112 -277c-80 -78 -169 -103 -267 -103c-94 0 -163 22 -229 87l-91 -81l-24 30l90 80c-32 43 -64 104 -64 191c0 90 37 193 114 271c65 66 153 109 266 109zM407 29
c106 0 186 40 238 92c66 66 100 162 100 246c0 66 -20 118 -53 164l-477 -425c48 -48 105 -77 192 -77zM191 136l475 425c-45 42 -104 75 -193 75c-109 0 -184 -46 -232 -93c-70 -69 -102 -160 -102 -243c0 -72 23 -124 52 -164z" />
    <glyph glyph-name="Ugrave" unicode="&#xd9;" horiz-adv-x="633" 
d="M171 667h44l-51 -417c-7 -57 -18 -126 35 -178c38 -37 86 -43 124 -43c42 0 101 8 145 52c46 46 54 106 62 169l51 417h44l-51 -417c-7 -60 -15 -137 -78 -199c-55 -54 -118 -62 -174 -62c-46 0 -111 7 -159 55c-53 54 -53 125 -43 206zM421 703l-118 126l53 25l100 -133
z" />
    <glyph glyph-name="Uacute" unicode="&#xda;" horiz-adv-x="633" 
d="M171 667h44l-51 -417c-7 -57 -18 -126 35 -178c38 -37 86 -43 124 -43c42 0 101 8 145 52c46 46 54 106 62 169l51 417h44l-51 -417c-7 -60 -15 -137 -78 -199c-55 -54 -118 -62 -174 -62c-46 0 -111 7 -159 55c-53 54 -53 125 -43 206zM488 854l47 -25l-150 -126l-29 18
z" />
    <glyph glyph-name="Ucircumflex" unicode="&#xdb;" horiz-adv-x="633" 
d="M171 667h44l-51 -417c-7 -57 -18 -126 35 -178c38 -37 86 -43 124 -43c42 0 101 8 145 52c46 46 54 106 62 169l51 417h44l-51 -417c-7 -60 -15 -137 -78 -199c-55 -54 -118 -62 -174 -62c-46 0 -111 7 -159 55c-53 54 -53 125 -43 206zM414 786l-104 -64l-31 27l141 90
l119 -90l-37 -27z" />
    <glyph glyph-name="Udieresis" unicode="&#xdc;" horiz-adv-x="633" 
d="M171 667h44l-51 -417c-7 -57 -18 -126 35 -178c38 -37 86 -43 124 -43c42 0 101 8 145 52c46 46 54 106 62 169l51 417h44l-51 -417c-7 -60 -15 -137 -78 -199c-55 -54 -118 -62 -174 -62c-46 0 -111 7 -159 55c-53 54 -53 125 -43 206zM468 775c0 13 5 23 13 31
c9 9 19 12 28 12c10 0 20 -4 26 -10c5 -6 9 -15 9 -24c0 -12 -6 -23 -13 -30c-8 -8 -19 -12 -31 -12c-9 0 -17 3 -23 9c-8 7 -9 17 -9 24zM282 775c0 13 5 23 13 31c9 9 19 12 28 12c10 0 20 -4 26 -10c5 -6 9 -15 9 -24c0 -12 -6 -23 -13 -30c-8 -8 -19 -12 -31 -12
c-9 0 -17 3 -23 9c-8 7 -9 17 -9 24z" />
    <glyph glyph-name="Yacute" unicode="&#xdd;" horiz-adv-x="516" 
d="M233 0l35 285l-172 382h48l151 -337l237 337h52l-272 -382l-35 -285h-44zM429 854l47 -25l-150 -126l-29 18z" />
    <glyph glyph-name="Thorn" unicode="&#xde;" horiz-adv-x="448" 
d="M90 0l82 667h44l-15 -120h85c32 0 93 -4 135 -47c20 -20 41 -55 41 -112c0 -56 -20 -105 -49 -135c-26 -27 -75 -56 -169 -56h-86l-24 -197h-44zM196 507l-33 -270h88c38 0 87 5 123 39c21 20 40 54 40 110c0 25 -4 55 -29 82c-36 39 -80 39 -118 39h-71z" />
    <glyph glyph-name="germandbls" unicode="&#xdf;" horiz-adv-x="492" 
d="M114 0h-40l45 370h-69l5 38h69l20 164c6 46 17 97 57 133c25 22 58 36 102 36c48 0 80 -18 99 -38c31 -32 35 -74 35 -103c0 -31 -5 -65 -25 -96c-14 -22 -37 -45 -72 -58c33 -10 65 -30 88 -55c27 -30 48 -75 48 -135c0 -79 -33 -140 -73 -180
c-61 -61 -140 -77 -193 -81l5 40c57 4 122 30 162 71c17 18 55 64 55 144c0 65 -25 105 -48 127c-37 36 -93 46 -121 48l4 35c35 1 70 15 91 34c30 28 36 69 36 99c0 17 -1 56 -25 82c-14 16 -39 28 -68 28c-21 0 -49 -4 -74 -27c-31 -29 -38 -68 -42 -98z" />
    <glyph glyph-name="agrave" unicode="&#xe0;" horiz-adv-x="518" 
d="M446 328l10 80h40l-50 -408h-40l8 63c-16 -22 -36 -41 -60 -53s-55 -21 -94 -21c-47 0 -92 11 -130 47c-25 23 -59 69 -59 148c0 67 23 133 69 177c30 29 77 56 151 56c32 0 68 -6 99 -27c24 -16 44 -39 56 -62zM283 379c-45 0 -84 -14 -115 -45
c-33 -33 -55 -89 -55 -147c0 -52 20 -96 47 -122c34 -32 75 -38 104 -38c38 0 68 9 97 30c60 44 74 120 74 164c0 49 -16 91 -42 117c-17 18 -51 41 -110 41zM325 467l-89 128l46 25l75 -137z" />
    <glyph glyph-name="aacute" unicode="&#xe1;" horiz-adv-x="518" 
d="M446 328l10 80h40l-50 -408h-40l8 63c-16 -22 -36 -41 -60 -53s-55 -21 -94 -21c-47 0 -92 11 -130 47c-25 23 -59 69 -59 148c0 67 23 133 69 177c30 29 77 56 151 56c32 0 68 -6 99 -27c24 -16 44 -39 56 -62zM283 379c-45 0 -84 -14 -115 -45
c-33 -33 -55 -89 -55 -147c0 -52 20 -96 47 -122c34 -32 75 -38 104 -38c38 0 68 9 97 30c60 44 74 120 74 164c0 49 -16 91 -42 117c-17 18 -51 41 -110 41zM389 620l40 -25l-121 -128l-28 16z" />
    <glyph glyph-name="acircumflex" unicode="&#xe2;" horiz-adv-x="518" 
d="M446 328l10 80h40l-50 -408h-40l8 63c-16 -22 -36 -41 -60 -53s-55 -21 -94 -21c-47 0 -92 11 -130 47c-25 23 -59 69 -59 148c0 67 23 133 69 177c30 29 77 56 151 56c32 0 68 -6 99 -27c24 -16 44 -39 56 -62zM283 379c-45 0 -84 -14 -115 -45
c-33 -33 -55 -89 -55 -147c0 -52 20 -96 47 -122c34 -32 75 -38 104 -38c38 0 68 9 97 30c60 44 74 120 74 164c0 49 -16 91 -42 117c-17 18 -51 41 -110 41zM306 535l-99 -68l-29 25l134 94l110 -94l-35 -25z" />
    <glyph glyph-name="atilde" unicode="&#xe3;" horiz-adv-x="518" 
d="M446 328l10 80h40l-50 -408h-40l8 63c-16 -22 -36 -41 -60 -53s-55 -21 -94 -21c-47 0 -92 11 -130 47c-25 23 -59 69 -59 148c0 67 23 133 69 177c30 29 77 56 151 56c32 0 68 -6 99 -27c24 -16 44 -39 56 -62zM283 379c-45 0 -84 -14 -115 -45
c-33 -33 -55 -89 -55 -147c0 -52 20 -96 47 -122c34 -32 75 -38 104 -38c38 0 68 9 97 30c60 44 74 120 74 164c0 49 -16 91 -42 117c-17 18 -51 41 -110 41zM209 487l-24 19c6 12 17 27 27 37c14 13 28 20 50 20c21 0 35 -7 49 -13l24 -11c12 -6 22 -11 39 -11
c11 0 21 3 30 12c5 5 14 20 17 25l23 -20c-7 -15 -20 -31 -32 -41c-17 -14 -34 -16 -45 -16c-15 0 -33 6 -46 12l-24 11c-13 6 -28 12 -43 12c-11 0 -19 -3 -28 -11c-7 -7 -13 -16 -17 -25z" />
    <glyph glyph-name="adieresis" unicode="&#xe4;" horiz-adv-x="518" 
d="M446 328l10 80h40l-50 -408h-40l8 63c-16 -22 -36 -41 -60 -53s-55 -21 -94 -21c-47 0 -92 11 -130 47c-25 23 -59 69 -59 148c0 67 23 133 69 177c30 29 77 56 151 56c32 0 68 -6 99 -27c24 -16 44 -39 56 -62zM283 379c-45 0 -84 -14 -115 -45
c-33 -33 -55 -89 -55 -147c0 -52 20 -96 47 -122c34 -32 75 -38 104 -38c38 0 68 9 97 30c60 44 74 120 74 164c0 49 -16 91 -42 117c-17 18 -51 41 -110 41zM361 523c0 8 3 18 12 27s19 12 29 12s19 -4 24 -10c4 -5 8 -12 8 -22c0 -11 -4 -20 -11 -27
c-11 -12 -23 -13 -30 -13c-8 0 -16 3 -22 9c-7 7 -10 16 -10 24zM195 523c0 8 3 18 12 27s19 12 29 12s19 -4 24 -10c4 -5 8 -12 8 -22c0 -11 -4 -20 -11 -27c-11 -12 -23 -13 -30 -13c-8 0 -16 3 -22 9c-7 7 -10 16 -10 24z" />
    <glyph glyph-name="aring" unicode="&#xe5;" horiz-adv-x="518" 
d="M446 328l10 80h40l-50 -408h-40l8 63c-16 -22 -36 -41 -60 -53s-55 -21 -94 -21c-47 0 -92 11 -130 47c-25 23 -59 69 -59 148c0 67 23 133 69 177c30 29 77 56 151 56c32 0 68 -6 99 -27c24 -16 44 -39 56 -62zM283 379c-45 0 -84 -14 -115 -45
c-33 -33 -55 -89 -55 -147c0 -52 20 -96 47 -122c34 -32 75 -38 104 -38c38 0 68 9 97 30c60 44 74 120 74 164c0 49 -16 91 -42 117c-17 18 -51 41 -110 41zM239 541c0 25 10 44 25 59c19 19 42 26 62 26c18 0 37 -7 50 -19c16 -15 19 -34 19 -49c0 -28 -11 -48 -24 -62
c-18 -18 -39 -24 -62 -24c-17 0 -35 5 -50 19c-13 13 -20 29 -20 50zM276 543c0 -11 4 -19 9 -24c6 -7 16 -11 28 -11c13 0 26 6 33 13c8 8 12 21 12 32c0 10 -3 20 -9 26c-6 7 -17 11 -28 11c-10 0 -21 -3 -31 -12c-8 -8 -14 -19 -14 -35z" />
    <glyph glyph-name="ae" unicode="&#xe6;" horiz-adv-x="795" 
d="M116 340l5 43c56 30 102 34 130 34c46 0 92 -13 121 -40c7 -7 34 -33 41 -79c18 36 42 63 68 82c37 27 73 37 116 37c58 0 101 -20 127 -45c44 -42 58 -112 50 -174h-349c-7 -45 6 -99 38 -132c20 -21 54 -39 102 -39c46 0 78 16 97 30c32 23 53 58 56 64l30 -20
c-20 -31 -52 -66 -80 -84c-32 -21 -67 -28 -101 -28c-36 0 -75 8 -106 27c-19 12 -44 33 -60 69c-20 -45 -53 -67 -72 -76c-32 -16 -70 -20 -102 -20s-78 3 -116 28s-52 59 -52 93c0 26 7 69 52 101c33 24 79 34 126 34c77 0 117 -22 143 -44c6 57 3 113 -32 146
c-25 23 -67 32 -102 32c-39 0 -78 -9 -130 -39zM236 206c-28 0 -76 -2 -108 -32c-18 -17 -27 -39 -27 -58c0 -25 13 -53 40 -70c11 -7 37 -19 86 -19c17 0 69 2 103 27c25 18 37 47 37 74c0 28 -15 47 -41 61c-27 14 -57 17 -90 17zM432 236h302c-1 40 -17 86 -44 111
c-21 19 -53 32 -91 32c-51 0 -87 -20 -113 -46c-25 -26 -45 -62 -54 -97z" />
    <glyph glyph-name="ccedilla" unicode="&#xe7;" horiz-adv-x="444" 
d="M446 365l-7 -53c-15 17 -36 35 -56 46c-22 12 -49 21 -81 21c-76 0 -120 -37 -135 -53c-38 -38 -54 -94 -54 -140c0 -40 15 -84 42 -114c35 -38 81 -45 115 -45c33 0 57 5 84 19c30 16 50 36 64 54l-7 -58c-16 -13 -38 -28 -58 -37c-33 -14 -69 -16 -85 -16
c-70 0 -114 24 -144 54c-30 31 -53 79 -53 143c0 74 31 134 68 170c38 37 93 61 162 61c46 0 79 -14 89 -18c19 -8 39 -21 56 -34zM263 -50l44 -20l-119 -124l-26 16z" />
    <glyph glyph-name="egrave" unicode="&#xe8;" horiz-adv-x="487" 
d="M463 199h-348c-9 -53 13 -104 41 -132c16 -16 48 -40 103 -40c32 0 69 9 97 29c22 16 42 41 53 64l31 -20c-17 -30 -44 -62 -73 -81c-21 -14 -56 -30 -109 -30s-99 14 -136 54c-36 38 -51 86 -51 139c0 76 28 136 68 176c32 32 79 59 146 59c54 0 99 -19 128 -47
c46 -44 55 -108 50 -171zM121 237h302c-1 43 -19 81 -41 104c-19 20 -50 38 -97 38c-59 0 -97 -28 -117 -49s-39 -52 -47 -93zM305 467l-89 128l46 25l75 -137z" />
    <glyph glyph-name="eacute" unicode="&#xe9;" horiz-adv-x="487" 
d="M463 199h-348c-9 -53 13 -104 41 -132c16 -16 48 -40 103 -40c32 0 69 9 97 29c22 16 42 41 53 64l31 -20c-17 -30 -44 -62 -73 -81c-21 -14 -56 -30 -109 -30s-99 14 -136 54c-36 38 -51 86 -51 139c0 76 28 136 68 176c32 32 79 59 146 59c54 0 99 -19 128 -47
c46 -44 55 -108 50 -171zM121 237h302c-1 43 -19 81 -41 104c-19 20 -50 38 -97 38c-59 0 -97 -28 -117 -49s-39 -52 -47 -93zM374 620l40 -25l-121 -128l-28 16z" />
    <glyph glyph-name="ecircumflex" unicode="&#xea;" horiz-adv-x="487" 
d="M463 199h-348c-9 -53 13 -104 41 -132c16 -16 48 -40 103 -40c32 0 69 9 97 29c22 16 42 41 53 64l31 -20c-17 -30 -44 -62 -73 -81c-21 -14 -56 -30 -109 -30s-99 14 -136 54c-36 38 -51 86 -51 139c0 76 28 136 68 176c32 32 79 59 146 59c54 0 99 -19 128 -47
c46 -44 55 -108 50 -171zM121 237h302c-1 43 -19 81 -41 104c-19 20 -50 38 -97 38c-59 0 -97 -28 -117 -49s-39 -52 -47 -93zM296 535l-99 -68l-29 25l134 94l110 -94l-35 -25z" />
    <glyph glyph-name="edieresis" unicode="&#xeb;" horiz-adv-x="487" 
d="M463 199h-348c-9 -53 13 -104 41 -132c16 -16 48 -40 103 -40c32 0 69 9 97 29c22 16 42 41 53 64l31 -20c-17 -30 -44 -62 -73 -81c-21 -14 -56 -30 -109 -30s-99 14 -136 54c-36 38 -51 86 -51 139c0 76 28 136 68 176c32 32 79 59 146 59c54 0 99 -19 128 -47
c46 -44 55 -108 50 -171zM121 237h302c-1 43 -19 81 -41 104c-19 20 -50 38 -97 38c-59 0 -97 -28 -117 -49s-39 -52 -47 -93zM346 523c0 8 3 18 12 27s19 12 29 12s19 -4 24 -10c4 -5 8 -12 8 -22c0 -11 -4 -20 -11 -27c-11 -12 -23 -13 -30 -13c-8 0 -16 3 -22 9
c-7 7 -10 16 -10 24zM180 523c0 8 3 18 12 27s19 12 29 12s19 -4 24 -10c4 -5 8 -12 8 -22c0 -11 -4 -20 -11 -27c-11 -12 -23 -13 -30 -13c-8 0 -16 3 -22 9c-7 7 -10 16 -10 24z" />
    <glyph glyph-name="igrave" unicode="&#xec;" horiz-adv-x="184" 
d="M122 408h40l-50 -408h-40zM146 467l-89 128l46 25l75 -137z" />
    <glyph glyph-name="iacute" unicode="&#xed;" horiz-adv-x="184" 
d="M122 408h40l-50 -408h-40zM215 620l40 -25l-121 -128l-28 16z" />
    <glyph glyph-name="icircumflex" unicode="&#xee;" horiz-adv-x="184" 
d="M122 408h40l-50 -408h-40zM157 531l-77 -60l-27 26l111 86l89 -86l-33 -26z" />
    <glyph glyph-name="idieresis" unicode="&#xef;" horiz-adv-x="184" 
d="M122 408h40l-50 -408h-40zM197 523c0 8 3 18 12 27s19 12 29 12s19 -4 24 -10c4 -5 8 -12 8 -22c0 -11 -4 -20 -11 -27c-11 -12 -23 -13 -30 -13c-8 0 -16 3 -22 9c-7 7 -10 16 -10 24zM31 523c0 8 3 18 12 27s19 12 29 12s19 -4 24 -10c4 -5 8 -12 8 -22
c0 -11 -4 -20 -11 -27c-11 -12 -23 -13 -30 -13c-8 0 -16 3 -22 9c-7 7 -10 16 -10 24z" />
    <glyph glyph-name="eth" unicode="&#xf0;" horiz-adv-x="523" 
d="M185 636l10 37c40 -5 77 -15 109 -29c30 -13 56 -28 83 -52l148 47l11 -33l-132 -42c31 -32 50 -64 64 -102c20 -53 27 -106 27 -162c0 -112 -24 -198 -84 -254c-46 -44 -97 -57 -153 -57c-41 0 -96 8 -140 52c-26 25 -56 72 -56 147c0 76 30 144 73 187
c27 27 77 62 155 62c33 0 66 -7 97 -24c29 -16 46 -36 58 -54h2c-4 43 -16 80 -29 108c-14 31 -32 57 -60 82l-181 -57l-8 37l159 47c-22 18 -44 30 -73 41c-26 10 -51 16 -80 19zM460 238c0 52 -21 95 -49 121c-23 22 -60 40 -113 40c-49 0 -89 -15 -124 -50
c-29 -28 -60 -78 -60 -156c0 -45 12 -88 46 -122c31 -32 69 -44 114 -44c48 0 88 16 121 48c40 40 65 107 65 163z" />
    <glyph glyph-name="ntilde" unicode="&#xf1;" horiz-adv-x="442" 
d="M72 0l50 408h40l-8 -64c14 26 33 42 47 51c24 16 50 22 81 22c47 0 76 -16 92 -32c15 -15 31 -39 31 -81c0 -20 -5 -61 -6 -72l-29 -232h-40l29 238c3 28 5 42 5 54c0 19 -4 43 -22 62c-11 12 -33 25 -69 25c-30 0 -59 -8 -84 -32c-30 -29 -43 -73 -51 -135l-26 -212h-40
zM180 487l-24 19c6 12 17 27 27 37c14 13 28 20 50 20c21 0 35 -7 49 -13l24 -11c12 -6 22 -11 39 -11c11 0 21 3 30 12c5 5 14 20 17 25l23 -20c-7 -15 -20 -31 -32 -41c-17 -14 -34 -16 -45 -16c-15 0 -33 6 -46 12l-24 11c-13 6 -28 12 -43 12c-11 0 -19 -3 -28 -11
c-7 -7 -13 -16 -17 -25z" />
    <glyph glyph-name="ograve" unicode="&#xf2;" horiz-adv-x="524" 
d="M300 417c57 0 116 -21 152 -57c30 -30 51 -75 51 -141c0 -78 -30 -135 -67 -170c-33 -31 -85 -60 -167 -60c-55 0 -105 15 -144 56c-32 33 -54 84 -54 142c0 63 26 128 68 169c43 41 104 61 161 61zM275 27c50 0 92 15 126 46c29 27 60 73 60 142c0 67 -32 104 -43 116
c-25 26 -65 48 -122 48c-52 0 -94 -19 -124 -46c-39 -35 -59 -89 -59 -140c0 -48 18 -92 46 -121c20 -21 56 -45 116 -45zM335 467l-89 128l46 25l75 -137z" />
    <glyph glyph-name="oacute" unicode="&#xf3;" horiz-adv-x="524" 
d="M300 417c57 0 116 -21 152 -57c30 -30 51 -75 51 -141c0 -78 -30 -135 -67 -170c-33 -31 -85 -60 -167 -60c-55 0 -105 15 -144 56c-32 33 -54 84 -54 142c0 63 26 128 68 169c43 41 104 61 161 61zM275 27c50 0 92 15 126 46c29 27 60 73 60 142c0 67 -32 104 -43 116
c-25 26 -65 48 -122 48c-52 0 -94 -19 -124 -46c-39 -35 -59 -89 -59 -140c0 -48 18 -92 46 -121c20 -21 56 -45 116 -45zM381 620l40 -25l-121 -128l-28 16z" />
    <glyph glyph-name="ocircumflex" unicode="&#xf4;" horiz-adv-x="524" 
d="M300 417c57 0 116 -21 152 -57c30 -30 51 -75 51 -141c0 -78 -30 -135 -67 -170c-33 -31 -85 -60 -167 -60c-55 0 -105 15 -144 56c-32 33 -54 84 -54 142c0 63 26 128 68 169c43 41 104 61 161 61zM275 27c50 0 92 15 126 46c29 27 60 73 60 142c0 67 -32 104 -43 116
c-25 26 -65 48 -122 48c-52 0 -94 -19 -124 -46c-39 -35 -59 -89 -59 -140c0 -48 18 -92 46 -121c20 -21 56 -45 116 -45zM316 535l-99 -68l-29 25l134 94l110 -94l-35 -25z" />
    <glyph glyph-name="otilde" unicode="&#xf5;" horiz-adv-x="524" 
d="M300 417c57 0 116 -21 152 -57c30 -30 51 -75 51 -141c0 -78 -30 -135 -67 -170c-33 -31 -85 -60 -167 -60c-55 0 -105 15 -144 56c-32 33 -54 84 -54 142c0 63 26 128 68 169c43 41 104 61 161 61zM275 27c50 0 92 15 126 46c29 27 60 73 60 142c0 67 -32 104 -43 116
c-25 26 -65 48 -122 48c-52 0 -94 -19 -124 -46c-39 -35 -59 -89 -59 -140c0 -48 18 -92 46 -121c20 -21 56 -45 116 -45zM209 487l-24 19c6 12 17 27 27 37c14 13 28 20 50 20c21 0 35 -7 49 -13l24 -11c12 -6 22 -11 39 -11c11 0 21 3 30 12c5 5 14 20 17 25l23 -20
c-7 -15 -20 -31 -32 -41c-17 -14 -34 -16 -45 -16c-15 0 -33 6 -46 12l-24 11c-13 6 -28 12 -43 12c-11 0 -19 -3 -28 -11c-7 -7 -13 -16 -17 -25z" />
    <glyph glyph-name="odieresis" unicode="&#xf6;" horiz-adv-x="524" 
d="M300 417c57 0 116 -21 152 -57c30 -30 51 -75 51 -141c0 -78 -30 -135 -67 -170c-33 -31 -85 -60 -167 -60c-55 0 -105 15 -144 56c-32 33 -54 84 -54 142c0 63 26 128 68 169c43 41 104 61 161 61zM275 27c50 0 92 15 126 46c29 27 60 73 60 142c0 67 -32 104 -43 116
c-25 26 -65 48 -122 48c-52 0 -94 -19 -124 -46c-39 -35 -59 -89 -59 -140c0 -48 18 -92 46 -121c20 -21 56 -45 116 -45zM361 523c0 8 3 18 12 27s19 12 29 12s19 -4 24 -10c4 -5 8 -12 8 -22c0 -11 -4 -20 -11 -27c-11 -12 -23 -13 -30 -13c-8 0 -16 3 -22 9
c-7 7 -10 16 -10 24zM195 523c0 8 3 18 12 27s19 12 29 12s19 -4 24 -10c4 -5 8 -12 8 -22c0 -11 -4 -20 -11 -27c-11 -12 -23 -13 -30 -13c-8 0 -16 3 -22 9c-7 7 -10 16 -10 24z" />
    <glyph glyph-name="divide" unicode="&#xf7;" 
d="M253 518c0 19 16 35 35 35s35 -16 35 -35s-16 -35 -35 -35s-35 16 -35 35zM253 140c0 19 16 35 35 35s35 -16 35 -35s-16 -35 -35 -35s-35 16 -35 35zM71 310v38h434v-38h-434z" />
    <glyph glyph-name="oslash" unicode="&#xf8;" horiz-adv-x="524" 
d="M296 417c71 0 116 -28 144 -50l62 56l22 -25l-62 -55c28 -41 37 -80 37 -124c0 -78 -31 -135 -67 -170c-32 -31 -85 -60 -167 -60c-59 0 -101 16 -141 53l-60 -53l-22 24l61 54c-28 45 -36 88 -36 120c0 65 26 129 68 169c36 34 92 61 161 61zM271 27c50 0 92 15 126 46
c29 27 60 73 60 142c0 40 -12 71 -29 98l-272 -242c29 -27 63 -44 115 -44zM136 97l271 241c-28 24 -63 41 -115 41s-94 -19 -124 -46c-38 -35 -59 -89 -59 -140c0 -29 7 -62 27 -96z" />
    <glyph glyph-name="ugrave" unicode="&#xf9;" horiz-adv-x="437" 
d="M121 408h40l-30 -246c-6 -47 -1 -87 25 -111c18 -16 45 -24 70 -24c36 0 65 13 83 32c13 14 29 42 36 103l30 246h40l-34 -257c-6 -43 -12 -86 -41 -119c-35 -39 -84 -43 -116 -43c-33 0 -72 6 -102 37c-41 43 -35 101 -31 134zM285 467l-89 128l46 25l75 -137z" />
    <glyph glyph-name="uacute" unicode="&#xfa;" horiz-adv-x="437" 
d="M121 408h40l-30 -246c-6 -47 -1 -87 25 -111c18 -16 45 -24 70 -24c36 0 65 13 83 32c13 14 29 42 36 103l30 246h40l-34 -257c-6 -43 -12 -86 -41 -119c-35 -39 -84 -43 -116 -43c-33 0 -72 6 -102 37c-41 43 -35 101 -31 134zM350 620l40 -25l-121 -128l-28 16z" />
    <glyph glyph-name="ucircumflex" unicode="&#xfb;" horiz-adv-x="437" 
d="M121 408h40l-30 -246c-6 -47 -1 -87 25 -111c18 -16 45 -24 70 -24c36 0 65 13 83 32c13 14 29 42 36 103l30 246h40l-34 -257c-6 -43 -12 -86 -41 -119c-35 -39 -84 -43 -116 -43c-33 0 -72 6 -102 37c-41 43 -35 101 -31 134zM285 535l-99 -68l-29 25l134 94l110 -94
l-35 -25z" />
    <glyph glyph-name="udieresis" unicode="&#xfc;" horiz-adv-x="437" 
d="M121 408h40l-30 -246c-6 -47 -1 -87 25 -111c18 -16 45 -24 70 -24c36 0 65 13 83 32c13 14 29 42 36 103l30 246h40l-34 -257c-6 -43 -12 -86 -41 -119c-35 -39 -84 -43 -116 -43c-33 0 -72 6 -102 37c-41 43 -35 101 -31 134zM330 523c0 8 3 18 12 27s19 12 29 12
s19 -4 24 -10c4 -5 8 -12 8 -22c0 -11 -4 -20 -11 -27c-11 -12 -23 -13 -30 -13c-8 0 -16 3 -22 9c-7 7 -10 16 -10 24zM164 523c0 8 3 18 12 27s19 12 29 12s19 -4 24 -10c4 -5 8 -12 8 -22c0 -11 -4 -20 -11 -27c-11 -12 -23 -13 -30 -13c-8 0 -16 3 -22 9
c-7 7 -10 16 -10 24z" />
    <glyph glyph-name="yacute" unicode="&#xfd;" horiz-adv-x="428" 
d="M78 -230l123 223l-143 415h44l127 -363l193 363h48l-346 -638h-46zM345 620l40 -25l-121 -128l-28 16z" />
    <glyph glyph-name="thorn" unicode="&#xfe;" horiz-adv-x="518" 
d="M121 73l-37 -303h-40l119 959h40l-50 -392c12 18 31 38 61 55c32 18 66 25 102 25c64 0 107 -25 132 -50c24 -25 49 -67 49 -136c0 -81 -28 -143 -69 -183c-26 -26 -74 -59 -148 -59c-37 0 -75 10 -105 29c-30 20 -49 47 -54 55zM279 27c58 0 95 20 117 40
c35 32 59 89 59 157c0 53 -18 91 -45 117c-15 15 -47 38 -98 38c-49 0 -92 -19 -122 -49c-33 -33 -56 -87 -56 -149c0 -59 23 -94 45 -116c29 -28 62 -38 100 -38z" />
    <glyph glyph-name="ydieresis" unicode="&#xff;" horiz-adv-x="428" 
d="M78 -230l123 223l-143 415h44l127 -363l193 363h48l-346 -638h-46zM325 523c0 8 3 18 12 27s19 12 29 12s19 -4 24 -10c4 -5 8 -12 8 -22c0 -11 -4 -20 -11 -27c-11 -12 -23 -13 -30 -13c-8 0 -16 3 -22 9c-7 7 -10 16 -10 24zM159 523c0 8 3 18 12 27s19 12 29 12
s19 -4 24 -10c4 -5 8 -12 8 -22c0 -11 -4 -20 -11 -27c-11 -12 -23 -13 -30 -13c-8 0 -16 3 -22 9c-7 7 -10 16 -10 24z" />
    <glyph glyph-name="Amacron" unicode="&#x100;" horiz-adv-x="586" 
d="M526 0l-62 219h-284l-116 -219h-50l365 687l193 -687h-46zM201 259h252l-86 316zM250 750l5 44h270l-5 -44h-270z" />
    <glyph glyph-name="amacron" unicode="&#x101;" horiz-adv-x="518" 
d="M446 328l10 80h40l-50 -408h-40l8 63c-16 -22 -36 -41 -60 -53s-55 -21 -94 -21c-47 0 -92 11 -130 47c-25 23 -59 69 -59 148c0 67 23 133 69 177c30 29 77 56 151 56c32 0 68 -6 99 -27c24 -16 44 -39 56 -62zM283 379c-45 0 -84 -14 -115 -45
c-33 -33 -55 -89 -55 -147c0 -52 20 -96 47 -122c34 -32 75 -38 104 -38c38 0 68 9 97 30c60 44 74 120 74 164c0 49 -16 91 -42 117c-17 18 -51 41 -110 41zM182 493l4 39h270l-4 -39h-270z" />
    <glyph glyph-name="Abreve" unicode="&#x102;" horiz-adv-x="586" 
d="M526 0l-62 219h-284l-116 -219h-50l365 687l193 -687h-46zM201 259h252l-86 316zM259 826h40c4 -16 13 -28 23 -36c18 -14 43 -16 58 -16c17 0 41 2 63 16c16 11 25 24 30 36h40c-11 -38 -34 -59 -48 -69c-25 -17 -58 -25 -89 -25c-46 0 -71 17 -82 26
c-14 12 -31 35 -35 68z" />
    <glyph glyph-name="abreve" unicode="&#x103;" horiz-adv-x="518" 
d="M446 328l10 80h40l-50 -408h-40l8 63c-16 -22 -36 -41 -60 -53s-55 -21 -94 -21c-47 0 -92 11 -130 47c-25 23 -59 69 -59 148c0 67 23 133 69 177c30 29 77 56 151 56c32 0 68 -6 99 -27c24 -16 44 -39 56 -62zM283 379c-45 0 -84 -14 -115 -45
c-33 -33 -55 -89 -55 -147c0 -52 20 -96 47 -122c34 -32 75 -38 104 -38c38 0 68 9 97 30c60 44 74 120 74 164c0 49 -16 91 -42 117c-17 18 -51 41 -110 41zM195 573h38c2 -11 6 -27 24 -40c19 -14 44 -16 59 -16c21 0 43 4 61 16s26 27 30 40h38c-4 -15 -12 -37 -34 -58
c-18 -17 -50 -36 -97 -36c-32 0 -64 9 -86 28c-12 11 -30 32 -33 66z" />
    <glyph glyph-name="Aogonek" unicode="&#x104;" horiz-adv-x="586" 
d="M524 0l-62 219h-284l-116 -219h-48l365 687l193 -687c-15 -12 -37 -31 -50 -47c-12 -14 -23 -33 -23 -56c0 -19 9 -29 17 -34c10 -6 25 -9 39 -9c10 0 32 1 51 11l-13 -39c-6 -2 -26 -8 -48 -8c-19 0 -46 5 -63 18c-12 9 -26 26 -26 52c0 23 9 48 26 69
c11 13 29 30 46 43h-4zM199 259h252l-86 316z" />
    <glyph glyph-name="aogonek" unicode="&#x105;" horiz-adv-x="518" 
d="M446 328l10 80h40l-50 -408c-11 -9 -32 -28 -44 -42c-9 -10 -29 -34 -29 -60c0 -12 4 -26 20 -35c11 -6 26 -9 39 -9c10 0 26 2 43 9l-13 -37c-14 -5 -27 -7 -41 -7c-20 0 -44 5 -61 18c-18 14 -25 31 -25 51c0 28 11 49 23 66c13 18 30 34 48 46l8 63
c-16 -22 -36 -41 -60 -53s-55 -21 -94 -21c-47 0 -92 11 -130 47c-25 23 -59 69 -59 148c0 67 23 133 69 177c30 29 77 56 151 56c32 0 68 -6 99 -27c24 -16 44 -39 56 -62zM283 379c-45 0 -84 -14 -115 -45c-33 -33 -55 -89 -55 -147c0 -52 20 -96 47 -122
c34 -32 75 -38 104 -38c38 0 68 9 97 30c60 44 74 120 74 164c0 49 -16 91 -42 117c-17 18 -51 41 -110 41z" />
    <glyph glyph-name="Cacute" unicode="&#x106;" horiz-adv-x="682" 
d="M700 589l-7 -58c-7 9 -40 50 -89 76c-52 27 -109 29 -124 29c-78 0 -168 -29 -237 -98c-66 -66 -100 -158 -100 -240c0 -74 30 -144 77 -192s116 -77 190 -77c49 0 90 10 129 28c42 19 76 44 105 73l-7 -58c-27 -23 -62 -46 -96 -60c-19 -8 -64 -23 -132 -23
c-86 0 -160 25 -222 87c-51 51 -92 126 -92 224c0 88 33 189 118 270c91 87 194 106 268 106s122 -21 136 -27c29 -14 59 -35 83 -60zM591 854l47 -25l-150 -126l-29 18z" />
    <glyph glyph-name="cacute" unicode="&#x107;" horiz-adv-x="444" 
d="M446 365l-7 -53c-15 17 -36 35 -56 46c-22 12 -49 21 -81 21c-76 0 -120 -37 -135 -53c-38 -38 -54 -94 -54 -140c0 -40 15 -84 42 -114c35 -38 81 -45 115 -45c33 0 57 5 84 19c30 16 50 36 64 54l-7 -58c-16 -13 -38 -28 -58 -37c-33 -14 -69 -16 -85 -16
c-70 0 -114 24 -144 54c-30 31 -53 79 -53 143c0 74 31 134 68 170c38 37 93 61 162 61c46 0 79 -14 89 -18c19 -8 39 -21 56 -34zM381 620l40 -25l-121 -128l-28 16z" />
    <glyph glyph-name="Ccircumflex" unicode="&#x108;" horiz-adv-x="682" 
d="M700 589l-7 -58c-7 9 -40 50 -89 76c-52 27 -109 29 -124 29c-78 0 -168 -29 -237 -98c-66 -66 -100 -158 -100 -240c0 -74 30 -144 77 -192s116 -77 190 -77c49 0 90 10 129 28c42 19 76 44 105 73l-7 -58c-27 -23 -62 -46 -96 -60c-19 -8 -64 -23 -132 -23
c-86 0 -160 25 -222 87c-51 51 -92 126 -92 224c0 88 33 189 118 270c91 87 194 106 268 106s122 -21 136 -27c29 -14 59 -35 83 -60zM507 786l-104 -64l-31 27l141 90l119 -90l-37 -27z" />
    <glyph glyph-name="ccircumflex" unicode="&#x109;" horiz-adv-x="444" 
d="M446 365l-7 -53c-15 17 -36 35 -56 46c-22 12 -49 21 -81 21c-76 0 -120 -37 -135 -53c-38 -38 -54 -94 -54 -140c0 -40 15 -84 42 -114c35 -38 81 -45 115 -45c33 0 57 5 84 19c30 16 50 36 64 54l-7 -58c-16 -13 -38 -28 -58 -37c-33 -14 -69 -16 -85 -16
c-70 0 -114 24 -144 54c-30 31 -53 79 -53 143c0 74 31 134 68 170c38 37 93 61 162 61c46 0 79 -14 89 -18c19 -8 39 -21 56 -34zM316 535l-99 -68l-29 25l134 94l110 -94l-35 -25z" />
    <glyph glyph-name="Cdotaccent" unicode="&#x10a;" horiz-adv-x="682" 
d="M700 589l-7 -58c-7 9 -40 50 -89 76c-52 27 -109 29 -124 29c-78 0 -168 -29 -237 -98c-66 -66 -100 -158 -100 -240c0 -74 30 -144 77 -192s116 -77 190 -77c49 0 90 10 129 28c42 19 76 44 105 73l-7 -58c-27 -23 -62 -46 -96 -60c-19 -8 -64 -23 -132 -23
c-86 0 -160 25 -222 87c-51 51 -92 126 -92 224c0 88 33 189 118 270c91 87 194 106 268 106s122 -21 136 -27c29 -14 59 -35 83 -60zM466 775c0 12 4 25 12 33c4 5 15 14 34 14c11 0 20 -4 26 -10c4 -4 10 -12 10 -25c0 -12 -4 -25 -12 -33c-6 -7 -17 -14 -33 -14
c-11 0 -21 4 -27 10s-10 15 -10 25z" />
    <glyph glyph-name="cdotaccent" unicode="&#x10b;" horiz-adv-x="444" 
d="M446 365l-7 -53c-15 17 -36 35 -56 46c-22 12 -49 21 -81 21c-76 0 -120 -37 -135 -53c-38 -38 -54 -94 -54 -140c0 -40 15 -84 42 -114c35 -38 81 -45 115 -45c33 0 57 5 84 19c30 16 50 36 64 54l-7 -58c-16 -13 -38 -28 -58 -37c-33 -14 -69 -16 -85 -16
c-70 0 -114 24 -144 54c-30 31 -53 79 -53 143c0 74 31 134 68 170c38 37 93 61 162 61c46 0 79 -14 89 -18c19 -8 39 -21 56 -34zM284 522c0 8 2 20 13 31c6 6 16 13 31 13c11 0 19 -4 25 -9s10 -14 10 -25s-4 -23 -14 -32c-5 -5 -15 -12 -30 -12c-11 0 -19 4 -25 9
c-4 4 -10 12 -10 25z" />
    <glyph glyph-name="Ccaron" unicode="&#x10c;" horiz-adv-x="682" 
d="M700 589l-7 -58c-7 9 -40 50 -89 76c-52 27 -109 29 -124 29c-78 0 -168 -29 -237 -98c-66 -66 -100 -158 -100 -240c0 -74 30 -144 77 -192s116 -77 190 -77c49 0 90 10 129 28c42 19 76 44 105 73l-7 -58c-27 -23 -62 -46 -96 -60c-19 -8 -64 -23 -132 -23
c-86 0 -160 25 -222 87c-51 51 -92 126 -92 224c0 88 33 189 118 270c91 87 194 106 268 106s122 -21 136 -27c29 -14 59 -35 83 -60zM495 775l104 64l31 -27l-141 -90l-119 90l37 27z" />
    <glyph glyph-name="ccaron" unicode="&#x10d;" horiz-adv-x="444" 
d="M446 365l-7 -53c-15 17 -36 35 -56 46c-22 12 -49 21 -81 21c-76 0 -120 -37 -135 -53c-38 -38 -54 -94 -54 -140c0 -40 15 -84 42 -114c35 -38 81 -45 115 -45c33 0 57 5 84 19c30 16 50 36 64 54l-7 -58c-16 -13 -38 -28 -58 -37c-33 -14 -69 -16 -85 -16
c-70 0 -114 24 -144 54c-30 31 -53 79 -53 143c0 74 31 134 68 170c38 37 93 61 162 61c46 0 79 -14 89 -18c19 -8 39 -21 56 -34zM313 517l99 68l29 -26l-134 -94l-110 94l35 26z" />
    <glyph glyph-name="Dcaron" unicode="&#x10e;" horiz-adv-x="620" 
d="M222 0h-90h-42l82 667h123c64 0 168 -8 243 -93c38 -43 69 -110 69 -208c0 -85 -21 -193 -104 -272c-76 -72 -174 -94 -281 -94zM211 627l-72 -587h87c131 0 199 43 243 87c76 75 93 175 93 244c0 87 -34 145 -65 178c-66 70 -154 78 -209 78h-77zM335 775l104 64l31 -27
l-141 -90l-119 90l37 27z" />
    <glyph glyph-name="dcaron" unicode="&#x10f;" horiz-adv-x="555" 
d="M447 326l50 403h40l-90 -729h-40l7 58c-5 -6 -29 -34 -64 -51c-31 -15 -60 -18 -85 -18c-59 0 -105 14 -142 54c-25 27 -52 74 -52 148c0 78 31 132 67 168c43 42 93 58 150 58c33 0 68 -6 102 -28c29 -19 46 -42 57 -63zM285 379c-45 0 -84 -18 -112 -45
c-34 -33 -58 -87 -58 -144c0 -42 14 -89 45 -121c25 -27 60 -42 105 -42c59 0 96 26 116 45c39 38 55 99 55 152c0 58 -22 93 -44 114c-27 27 -66 41 -107 41zM545 522l68 158l42 -16l-84 -154z" />
    <glyph glyph-name="Dcroat" unicode="&#x110;" horiz-adv-x="620" 
d="M221 0h-87h-45l43 345h-90l5 40h90l34 282h123c64 0 168 -8 243 -93c38 -43 69 -110 69 -208c0 -72 -16 -183 -98 -266c-70 -70 -166 -100 -287 -100zM210 627l-29 -242h136l-5 -40h-136l-38 -305h87c127 0 199 44 243 87c86 84 93 202 93 244c0 87 -34 145 -65 178
c-66 70 -154 78 -209 78h-77z" />
    <glyph glyph-name="dcroat" unicode="&#x111;" horiz-adv-x="519" 
d="M447 326l29 236h-180l5 38h180l16 129h40l-16 -129h99l-5 -38h-99l-69 -562h-40l7 58c-5 -6 -29 -34 -64 -51c-31 -15 -60 -18 -85 -18c-59 0 -105 14 -142 54c-25 27 -52 74 -52 147c0 79 31 134 67 169c44 43 94 58 148 58c37 0 72 -8 104 -28c21 -13 42 -33 57 -63z
M284 379c-44 0 -83 -18 -111 -45c-34 -33 -58 -87 -58 -144c0 -42 14 -89 45 -121c25 -27 60 -42 105 -42c59 0 97 26 116 45c39 39 55 100 55 147c0 46 -16 91 -45 119c-26 26 -66 41 -107 41z" />
    <glyph glyph-name="Emacron" unicode="&#x112;" horiz-adv-x="464" 
d="M492 667l-5 -40h-276l-30 -242h270l-5 -40h-270l-37 -305h276l-5 -40h-278h-42l82 667h320zM207 750l5 44h270l-5 -44h-270z" />
    <glyph glyph-name="emacron" unicode="&#x113;" horiz-adv-x="487" 
d="M463 199h-348c-9 -53 13 -104 41 -132c16 -16 48 -40 103 -40c32 0 69 9 97 29c22 16 42 41 53 64l31 -20c-17 -30 -44 -62 -73 -81c-21 -14 -56 -30 -109 -30s-99 14 -136 54c-36 38 -51 86 -51 139c0 76 28 136 68 176c32 32 79 59 146 59c54 0 99 -19 128 -47
c46 -44 55 -108 50 -171zM121 237h302c-1 43 -19 81 -41 104c-19 20 -50 38 -97 38c-59 0 -97 -28 -117 -49s-39 -52 -47 -93zM161 493l4 39h270l-4 -39h-270z" />
    <glyph glyph-name="Edotaccent" unicode="&#x116;" horiz-adv-x="464" 
d="M492 667l-5 -40h-276l-30 -242h270l-5 -40h-270l-37 -305h276l-5 -40h-278h-42l82 667h320zM305 775c0 12 4 25 12 33c4 5 15 14 34 14c11 0 20 -4 26 -10c4 -4 10 -12 10 -25c0 -12 -4 -25 -12 -33c-6 -7 -17 -14 -33 -14c-11 0 -21 4 -27 10s-10 15 -10 25z" />
    <glyph glyph-name="edotaccent" unicode="&#x117;" horiz-adv-x="487" 
d="M463 199h-348c-9 -53 13 -104 41 -132c16 -16 48 -40 103 -40c32 0 69 9 97 29c22 16 42 41 53 64l31 -20c-17 -30 -44 -62 -73 -81c-21 -14 -56 -30 -109 -30s-99 14 -136 54c-36 38 -51 86 -51 139c0 76 28 136 68 176c32 32 79 59 146 59c54 0 99 -19 128 -47
c46 -44 55 -108 50 -171zM121 237h302c-1 43 -19 81 -41 104c-19 20 -50 38 -97 38c-59 0 -97 -28 -117 -49s-39 -52 -47 -93zM260 522c0 8 2 20 13 31c6 6 16 13 31 13c11 0 19 -4 25 -9s10 -14 10 -25s-4 -23 -14 -32c-5 -5 -15 -12 -30 -12c-11 0 -19 4 -25 9
c-4 4 -10 12 -10 25z" />
    <glyph glyph-name="Eogonek" unicode="&#x118;" horiz-adv-x="464" 
d="M492 667l-5 -40h-276l-30 -242h270l-5 -40h-270l-37 -305h276l-5 -40h-50c-15 -12 -37 -31 -50 -47c-12 -15 -23 -33 -23 -55c0 -12 3 -26 17 -35c12 -8 29 -9 39 -9c19 0 36 4 51 11l-13 -39c-17 -6 -34 -8 -48 -8c-19 0 -46 5 -63 18c-12 9 -26 27 -26 54
c0 21 9 45 26 67c11 13 29 30 46 43h-182h-44l82 667h320z" />
    <glyph glyph-name="eogonek" unicode="&#x119;" horiz-adv-x="487" 
d="M463 199h-348c-1 -8 -2 -16 -2 -24c0 -44 19 -84 43 -108c16 -16 48 -40 103 -40c32 0 69 9 97 29c22 16 42 41 53 64l31 -20c-33 -55 -71 -80 -102 -100c-21 -13 -41 -27 -59 -47c-11 -13 -23 -31 -23 -54c0 -18 9 -28 17 -34c11 -8 26 -11 40 -11c15 0 33 5 45 9
l-13 -37c-14 -5 -27 -7 -41 -7c-30 0 -50 9 -61 18c-17 13 -25 30 -25 55c0 18 5 34 16 51c10 15 27 33 42 46c-65 0 -112 9 -154 54c-36 39 -51 86 -51 139c0 76 28 136 68 176c32 32 79 59 146 59c55 0 99 -19 126 -45c40 -37 54 -92 54 -140c0 -11 -1 -23 -2 -33z
M122 237h301c0 45 -18 82 -40 104c-19 20 -50 38 -96 38c-57 0 -95 -26 -117 -49c-24 -25 -40 -59 -48 -93z" />
    <glyph glyph-name="Ecaron" unicode="&#x11a;" horiz-adv-x="464" 
d="M492 667l-5 -40h-276l-30 -242h270l-5 -40h-270l-37 -305h276l-5 -40h-278h-42l82 667h320zM345 775l104 64l31 -27l-141 -90l-119 90l37 27z" />
    <glyph glyph-name="ecaron" unicode="&#x11b;" horiz-adv-x="487" 
d="M463 199h-348c-9 -53 13 -104 41 -132c16 -16 48 -40 103 -40c32 0 69 9 97 29c22 16 42 41 53 64l31 -20c-17 -30 -44 -62 -73 -81c-21 -14 -56 -30 -109 -30s-99 14 -136 54c-36 38 -51 86 -51 139c0 76 28 136 68 176c32 32 79 59 146 59c54 0 99 -19 128 -47
c46 -44 55 -108 50 -171zM121 237h302c-1 43 -19 81 -41 104c-19 20 -50 38 -97 38c-59 0 -97 -28 -117 -49s-39 -52 -47 -93zM298 517l99 68l29 -26l-134 -94l-110 94l35 26z" />
    <glyph glyph-name="Gcircumflex" unicode="&#x11c;" horiz-adv-x="773" 
d="M473 280l5 40h280c-6 -62 -29 -162 -104 -236c-87 -86 -187 -95 -239 -95c-91 0 -166 25 -230 89c-60 59 -90 131 -90 220c0 119 49 211 111 271c56 55 145 107 273 107c70 0 127 -18 176 -49c23 -15 67 -48 101 -107l-39 -28c-20 35 -50 73 -84 97
c-44 31 -101 47 -156 47c-94 0 -181 -39 -238 -94c-64 -63 -99 -154 -99 -239c0 -81 33 -148 76 -193c49 -51 117 -81 192 -81c85 0 165 33 220 90c30 31 67 84 80 161h-235zM493 786l-104 -64l-31 27l141 90l119 -90l-37 -27z" />
    <glyph glyph-name="gcircumflex" unicode="&#x11d;" horiz-adv-x="520" 
d="M458 408h40l-48 -396c-7 -56 -18 -130 -67 -181c-35 -37 -91 -61 -160 -61c-68 0 -111 24 -135 48c-28 27 -50 73 -51 127h42c1 -33 12 -71 36 -96c19 -20 53 -41 113 -41c66 0 104 26 123 45c39 39 52 105 59 159l7 58c-17 -25 -38 -44 -66 -58c-33 -17 -65 -23 -95 -23
c-53 0 -100 13 -137 52c-29 31 -52 79 -52 143c0 62 21 126 66 172c46 48 97 61 154 61c32 0 73 -4 111 -28c10 -7 32 -23 51 -52zM288 379c-44 0 -87 -15 -119 -45c-36 -34 -58 -92 -58 -150c0 -56 23 -92 43 -114c28 -30 64 -43 112 -43c39 0 81 10 117 47
c34 36 54 92 54 150c0 53 -19 92 -43 115c-25 25 -65 40 -106 40zM326 535l-99 -68l-29 25l134 94l110 -94l-35 -25z" />
    <glyph glyph-name="Gbreve" unicode="&#x11e;" horiz-adv-x="773" 
d="M473 280l5 40h280c-6 -62 -29 -162 -104 -236c-87 -86 -187 -95 -239 -95c-91 0 -166 25 -230 89c-60 59 -90 131 -90 220c0 119 49 211 111 271c56 55 145 107 273 107c70 0 127 -18 176 -49c23 -15 67 -48 101 -107l-39 -28c-20 35 -50 73 -84 97
c-44 31 -101 47 -156 47c-94 0 -181 -39 -238 -94c-64 -63 -99 -154 -99 -239c0 -81 33 -148 76 -193c49 -51 117 -81 192 -81c85 0 165 33 220 90c30 31 67 84 80 161h-235zM370 826h40c4 -16 13 -28 23 -36c18 -14 43 -16 58 -16c17 0 41 2 63 16c16 11 25 24 30 36h40
c-11 -38 -34 -59 -48 -69c-25 -17 -58 -25 -89 -25c-46 0 -71 17 -82 26c-14 12 -31 35 -35 68z" />
    <glyph glyph-name="gbreve" unicode="&#x11f;" horiz-adv-x="520" 
d="M458 408h40l-48 -396c-7 -56 -18 -130 -67 -181c-35 -37 -91 -61 -160 -61c-68 0 -111 24 -135 48c-28 27 -50 73 -51 127h42c1 -33 12 -71 36 -96c19 -20 53 -41 113 -41c66 0 104 26 123 45c39 39 52 105 59 159l7 58c-17 -25 -38 -44 -66 -58c-33 -17 -65 -23 -95 -23
c-53 0 -100 13 -137 52c-29 31 -52 79 -52 143c0 62 21 126 66 172c46 48 97 61 154 61c32 0 73 -4 111 -28c10 -7 32 -23 51 -52zM288 379c-44 0 -87 -15 -119 -45c-36 -34 -58 -92 -58 -150c0 -56 23 -92 43 -114c28 -30 64 -43 112 -43c39 0 81 10 117 47
c34 36 54 92 54 150c0 53 -19 92 -43 115c-25 25 -65 40 -106 40zM189 573h38c2 -11 6 -27 24 -40c19 -14 44 -16 59 -16c21 0 43 4 61 16s26 27 30 40h38c-4 -15 -12 -37 -34 -58c-18 -17 -50 -36 -97 -36c-32 0 -64 9 -86 28c-12 11 -30 32 -33 66z" />
    <glyph glyph-name="Gdotaccent" unicode="&#x120;" horiz-adv-x="773" 
d="M473 280l5 40h280c-6 -62 -29 -162 -104 -236c-87 -86 -187 -95 -239 -95c-91 0 -166 25 -230 89c-60 59 -90 131 -90 220c0 119 49 211 111 271c56 55 145 107 273 107c70 0 127 -18 176 -49c23 -15 67 -48 101 -107l-39 -28c-20 35 -50 73 -84 97
c-44 31 -101 47 -156 47c-94 0 -181 -39 -238 -94c-64 -63 -99 -154 -99 -239c0 -81 33 -148 76 -193c49 -51 117 -81 192 -81c85 0 165 33 220 90c30 31 67 84 80 161h-235zM442 775c0 12 4 25 12 33c4 5 15 14 34 14c11 0 20 -4 26 -10c4 -4 10 -12 10 -25
c0 -12 -4 -25 -12 -33c-6 -7 -17 -14 -33 -14c-11 0 -21 4 -27 10s-10 15 -10 25z" />
    <glyph glyph-name="gdotaccent" unicode="&#x121;" horiz-adv-x="520" 
d="M458 408h40l-48 -396c-7 -56 -18 -130 -67 -181c-35 -37 -91 -61 -160 -61c-68 0 -111 24 -135 48c-28 27 -50 73 -51 127h42c1 -33 12 -71 36 -96c19 -20 53 -41 113 -41c66 0 104 26 123 45c39 39 52 105 59 159l7 58c-17 -25 -38 -44 -66 -58c-33 -17 -65 -23 -95 -23
c-53 0 -100 13 -137 52c-29 31 -52 79 -52 143c0 62 21 126 66 172c46 48 97 61 154 61c32 0 73 -4 111 -28c10 -7 32 -23 51 -52zM288 379c-44 0 -87 -15 -119 -45c-36 -34 -58 -92 -58 -150c0 -56 23 -92 43 -114c28 -30 64 -43 112 -43c39 0 81 10 117 47
c34 36 54 92 54 150c0 53 -19 92 -43 115c-25 25 -65 40 -106 40zM260 522c0 8 2 20 13 31c6 6 16 13 31 13c11 0 19 -4 25 -9s10 -14 10 -25s-4 -23 -14 -32c-5 -5 -15 -12 -30 -12c-11 0 -19 4 -25 9c-4 4 -10 12 -10 25z" />
    <glyph glyph-name="Gcommaaccent" unicode="&#x122;" horiz-adv-x="773" 
d="M473 280l5 40h280c-6 -62 -29 -162 -104 -236c-87 -86 -187 -95 -239 -95c-91 0 -166 25 -230 89c-60 59 -90 131 -90 220c0 119 49 211 111 271c56 55 145 107 273 107c70 0 127 -18 176 -49c23 -15 67 -48 101 -107l-39 -28c-20 35 -50 73 -84 97
c-44 31 -101 47 -156 47c-94 0 -181 -39 -238 -94c-64 -63 -99 -154 -99 -239c0 -81 33 -148 76 -193c49 -51 117 -81 192 -81c85 0 165 33 220 90c30 31 67 84 80 161h-235zM302 -188l64 138l42 -16l-80 -134z" />
    <glyph glyph-name="gcommaaccent" unicode="&#x123;" horiz-adv-x="520" 
d="M458 408h40l-48 -396c-7 -56 -18 -130 -67 -181c-35 -37 -91 -61 -160 -61c-68 0 -111 24 -135 48c-28 27 -50 73 -51 127h42c1 -33 12 -71 36 -96c19 -20 53 -41 113 -41c66 0 104 26 123 45c39 39 52 105 59 159l7 58c-17 -25 -38 -44 -66 -58c-33 -17 -65 -23 -95 -23
c-53 0 -100 13 -137 52c-29 31 -52 79 -52 143c0 62 21 126 66 172c46 48 97 61 154 61c32 0 73 -4 111 -28c10 -7 32 -23 51 -52zM288 379c-44 0 -87 -15 -119 -45c-36 -34 -58 -92 -58 -150c0 -56 23 -92 43 -114c28 -30 64 -43 112 -43c39 0 81 10 117 47
c34 36 54 92 54 150c0 53 -19 92 -43 115c-25 25 -65 40 -106 40zM401 631l-58 -138l-42 16l74 134z" />
    <glyph glyph-name="Hcircumflex" unicode="&#x124;" horiz-adv-x="672" 
d="M216 667l-35 -283h404l35 283h44l-82 -667h-44l42 344h-404l-42 -344h-44l82 667h44zM433 786l-104 -64l-31 27l141 90l119 -90l-37 -27z" />
    <glyph glyph-name="hcircumflex" unicode="&#x125;" horiz-adv-x="442" 
d="M72 0l90 729h40l-48 -385c12 20 29 38 45 49c20 14 48 24 82 24c37 0 69 -11 90 -31c41 -38 35 -94 31 -129l-32 -257h-40l32 257c4 34 5 72 -21 98c-13 13 -35 24 -65 24c-42 0 -69 -18 -86 -35c-18 -18 -43 -55 -52 -132l-26 -212h-40zM188 795l-99 -68l-29 25l134 94
l110 -94l-35 -25z" />
    <glyph glyph-name="Hbar" unicode="&#x126;" horiz-adv-x="672" 
d="M216 667l-7 -54h404l7 54h44l-7 -54h54l-4 -34h-54l-71 -579h-44l42 344h-404l-42 -344h-44l71 579h-54l4 34h54l7 54h44zM609 579h-404l-24 -195h404z" />
    <glyph glyph-name="hbar" unicode="&#x127;" horiz-adv-x="442" 
d="M72 0l69 562h-100l5 38h100l16 129h40l-16 -129h180l-5 -38h-180l-27 -218c24 34 66 73 134 73c64 0 94 -33 106 -57c13 -28 13 -64 8 -103l-32 -257h-40l32 257c2 16 6 58 -6 82c-4 8 -22 40 -75 40c-62 0 -93 -36 -107 -57c-15 -23 -29 -54 -36 -110l-26 -212h-40z" />
    <glyph glyph-name="Imacron" unicode="&#x12a;" horiz-adv-x="224" 
d="M172 667h44l-82 -667h-44zM102 750l5 44h204l-5 -44h-204z" />
    <glyph glyph-name="imacron" unicode="&#x12b;" horiz-adv-x="184" 
d="M122 408h40l-50 -408h-40zM73 493l4 39h160l-4 -39h-160z" />
    <glyph glyph-name="Iogonek" unicode="&#x12e;" horiz-adv-x="224" 
d="M172 667h44l-82 -667c-15 -12 -37 -31 -50 -47c-12 -14 -23 -33 -23 -56c0 -19 9 -29 17 -34c10 -6 25 -9 39 -9c10 0 32 1 51 11l-13 -39c-6 -2 -26 -8 -48 -8c-19 0 -46 5 -63 18c-12 9 -26 26 -26 52c0 23 9 48 26 69c11 13 29 30 46 43z" />
    <glyph glyph-name="iogonek" unicode="&#x12f;" horiz-adv-x="184" 
d="M122 408h40l-50 -408c-11 -9 -32 -28 -44 -42c-9 -10 -29 -34 -29 -60c0 -12 4 -26 20 -35c11 -6 26 -9 39 -9c10 0 26 2 43 9l-13 -37c-14 -5 -27 -7 -41 -7c-20 0 -44 5 -61 18c-18 14 -25 31 -25 51c0 28 11 49 23 66c13 18 30 34 48 46zM154 507c-13 0 -20 6 -23 9
c-4 4 -8 11 -8 22c0 14 5 25 13 32c9 9 20 11 27 11c11 0 19 -5 23 -9c7 -7 9 -16 9 -23c0 -11 -3 -21 -12 -30c-8 -8 -17 -12 -29 -12z" />
    <glyph glyph-name="Idotaccent" unicode="&#x130;" horiz-adv-x="224" 
d="M172 667h44l-82 -667h-44zM157 775c0 12 4 25 12 33c4 5 15 14 34 14c11 0 20 -4 26 -10c4 -4 10 -12 10 -25c0 -12 -4 -25 -12 -33c-6 -7 -17 -14 -33 -14c-11 0 -21 4 -27 10s-10 15 -10 25z" />
    <glyph glyph-name="dotlessi" unicode="&#x131;" horiz-adv-x="184" 
d="M122 408h40l-50 -408h-40z" />
    <glyph glyph-name="Jcircumflex" unicode="&#x134;" horiz-adv-x="268" 
d="M216 667h44l-65 -528c-6 -47 -13 -90 -42 -119c-28 -27 -63 -31 -88 -31c-26 0 -49 5 -71 23c-13 10 -27 27 -36 49l34 24c5 -14 15 -31 26 -40c10 -9 26 -16 50 -16c14 0 36 2 53 20c21 21 26 54 29 81zM267 786l-104 -64l-31 27l141 90l119 -90l-37 -27z" />
    <glyph glyph-name="jcircumflex" unicode="&#x135;" horiz-adv-x="184" 
d="M122 408h40l-78 -638h-40zM157 531l-77 -60l-27 26l111 86l89 -86l-33 -26z" />
    <glyph glyph-name="Kcommaaccent" unicode="&#x136;" horiz-adv-x="540" 
d="M216 667l-39 -314l354 314h58l-364 -320l299 -347h-58l-275 318l-20 -17l-37 -301h-44l82 667h44zM190 -188l64 138l42 -16l-80 -134z" />
    <glyph glyph-name="kcommaaccent" unicode="&#x137;" horiz-adv-x="393" 
d="M162 729h40l-61 -496l189 175h52l-195 -179l198 -229h-51l-176 202l-24 -21l-22 -181h-40zM125 -188l58 138l42 -16l-74 -134z" />
    <glyph glyph-name="Lacute" unicode="&#x139;" horiz-adv-x="334" 
d="M172 667h44l-77 -627h186l-5 -40h-230zM338 854l47 -25l-150 -126l-29 18z" />
    <glyph glyph-name="lacute" unicode="&#x13a;" horiz-adv-x="184" 
d="M162 729h40l-90 -729h-40zM223 900l40 -25l-121 -128l-28 16z" />
    <glyph glyph-name="Lcommaaccent" unicode="&#x13b;" horiz-adv-x="334" 
d="M172 667h44l-77 -627h186l-5 -40h-230zM130 -188l64 138l42 -16l-80 -134z" />
    <glyph glyph-name="lcommaaccent" unicode="&#x13c;" horiz-adv-x="184" 
d="M162 729h40l-90 -729h-40zM12 -188l58 138l42 -16l-74 -134z" />
    <glyph glyph-name="Lcaron" unicode="&#x13d;" horiz-adv-x="334" 
d="M172 667h44l-77 -627h186l-5 -40h-230zM296 522l68 158l42 -16l-84 -154z" />
    <glyph glyph-name="lcaron" unicode="&#x13e;" horiz-adv-x="224" 
d="M162 729h40l-90 -729h-40zM214 522l68 158l42 -16l-84 -154z" />
    <glyph glyph-name="Ldot" unicode="&#x13f;" horiz-adv-x="350" 
d="M172 667h44l-77 -627h186l-5 -40h-230zM280 326c0 12 4 25 12 33c4 5 15 14 34 14c11 0 20 -4 26 -10c4 -4 10 -12 10 -25c0 -12 -4 -25 -12 -33c-6 -7 -17 -14 -33 -14c-11 0 -21 4 -27 10s-10 15 -10 25z" />
    <glyph glyph-name="ldot" unicode="&#x140;" horiz-adv-x="366" 
d="M162 729h40l-90 -729h-40zM283 359c0 8 2 20 13 31c6 6 16 13 31 13c11 0 19 -4 25 -9s10 -14 10 -25s-4 -23 -14 -32c-5 -5 -15 -12 -30 -12c-11 0 -19 4 -25 9c-4 4 -10 12 -10 25z" />
    <glyph glyph-name="Lslash" unicode="&#x141;" horiz-adv-x="331" 
d="M172 667h44l-35 -281l108 64l-5 -44l-108 -64l-37 -302h186l-5 -40h-188h-42l39 318l-97 -58l5 44l97 58z" />
    <glyph glyph-name="lslash" unicode="&#x142;" horiz-adv-x="184" 
d="M162 729h40l-31 -249l79 56l-6 -44l-78 -56l-54 -436h-40l51 412l-79 -56l5 44l79 56z" />
    <glyph glyph-name="Nacute" unicode="&#x143;" horiz-adv-x="784" 
d="M134 0h-44l83 674l488 -588l71 581h44l-84 -684l-488 588zM563 854l47 -25l-150 -126l-29 18z" />
    <glyph glyph-name="nacute" unicode="&#x144;" horiz-adv-x="442" 
d="M72 0l50 408h40l-8 -64c14 26 33 42 47 51c24 16 50 22 81 22c47 0 76 -16 92 -32c15 -15 31 -39 31 -81c0 -20 -5 -61 -6 -72l-29 -232h-40l29 238c3 28 5 42 5 54c0 19 -4 43 -22 62c-11 12 -33 25 -69 25c-30 0 -59 -8 -84 -32c-30 -29 -43 -73 -51 -135l-26 -212h-40
zM352 620l40 -25l-121 -128l-28 16z" />
    <glyph glyph-name="Ncommaaccent" unicode="&#x145;" horiz-adv-x="784" 
d="M134 0h-44l83 674l488 -588l71 581h44l-84 -684l-488 588zM312 -188l64 138l42 -16l-80 -134z" />
    <glyph glyph-name="ncommaaccent" unicode="&#x146;" horiz-adv-x="442" 
d="M72 0l50 408h40l-8 -64c14 26 33 42 47 51c24 16 50 22 81 22c47 0 76 -16 92 -32c15 -15 31 -39 31 -81c0 -20 -5 -61 -6 -72l-29 -232h-40l29 238c3 28 5 42 5 54c0 19 -4 43 -22 62c-11 12 -33 25 -69 25c-30 0 -59 -8 -84 -32c-30 -29 -43 -73 -51 -135l-26 -212h-40
zM141 -188l58 138l42 -16l-74 -134z" />
    <glyph glyph-name="Ncaron" unicode="&#x147;" horiz-adv-x="784" 
d="M134 0h-44l83 674l488 -588l71 581h44l-84 -684l-488 588zM487 775l104 64l31 -27l-141 -90l-119 90l37 27z" />
    <glyph glyph-name="ncaron" unicode="&#x148;" horiz-adv-x="442" 
d="M72 0l50 408h40l-8 -64c14 26 33 42 47 51c24 16 50 22 81 22c47 0 76 -16 92 -32c15 -15 31 -39 31 -81c0 -20 -5 -61 -6 -72l-29 -232h-40l29 238c3 28 5 42 5 54c0 19 -4 43 -22 62c-11 12 -33 25 -69 25c-30 0 -59 -8 -84 -32c-30 -29 -43 -73 -51 -135l-26 -212h-40
zM293 517l99 68l29 -26l-134 -94l-110 94l35 26z" />
    <glyph glyph-name="Omacron" unicode="&#x14c;" horiz-adv-x="805" 
d="M479 676c106 0 181 -41 231 -92c59 -61 82 -134 82 -215c0 -97 -28 -195 -112 -277c-80 -78 -169 -103 -267 -103c-87 0 -161 20 -227 85c-37 36 -91 108 -91 222c0 91 37 193 114 271c88 89 191 109 270 109zM407 29c108 0 188 41 240 92c66 66 100 162 100 246
c0 83 -33 149 -76 192c-44 44 -111 77 -196 77c-109 0 -184 -46 -232 -93c-70 -69 -102 -160 -102 -243s32 -147 73 -191c55 -58 121 -80 193 -80zM357 750l5 44h270l-5 -44h-270z" />
    <glyph glyph-name="omacron" unicode="&#x14d;" horiz-adv-x="524" 
d="M300 417c57 0 116 -21 152 -57c30 -30 51 -75 51 -141c0 -78 -30 -135 -67 -170c-33 -31 -85 -60 -167 -60c-55 0 -105 15 -144 56c-32 33 -54 84 -54 142c0 63 26 128 68 169c43 41 104 61 161 61zM275 27c50 0 92 15 126 46c29 27 60 73 60 142c0 67 -32 104 -43 116
c-25 26 -65 48 -122 48c-52 0 -94 -19 -124 -46c-39 -35 -59 -89 -59 -140c0 -48 18 -92 46 -121c20 -21 56 -45 116 -45zM177 493l4 39h270l-4 -39h-270z" />
    <glyph glyph-name="Obreve" unicode="&#x14e;" horiz-adv-x="805" 
d="M479 676c106 0 181 -41 231 -92c59 -61 82 -134 82 -215c0 -97 -28 -195 -112 -277c-80 -78 -169 -103 -267 -103c-87 0 -161 20 -227 85c-37 36 -91 108 -91 222c0 91 37 193 114 271c88 89 191 109 270 109zM407 29c108 0 188 41 240 92c66 66 100 162 100 246
c0 83 -33 149 -76 192c-44 44 -111 77 -196 77c-109 0 -184 -46 -232 -93c-70 -69 -102 -160 -102 -243s32 -147 73 -191c55 -58 121 -80 193 -80zM374 826h40c4 -16 13 -28 23 -36c18 -14 43 -16 58 -16c17 0 41 2 63 16c16 11 25 24 30 36h40c-11 -38 -34 -59 -48 -69
c-25 -17 -58 -25 -89 -25c-46 0 -71 17 -82 26c-14 12 -31 35 -35 68z" />
    <glyph glyph-name="obreve" unicode="&#x14f;" horiz-adv-x="524" 
d="M300 417c57 0 116 -21 152 -57c30 -30 51 -75 51 -141c0 -78 -30 -135 -67 -170c-33 -31 -85 -60 -167 -60c-55 0 -105 15 -144 56c-32 33 -54 84 -54 142c0 63 26 128 68 169c43 41 104 61 161 61zM275 27c50 0 92 15 126 46c29 27 60 73 60 142c0 67 -32 104 -43 116
c-25 26 -65 48 -122 48c-52 0 -94 -19 -124 -46c-39 -35 -59 -89 -59 -140c0 -48 18 -92 46 -121c20 -21 56 -45 116 -45zM196 573h38c2 -11 6 -27 24 -40c19 -14 44 -16 59 -16c21 0 43 4 61 16s26 27 30 40h38c-4 -15 -12 -37 -34 -58c-18 -17 -50 -36 -97 -36
c-32 0 -64 9 -86 28c-12 11 -30 32 -33 66z" />
    <glyph glyph-name="Ohungarumlaut" unicode="&#x150;" horiz-adv-x="805" 
d="M479 676c106 0 181 -41 231 -92c59 -61 82 -134 82 -215c0 -97 -28 -195 -112 -277c-80 -78 -169 -103 -267 -103c-87 0 -161 20 -227 85c-37 36 -91 108 -91 222c0 91 37 193 114 271c88 89 191 109 270 109zM407 29c108 0 188 41 240 92c66 66 100 162 100 246
c0 83 -33 149 -76 192c-44 44 -111 77 -196 77c-109 0 -184 -46 -232 -93c-70 -69 -102 -160 -102 -243s32 -147 73 -191c55 -58 121 -80 193 -80zM495 854l49 -26l-116 -125l-34 15zM616 854l49 -26l-116 -125l-34 15z" />
    <glyph glyph-name="ohungarumlaut" unicode="&#x151;" horiz-adv-x="524" 
d="M300 417c57 0 116 -21 152 -57c30 -30 51 -75 51 -141c0 -78 -30 -135 -67 -170c-33 -31 -85 -60 -167 -60c-55 0 -105 15 -144 56c-32 33 -54 84 -54 142c0 63 26 128 68 169c43 41 104 61 161 61zM275 27c50 0 92 15 126 46c29 27 60 73 60 142c0 67 -32 104 -43 116
c-25 26 -65 48 -122 48c-52 0 -94 -19 -124 -46c-39 -35 -59 -89 -59 -140c0 -48 18 -92 46 -121c20 -21 56 -45 116 -45zM325 620l39 -25l-115 -128l-25 16zM436 620l39 -25l-115 -128l-25 16z" />
    <glyph glyph-name="OE" unicode="&#x152;" horiz-adv-x="1075" 
d="M1103 667l-5 -40h-275l-30 -242h268l-5 -40h-268l-37 -305h275l-5 -40h-319l19 155c-30 -44 -75 -92 -128 -123c-56 -33 -113 -43 -173 -43c-74 0 -163 17 -234 88c-59 59 -92 144 -92 231c0 93 36 194 109 267c69 69 153 101 264 101c48 0 124 -8 190 -52
c34 -23 79 -64 106 -131l21 174h319zM462 636c-108 0 -180 -40 -229 -89c-62 -63 -93 -150 -93 -233c0 -72 26 -152 78 -206c32 -33 94 -79 203 -79c78 0 155 22 221 86c65 62 104 156 104 250c0 83 -36 156 -81 199c-39 37 -105 72 -203 72z" />
    <glyph glyph-name="oe" unicode="&#x153;" horiz-adv-x="873" 
d="M850 201h-349c-7 -48 6 -103 38 -135c20 -21 54 -39 102 -39c46 0 78 16 97 30c32 23 53 58 56 64l30 -20c-20 -31 -53 -67 -80 -84c-28 -18 -70 -28 -107 -28c-49 0 -92 17 -120 44c-4 3 -32 30 -48 77c-26 -46 -60 -73 -85 -88s-66 -33 -122 -33c-52 0 -98 15 -134 52
c-37 38 -57 91 -57 140c0 58 20 124 71 173c44 43 99 63 164 63c53 0 95 -17 124 -39c21 -16 45 -42 59 -81c17 37 42 64 68 83c37 27 73 37 115 37c59 0 102 -20 128 -45c37 -36 59 -100 50 -171zM509 239h301c-1 38 -17 83 -44 108c-21 19 -53 32 -91 32
c-51 0 -87 -20 -113 -46c-25 -26 -44 -61 -53 -94zM303 379c-67 0 -109 -28 -132 -51c-35 -35 -57 -89 -57 -141c0 -48 20 -92 46 -118c19 -19 53 -42 107 -42c34 0 87 8 134 54c43 42 60 97 60 146c0 39 -17 84 -45 111c-24 24 -64 41 -113 41z" />
    <glyph glyph-name="Racute" unicode="&#x154;" horiz-adv-x="470" 
d="M420 0h-50l-177 315h-20l-39 -315h-44l82 667h104c73 0 117 -23 141 -46c35 -34 41 -78 41 -111c0 -70 -26 -114 -53 -140c-46 -44 -117 -55 -164 -55zM211 627l-33 -272h64c75 0 112 23 130 40c23 22 40 62 40 109c0 27 -6 63 -36 90c-34 31 -79 33 -110 33h-55z
M405 854l47 -25l-150 -126l-29 18z" />
    <glyph glyph-name="racute" unicode="&#x155;" horiz-adv-x="260" 
d="M72 0l50 408h40l-6 -53c8 15 22 33 39 44c16 11 38 18 60 18c6 0 23 -1 40 -10l-24 -36c-4 3 -13 8 -29 8c-20 0 -41 -10 -56 -26c-33 -35 -42 -98 -48 -148l-26 -205h-40zM281 620l40 -25l-121 -128l-28 16z" />
    <glyph glyph-name="Rcommaaccent" unicode="&#x156;" horiz-adv-x="470" 
d="M420 0h-50l-177 315h-20l-39 -315h-44l82 667h104c73 0 117 -23 141 -46c35 -34 41 -78 41 -111c0 -70 -26 -114 -53 -140c-46 -44 -117 -55 -164 -55zM211 627l-33 -272h64c75 0 112 23 130 40c23 22 40 62 40 109c0 27 -6 63 -36 90c-34 31 -79 33 -110 33h-55z
M154 -188l64 138l42 -16l-80 -134z" />
    <glyph glyph-name="rcommaaccent" unicode="&#x157;" horiz-adv-x="260" 
d="M72 0l50 408h40l-6 -53c8 15 22 33 39 44c16 11 38 18 60 18c6 0 23 -1 40 -10l-24 -36c-4 3 -13 8 -29 8c-20 0 -41 -10 -56 -26c-33 -35 -42 -98 -48 -148l-26 -205h-40zM38 -188l58 138l42 -16l-74 -134z" />
    <glyph glyph-name="Rcaron" unicode="&#x158;" horiz-adv-x="470" 
d="M420 0h-50l-177 315h-20l-39 -315h-44l82 667h104c73 0 117 -23 141 -46c35 -34 41 -78 41 -111c0 -70 -26 -114 -53 -140c-46 -44 -117 -55 -164 -55zM211 627l-33 -272h64c75 0 112 23 130 40c23 22 40 62 40 109c0 27 -6 63 -36 90c-34 31 -79 33 -110 33h-55z
M305 775l104 64l31 -27l-141 -90l-119 90l37 27z" />
    <glyph glyph-name="rcaron" unicode="&#x159;" horiz-adv-x="260" 
d="M72 0l50 408h40l-6 -53c8 15 22 33 39 44c16 11 38 18 60 18c6 0 23 -1 40 -10l-24 -36c-4 3 -13 8 -29 8c-20 0 -41 -10 -56 -26c-33 -35 -42 -98 -48 -148l-26 -205h-40zM202 517l99 68l29 -26l-134 -94l-110 94l35 26z" />
    <glyph glyph-name="Sacute" unicode="&#x15a;" horiz-adv-x="514" 
d="M497 581l-35 -27c-30 80 -104 82 -119 82c-48 0 -81 -18 -103 -40c-32 -32 -39 -68 -39 -94c0 -29 10 -51 28 -70c22 -24 50 -35 80 -52l33 -18c41 -23 76 -38 102 -65c30 -30 40 -62 40 -101c0 -58 -22 -111 -62 -149c-52 -50 -111 -58 -166 -58c-50 0 -95 10 -134 49
c-25 25 -43 61 -52 94l40 18c2 -7 13 -49 44 -80s69 -41 104 -41c47 0 99 13 132 44c20 19 46 55 46 116c0 33 -8 57 -32 81c-25 25 -62 41 -90 56l-46 25c-22 12 -56 35 -75 55c-24 25 -38 53 -38 94c0 59 28 99 51 122c31 30 75 54 139 54s125 -29 152 -95zM441 854
l47 -25l-150 -126l-29 18z" />
    <glyph glyph-name="sacute" unicode="&#x15b;" horiz-adv-x="342" 
d="M331 351l-36 -18c-4 12 -12 25 -23 33c-3 2 -18 13 -45 13c-29 0 -47 -12 -57 -22c-11 -11 -18 -28 -18 -45c0 -12 4 -26 16 -39c5 -5 16 -14 42 -25l31 -13c39 -16 54 -30 60 -36c22 -23 27 -51 27 -72c0 -49 -22 -80 -36 -95c-21 -22 -57 -43 -112 -43
c-24 0 -64 5 -94 35c-18 18 -31 46 -36 73l40 12c1 -6 5 -35 27 -57c13 -13 33 -25 64 -25c30 0 57 9 75 26c17 17 29 43 29 69c0 18 -5 35 -19 49c-6 6 -19 16 -49 29l-24 10c-21 9 -47 25 -59 37c-16 16 -24 34 -24 59c0 31 11 56 30 75c26 27 56 36 90 36
c20 0 44 -3 66 -18c13 -9 28 -24 35 -48zM301 620l40 -25l-121 -128l-28 16z" />
    <glyph glyph-name="Scircumflex" unicode="&#x15c;" horiz-adv-x="514" 
d="M497 581l-35 -27c-30 80 -104 82 -119 82c-48 0 -81 -18 -103 -40c-32 -32 -39 -68 -39 -94c0 -29 10 -51 28 -70c22 -24 50 -35 80 -52l33 -18c41 -23 76 -38 102 -65c30 -30 40 -62 40 -101c0 -58 -22 -111 -62 -149c-52 -50 -111 -58 -166 -58c-50 0 -95 10 -134 49
c-25 25 -43 61 -52 94l40 18c2 -7 13 -49 44 -80s69 -41 104 -41c47 0 99 13 132 44c20 19 46 55 46 116c0 33 -8 57 -32 81c-25 25 -62 41 -90 56l-46 25c-22 12 -56 35 -75 55c-24 25 -38 53 -38 94c0 59 28 99 51 122c31 30 75 54 139 54s125 -29 152 -95zM367 786
l-104 -64l-31 27l141 90l119 -90l-37 -27z" />
    <glyph glyph-name="scircumflex" unicode="&#x15d;" horiz-adv-x="342" 
d="M331 351l-36 -18c-4 12 -12 25 -23 33c-3 2 -18 13 -45 13c-29 0 -47 -12 -57 -22c-11 -11 -18 -28 -18 -45c0 -12 4 -26 16 -39c5 -5 16 -14 42 -25l31 -13c39 -16 54 -30 60 -36c22 -23 27 -51 27 -72c0 -49 -22 -80 -36 -95c-21 -22 -57 -43 -112 -43
c-24 0 -64 5 -94 35c-18 18 -31 46 -36 73l40 12c1 -6 5 -35 27 -57c13 -13 33 -25 64 -25c30 0 57 9 75 26c17 17 29 43 29 69c0 18 -5 35 -19 49c-6 6 -19 16 -49 29l-24 10c-21 9 -47 25 -59 37c-16 16 -24 34 -24 59c0 31 11 56 30 75c26 27 56 36 90 36
c20 0 44 -3 66 -18c13 -9 28 -24 35 -48zM250 535l-99 -68l-29 25l134 94l110 -94l-35 -25z" />
    <glyph glyph-name="Scedilla" unicode="&#x15e;" horiz-adv-x="514" 
d="M497 581l-35 -27c-30 80 -104 82 -119 82c-48 0 -81 -18 -103 -40c-32 -32 -39 -68 -39 -94c0 -29 10 -51 28 -70c22 -24 50 -35 80 -52l33 -18c41 -23 76 -38 102 -65c30 -30 40 -62 40 -101c0 -58 -22 -111 -62 -149c-52 -50 -111 -58 -166 -58c-50 0 -95 10 -134 49
c-25 25 -43 61 -52 94l40 18c2 -7 13 -49 44 -80s69 -41 104 -41c47 0 99 13 132 44c20 19 46 55 46 116c0 33 -8 57 -32 81c-25 25 -62 41 -90 56l-46 25c-22 12 -56 35 -75 55c-24 25 -38 53 -38 94c0 59 28 99 51 122c31 30 75 54 139 54s125 -29 152 -95zM249 -50
l44 -28l-129 -124l-28 20z" />
    <glyph glyph-name="scedilla" unicode="&#x15f;" horiz-adv-x="342" 
d="M331 351l-36 -18c-4 12 -12 25 -23 33c-3 2 -18 13 -45 13c-29 0 -47 -12 -57 -22c-11 -11 -18 -28 -18 -45c0 -12 4 -26 16 -39c5 -5 16 -14 42 -25l31 -13c39 -16 54 -30 60 -36c22 -23 27 -51 27 -72c0 -49 -22 -80 -36 -95c-21 -22 -57 -43 -112 -43
c-24 0 -64 5 -94 35c-18 18 -31 46 -36 73l40 12c1 -6 5 -35 27 -57c13 -13 33 -25 64 -25c30 0 57 9 75 26c17 17 29 43 29 69c0 18 -5 35 -19 49c-6 6 -19 16 -49 29l-24 10c-21 9 -47 25 -59 37c-16 16 -24 34 -24 59c0 31 11 56 30 75c26 27 56 36 90 36
c20 0 44 -3 66 -18c13 -9 28 -24 35 -48zM173 -50l44 -20l-119 -124l-26 16z" />
    <glyph glyph-name="Scaron" unicode="&#x160;" horiz-adv-x="514" 
d="M497 581l-35 -27c-30 80 -104 82 -119 82c-48 0 -81 -18 -103 -40c-32 -32 -39 -68 -39 -94c0 -29 10 -51 28 -70c22 -24 50 -35 80 -52l33 -18c41 -23 76 -38 102 -65c30 -30 40 -62 40 -101c0 -58 -22 -111 -62 -149c-52 -50 -111 -58 -166 -58c-50 0 -95 10 -134 49
c-25 25 -43 61 -52 94l40 18c2 -7 13 -49 44 -80s69 -41 104 -41c47 0 99 13 132 44c20 19 46 55 46 116c0 33 -8 57 -32 81c-25 25 -62 41 -90 56l-46 25c-22 12 -56 35 -75 55c-24 25 -38 53 -38 94c0 59 28 99 51 122c31 30 75 54 139 54s125 -29 152 -95zM357 775
l104 64l31 -27l-141 -90l-119 90l37 27z" />
    <glyph glyph-name="scaron" unicode="&#x161;" horiz-adv-x="342" 
d="M331 351l-36 -18c-4 12 -12 25 -23 33c-3 2 -18 13 -45 13c-29 0 -47 -12 -57 -22c-11 -11 -18 -28 -18 -45c0 -12 4 -26 16 -39c5 -5 16 -14 42 -25l31 -13c39 -16 54 -30 60 -36c22 -23 27 -51 27 -72c0 -49 -22 -80 -36 -95c-21 -22 -57 -43 -112 -43
c-24 0 -64 5 -94 35c-18 18 -31 46 -36 73l40 12c1 -6 5 -35 27 -57c13 -13 33 -25 64 -25c30 0 57 9 75 26c17 17 29 43 29 69c0 18 -5 35 -19 49c-6 6 -19 16 -49 29l-24 10c-21 9 -47 25 -59 37c-16 16 -24 34 -24 59c0 31 11 56 30 75c26 27 56 36 90 36
c20 0 44 -3 66 -18c13 -9 28 -24 35 -48zM245 517l99 68l29 -26l-134 -94l-110 94l35 26z" />
    <glyph glyph-name="Tcedilla" unicode="&#x162;" horiz-adv-x="418" 
d="M481 627h-173l-77 -627h-44l77 627h-173l5 40h390zM209 -50l44 -28l-129 -124l-28 20z" />
    <glyph glyph-name="tcedilla" unicode="&#x163;" horiz-adv-x="194" 
d="M231 370h-71l-45 -370h-40l45 370h-45l5 38h45l18 146h40l-18 -146h71zM83 -50l44 -20l-119 -124l-26 16z" />
    <glyph glyph-name="Tcaron" unicode="&#x164;" horiz-adv-x="418" 
d="M481 627h-173l-77 -627h-44l77 627h-173l5 40h390zM304 775l104 64l31 -27l-141 -90l-119 90l37 27z" />
    <glyph glyph-name="tcaron" unicode="&#x165;" horiz-adv-x="220" 
d="M231 370h-71l-45 -370h-40l45 370h-45l5 38h45l18 146h40l-18 -146h71zM210 522l68 158l42 -16l-84 -154z" />
    <glyph glyph-name="Utilde" unicode="&#x168;" horiz-adv-x="633" 
d="M171 667h44l-51 -417c-7 -57 -18 -126 35 -178c38 -37 86 -43 124 -43c42 0 101 8 145 52c46 46 54 106 62 169l51 417h44l-51 -417c-7 -60 -15 -137 -78 -199c-55 -54 -118 -62 -174 -62c-46 0 -111 7 -159 55c-53 54 -53 125 -43 206zM303 717l-26 22c7 13 18 29 27 38
c18 18 38 22 53 22c8 0 24 -2 49 -13l24 -11c20 -9 32 -11 41 -11c11 0 18 4 25 11c4 3 12 13 19 27l27 -22c-8 -15 -19 -30 -30 -40c-17 -15 -34 -20 -48 -20c-11 0 -26 3 -52 14l-21 9c-15 6 -28 12 -41 12c-8 0 -19 -3 -29 -12c-7 -6 -14 -17 -18 -26z" />
    <glyph glyph-name="utilde" unicode="&#x169;" horiz-adv-x="437" 
d="M121 408h40l-30 -246c-6 -47 -1 -87 25 -111c18 -16 45 -24 70 -24c36 0 65 13 83 32c13 14 29 42 36 103l30 246h40l-34 -257c-6 -43 -12 -86 -41 -119c-35 -39 -84 -43 -116 -43c-33 0 -72 6 -102 37c-41 43 -35 101 -31 134zM177 487l-24 19c6 12 17 27 27 37
c14 13 28 20 50 20c21 0 35 -7 49 -13l24 -11c12 -6 22 -11 39 -11c11 0 21 3 30 12c5 5 14 20 17 25l23 -20c-7 -15 -20 -31 -32 -41c-17 -14 -34 -16 -45 -16c-15 0 -33 6 -46 12l-24 11c-13 6 -28 12 -43 12c-11 0 -19 -3 -28 -11c-7 -7 -13 -16 -17 -25z" />
    <glyph glyph-name="Umacron" unicode="&#x16a;" horiz-adv-x="633" 
d="M171 667h44l-51 -417c-7 -57 -18 -126 35 -178c38 -37 86 -43 124 -43c42 0 101 8 145 52c46 46 54 106 62 169l51 417h44l-51 -417c-7 -60 -15 -137 -78 -199c-55 -54 -118 -62 -174 -62c-46 0 -111 7 -159 55c-53 54 -53 125 -43 206zM274 750l5 44h270l-5 -44h-270z
" />
    <glyph glyph-name="umacron" unicode="&#x16b;" horiz-adv-x="437" 
d="M121 408h40l-30 -246c-6 -47 -1 -87 25 -111c18 -16 45 -24 70 -24c36 0 65 13 83 32c13 14 29 42 36 103l30 246h40l-34 -257c-6 -43 -12 -86 -41 -119c-35 -39 -84 -43 -116 -43c-33 0 -72 6 -102 37c-41 43 -35 101 -31 134zM145 493l4 39h270l-4 -39h-270z" />
    <glyph glyph-name="Ubreve" unicode="&#x16c;" horiz-adv-x="633" 
d="M171 667h44l-51 -417c-7 -57 -18 -126 35 -178c38 -37 86 -43 124 -43c42 0 101 8 145 52c46 46 54 106 62 169l51 417h44l-51 -417c-7 -60 -15 -137 -78 -199c-55 -54 -118 -62 -174 -62c-46 0 -111 7 -159 55c-53 54 -53 125 -43 206zM291 826h40c4 -16 13 -28 23 -36
c18 -14 43 -16 58 -16c17 0 41 2 63 16c16 11 25 24 30 36h40c-11 -38 -34 -59 -48 -69c-25 -17 -58 -25 -89 -25c-46 0 -71 17 -82 26c-14 12 -31 35 -35 68z" />
    <glyph glyph-name="ubreve" unicode="&#x16d;" horiz-adv-x="437" 
d="M121 408h40l-30 -246c-6 -47 -1 -87 25 -111c18 -16 45 -24 70 -24c36 0 65 13 83 32c13 14 29 42 36 103l30 246h40l-34 -257c-6 -43 -12 -86 -41 -119c-35 -39 -84 -43 -116 -43c-33 0 -72 6 -102 37c-41 43 -35 101 -31 134zM164 573h38c2 -11 6 -27 24 -40
c19 -14 44 -16 59 -16c21 0 43 4 61 16s26 27 30 40h38c-4 -15 -12 -37 -34 -58c-18 -17 -50 -36 -97 -36c-32 0 -64 9 -86 28c-12 11 -30 32 -33 66z" />
    <glyph glyph-name="Uring" unicode="&#x16e;" horiz-adv-x="633" 
d="M171 667h44l-51 -417c-7 -57 -18 -126 35 -178c38 -37 86 -43 124 -43c42 0 101 8 145 52c46 46 54 106 62 169l51 417h44l-51 -417c-7 -60 -15 -137 -78 -199c-55 -54 -118 -62 -174 -62c-46 0 -111 7 -159 55c-53 54 -53 125 -43 206zM333 779c0 21 8 45 25 62
c16 16 41 26 62 26s41 -8 55 -23c11 -12 20 -29 20 -52c0 -30 -15 -50 -25 -60c-14 -14 -35 -25 -62 -25c-22 0 -42 8 -54 20c-9 9 -21 26 -21 52zM373 783c0 -14 6 -22 10 -26c7 -7 18 -11 29 -11c12 0 25 5 32 13c7 7 11 19 11 30c0 14 -5 23 -11 29c-7 6 -17 10 -28 10
c-13 0 -23 -5 -30 -12s-13 -19 -13 -33z" />
    <glyph glyph-name="uring" unicode="&#x16f;" horiz-adv-x="437" 
d="M121 408h40l-30 -246c-6 -47 -1 -87 25 -111c18 -16 45 -24 70 -24c36 0 65 13 83 32c13 14 29 42 36 103l30 246h40l-34 -257c-6 -43 -12 -86 -41 -119c-35 -39 -84 -43 -116 -43c-33 0 -72 6 -102 37c-41 43 -35 101 -31 134zM208 541c0 25 10 44 25 59
c19 19 42 26 62 26c18 0 37 -7 50 -19c16 -15 19 -34 19 -49c0 -28 -11 -48 -24 -62c-18 -18 -39 -24 -62 -24c-17 0 -35 5 -50 19c-13 13 -20 29 -20 50zM245 543c0 -11 4 -19 9 -24c6 -7 16 -11 28 -11c13 0 26 6 33 13c8 8 12 21 12 32c0 10 -3 20 -9 26
c-6 7 -17 11 -28 11c-10 0 -21 -3 -31 -12c-8 -8 -14 -19 -14 -35z" />
    <glyph glyph-name="Uhungarumlaut" unicode="&#x170;" horiz-adv-x="633" 
d="M171 667h44l-51 -417c-7 -57 -18 -126 35 -178c38 -37 86 -43 124 -43c42 0 101 8 145 52c46 46 54 106 62 169l51 417h44l-51 -417c-7 -60 -15 -137 -78 -199c-55 -54 -118 -62 -174 -62c-46 0 -111 7 -159 55c-53 54 -53 125 -43 206zM412 854l49 -26l-116 -125l-34 15
zM533 854l49 -26l-116 -125l-34 15z" />
    <glyph glyph-name="uhungarumlaut" unicode="&#x171;" horiz-adv-x="437" 
d="M121 408h40l-30 -246c-6 -47 -1 -87 25 -111c18 -16 45 -24 70 -24c36 0 65 13 83 32c13 14 29 42 36 103l30 246h40l-34 -257c-6 -43 -12 -86 -41 -119c-35 -39 -84 -43 -116 -43c-33 0 -72 6 -102 37c-41 43 -35 101 -31 134zM294 620l39 -25l-115 -128l-25 16z
M405 620l39 -25l-115 -128l-25 16z" />
    <glyph glyph-name="Uogonek" unicode="&#x172;" horiz-adv-x="633" 
d="M171 667h44l-51 -417c-3 -22 -6 -46 -6 -70c0 -38 8 -76 41 -108c38 -37 86 -43 124 -43c43 0 100 7 145 52c47 47 55 112 61 164c0 2 1 3 52 422h44l-53 -435c-9 -72 -18 -127 -71 -176c-30 -28 -59 -41 -94 -57c-27 -13 -53 -26 -73 -46c-14 -14 -26 -32 -26 -56
c0 -19 9 -29 17 -34c10 -6 25 -9 39 -9c17 0 35 4 51 11l-13 -39c-14 -5 -32 -8 -48 -8c-21 0 -46 5 -63 18c-9 7 -26 23 -26 52c0 26 10 46 20 61c11 16 24 29 41 41c-6 -1 -12 -1 -18 -1c-56 0 -113 24 -145 55c-38 37 -48 84 -48 134c0 24 2 48 5 72z" />
    <glyph glyph-name="uogonek" unicode="&#x173;" horiz-adv-x="437" 
d="M121 408h40l-28 -229c-2 -14 -4 -29 -4 -50s2 -55 27 -78c18 -16 44 -24 70 -24c36 0 65 13 83 32c26 28 32 69 36 103l30 246h40l-34 -257c-4 -30 -8 -59 -21 -85c-14 -29 -35 -49 -54 -64c-15 -13 -30 -23 -49 -44c-14 -15 -29 -37 -29 -60c0 -12 4 -26 20 -35
c11 -6 26 -9 39 -9c10 0 26 2 43 9l-13 -37c-14 -5 -27 -7 -41 -7c-9 0 -39 1 -61 18c-19 14 -25 32 -25 54c0 23 7 40 20 59c10 14 22 27 37 39c-47 -1 -92 3 -125 37c-16 16 -34 46 -34 94c0 20 3 41 6 65z" />
    <glyph glyph-name="Ydieresis" unicode="&#x178;" horiz-adv-x="516" 
d="M233 0l35 285l-172 382h48l151 -337l237 337h52l-272 -382l-35 -285h-44zM409 775c0 13 5 23 13 31c9 9 19 12 28 12c10 0 20 -4 26 -10c5 -6 9 -15 9 -24c0 -12 -6 -23 -13 -30c-8 -8 -19 -12 -31 -12c-9 0 -17 3 -23 9c-8 7 -9 17 -9 24zM223 775c0 13 5 23 13 31
c9 9 19 12 28 12c10 0 20 -4 26 -10c5 -6 9 -15 9 -24c0 -12 -6 -23 -13 -30c-8 -8 -19 -12 -31 -12c-9 0 -17 3 -23 9c-8 7 -9 17 -9 24z" />
    <glyph glyph-name="Zacute" unicode="&#x179;" horiz-adv-x="554" 
d="M599 667l-483 -627h395l-5 -40h-469l483 627h-367l5 40h441zM461 854l47 -25l-150 -126l-29 18z" />
    <glyph glyph-name="zacute" unicode="&#x17a;" horiz-adv-x="452" 
d="M484 408l-375 -370h328l-5 -38h-414l379 370h-282l5 38h364zM371 620l40 -25l-121 -128l-28 16z" />
    <glyph glyph-name="Zdotaccent" unicode="&#x17b;" horiz-adv-x="554" 
d="M599 667l-483 -627h395l-5 -40h-469l483 627h-367l5 40h441zM345 775c0 12 4 25 12 33c4 5 15 14 34 14c11 0 20 -4 26 -10c4 -4 10 -12 10 -25c0 -12 -4 -25 -12 -33c-6 -7 -17 -14 -33 -14c-11 0 -21 4 -27 10s-10 15 -10 25z" />
    <glyph glyph-name="zdotaccent" unicode="&#x17c;" horiz-adv-x="452" 
d="M484 408l-375 -370h328l-5 -38h-414l379 370h-282l5 38h364zM265 522c0 8 2 20 13 31c6 6 16 13 31 13c11 0 19 -4 25 -9s10 -14 10 -25s-4 -23 -14 -32c-5 -5 -15 -12 -30 -12c-11 0 -19 4 -25 9c-4 4 -10 12 -10 25z" />
    <glyph glyph-name="Zcaron" unicode="&#x17d;" horiz-adv-x="554" 
d="M599 667l-483 -627h395l-5 -40h-469l483 627h-367l5 40h441zM385 775l104 64l31 -27l-141 -90l-119 90l37 27z" />
    <glyph glyph-name="zcaron" unicode="&#x17e;" horiz-adv-x="452" 
d="M484 408l-375 -370h328l-5 -38h-414l379 370h-282l5 38h364zM303 517l99 68l29 -26l-134 -94l-110 94l35 26z" />
    <glyph glyph-name="uni018F" unicode="&#x18f;" horiz-adv-x="774" 
d="M92 320h619c16 96 -15 186 -72 241c-51 49 -127 75 -195 75c-11 0 -94 -1 -171 -49c-38 -24 -73 -59 -98 -95l-35 28c29 40 69 79 115 106c51 29 119 50 196 50c83 0 158 -23 221 -84c62 -60 89 -134 89 -225c0 -119 -48 -220 -109 -281c-80 -81 -175 -97 -257 -97
c-80 0 -149 15 -211 75c-59 57 -100 154 -92 256zM702 280h-567c-1 -58 24 -134 73 -182c44 -42 112 -69 190 -69c91 0 153 30 192 60c45 35 96 96 112 191z" />
    <glyph glyph-name="florin" unicode="&#x192;" horiz-adv-x="548" 
d="M190 370l10 38h62l62 235c5 21 13 50 38 72c19 17 42 25 71 25c16 0 35 -2 57 -14l-11 -36c-19 10 -31 12 -45 12c-15 0 -34 -3 -50 -18c-13 -12 -17 -27 -21 -41l-61 -235h101l-10 -38h-101l-103 -397c-17 -66 -36 -93 -51 -106c-16 -14 -41 -27 -77 -27
c-25 0 -48 6 -66 14l11 37c23 -10 39 -13 55 -13c25 0 41 9 50 17c12 11 23 33 37 84l104 391h-62z" />
    <glyph glyph-name="uni01CF" unicode="&#x1cf;" horiz-adv-x="224" 
d="M172 667h44l-82 -667h-44zM208 779l87 60l32 -28l-126 -89l-104 89l38 28z" />
    <glyph glyph-name="uni01D0" unicode="&#x1d0;" horiz-adv-x="184" 
d="M122 408h40l-50 -408h-40zM153 523l78 60l28 -26l-110 -86l-90 86l32 26z" />
    <glyph glyph-name="uni01DD" unicode="&#x1dd;" horiz-adv-x="485" 
d="M72 207h349c6 60 -14 104 -42 132c-22 22 -57 40 -110 40c-34 0 -67 -8 -96 -30c-20 -15 -39 -40 -51 -63l-35 20c15 26 38 55 62 73s64 38 121 38c65 0 114 -24 143 -53c45 -45 51 -103 51 -139c0 -51 -11 -128 -69 -184c-41 -40 -85 -52 -134 -52
c-63 0 -105 21 -133 49c-39 39 -62 107 -56 169zM414 169h-304c2 -43 20 -81 44 -105c34 -33 79 -37 104 -37c33 0 74 7 107 39c24 23 44 61 49 103z" />
    <glyph glyph-name="Gcaron" unicode="&#x1e6;" horiz-adv-x="773" 
d="M473 280l5 40h280c-6 -62 -29 -162 -104 -236c-87 -86 -187 -95 -239 -95c-91 0 -166 25 -230 89c-60 59 -90 131 -90 220c0 119 49 211 111 271c56 55 145 107 273 107c70 0 127 -18 176 -49c23 -15 67 -48 101 -107l-39 -28c-20 35 -50 73 -84 97
c-44 31 -101 47 -156 47c-94 0 -181 -39 -238 -94c-64 -63 -99 -154 -99 -239c0 -81 33 -148 76 -193c49 -51 117 -81 192 -81c85 0 165 33 220 90c30 31 67 84 80 161h-235zM481 775l104 64l31 -27l-141 -90l-119 90l37 27z" />
    <glyph glyph-name="gcaron" unicode="&#x1e7;" horiz-adv-x="520" 
d="M458 408h40l-48 -396c-7 -56 -18 -130 -67 -181c-35 -37 -91 -61 -160 -61c-68 0 -111 24 -135 48c-28 27 -50 73 -51 127h42c1 -33 12 -71 36 -96c19 -20 53 -41 113 -41c66 0 104 26 123 45c39 39 52 105 59 159l7 58c-17 -25 -38 -44 -66 -58c-33 -17 -65 -23 -95 -23
c-53 0 -100 13 -137 52c-29 31 -52 79 -52 143c0 62 21 126 66 172c46 48 97 61 154 61c32 0 73 -4 111 -28c10 -7 32 -23 51 -52zM288 379c-44 0 -87 -15 -119 -45c-36 -34 -58 -92 -58 -150c0 -56 23 -92 43 -114c28 -30 64 -43 112 -43c39 0 81 10 117 47
c34 36 54 92 54 150c0 53 -19 92 -43 115c-25 25 -65 40 -106 40zM313 517l99 68l29 -26l-134 -94l-110 94l35 26z" />
    <glyph glyph-name="AEacute" unicode="&#x1fc;" horiz-adv-x="852" 
d="M523 0l-62 219h-285l-114 -219h-48l351 667h289l12 -40h-275l69 -242h268l12 -40h-268l87 -305h273l13 -40h-322zM197 259h252l-89 314zM597 854l47 -25l-150 -126l-29 18z" />
    <glyph glyph-name="aeacute" unicode="&#x1fd;" horiz-adv-x="795" 
d="M116 340l5 43c56 30 102 34 130 34c46 0 92 -13 121 -40c7 -7 34 -33 41 -79c18 36 42 63 68 82c37 27 73 37 116 37c58 0 101 -20 127 -45c44 -42 58 -112 50 -174h-349c-7 -45 6 -99 38 -132c20 -21 54 -39 102 -39c46 0 78 16 97 30c32 23 53 58 56 64l30 -20
c-20 -31 -52 -66 -80 -84c-32 -21 -67 -28 -101 -28c-36 0 -75 8 -106 27c-19 12 -44 33 -60 69c-20 -45 -53 -67 -72 -76c-32 -16 -70 -20 -102 -20s-78 3 -116 28s-52 59 -52 93c0 26 7 69 52 101c33 24 79 34 126 34c77 0 117 -22 143 -44c6 57 3 113 -32 146
c-25 23 -67 32 -102 32c-39 0 -78 -9 -130 -39zM236 206c-28 0 -76 -2 -108 -32c-18 -17 -27 -39 -27 -58c0 -25 13 -53 40 -70c11 -7 37 -19 86 -19c17 0 69 2 103 27c25 18 37 47 37 74c0 28 -15 47 -41 61c-27 14 -57 17 -90 17zM432 236h302c-1 40 -17 86 -44 111
c-21 19 -53 32 -91 32c-51 0 -87 -20 -113 -46c-25 -26 -45 -62 -54 -97zM528 620l40 -25l-121 -128l-28 16z" />
    <glyph glyph-name="Scommaaccent" unicode="&#x218;" horiz-adv-x="514" 
d="M497 581l-35 -27c-30 80 -104 82 -119 82c-48 0 -81 -18 -103 -40c-32 -32 -39 -68 -39 -94c0 -29 10 -51 28 -70c22 -24 50 -35 80 -52l33 -18c41 -23 76 -38 102 -65c30 -30 40 -62 40 -101c0 -58 -22 -111 -62 -149c-52 -50 -111 -58 -166 -58c-50 0 -95 10 -134 49
c-25 25 -43 61 -52 94l40 18c2 -7 13 -49 44 -80s69 -41 104 -41c47 0 99 13 132 44c20 19 46 55 46 116c0 33 -8 57 -32 81c-25 25 -62 41 -90 56l-46 25c-22 12 -56 35 -75 55c-24 25 -38 53 -38 94c0 59 28 99 51 122c31 30 75 54 139 54s125 -29 152 -95zM170 -188
l64 138l42 -16l-80 -134z" />
    <glyph glyph-name="scommaaccent" unicode="&#x219;" horiz-adv-x="342" 
d="M331 351l-36 -18c-4 12 -12 25 -23 33c-3 2 -18 13 -45 13c-29 0 -47 -12 -57 -22c-11 -11 -18 -28 -18 -45c0 -12 4 -26 16 -39c5 -5 16 -14 42 -25l31 -13c39 -16 54 -30 60 -36c22 -23 27 -51 27 -72c0 -49 -22 -80 -36 -95c-21 -22 -57 -43 -112 -43
c-24 0 -64 5 -94 35c-18 18 -31 46 -36 73l40 12c1 -6 5 -35 27 -57c13 -13 33 -25 64 -25c30 0 57 9 75 26c17 17 29 43 29 69c0 18 -5 35 -19 49c-6 6 -19 16 -49 29l-24 10c-21 9 -47 25 -59 37c-16 16 -24 34 -24 59c0 31 11 56 30 75c26 27 56 36 90 36
c20 0 44 -3 66 -18c13 -9 28 -24 35 -48zM90 -188l58 138l42 -16l-74 -134z" />
    <glyph glyph-name="Tcommaaccent" unicode="&#x21a;" horiz-adv-x="418" 
d="M481 627h-173l-77 -627h-44l77 627h-173l5 40h390zM130 -188l64 138l42 -16l-80 -134z" />
    <glyph glyph-name="tcommaaccent" unicode="&#x21b;" horiz-adv-x="194" 
d="M231 370h-71l-45 -370h-40l45 370h-45l5 38h45l18 146h40l-18 -146h71zM20 -188l58 138l42 -16l-74 -134z" />
    <glyph glyph-name="uni0228" unicode="&#x228;" horiz-adv-x="464" 
d="M492 667l-5 -40h-276l-30 -242h270l-5 -40h-270l-37 -305h276l-5 -40h-278h-42l82 667h320zM250 -50l44 -28l-129 -124l-28 20z" />
    <glyph glyph-name="uni0229" unicode="&#x229;" horiz-adv-x="487" 
d="M463 199h-348c-9 -53 13 -104 41 -132c16 -16 48 -40 103 -40c32 0 69 9 97 29c22 16 42 41 53 64l31 -20c-17 -30 -44 -62 -73 -81c-21 -14 -56 -30 -109 -30s-99 14 -136 54c-36 38 -51 86 -51 139c0 76 28 136 68 176c32 32 79 59 146 59c54 0 99 -19 128 -47
c46 -44 55 -108 50 -171zM121 237h302c-1 43 -19 81 -41 104c-19 20 -50 38 -97 38c-59 0 -97 -28 -117 -49s-39 -52 -47 -93zM257 -50l44 -20l-119 -124l-26 16z" />
    <glyph glyph-name="uni0237" unicode="&#x237;" horiz-adv-x="184" 
d="M122 408h40l-78 -638h-40z" />
    <glyph glyph-name="uni0259" unicode="&#x259;" horiz-adv-x="485" 
d="M72 207h349c6 60 -14 104 -42 132c-22 22 -57 40 -110 40c-34 0 -67 -8 -96 -30c-20 -15 -39 -40 -51 -63l-35 20c15 26 38 55 62 73s64 38 121 38c65 0 114 -24 143 -53c45 -45 51 -103 51 -139c0 -51 -11 -128 -69 -184c-41 -40 -85 -52 -134 -52
c-63 0 -105 21 -133 49c-39 39 -62 107 -56 169zM414 169h-304c2 -43 20 -81 44 -105c34 -33 79 -37 104 -37c33 0 74 7 107 39c24 23 44 61 49 103z" />
    <glyph glyph-name="afii57929" unicode="&#x2bc;" 
d="M256 522l68 158l42 -16l-84 -154z" />
    <glyph glyph-name="circumflex" unicode="&#x2c6;" 
d="M316 535l-99 -68l-29 25l134 94l110 -94l-35 -25z" />
    <glyph glyph-name="caron" unicode="&#x2c7;" 
d="M313 517l99 68l29 -26l-134 -94l-110 94l35 26z" />
    <glyph glyph-name="uni02C9" unicode="&#x2c9;" 
d="M176 493l4 39h270l-4 -39h-270z" />
    <glyph glyph-name="breve" unicode="&#x2d8;" 
d="M195 573h38c2 -11 6 -27 24 -40c19 -14 44 -16 59 -16c21 0 43 4 61 16s26 27 30 40h38c-4 -15 -12 -37 -34 -58c-18 -17 -50 -36 -97 -36c-32 0 -64 9 -86 28c-12 11 -30 32 -33 66z" />
    <glyph glyph-name="dotaccent" unicode="&#x2d9;" 
d="M275 522c0 8 2 20 13 31c6 6 16 13 31 13c11 0 19 -4 25 -9s10 -14 10 -25s-4 -23 -14 -32c-5 -5 -15 -12 -30 -12c-11 0 -19 4 -25 9c-4 4 -10 12 -10 25z" />
    <glyph glyph-name="ring" unicode="&#x2da;" 
d="M239 541c0 25 10 44 25 59c19 19 42 26 62 26c18 0 37 -7 50 -19c16 -15 19 -34 19 -49c0 -28 -11 -48 -24 -62c-18 -18 -39 -24 -62 -24c-17 0 -35 5 -50 19c-13 13 -20 29 -20 50zM276 543c0 -11 4 -19 9 -24c6 -7 16 -11 28 -11c13 0 26 6 33 13c8 8 12 21 12 32
c0 10 -3 20 -9 26c-6 7 -17 11 -28 11c-10 0 -21 -3 -31 -12c-8 -8 -14 -19 -14 -35z" />
    <glyph glyph-name="ogonek" unicode="&#x2db;" 
d="M341 -137l-13 -36c-20 -7 -34 -8 -46 -8c-49 0 -87 28 -87 72c0 28 17 58 37 78c10 10 26 22 42 31h40c-15 -10 -32 -22 -45 -36c-20 -20 -35 -46 -35 -69c0 -12 5 -22 11 -28c12 -12 32 -13 43 -13c9 0 27 1 53 9z" />
    <glyph glyph-name="tilde" unicode="&#x2dc;" 
d="M209 487l-24 19c6 12 17 27 27 37c14 13 28 20 50 20c21 0 35 -7 49 -13l24 -11c12 -6 22 -11 39 -11c11 0 21 3 30 12c5 5 14 20 17 25l23 -20c-7 -15 -20 -31 -32 -41c-17 -14 -34 -16 -45 -16c-15 0 -33 6 -46 12l-24 11c-13 6 -28 12 -43 12c-11 0 -19 -3 -28 -11
c-7 -7 -13 -16 -17 -25z" />
    <glyph glyph-name="hungarumlaut" unicode="&#x2dd;" 
d="M325 620l39 -25l-115 -128l-25 16zM436 620l39 -25l-115 -128l-25 16z" />
    <glyph glyph-name="acutecomb" unicode="&#x301;" horiz-adv-x="2" 
d="M-121 620l40 -25l-121 -128l-28 16z" />
    <glyph glyph-name="uni0394" unicode="&#x394;" horiz-adv-x="628" 
d="M614 0h-600l280 667h40zM314 603l-234 -563h468z" />
    <glyph glyph-name="uni0394" unicode="&#x2206;" horiz-adv-x="628" 
d="M614 0h-600l280 667h40zM314 603l-234 -563h468z" />
    <glyph glyph-name="uni03A9" unicode="&#x3a9;" horiz-adv-x="622" 
d="M28 40h204c-45 23 -82 53 -116 92c-52 60 -88 132 -88 221c0 80 27 168 91 234c69 72 151 89 214 89s145 -17 214 -89c64 -66 91 -154 91 -234c0 -89 -36 -161 -88 -221c-34 -39 -71 -69 -116 -92h204v-40h-256v44c43 23 100 63 138 109c44 53 72 122 72 197
c0 86 -33 161 -79 209c-51 53 -118 77 -180 77s-129 -24 -180 -77c-46 -48 -79 -123 -79 -209c0 -75 28 -144 72 -197c38 -46 95 -86 138 -109v-44h-256v40z" />
    <glyph glyph-name="uni03A9" unicode="&#x2126;" horiz-adv-x="622" 
d="M28 40h204c-45 23 -82 53 -116 92c-52 60 -88 132 -88 221c0 80 27 168 91 234c69 72 151 89 214 89s145 -17 214 -89c64 -66 91 -154 91 -234c0 -89 -36 -161 -88 -221c-34 -39 -71 -69 -116 -92h204v-40h-256v44c43 23 100 63 138 109c44 53 72 122 72 197
c0 86 -33 161 -79 209c-51 53 -118 77 -180 77s-129 -24 -180 -77c-46 -48 -79 -123 -79 -209c0 -75 28 -144 72 -197c38 -46 95 -86 138 -109v-44h-256v40z" />
    <glyph glyph-name="pi" unicode="&#x3c0;" horiz-adv-x="487" 
d="M179 0h-40v370h-72v38h448v-38h-72v-370h-40v370h-224v-370z" />
    <glyph glyph-name="afii10023" unicode="&#x401;" horiz-adv-x="464" 
d="M492 667l-5 -40h-276l-30 -242h270l-5 -40h-270l-37 -305h276l-5 -40h-278h-42l82 667h320zM403 775c0 13 5 23 13 31c9 9 19 12 28 12c10 0 20 -4 26 -10c5 -6 9 -15 9 -24c0 -12 -6 -23 -13 -30c-8 -8 -19 -12 -31 -12c-9 0 -17 3 -23 9c-8 7 -9 17 -9 24zM217 775
c0 13 5 23 13 31c9 9 19 12 28 12c10 0 20 -4 26 -10c5 -6 9 -15 9 -24c0 -12 -6 -23 -13 -30c-8 -8 -19 -12 -31 -12c-9 0 -17 3 -23 9c-8 7 -9 17 -9 24z" />
    <glyph glyph-name="afii10051" unicode="&#x402;" horiz-adv-x="620" 
d="M501 627h-200l-32 -262c45 14 100 23 140 23c71 0 110 -29 129 -46c34 -32 56 -86 56 -149c0 -59 -21 -114 -57 -151c-43 -44 -92 -49 -135 -49c-28 0 -56 3 -84 8l5 40c31 -6 57 -7 73 -7c32 0 74 6 107 37c24 23 44 61 44 122c0 66 -24 100 -36 113
c-19 21 -55 42 -114 42c-40 0 -97 -12 -133 -23l-40 -325h-44l77 627h-166l5 40h410z" />
    <glyph glyph-name="afii10052" unicode="&#x403;" horiz-adv-x="400" 
d="M90 0l82 667h296l-5 -40h-252l-77 -627h-44zM421 854l47 -25l-150 -126l-29 18z" />
    <glyph glyph-name="afii10053" unicode="&#x404;" horiz-adv-x="682" 
d="M700 589l-7 -58c-23 30 -57 59 -89 76c-36 18 -88 29 -128 29c-88 0 -176 -40 -233 -98c-43 -43 -76 -104 -91 -174h442l-5 -40h-444c-7 -87 23 -166 75 -218c48 -48 116 -77 190 -77c49 0 90 10 129 28c42 19 76 44 105 73l-7 -58c-27 -23 -62 -46 -96 -60
c-19 -8 -64 -23 -132 -23c-86 0 -160 25 -222 87c-51 51 -92 126 -92 224c0 88 33 189 118 270c91 87 194 106 268 106s122 -21 136 -27c29 -14 59 -35 83 -60z" />
    <glyph glyph-name="afii10054" unicode="&#x405;" horiz-adv-x="514" 
d="M497 581l-35 -27c-30 80 -104 82 -119 82c-48 0 -81 -18 -103 -40c-32 -32 -39 -68 -39 -94c0 -29 10 -51 28 -70c22 -24 50 -35 80 -52l33 -18c41 -23 76 -38 102 -65c30 -30 40 -62 40 -101c0 -58 -22 -111 -62 -149c-52 -50 -111 -58 -166 -58c-50 0 -95 10 -134 49
c-25 25 -43 61 -52 94l40 18c2 -7 13 -49 44 -80s69 -41 104 -41c47 0 99 13 132 44c20 19 46 55 46 116c0 33 -8 57 -32 81c-25 25 -62 41 -90 56l-46 25c-22 12 -56 35 -75 55c-24 25 -38 53 -38 94c0 59 28 99 51 122c31 30 75 54 139 54s125 -29 152 -95z" />
    <glyph glyph-name="afii10055" unicode="&#x406;" horiz-adv-x="224" 
d="M172 667h44l-82 -667h-44z" />
    <glyph glyph-name="afii10056" unicode="&#x407;" horiz-adv-x="224" 
d="M172 667h44l-82 -667h-44zM234 775c0 13 5 23 13 31c9 9 19 12 28 12c10 0 20 -4 26 -10c5 -6 9 -15 9 -24c0 -12 -6 -23 -13 -30c-8 -8 -19 -12 -31 -12c-9 0 -17 3 -23 9c-8 7 -9 17 -9 24zM106 775c0 13 5 23 13 31c9 9 19 12 28 12c10 0 20 -4 26 -10
c5 -6 9 -15 9 -24c0 -12 -6 -23 -13 -30c-8 -8 -19 -12 -31 -12c-9 0 -17 3 -23 9c-8 7 -9 17 -9 24z" />
    <glyph glyph-name="afii10057" unicode="&#x408;" horiz-adv-x="268" 
d="M216 667h44l-65 -528c-6 -47 -13 -90 -42 -119c-28 -27 -63 -31 -88 -31c-26 0 -49 5 -71 23c-13 10 -27 27 -36 49l34 24c5 -14 15 -31 26 -40c10 -9 26 -16 50 -16c14 0 36 2 53 20c21 21 26 54 29 81z" />
    <glyph glyph-name="afii10058" unicode="&#x409;" horiz-adv-x="924" 
d="M486 0l77 627h-288l-48 -388c-12 -95 -27 -161 -72 -205c-25 -25 -58 -40 -100 -40c-15 0 -29 2 -41 6l5 40c10 -4 21 -6 33 -6c30 0 57 11 76 31c32 33 45 93 55 174l53 428h376l-35 -287h114c45 0 112 -5 159 -45c44 -37 52 -87 52 -126c0 -64 -22 -115 -51 -146
c-48 -51 -127 -63 -210 -63h-110h-45zM572 340l-37 -300h114c45 0 127 7 168 52c27 29 39 79 39 116c0 55 -25 86 -49 103c-39 28 -98 29 -136 29h-99z" />
    <glyph glyph-name="afii10059" unicode="&#x40a;" horiz-adv-x="976" 
d="M664 667l-35 -287h114c45 0 112 -5 159 -45c44 -37 52 -87 52 -126c0 -64 -22 -115 -51 -146c-48 -51 -127 -63 -210 -63h-155l42 340h-404l-42 -340h-44l82 667h44l-35 -287h404l35 287h44zM624 340l-37 -300h114c45 0 127 7 168 52c27 29 39 79 39 116
c0 55 -25 86 -49 103c-39 28 -98 29 -136 29h-99z" />
    <glyph glyph-name="afii10060" unicode="&#x40b;" horiz-adv-x="670" 
d="M501 627h-200l-30 -243h178c44 0 113 -3 151 -42c14 -14 30 -39 30 -80c0 -9 -1 -24 -5 -58l-25 -204h-44l24 194c3 26 5 44 5 59c0 21 -4 43 -23 62c-32 31 -84 29 -140 29h-156l-42 -344h-44l77 627h-166l5 40h410z" />
    <glyph glyph-name="afii10061" unicode="&#x40c;" horiz-adv-x="540" 
d="M216 667l-39 -314l354 314h58l-364 -320l299 -347h-58l-275 318l-20 -17l-37 -301h-44l82 667h44zM441 854l47 -25l-150 -126l-29 18z" />
    <glyph glyph-name="afii10062" unicode="&#x40e;" horiz-adv-x="550" 
d="M96 667h48l178 -432l248 432h48l-387 -667h-46l108 186zM471 822l33 -19c-12 -22 -32 -47 -56 -62c-31 -19 -64 -23 -90 -23c-34 0 -64 7 -90 28c-27 21 -42 52 -44 57l37 19c6 -19 19 -37 34 -47c22 -16 54 -17 68 -17c19 0 47 3 70 19c14 10 29 27 38 45z" />
    <glyph glyph-name="afii10145" unicode="&#x40f;" horiz-adv-x="666" 
d="M90 0l82 667h44l-77 -627h398l77 627h44l-82 -667h-221l-18 -150h-44l18 150h-221z" />
    <glyph glyph-name="afii10017" unicode="&#x410;" horiz-adv-x="586" 
d="M526 0l-62 219h-284l-116 -219h-50l365 687l193 -687h-46zM201 259h252l-86 316z" />
    <glyph glyph-name="afii10018" unicode="&#x411;" horiz-adv-x="536" 
d="M90 0l82 667h321l-5 -40h-277l-30 -247h116c33 0 104 -2 154 -41c48 -38 55 -89 55 -127c0 -82 -31 -128 -53 -151c-58 -59 -147 -61 -188 -61h-131h-44zM176 340l-37 -300h115c40 0 105 2 151 40c35 29 55 76 55 127c0 52 -22 82 -41 98c-33 28 -92 35 -139 35h-104z
" />
    <glyph glyph-name="afii10019" unicode="&#x412;" horiz-adv-x="536" 
d="M90 0l82 667h128c30 0 100 -3 143 -45c24 -23 40 -60 40 -105c0 -18 -2 -85 -51 -132c-17 -17 -35 -26 -47 -31c30 -8 60 -25 80 -45c33 -34 40 -76 40 -109c0 -60 -24 -112 -56 -144c-52 -51 -130 -56 -203 -56h-116h-40zM211 627l-32 -262h96c32 0 83 0 123 40
c23 23 39 60 39 107c0 48 -20 73 -35 86c-30 25 -79 29 -109 29h-82zM174 325l-35 -285h112c71 0 127 6 167 48c24 25 40 64 40 110c0 33 -9 62 -34 86c-37 35 -96 41 -146 41h-104z" />
    <glyph glyph-name="afii10020" unicode="&#x413;" horiz-adv-x="400" 
d="M90 0l82 667h296l-5 -40h-252l-77 -627h-44z" />
    <glyph glyph-name="afii10021" unicode="&#x414;" horiz-adv-x="610" 
d="M226 667h376l-77 -627h76l-21 -174h-42l16 134h-498l-16 -134h-42l21 174c39 7 65 26 81 42c25 24 46 65 58 104c10 33 19 86 23 119zM265 627l-40 -322c-8 -64 -18 -132 -48 -189c-16 -31 -36 -56 -59 -76h363l72 587h-288z" />
    <glyph glyph-name="afii10022" unicode="&#x415;" horiz-adv-x="464" 
d="M492 667l-5 -40h-276l-30 -242h270l-5 -40h-270l-37 -305h276l-5 -40h-278h-42l82 667h320z" />
    <glyph glyph-name="afii10024" unicode="&#x416;" horiz-adv-x="796" 
d="M458 667h44l-39 -314l321 314h58l-337 -323l276 -344h-57l-252 314l-15 -13l-37 -301h-44l37 301l-11 13l-330 -314h-58l360 344l-256 323h57l244 -314z" />
    <glyph glyph-name="afii10025" unicode="&#x417;" horiz-adv-x="555" 
d="M202 554l-29 27c24 34 52 57 79 71c34 19 66 24 101 24c30 0 82 -4 121 -41c29 -28 42 -63 42 -104c0 -38 -11 -79 -32 -107c-17 -22 -46 -44 -75 -57c27 -7 53 -20 72 -39c32 -31 43 -68 43 -112c0 -83 -35 -137 -65 -166c-55 -53 -118 -60 -174 -60
c-53 0 -103 9 -147 45c-30 24 -54 60 -68 95l42 20c10 -27 28 -56 51 -77c27 -25 66 -44 122 -44c62 0 108 22 136 48c35 32 55 80 55 136c0 30 -8 62 -35 87c-36 34 -90 39 -125 39h-60l5 40h43c67 0 104 23 123 40c25 23 43 56 43 105c0 30 -8 63 -37 86
c-24 19 -59 26 -88 26c-35 0 -62 -10 -85 -25c-21 -14 -44 -38 -58 -57z" />
    <glyph glyph-name="afii10026" unicode="&#x418;" horiz-adv-x="700" 
d="M566 0l68 556l-546 -573l84 684h44l-70 -566l547 573l-83 -674h-44z" />
    <glyph glyph-name="afii10027" unicode="&#x419;" horiz-adv-x="700" 
d="M566 0l68 556l-546 -573l84 684h44l-70 -566l547 573l-83 -674h-44zM557 822l33 -19c-12 -22 -32 -47 -56 -62c-31 -19 -64 -23 -90 -23c-34 0 -64 7 -90 28c-27 21 -42 52 -44 57l37 19c6 -19 19 -37 34 -47c22 -16 54 -17 68 -17c19 0 47 3 70 19c14 10 29 27 38 45z
" />
    <glyph glyph-name="afii10028" unicode="&#x41a;" horiz-adv-x="540" 
d="M216 667l-39 -314l354 314h58l-364 -320l299 -347h-58l-275 318l-20 -17l-37 -301h-44l82 667h44z" />
    <glyph glyph-name="afii10029" unicode="&#x41b;" horiz-adv-x="620" 
d="M236 667h376l-82 -667h-44l77 627h-288l-48 -388c-11 -86 -26 -159 -72 -205c-20 -20 -52 -40 -100 -40c-15 0 -29 2 -41 6l5 40c11 -4 22 -6 36 -6c35 0 59 16 73 31c34 35 45 96 55 174z" />
    <glyph glyph-name="afii10030" unicode="&#x41c;" horiz-adv-x="896" 
d="M127 0h-44l161 690l213 -617l365 617l-9 -690h-44l7 536l-331 -560l-193 560z" />
    <glyph glyph-name="afii10031" unicode="&#x41d;" horiz-adv-x="672" 
d="M216 667l-35 -283h404l35 283h44l-82 -667h-44l42 344h-404l-42 -344h-44l82 667h44z" />
    <glyph glyph-name="afii10032" unicode="&#x41e;" horiz-adv-x="805" 
d="M479 676c106 0 181 -41 231 -92c59 -61 82 -134 82 -215c0 -97 -28 -195 -112 -277c-80 -78 -169 -103 -267 -103c-87 0 -161 20 -227 85c-37 36 -91 108 -91 222c0 91 37 193 114 271c88 89 191 109 270 109zM407 29c108 0 188 41 240 92c66 66 100 162 100 246
c0 83 -33 149 -76 192c-44 44 -111 77 -196 77c-109 0 -184 -46 -232 -93c-70 -69 -102 -160 -102 -243s32 -147 73 -191c55 -58 121 -80 193 -80z" />
    <glyph glyph-name="afii10033" unicode="&#x41f;" horiz-adv-x="672" 
d="M172 667h492l-82 -667h-44l77 627h-404l-77 -627h-44z" />
    <glyph glyph-name="afii10034" unicode="&#x420;" horiz-adv-x="448" 
d="M259 317h-86l-39 -317h-44l82 667h129c32 0 93 -4 135 -47c20 -20 41 -55 41 -112c0 -56 -20 -105 -49 -135c-26 -27 -75 -56 -169 -56zM211 627l-33 -270h88c38 0 87 5 123 39c21 20 40 54 40 110c0 25 -4 55 -29 82c-36 39 -80 39 -118 39h-71z" />
    <glyph glyph-name="afii10035" unicode="&#x421;" horiz-adv-x="682" 
d="M700 589l-7 -58c-7 9 -40 50 -89 76c-52 27 -109 29 -124 29c-78 0 -168 -29 -237 -98c-66 -66 -100 -158 -100 -240c0 -74 30 -144 77 -192s116 -77 190 -77c49 0 90 10 129 28c42 19 76 44 105 73l-7 -58c-27 -23 -62 -46 -96 -60c-19 -8 -64 -23 -132 -23
c-86 0 -160 25 -222 87c-51 51 -92 126 -92 224c0 88 33 189 118 270c91 87 194 106 268 106s122 -21 136 -27c29 -14 59 -35 83 -60z" />
    <glyph glyph-name="afii10036" unicode="&#x422;" horiz-adv-x="418" 
d="M481 627h-173l-77 -627h-44l77 627h-173l5 40h390z" />
    <glyph glyph-name="afii10037" unicode="&#x423;" horiz-adv-x="550" 
d="M96 667h48l178 -432l248 432h48l-387 -667h-46l108 186z" />
    <glyph glyph-name="afii10038" unicode="&#x424;" horiz-adv-x="824" 
d="M389 0l12 94h-9c-84 0 -164 20 -215 60c-38 30 -80 84 -80 174c0 78 30 155 81 205c77 74 180 81 258 81h28l10 80h44l-10 -80h19c81 0 158 -19 208 -59c67 -54 78 -131 78 -182c0 -103 -39 -164 -73 -197c-63 -61 -162 -82 -269 -82h-26l-12 -94h-44zM405 134l54 440
h-30c-64 0 -146 -6 -211 -64c-44 -40 -76 -106 -76 -179c0 -79 41 -124 71 -147c45 -34 118 -50 180 -50h12zM503 574l-54 -440h27c94 0 181 18 234 75c28 30 56 83 56 162c0 58 -14 118 -77 161c-58 40 -139 42 -167 42h-19z" />
    <glyph glyph-name="afii10039" unicode="&#x425;" horiz-adv-x="470" 
d="M23 0l225 340l-135 327h46l116 -285l187 285h50l-214 -327l141 -340h-46l-124 300l-196 -300h-50z" />
    <glyph glyph-name="afii10040" unicode="&#x426;" horiz-adv-x="666" 
d="M90 0l82 667h44l-77 -627h398l77 627h44l-77 -627h76l-21 -174h-42l16 134h-520z" />
    <glyph glyph-name="afii10041" unicode="&#x427;" horiz-adv-x="579" 
d="M445 0l37 303c-46 -7 -93 -10 -140 -10c-95 0 -136 14 -158 25c-45 23 -61 57 -61 101c0 16 2 32 7 75l21 173h44l-22 -180c-3 -25 -6 -43 -6 -58c0 -40 17 -63 51 -78c35 -16 100 -18 130 -18c43 0 98 5 139 10l40 324h44l-82 -667h-44z" />
    <glyph glyph-name="afii10042" unicode="&#x428;" horiz-adv-x="920" 
d="M90 0l82 667h44l-77 -627h304l77 627h44l-77 -627h304l77 627h44l-82 -667h-740z" />
    <glyph glyph-name="afii10043" unicode="&#x429;" horiz-adv-x="920" 
d="M90 0l82 667h44l-77 -627h304l77 627h44l-77 -627h304l77 627h44l-77 -627h76l-21 -174h-42l16 134h-774z" />
    <glyph glyph-name="afii10044" unicode="&#x42a;" horiz-adv-x="612" 
d="M174 0l77 627h-160l5 40h204l-35 -287h114c45 0 112 -5 159 -45c44 -37 52 -87 52 -126c0 -64 -22 -115 -51 -146c-48 -51 -127 -63 -210 -63h-113h-42zM260 340l-37 -300h114c45 0 127 7 168 52c27 29 39 79 39 116c0 55 -25 86 -49 103c-39 28 -98 29 -136 29h-99z" />
    <glyph glyph-name="afii10045" unicode="&#x42b;" horiz-adv-x="690" 
d="M638 667h44l-82 -667h-44zM90 0l82 667h44l-35 -287h114c45 0 112 -5 159 -45c44 -37 52 -87 52 -126c0 -64 -22 -115 -51 -146c-48 -51 -127 -63 -210 -63h-155zM176 340l-37 -300h114c45 0 127 7 168 52c27 29 39 79 39 116c0 55 -25 86 -49 103c-39 28 -98 29 -136 29
h-99z" />
    <glyph glyph-name="afii10046" unicode="&#x42c;" horiz-adv-x="528" 
d="M90 0l82 667h44l-35 -287h114c45 0 112 -5 159 -45c44 -37 52 -87 52 -126c0 -64 -22 -115 -51 -146c-48 -51 -127 -63 -210 -63h-155zM176 340l-37 -300h114c45 0 127 7 168 52c27 29 39 79 39 116c0 55 -25 86 -49 103c-39 28 -98 29 -136 29h-99z" />
    <glyph glyph-name="afii10047" unicode="&#x42d;" horiz-adv-x="680" 
d="M63 72l7 58c31 -38 65 -60 90 -73c42 -21 81 -28 129 -28c75 0 162 15 233 84c48 47 88 122 96 211h-444l5 40h442c4 110 -53 176 -83 204c-49 45 -117 68 -183 68c-44 0 -93 -12 -126 -27c-32 -15 -78 -47 -110 -78l7 58c29 23 63 44 92 57c42 19 89 30 142 30
c105 0 174 -40 215 -79c77 -72 92 -158 92 -226c0 -124 -43 -214 -103 -277c-76 -79 -162 -105 -271 -105c-47 0 -100 5 -149 28c-25 12 -57 34 -81 55z" />
    <glyph glyph-name="afii10048" unicode="&#x42e;" horiz-adv-x="964" 
d="M180 372h101c16 86 56 153 99 198c54 56 141 106 256 106c93 0 175 -34 229 -88c50 -49 86 -120 86 -221c0 -131 -54 -219 -112 -275c-77 -75 -167 -103 -255 -103c-83 0 -158 24 -220 85c-86 86 -94 195 -89 258h-100l-41 -332h-44l82 667h44zM589 29
c104 0 175 48 217 90c67 67 100 161 100 243c0 81 -31 152 -75 197c-46 47 -115 77 -195 77c-71 0 -149 -20 -217 -88c-69 -69 -100 -162 -100 -239c0 -73 31 -155 80 -205c37 -38 100 -75 190 -75z" />
    <glyph glyph-name="afii10049" unicode="&#x42f;" horiz-adv-x="470" 
d="M34 0l239 299c-45 2 -91 21 -119 49c-21 21 -43 58 -43 116c0 64 25 114 59 147c46 45 107 56 178 56h114l-82 -667h-44l37 299h-48l-237 -299h-54zM413 627h-52c-58 0 -116 -2 -160 -48c-14 -14 -43 -50 -43 -111c0 -48 19 -78 37 -95c22 -20 60 -34 108 -34h75z" />
    <glyph glyph-name="afii10065" unicode="&#x430;" horiz-adv-x="518" 
d="M446 328l10 80h40l-50 -408h-40l8 63c-16 -22 -36 -41 -60 -53s-55 -21 -94 -21c-47 0 -92 11 -130 47c-25 23 -59 69 -59 148c0 67 23 133 69 177c30 29 77 56 151 56c32 0 68 -6 99 -27c24 -16 44 -39 56 -62zM283 379c-45 0 -84 -14 -115 -45
c-33 -33 -55 -89 -55 -147c0 -52 20 -96 47 -122c34 -32 75 -38 104 -38c38 0 68 9 97 30c60 44 74 120 74 164c0 49 -16 91 -42 117c-17 18 -51 41 -110 41z" />
    <glyph glyph-name="afii10066" unicode="&#x431;" horiz-adv-x="526" 
d="M128 311h2c16 26 39 54 68 73c39 26 79 33 118 33c35 0 97 -5 142 -50c23 -23 50 -64 50 -133c0 -72 -27 -141 -74 -185c-32 -30 -84 -60 -167 -60c-39 0 -96 7 -138 51c-32 34 -52 88 -52 154c0 57 18 147 32 195c10 35 36 107 88 160c53 54 114 69 199 85
c75 14 103 21 117 56h50c-13 -36 -34 -58 -81 -76c-45 -17 -75 -17 -139 -34c-47 -12 -93 -32 -128 -69c-44 -47 -75 -134 -87 -200zM273 27c55 0 101 20 132 50c39 38 59 96 59 150c0 51 -17 89 -46 116c-30 28 -65 36 -101 36c-41 0 -95 -9 -140 -57
c-33 -35 -55 -88 -55 -142c0 -45 16 -85 42 -112c20 -21 54 -41 109 -41z" />
    <glyph glyph-name="afii10067" unicode="&#x432;" horiz-adv-x="415" 
d="M122 408h116c29 0 74 -1 104 -29c15 -14 25 -35 25 -64c0 -19 -4 -43 -14 -59c-7 -12 -20 -27 -43 -35c18 -5 38 -15 50 -27c17 -18 23 -40 23 -63c0 -38 -12 -70 -32 -91c-32 -34 -78 -40 -137 -40h-102h-40zM140 230h86c23 0 54 2 75 19c15 12 25 31 25 56
c0 26 -12 42 -22 50c-6 4 -23 15 -70 15h-77zM117 38h115c24 0 59 1 84 24c16 15 25 40 25 65c0 23 -11 38 -21 46c-17 14 -46 19 -69 19h-115z" />
    <glyph glyph-name="afii10068" unicode="&#x433;" horiz-adv-x="300" 
d="M72 0l50 408h220l-5 -38h-180l-45 -370h-40z" />
    <glyph glyph-name="afii10069" unicode="&#x434;" horiz-adv-x="440" 
d="M150 408h268l-45 -370h60l-19 -148h-38l14 110h-344l-14 -110h-38l19 148c25 5 58 18 80 52c11 17 24 46 32 112zM333 38l40 332h-188l-22 -180c-4 -31 -12 -71 -24 -95c-10 -20 -27 -41 -46 -57h240z" />
    <glyph glyph-name="afii10070" unicode="&#x435;" horiz-adv-x="487" 
d="M463 199h-348c-9 -53 13 -104 41 -132c16 -16 48 -40 103 -40c32 0 69 9 97 29c22 16 42 41 53 64l31 -20c-17 -30 -44 -62 -73 -81c-21 -14 -56 -30 -109 -30s-99 14 -136 54c-36 38 -51 86 -51 139c0 76 28 136 68 176c32 32 79 59 146 59c54 0 99 -19 128 -47
c46 -44 55 -108 50 -171zM121 237h302c-1 43 -19 81 -41 104c-19 20 -50 38 -97 38c-59 0 -97 -28 -117 -49s-39 -52 -47 -93z" />
    <glyph glyph-name="afii10072" unicode="&#x436;" horiz-adv-x="560" 
d="M310 408h40l-24 -194l208 194h52l-214 -196l180 -212h-52l-155 187l-25 -21l-20 -166h-40l20 166l-17 20l-201 -186h-54l232 212l-166 196h50l163 -194z" />
    <glyph glyph-name="afii10073" unicode="&#x437;" horiz-adv-x="399" 
d="M143 322l-31 23c15 21 34 39 54 51c24 15 50 21 80 21c43 0 71 -15 88 -31c13 -13 27 -35 27 -71c0 -18 -5 -38 -14 -54s-24 -30 -44 -39c16 -6 32 -17 44 -31c17 -21 21 -45 21 -63c0 -46 -19 -79 -40 -99c-37 -35 -84 -40 -120 -40c-25 0 -66 4 -98 26
c-22 15 -42 41 -54 64l37 23c8 -19 22 -38 38 -51c26 -21 52 -24 80 -24c24 0 59 3 85 26c18 16 30 42 30 73c0 13 -4 35 -23 51c-22 19 -55 21 -81 21h-33l5 38h17c23 0 56 0 81 19c17 13 28 33 28 60c0 18 -6 33 -21 46c-18 15 -39 18 -57 18c-20 0 -42 -3 -64 -19
c-12 -9 -26 -24 -35 -38z" />
    <glyph glyph-name="afii10074" unicode="&#x438;" horiz-adv-x="474" 
d="M122 408h40l-40 -329l333 352l-53 -431h-40l40 327l-333 -352z" />
    <glyph glyph-name="afii10075" unicode="&#x439;" horiz-adv-x="474" 
d="M122 408h40l-40 -329l333 352l-53 -431h-40l40 327l-333 -352zM182 573l35 17c4 -18 14 -39 28 -52c19 -17 42 -21 63 -21c22 0 50 4 71 23c13 12 25 32 30 50l33 -17c-13 -40 -38 -61 -46 -67c-30 -23 -63 -27 -89 -27c-31 0 -64 7 -91 33c-16 16 -28 38 -34 61z" />
    <glyph glyph-name="afii10076" unicode="&#x43a;" horiz-adv-x="396" 
d="M122 408h40l-24 -194l230 194h54l-234 -194l198 -214h-56l-173 187l-25 -21l-20 -166h-40z" />
    <glyph glyph-name="afii10077" unicode="&#x43b;" horiz-adv-x="430" 
d="M408 408l-50 -408h-40l45 370h-188l-28 -230c-6 -46 -12 -84 -43 -113c-32 -31 -71 -32 -96 -27l5 38c4 -1 11 -2 18 -2c18 0 35 7 47 19c19 19 24 51 28 83l34 270h268z" />
    <glyph glyph-name="afii10078" unicode="&#x43c;" horiz-adv-x="566" 
d="M24 0l149 433l118 -368l208 368l43 -433h-42l-27 319l-193 -344l-109 344l-105 -319h-42z" />
    <glyph glyph-name="afii10079" unicode="&#x43d;" horiz-adv-x="454" 
d="M72 0l50 408h40l-22 -180h230l22 180h40l-50 -408h-40l23 190h-230l-23 -190h-40z" />
    <glyph glyph-name="afii10080" unicode="&#x43e;" horiz-adv-x="524" 
d="M300 417c57 0 116 -21 152 -57c30 -30 51 -75 51 -141c0 -78 -30 -135 -67 -170c-33 -31 -85 -60 -167 -60c-55 0 -105 15 -144 56c-32 33 -54 84 -54 142c0 63 26 128 68 169c43 41 104 61 161 61zM275 27c50 0 92 15 126 46c29 27 60 73 60 142c0 67 -32 104 -43 116
c-25 26 -65 48 -122 48c-52 0 -94 -19 -124 -46c-39 -35 -59 -89 -59 -140c0 -48 18 -92 46 -121c20 -21 56 -45 116 -45z" />
    <glyph glyph-name="afii10081" unicode="&#x43f;" horiz-adv-x="448" 
d="M72 0l50 408h304l-50 -408h-40l45 370h-224l-45 -370h-40z" />
    <glyph glyph-name="afii10082" unicode="&#x440;" horiz-adv-x="518" 
d="M121 73l-36 -303h-40l77 638h40l-9 -71c12 18 31 38 61 55c32 18 66 25 102 25c64 0 107 -25 132 -50c24 -25 49 -67 49 -136c0 -81 -28 -143 -69 -183c-26 -26 -74 -59 -148 -59c-37 0 -75 10 -105 29c-30 20 -49 47 -54 55zM279 27c58 0 95 20 117 40
c35 32 59 89 59 157c0 53 -18 91 -45 117c-15 15 -47 38 -98 38c-49 0 -92 -19 -122 -49c-33 -33 -56 -87 -56 -149c0 -59 23 -94 45 -116c29 -28 62 -38 100 -38z" />
    <glyph glyph-name="afii10083" unicode="&#x441;" horiz-adv-x="444" 
d="M446 365l-7 -53c-15 17 -36 35 -56 46c-22 12 -49 21 -81 21c-76 0 -120 -37 -135 -53c-38 -38 -54 -94 -54 -140c0 -40 15 -84 42 -114c35 -38 81 -45 115 -45c33 0 57 5 84 19c30 16 50 36 64 54l-7 -58c-16 -13 -38 -28 -58 -37c-33 -14 -69 -16 -85 -16
c-70 0 -114 24 -144 54c-30 31 -53 79 -53 143c0 74 31 134 68 170c38 37 93 61 162 61c46 0 79 -14 89 -18c19 -8 39 -21 56 -34z" />
    <glyph glyph-name="afii10084" unicode="&#x442;" horiz-adv-x="340" 
d="M150 0l45 370h-142l5 38h324l-5 -38h-142l-45 -370h-40z" />
    <glyph glyph-name="afii10085" unicode="&#x443;" horiz-adv-x="428" 
d="M78 -230l123 223l-143 415h44l127 -363l193 363h48l-346 -638h-46z" />
    <glyph glyph-name="afii10086" unicode="&#x444;" horiz-adv-x="605" 
d="M255 -230l27 223c-95 4 -141 41 -164 65c-34 37 -47 77 -47 123c0 75 28 132 62 166c59 59 149 67 201 67l31 253h40l-31 -253c54 -2 122 -20 165 -67c37 -41 45 -88 45 -125c0 -78 -28 -133 -63 -167c-62 -59 -158 -62 -199 -62l-27 -223h-40zM287 31l42 345
c-47 0 -116 -8 -163 -53c-22 -20 -53 -62 -53 -133c0 -50 18 -81 33 -100c43 -53 121 -58 141 -59zM369 376l-42 -345c64 1 125 13 165 53c28 28 50 75 50 134c0 55 -21 89 -41 109c-29 29 -80 49 -132 49z" />
    <glyph glyph-name="afii10087" unicode="&#x445;" horiz-adv-x="398" 
d="M8 0l191 214l-127 194h47l108 -168l148 168h49l-172 -194l138 -214h-47l-120 188l-166 -188h-49z" />
    <glyph glyph-name="afii10088" unicode="&#x446;" horiz-adv-x="444" 
d="M72 0l50 408h40l-45 -370h220l45 370h40l-45 -370h60l-19 -148h-38l14 110h-322z" />
    <glyph glyph-name="afii10089" unicode="&#x447;" horiz-adv-x="412" 
d="M300 0l21 169c-26 -6 -63 -10 -90 -10c-39 0 -92 6 -119 34c-24 25 -22 53 -17 92l15 123h40l-15 -123c-4 -31 -6 -58 23 -75c11 -6 29 -13 71 -13c56 0 83 6 96 10l25 201h40l-50 -408h-40z" />
    <glyph glyph-name="afii10090" unicode="&#x448;" horiz-adv-x="644" 
d="M72 0l50 408h40l-45 -370h190l45 370h40l-45 -370h190l45 370h40l-50 -408h-500z" />
    <glyph glyph-name="afii10091" unicode="&#x449;" horiz-adv-x="644" 
d="M72 0l50 408h40l-45 -370h190l45 370h40l-45 -370h190l45 370h40l-45 -370h60l-19 -148h-38l14 110h-522z" />
    <glyph glyph-name="afii10092" unicode="&#x44a;" horiz-adv-x="417" 
d="M58 408h140l-21 -170h86c21 0 69 -2 101 -32c26 -25 30 -60 30 -79c0 -44 -16 -72 -31 -87c-24 -24 -66 -40 -133 -40h-82h-40l45 370h-100zM153 38h92c15 0 55 2 80 22c13 11 27 31 27 64c0 30 -12 48 -23 57c-22 18 -61 19 -71 19h-85z" />
    <glyph glyph-name="afii10093" unicode="&#x44b;" 
d="M438 408h40l-50 -408h-40zM121 408h41l-21 -170h86c21 0 69 -2 101 -32c26 -25 30 -60 30 -79c0 -44 -16 -72 -31 -87c-24 -24 -66 -40 -133 -40h-122zM117 38h92c15 0 55 2 80 22c13 11 27 31 27 64c0 30 -12 48 -23 57c-22 18 -61 19 -71 19h-85z" />
    <glyph glyph-name="afii10094" unicode="&#x44c;" horiz-adv-x="381" 
d="M121 408h41l-21 -170h86c21 0 69 -2 101 -32c26 -25 30 -60 30 -79c0 -44 -16 -72 -31 -87c-24 -24 -66 -40 -133 -40h-122zM117 38h92c15 0 55 2 80 22c13 11 27 31 27 64c0 30 -12 48 -23 57c-22 18 -61 19 -71 19h-85z" />
    <glyph glyph-name="afii10095" unicode="&#x44d;" horiz-adv-x="409" 
d="M39 15l5 42c41 -28 79 -30 108 -30c37 0 81 5 121 35c32 24 64 68 71 128h-241l5 38h239c-1 43 -17 81 -40 105c-22 23 -61 46 -127 46c-28 0 -61 -3 -100 -24l5 40c36 17 73 22 104 22c62 0 112 -21 144 -51c26 -25 55 -70 55 -140c0 -45 -12 -122 -69 -178
c-33 -33 -81 -59 -163 -59c-32 0 -77 5 -117 26z" />
    <glyph glyph-name="afii10096" unicode="&#x44e;" horiz-adv-x="642" 
d="M140 228h68c8 60 37 103 64 130c42 41 91 59 153 59c74 0 119 -28 145 -54c41 -42 51 -95 51 -143c0 -82 -30 -136 -67 -172c-35 -34 -84 -59 -154 -59c-72 0 -116 29 -141 54c-32 33 -55 88 -55 147h-69l-23 -190h-40l50 408h40zM406 27c45 0 84 16 117 48
c27 26 56 71 56 140c0 54 -20 93 -43 118c-21 23 -57 46 -112 46s-95 -22 -120 -46c-37 -35 -58 -89 -58 -140c0 -48 18 -92 46 -121c20 -21 56 -45 114 -45z" />
    <glyph glyph-name="afii10097" unicode="&#x44f;" horiz-adv-x="386" 
d="M28 0l152 178c-25 3 -55 14 -74 32c-16 15 -28 38 -28 72c0 38 14 70 34 90c35 35 87 36 118 36h134l-50 -408h-40l22 176h-68l-150 -176h-50zM300 214l19 156h-96c-26 0 -56 -3 -78 -24c-8 -7 -23 -26 -23 -62c0 -19 5 -40 25 -54c21 -15 51 -16 74 -16h79z" />
    <glyph glyph-name="afii10071" unicode="&#x451;" horiz-adv-x="487" 
d="M463 199h-348c-9 -53 13 -104 41 -132c16 -16 48 -40 103 -40c32 0 69 9 97 29c22 16 42 41 53 64l31 -20c-17 -30 -44 -62 -73 -81c-21 -14 -56 -30 -109 -30s-99 14 -136 54c-36 38 -51 86 -51 139c0 76 28 136 68 176c32 32 79 59 146 59c54 0 99 -19 128 -47
c46 -44 55 -108 50 -171zM121 237h302c-1 43 -19 81 -41 104c-19 20 -50 38 -97 38c-59 0 -97 -28 -117 -49s-39 -52 -47 -93zM356 523c0 8 3 18 12 27s19 12 29 12s19 -4 24 -10c4 -5 8 -12 8 -22c0 -11 -4 -20 -11 -27c-11 -12 -23 -13 -30 -13c-8 0 -16 3 -22 9
c-7 7 -10 16 -10 24zM190 523c0 8 3 18 12 27s19 12 29 12s19 -4 24 -10c4 -5 8 -12 8 -22c0 -11 -4 -20 -11 -27c-11 -12 -23 -13 -30 -13c-8 0 -16 3 -22 9c-7 7 -10 16 -10 24z" />
    <glyph glyph-name="afii10099" unicode="&#x452;" horiz-adv-x="442" 
d="M72 0l64 522h-100l5 38h100l21 169h40l-21 -169h180l-5 -38h-180l-27 -218c24 34 66 73 134 73c64 0 94 -33 106 -57c8 -17 11 -38 11 -60c0 -14 -1 -28 -3 -43l-38 -308c-6 -46 -11 -90 -49 -118c-22 -16 -45 -21 -71 -21c-16 0 -28 2 -39 6l5 37c10 -4 18 -5 32 -5
c15 0 37 1 54 18c21 21 25 56 29 91l37 300c1 7 2 21 2 35c0 16 -2 34 -8 47c-7 15 -28 40 -75 40c-56 0 -89 -31 -107 -57c-15 -22 -29 -55 -36 -110l-21 -172h-40z" />
    <glyph glyph-name="afii10100" unicode="&#x453;" horiz-adv-x="300" 
d="M72 0l50 408h220l-5 -38h-180l-45 -370h-40zM311 620l40 -25l-121 -128l-28 16z" />
    <glyph glyph-name="afii10101" unicode="&#x454;" horiz-adv-x="444" 
d="M446 365l-7 -53c-17 20 -37 36 -61 48c-27 14 -51 19 -79 19c-64 0 -106 -27 -132 -53c-19 -20 -41 -51 -48 -98h238l-5 -38h-238c-2 -47 15 -90 41 -118c31 -33 72 -45 114 -45c31 0 58 5 85 19c34 18 55 43 64 54l-7 -58c-16 -13 -38 -28 -58 -37
c-33 -14 -69 -16 -85 -16c-70 0 -114 24 -144 54c-30 31 -53 79 -53 143c0 75 31 133 68 170c28 27 79 61 161 61c32 0 64 -7 90 -18c19 -8 39 -21 56 -34z" />
    <glyph glyph-name="afii10102" unicode="&#x455;" horiz-adv-x="342" 
d="M331 351l-36 -18c-4 12 -12 25 -23 33c-3 2 -18 13 -45 13c-29 0 -47 -12 -57 -22c-11 -11 -18 -28 -18 -45c0 -12 4 -26 16 -39c5 -5 16 -14 42 -25l31 -13c39 -16 54 -30 60 -36c22 -23 27 -51 27 -72c0 -49 -22 -80 -36 -95c-21 -22 -57 -43 -112 -43
c-24 0 -64 5 -94 35c-18 18 -31 46 -36 73l40 12c1 -6 5 -35 27 -57c13 -13 33 -25 64 -25c30 0 57 9 75 26c17 17 29 43 29 69c0 18 -5 35 -19 49c-6 6 -19 16 -49 29l-24 10c-21 9 -47 25 -59 37c-16 16 -24 34 -24 59c0 31 11 56 30 75c26 27 56 36 90 36
c20 0 44 -3 66 -18c13 -9 28 -24 35 -48z" />
    <glyph glyph-name="afii10103" unicode="&#x456;" horiz-adv-x="184" 
d="M122 408h40l-50 -408h-40zM154 507c-13 0 -20 6 -23 9c-4 4 -8 11 -8 22c0 14 5 25 13 32c9 9 20 11 27 11c11 0 19 -5 23 -9c7 -7 9 -16 9 -23c0 -11 -3 -21 -12 -30c-8 -8 -17 -12 -29 -12z" />
    <glyph glyph-name="afii10104" unicode="&#x457;" horiz-adv-x="184" 
d="M121 408h40l-50 -408h-40zM169 541c0 13 6 23 12 29c7 7 16 11 28 11c6 0 16 -1 24 -10c6 -7 8 -15 8 -22c0 -15 -6 -24 -12 -30c-7 -7 -17 -10 -26 -10s-19 4 -25 9c-4 4 -9 12 -9 23zM73 541c0 13 6 23 12 29c7 7 16 11 28 11c6 0 16 -1 24 -10c6 -7 8 -15 8 -22
c0 -15 -6 -24 -12 -30c-7 -7 -17 -10 -26 -10s-19 4 -25 9c-4 4 -9 12 -9 23z" />
    <glyph glyph-name="afii10105" unicode="&#x458;" horiz-adv-x="184" 
d="M122 408h40l-79 -638h-40zM154 507c-13 0 -20 6 -23 9c-4 4 -8 11 -8 22c0 14 5 25 13 32c9 9 20 11 27 11c11 0 19 -5 23 -9c7 -7 9 -16 9 -23c0 -11 -3 -21 -12 -30c-8 -8 -17 -12 -29 -12z" />
    <glyph glyph-name="afii10106" unicode="&#x459;" horiz-adv-x="627" 
d="M387 238h86c21 0 69 -2 101 -32c26 -25 30 -60 30 -79c0 -44 -16 -72 -31 -87c-24 -24 -66 -40 -133 -40h-82h-40l44 370h-187l-31 -249c-4 -31 -10 -72 -45 -100c-14 -11 -36 -23 -68 -23c-10 0 -18 1 -23 2l5 38c18 -4 41 -3 60 12c25 20 29 54 33 84l34 274h40h228z
M363 38h92c15 0 55 2 80 22c13 11 27 31 27 64c0 30 -12 48 -23 57c-22 18 -61 19 -71 19h-85z" />
    <glyph glyph-name="afii10107" unicode="&#x45a;" horiz-adv-x="651" 
d="M371 238l20 170h41l-21 -170h86c21 0 69 -2 101 -32c26 -25 30 -60 30 -79c0 -44 -16 -72 -31 -87c-24 -24 -66 -40 -133 -40h-122l24 200h-229l-25 -200h-40l50 408h40l-21 -170h230zM387 38h92c15 0 55 2 80 22c13 11 27 31 27 65c0 29 -12 46 -23 56
c-22 18 -61 19 -71 19h-85z" />
    <glyph glyph-name="afii10108" unicode="&#x45b;" horiz-adv-x="442" 
d="M72 0l64 522h-100l5 38h100l21 169h40l-21 -169h180l-5 -38h-180l-27 -218c24 34 66 73 134 73c64 0 94 -33 106 -57c8 -17 11 -38 11 -60c0 -14 -1 -28 -3 -43l-27 -217h-40l27 217c1 7 2 21 2 35c0 16 -2 34 -8 47c-7 15 -28 40 -75 40c-56 0 -89 -31 -107 -57
c-15 -22 -29 -55 -36 -110l-21 -172h-40z" />
    <glyph glyph-name="afii10109" unicode="&#x45c;" horiz-adv-x="396" 
d="M122 408h40l-24 -194l230 194h54l-234 -194l198 -214h-56l-173 187l-25 -21l-20 -166h-40zM329 620l40 -25l-121 -128l-28 16z" />
    <glyph glyph-name="afii10110" unicode="&#x45e;" horiz-adv-x="428" 
d="M78 -230l123 223l-143 415h44l127 -363l193 363h48l-346 -638h-46zM150 573l35 17c4 -18 14 -39 28 -52c19 -17 42 -21 63 -21c22 0 50 4 71 23c13 12 25 32 30 50l33 -17c-13 -40 -38 -61 -46 -67c-30 -23 -63 -27 -89 -27c-31 0 -64 7 -91 33c-16 16 -28 38 -34 61z
" />
    <glyph glyph-name="afii10193" unicode="&#x45f;" horiz-adv-x="444" 
d="M72 0l50 408h40l-45 -370h220l45 370h40l-50 -408h-130l-15 -120h-40l15 120h-130z" />
    <glyph glyph-name="afii10146" unicode="&#x462;" horiz-adv-x="612" 
d="M174 0l65 527h-160l5 40h160l15 127h44l-15 -127h200l-5 -40h-200l-18 -147h114c45 0 112 -5 159 -45c44 -37 52 -87 52 -126c0 -64 -22 -115 -51 -146c-48 -51 -127 -63 -210 -63h-155zM260 340l-37 -300h114c45 0 127 7 168 52c27 29 39 79 39 116c0 55 -25 86 -49 103
c-39 28 -98 29 -136 29h-99z" />
    <glyph glyph-name="afii10194" unicode="&#x463;" horiz-adv-x="417" 
d="M177 238h86c21 0 69 -2 101 -32c26 -25 30 -60 30 -79c0 -44 -16 -72 -31 -87c-24 -24 -66 -40 -133 -40h-122l45 370h-100l5 38h100l32 259h40l-32 -259h120l-5 -38h-120zM153 38h92c15 0 55 2 80 22c13 11 27 31 27 64c0 30 -12 48 -23 57c-22 18 -61 19 -71 19h-85z
" />
    <glyph glyph-name="afii10147" unicode="&#x472;" horiz-adv-x="805" 
d="M479 676c106 0 181 -41 231 -92c59 -60 82 -133 82 -219c0 -98 -29 -193 -112 -273c-80 -78 -169 -103 -267 -103c-86 0 -162 20 -227 85c-60 60 -91 140 -91 223c0 90 37 196 114 272c63 62 154 107 270 107zM741 319h-598c-7 -97 32 -169 70 -210
c53 -58 122 -80 196 -80c105 0 183 37 238 92c42 42 84 107 94 198zM150 360h594c4 88 -31 156 -73 199c-44 44 -111 77 -196 77c-109 0 -184 -46 -232 -93c-66 -65 -86 -135 -93 -183z" />
    <glyph glyph-name="afii10195" unicode="&#x473;" horiz-adv-x="524" 
d="M298 417c60 0 118 -21 154 -57c30 -30 51 -75 51 -141c0 -78 -30 -135 -67 -170c-55 -52 -122 -60 -163 -60c-59 0 -109 15 -148 56c-32 33 -54 84 -54 144c0 64 24 122 64 162c37 38 93 66 163 66zM276 27c64 0 105 28 125 47c19 18 51 55 58 116h-346
c1 -54 24 -94 46 -117s58 -46 117 -46zM116 228h344c-3 39 -19 78 -42 103c-25 27 -66 48 -120 48c-52 0 -96 -19 -125 -46c-25 -23 -48 -60 -57 -105z" />
    <glyph glyph-name="afii10148" unicode="&#x474;" horiz-adv-x="510" 
d="M96 667h48l126 -568l260 568h48l-323 -694z" />
    <glyph glyph-name="afii10196" unicode="&#x475;" horiz-adv-x="390" 
d="M58 408h42l102 -339l184 339h46l-239 -433z" />
    <glyph glyph-name="afii10050" unicode="&#x490;" horiz-adv-x="400" 
d="M90 0l82 667h254l16 133h42l-21 -173h-252l-77 -627h-44z" />
    <glyph glyph-name="afii10098" unicode="&#x491;" horiz-adv-x="300" 
d="M72 0l50 408h182l14 110h38l-19 -148h-180l-45 -370h-40z" />
    <glyph glyph-name="uni0492" unicode="&#x492;" horiz-adv-x="400" 
d="M90 0l42 345h-90l5 40h90l35 282h296l-5 -40h-252l-30 -242h136l-5 -40h-136l-42 -345h-44z" />
    <glyph glyph-name="uni0493" unicode="&#x493;" horiz-adv-x="300" 
d="M72 0l25 200h-72l4 38h72l21 170h220l-5 -38h-180l-16 -132h100l-4 -38h-100l-25 -200h-40z" />
    <glyph glyph-name="uni0494" unicode="&#x494;" horiz-adv-x="530" 
d="M463 627h-252l-32 -262c45 14 100 23 140 23c71 0 110 -29 129 -46c34 -32 56 -86 56 -149c0 -59 -21 -114 -57 -151c-43 -44 -92 -49 -135 -49c-28 0 -56 3 -84 8l5 40c31 -6 57 -7 73 -7c32 0 74 6 107 37c24 23 44 61 44 122c0 66 -24 100 -36 113
c-19 21 -55 42 -114 42c-40 0 -97 -12 -133 -23l-40 -325h-44l82 667h296z" />
    <glyph glyph-name="uni0495" unicode="&#x495;" horiz-adv-x="380" 
d="M72 0l50 408h220l-5 -38h-180l-16 -134h16c38 0 88 -4 128 -35c46 -35 54 -85 54 -123c0 -68 -22 -153 -82 -211c-36 -34 -90 -63 -151 -75l5 40c47 9 85 31 113 59c53 53 73 128 73 185c0 27 -5 66 -38 93s-84 29 -108 29h-15l-24 -198h-40z" />
    <glyph glyph-name="uni0496" unicode="&#x496;" horiz-adv-x="796" 
d="M458 667h44l-39 -314l321 314h58l-336 -323l244 -304h37l-21 -174h-42l16 134h-16l-252 314l-15 -13l-37 -301h-44l37 301l-11 13l-330 -314h-58l360 344l-256 323h58l243 -314z" />
    <glyph glyph-name="uni0497" unicode="&#x497;" horiz-adv-x="560" 
d="M310 408h40l-24 -194l208 194h52l-214 -196l148 -174h37l-19 -148h-38l14 110h-16l-155 186l-23 -20l-20 -166h-40l20 166l-17 20l-201 -186h-54l232 212l-166 196h52l160 -194z" />
    <glyph glyph-name="uni0498" unicode="&#x498;" horiz-adv-x="555" 
d="M202 554l-29 27c24 34 52 57 79 71c34 19 66 24 101 24c30 0 82 -4 121 -41c29 -28 42 -63 42 -104c0 -38 -11 -79 -32 -107c-17 -22 -46 -44 -75 -57c27 -7 53 -20 72 -39c32 -31 43 -68 43 -112c0 -83 -35 -137 -65 -166c-55 -54 -118 -58 -147 -58l-18 -142h-44
l18 141c-50 0 -96 17 -130 44c-29 24 -54 60 -68 95l42 20c10 -27 28 -56 51 -77c26 -24 65 -44 123 -44c61 0 106 22 135 48c35 32 55 80 55 135c0 31 -8 63 -35 88c-36 34 -90 39 -125 39h-60l5 40h43c67 0 104 23 123 40c25 23 43 56 43 105c0 30 -8 63 -37 86
c-24 19 -59 26 -88 26c-35 0 -62 -10 -85 -25c-21 -14 -44 -38 -58 -57z" />
    <glyph glyph-name="uni0499" unicode="&#x499;" horiz-adv-x="399" 
d="M143 322l-31 23c15 21 34 39 54 51c24 15 50 21 80 21c43 0 71 -15 88 -31c13 -13 27 -35 27 -71c0 -18 -5 -38 -14 -54s-24 -30 -44 -39c13 -5 26 -12 37 -23c12 -12 28 -35 28 -73c0 -45 -19 -77 -40 -98c-17 -16 -49 -38 -97 -39l-13 -109h-40l14 109
c-28 2 -61 12 -82 26c-22 15 -42 40 -54 64l37 23c9 -19 24 -38 39 -51c26 -21 53 -24 78 -24c23 0 60 3 86 26c18 16 30 43 30 72c0 14 -4 36 -23 52c-23 19 -55 21 -81 21h-33l5 38h17c23 0 56 0 81 19c17 13 28 33 28 60c0 18 -6 33 -21 46c-18 15 -40 18 -58 18
c-23 0 -44 -4 -63 -19c-12 -9 -26 -24 -35 -38z" />
    <glyph glyph-name="uni049A" unicode="&#x49a;" horiz-adv-x="540" 
d="M172 667h44l-39 -314l354 314h58l-362 -319l265 -308h39l-21 -174h-42l16 134h-18l-275 318l-20 -17l-37 -301h-44z" />
    <glyph glyph-name="uni049B" unicode="&#x49b;" horiz-adv-x="396" 
d="M122 408h40l-24 -194l230 194h54l-232 -194l163 -176h40l-19 -148h-38l14 110h-20l-173 187l-25 -21l-20 -166h-40z" />
    <glyph glyph-name="uni049C" unicode="&#x49c;" horiz-adv-x="600" 
d="M172 667h44l-37 -303h72l17 140h40l-17 -140l306 303h52l-326 -319l263 -348h-54l-246 324l-20 -160h-40l20 160h-72l-40 -324h-44z" />
    <glyph glyph-name="uni049D" unicode="&#x49d;" horiz-adv-x="402" 
d="M122 408h40l-22 -178h43l13 100h38l-13 -100l171 178h48l-188 -194l138 -214h-48l-125 192l-15 -120h-38l15 120h-43l-24 -192h-40z" />
    <glyph glyph-name="uni04A0" unicode="&#x4a0;" horiz-adv-x="624" 
d="M174 0l77 627h-160l5 40h204l-39 -314l354 314h58l-362 -319l299 -348h-60l-275 318l-20 -17l-37 -301h-44z" />
    <glyph glyph-name="uni04A1" unicode="&#x4a1;" horiz-adv-x="432" 
d="M108 0l45 370h-100l5 38h140l-24 -194l230 194h54l-232 -194l198 -214h-58l-173 187l-25 -21l-20 -166h-40z" />
    <glyph glyph-name="uni04A2" unicode="&#x4a2;" horiz-adv-x="672" 
d="M90 0l82 667h44l-35 -283h404l35 283h44l-77 -627h76l-21 -174h-42l16 134h-78l42 344h-404l-42 -344h-44z" />
    <glyph glyph-name="uni04A3" unicode="&#x4a3;" horiz-adv-x="454" 
d="M72 0l50 408h40l-22 -180h230l22 180h40l-45 -370h60l-19 -148h-38l14 110h-62l23 190h-230l-23 -190h-40z" />
    <glyph glyph-name="uni04A4" unicode="&#x4a4;" horiz-adv-x="848" 
d="M90 0l82 667h44l-35 -283h404l35 283h296l-5 -40h-252l-77 -627h-44l42 344h-404l-42 -344h-44z" />
    <glyph glyph-name="uni04A5" unicode="&#x4a5;" horiz-adv-x="570" 
d="M72 0l50 408h40l-22 -180h230l22 180h220l-5 -38h-180l-45 -370h-40l23 190h-230l-23 -190h-40z" />
    <glyph glyph-name="uni04AA" unicode="&#x4aa;" horiz-adv-x="682" 
d="M700 589l-7 -58c-23 30 -57 59 -89 76c-36 18 -88 29 -128 29c-88 0 -175 -40 -233 -98c-66 -66 -100 -158 -100 -240c0 -74 30 -144 77 -192s116 -77 190 -77c48 0 90 10 129 28c40 19 76 45 105 73l-7 -58c-38 -32 -74 -50 -96 -60c-40 -17 -74 -22 -114 -22l-18 -140
h-44l18 141c-54 2 -128 18 -196 85c-51 51 -92 127 -92 224c0 88 33 189 118 270c91 87 194 106 268 106s122 -21 136 -27c29 -14 59 -35 83 -60z" />
    <glyph glyph-name="uni04AB" unicode="&#x4ab;" horiz-adv-x="444" 
d="M446 365l-7 -53c-15 17 -36 35 -56 46c-22 12 -49 21 -81 21c-76 0 -120 -37 -135 -53c-38 -38 -54 -94 -54 -140c0 -40 15 -84 42 -114c35 -38 81 -45 115 -45c33 0 57 5 84 19c30 16 50 36 64 54l-7 -58c-25 -21 -49 -33 -58 -37c-21 -9 -41 -15 -63 -16l-12 -109h-40
l13 109c-54 3 -99 26 -127 54c-30 30 -53 79 -53 143c0 63 23 126 68 170c38 37 93 61 162 61c46 0 79 -14 89 -18c19 -8 39 -21 56 -34z" />
    <glyph glyph-name="uni04AE" unicode="&#x4ae;" horiz-adv-x="516" 
d="M233 0l35 285l-172 382h48l151 -337l237 337h52l-272 -382l-35 -285h-44z" />
    <glyph glyph-name="uni04AF" unicode="&#x4af;" horiz-adv-x="390" 
d="M58 408h43l102 -339l185 339h44l-214 -387l-32 -251h-40l32 251z" />
    <glyph glyph-name="uni04B0" unicode="&#x4b0;" horiz-adv-x="516" 
d="M233 0l30 245h-200l5 40h200l-172 382h48l151 -337l237 337h52l-272 -382h200l-5 -40h-200l-30 -245h-44z" />
    <glyph glyph-name="uni04B1" unicode="&#x4b1;" horiz-adv-x="390" 
d="M58 408h43l102 -339l185 339h44l-214 -387l-3 -21h120l-5 -38h-120l-24 -192h-40l24 192h-120l5 38h120l3 21z" />
    <glyph glyph-name="uni04B2" unicode="&#x4b2;" horiz-adv-x="468" 
d="M23 0l225 340l-135 327h46l116 -285l187 285h48l-214 -327l126 -300h22l-21 -174h-42l16 134h-6l-124 300l-196 -300h-48z" />
    <glyph glyph-name="uni04B3" unicode="&#x4b3;" horiz-adv-x="400" 
d="M8 0l191 214l-127 194h49l108 -168l148 168h49l-172 -194l114 -176h29l-19 -148h-38l14 110h-11l-120 188l-166 -188h-49z" />
    <glyph glyph-name="uni04B6" unicode="&#x4b6;" horiz-adv-x="578" 
d="M526 667h44l-77 -627h76l-21 -174h-42l16 134h-78l37 303c-40 -6 -85 -10 -136 -10c-100 0 -141 14 -161 25c-43 23 -61 60 -61 109c0 16 2 33 8 80l19 160h44l-20 -164c-5 -39 -7 -55 -7 -69c0 -42 16 -69 56 -85c15 -6 45 -16 125 -16c60 0 111 6 138 10z" />
    <glyph glyph-name="uni04B7" unicode="&#x4b7;" horiz-adv-x="412" 
d="M390 408l-45 -370h60l-19 -148h-38l14 110h-62l21 169c-31 -7 -62 -10 -89 -10c-57 0 -89 11 -108 24c-22 15 -32 31 -32 62c0 18 3 37 5 52l13 111h40l-12 -97c-3 -27 -5 -40 -5 -51c0 -20 4 -38 27 -50s69 -13 79 -13c20 0 56 2 86 10l25 201h40z" />
    <glyph glyph-name="uni04B8" unicode="&#x4b8;" horiz-adv-x="580" 
d="M446 0l37 303c-34 -7 -69 -11 -138 -11h-3l-16 -128h-40l16 129c-38 0 -89 8 -120 25c-42 23 -59 58 -59 101c0 6 0 20 7 73l22 175h44l-22 -176c-4 -29 -6 -47 -6 -65c0 -34 10 -58 42 -75c23 -12 66 -19 97 -18l21 171h40l-21 -174h4c67 0 101 4 137 12l40 325h44
l-82 -667h-44z" />
    <glyph glyph-name="uni04B9" unicode="&#x4b9;" horiz-adv-x="420" 
d="M308 0l20 165c-16 -2 -41 -5 -84 -6l-10 -80h-38l10 81c-28 0 -67 9 -84 21c-25 17 -30 43 -30 64c0 12 1 26 5 58l13 105h40l-11 -99c-3 -25 -5 -41 -5 -57c0 -18 4 -32 21 -43c13 -8 38 -12 55 -12l15 120h38l-15 -122c44 1 69 4 84 6l26 207h40l-50 -408h-40z" />
    <glyph glyph-name="uni04BA" unicode="&#x4ba;" horiz-adv-x="580" 
d="M216 667l-35 -283h178c44 0 113 -3 151 -42c14 -14 30 -39 30 -80c0 -9 -1 -24 -5 -58l-25 -204h-44l24 194c3 26 5 44 5 59c0 21 -4 43 -23 62c-32 31 -84 29 -140 29h-156l-42 -344h-44l82 667h44z" />
    <glyph glyph-name="uni04BB" unicode="&#x4bb;" horiz-adv-x="442" 
d="M72 0l90 729h40l-48 -385c12 20 29 38 45 49c20 14 48 24 82 24c37 0 69 -11 90 -31c41 -38 35 -94 31 -129l-32 -257h-40l32 257c4 34 5 72 -21 98c-13 13 -35 24 -65 24c-42 0 -69 -18 -86 -35c-18 -18 -43 -55 -52 -132l-26 -212h-40z" />
    <glyph glyph-name="uni04C0" unicode="&#x4c0;" horiz-adv-x="224" 
d="M172 667h44l-82 -667h-44z" />
    <glyph glyph-name="uni04C1" unicode="&#x4c1;" horiz-adv-x="796" 
d="M458 667h44l-39 -314l321 314h58l-337 -323l276 -344h-57l-252 314l-15 -13l-37 -301h-44l37 301l-11 13l-330 -314h-58l360 344l-256 323h57l244 -314zM604 822l33 -19c-12 -22 -32 -47 -56 -62c-31 -19 -64 -23 -90 -23c-34 0 -64 7 -90 28c-27 21 -42 52 -44 57l37 19
c6 -19 19 -37 34 -47c22 -16 54 -17 68 -17c19 0 47 3 70 19c14 10 29 27 38 45z" />
    <glyph glyph-name="uni04C2" unicode="&#x4c2;" horiz-adv-x="560" 
d="M310 408h40l-24 -194l208 194h52l-214 -196l180 -212h-52l-155 187l-25 -21l-20 -166h-40l20 166l-17 20l-201 -186h-54l232 212l-166 196h50l163 -194zM220 573l35 17c4 -18 14 -39 28 -52c19 -17 42 -21 63 -21c22 0 50 4 71 23c13 12 25 32 30 50l33 -17
c-13 -40 -38 -61 -46 -67c-30 -23 -63 -27 -89 -27c-31 0 -64 7 -91 33c-16 16 -28 38 -34 61z" />
    <glyph glyph-name="uni04C3" unicode="&#x4c3;" horiz-adv-x="536" 
d="M172 667h44l-39 -314l344 314h58l-323 -298c116 0 157 -17 197 -57c31 -31 59 -84 59 -173c0 -86 -26 -178 -81 -234c-35 -35 -88 -65 -167 -65c-22 0 -42 2 -60 6l5 40c18 -5 32 -6 51 -6c37 0 85 4 127 42c59 53 76 149 76 218c0 82 -29 123 -49 142
c-37 35 -98 48 -143 48c-33 0 -70 -5 -98 -11l-39 -319h-44z" />
    <glyph glyph-name="uni04C4" unicode="&#x4c4;" horiz-adv-x="388" 
d="M122 408h40l-24 -194l222 194h54l-206 -186c33 -2 70 -15 96 -39c27 -25 44 -63 44 -118c0 -72 -27 -146 -82 -198c-38 -36 -92 -64 -151 -75l5 40c42 8 78 26 113 59c67 64 73 142 73 175c0 45 -15 74 -35 92c-23 22 -59 32 -96 32c-14 0 -27 -1 -40 -4l-23 -186h-40z
" />
    <glyph glyph-name="uni04C7" unicode="&#x4c7;" horiz-adv-x="672" 
d="M90 0l82 667h44l-35 -283h404l35 283h44l-92 -751c-5 -42 -13 -94 -54 -124c-18 -13 -43 -22 -73 -22c-20 0 -36 5 -44 7l5 41c10 -4 21 -6 33 -6c17 0 37 3 54 18c24 21 31 55 35 91l52 423h-404l-42 -344h-44z" />
    <glyph glyph-name="uni04C8" unicode="&#x4c8;" horiz-adv-x="454" 
d="M72 0l50 408h40l-22 -180h230l22 180h40l-60 -487c-6 -49 -11 -93 -41 -122c-25 -24 -55 -29 -81 -29c-16 0 -28 2 -39 6l5 37c10 -4 18 -5 32 -5s36 1 53 18c21 21 26 58 31 100l33 264h-230l-23 -190h-40z" />
    <glyph glyph-name="uni04D0" unicode="&#x4d0;" horiz-adv-x="586" 
d="M526 0l-62 219h-284l-116 -219h-50l365 687l193 -687h-46zM201 259h252l-86 316zM489 822l33 -19c-12 -22 -32 -47 -56 -62c-31 -19 -64 -23 -90 -23c-34 0 -64 7 -90 28c-27 21 -42 52 -44 57l37 19c6 -19 19 -37 34 -47c22 -16 54 -17 68 -17c19 0 47 3 70 19
c14 10 29 27 38 45z" />
    <glyph glyph-name="uni04D1" unicode="&#x4d1;" horiz-adv-x="518" 
d="M446 328l10 80h40l-50 -408h-40l8 63c-16 -22 -36 -41 -60 -53s-55 -21 -94 -21c-47 0 -92 11 -130 47c-25 23 -59 69 -59 148c0 67 23 133 69 177c30 29 77 56 151 56c32 0 68 -6 99 -27c24 -16 44 -39 56 -62zM283 379c-45 0 -84 -14 -115 -45
c-33 -33 -55 -89 -55 -147c0 -52 20 -96 47 -122c34 -32 75 -38 104 -38c38 0 68 9 97 30c60 44 74 120 74 164c0 49 -16 91 -42 117c-17 18 -51 41 -110 41zM186 573l35 17c4 -18 14 -39 28 -52c19 -17 42 -21 63 -21c22 0 50 4 71 23c13 12 25 32 30 50l33 -17
c-13 -40 -38 -61 -46 -67c-30 -23 -63 -27 -89 -27c-31 0 -64 7 -91 33c-16 16 -28 38 -34 61z" />
    <glyph glyph-name="uni04D2" unicode="&#x4d2;" horiz-adv-x="586" 
d="M526 0l-62 219h-284l-116 -219h-50l365 687l193 -687h-46zM201 259h252l-86 316zM444 775c0 13 5 23 13 31c9 9 19 12 28 12c10 0 20 -4 26 -10c5 -6 9 -15 9 -24c0 -12 -6 -23 -13 -30c-8 -8 -19 -12 -31 -12c-9 0 -17 3 -23 9c-8 7 -9 17 -9 24zM258 775
c0 13 5 23 13 31c9 9 19 12 28 12c10 0 20 -4 26 -10c5 -6 9 -15 9 -24c0 -12 -6 -23 -13 -30c-8 -8 -19 -12 -31 -12c-9 0 -17 3 -23 9c-8 7 -9 17 -9 24z" />
    <glyph glyph-name="uni04D3" unicode="&#x4d3;" horiz-adv-x="518" 
d="M446 328l10 80h40l-50 -408h-40l8 63c-16 -22 -36 -41 -60 -53s-55 -21 -94 -21c-47 0 -92 11 -130 47c-25 23 -59 69 -59 148c0 67 23 133 69 177c30 29 77 56 151 56c32 0 68 -6 99 -27c24 -16 44 -39 56 -62zM283 379c-45 0 -84 -14 -115 -45
c-33 -33 -55 -89 -55 -147c0 -52 20 -96 47 -122c34 -32 75 -38 104 -38c38 0 68 9 97 30c60 44 74 120 74 164c0 49 -16 91 -42 117c-17 18 -51 41 -110 41zM361 523c0 8 3 18 12 27s19 12 29 12s19 -4 24 -10c4 -5 8 -12 8 -22c0 -11 -4 -20 -11 -27
c-11 -12 -23 -13 -30 -13c-8 0 -16 3 -22 9c-7 7 -10 16 -10 24zM195 523c0 8 3 18 12 27s19 12 29 12s19 -4 24 -10c4 -5 8 -12 8 -22c0 -11 -4 -20 -11 -27c-11 -12 -23 -13 -30 -13c-8 0 -16 3 -22 9c-7 7 -10 16 -10 24z" />
    <glyph glyph-name="uni04D4" unicode="&#x4d4;" horiz-adv-x="852" 
d="M523 0l-62 219h-285l-114 -219h-48l351 667h289l12 -40h-275l69 -242h268l12 -40h-268l87 -305h273l13 -40h-322zM197 259h252l-89 314z" />
    <glyph glyph-name="uni04D5" unicode="&#x4d5;" horiz-adv-x="795" 
d="M116 340l5 43c56 30 102 34 130 34c46 0 92 -13 121 -40c7 -7 34 -33 41 -79c18 36 42 63 68 82c37 27 73 37 116 37c58 0 101 -20 127 -45c44 -42 58 -112 50 -174h-349c-7 -45 6 -99 38 -132c20 -21 54 -39 102 -39c46 0 78 16 97 30c32 23 53 58 56 64l30 -20
c-20 -31 -52 -66 -80 -84c-32 -21 -67 -28 -101 -28c-36 0 -75 8 -106 27c-19 12 -44 33 -60 69c-20 -45 -53 -67 -72 -76c-32 -16 -70 -20 -102 -20s-78 3 -116 28s-52 59 -52 93c0 26 7 69 52 101c33 24 79 34 126 34c77 0 117 -22 143 -44c6 57 3 113 -32 146
c-25 23 -67 32 -102 32c-39 0 -78 -9 -130 -39zM236 206c-28 0 -76 -2 -108 -32c-18 -17 -27 -39 -27 -58c0 -25 13 -53 40 -70c11 -7 37 -19 86 -19c17 0 69 2 103 27c25 18 37 47 37 74c0 28 -15 47 -41 61c-27 14 -57 17 -90 17zM432 236h302c-1 40 -17 86 -44 111
c-21 19 -53 32 -91 32c-51 0 -87 -20 -113 -46c-25 -26 -45 -62 -54 -97z" />
    <glyph glyph-name="uni04D6" unicode="&#x4d6;" horiz-adv-x="464" 
d="M492 667l-5 -40h-276l-30 -242h270l-5 -40h-270l-37 -305h276l-5 -40h-278h-42l82 667h320zM456 822l33 -19c-12 -22 -32 -47 -56 -62c-31 -19 -64 -23 -90 -23c-34 0 -64 7 -90 28c-27 21 -42 52 -44 57l37 19c6 -19 19 -37 34 -47c22 -16 54 -17 68 -17
c19 0 47 3 70 19c14 10 29 27 38 45z" />
    <glyph glyph-name="uni04D7" unicode="&#x4d7;" horiz-adv-x="487" 
d="M463 199h-348c-9 -53 13 -104 41 -132c16 -16 48 -40 103 -40c32 0 69 9 97 29c22 16 42 41 53 64l31 -20c-17 -30 -44 -62 -73 -81c-21 -14 -56 -30 -109 -30s-99 14 -136 54c-36 38 -51 86 -51 139c0 76 28 136 68 176c32 32 79 59 146 59c54 0 99 -19 128 -47
c46 -44 55 -108 50 -171zM121 237h302c-1 43 -19 81 -41 104c-19 20 -50 38 -97 38c-59 0 -97 -28 -117 -49s-39 -52 -47 -93zM180 573l35 17c4 -18 14 -39 28 -52c19 -17 42 -21 63 -21c22 0 50 4 71 23c13 12 25 32 30 50l33 -17c-13 -40 -38 -61 -46 -67
c-30 -23 -63 -27 -89 -27c-31 0 -64 7 -91 33c-16 16 -28 38 -34 61z" />
    <glyph glyph-name="uni04D8" unicode="&#x4d8;" horiz-adv-x="774" 
d="M92 320h619c16 96 -15 186 -72 241c-51 49 -127 75 -195 75c-11 0 -94 -1 -171 -49c-38 -24 -73 -59 -98 -95l-35 28c29 40 69 79 115 106c51 29 119 50 196 50c83 0 158 -23 221 -84c62 -60 89 -134 89 -225c0 -119 -48 -220 -109 -281c-80 -81 -175 -97 -257 -97
c-80 0 -149 15 -211 75c-59 57 -100 154 -92 256zM702 280h-567c-1 -58 24 -134 73 -182c44 -42 112 -69 190 -69c91 0 153 30 192 60c45 35 96 96 112 191z" />
    <glyph glyph-name="afii10846" unicode="&#x4d9;" horiz-adv-x="485" 
d="M72 207h349c6 60 -14 104 -42 132c-22 22 -57 40 -110 40c-34 0 -67 -8 -96 -30c-20 -15 -39 -40 -51 -63l-35 20c15 26 38 55 62 73s64 38 121 38c65 0 114 -24 143 -53c45 -45 51 -103 51 -139c0 -51 -11 -128 -69 -184c-41 -40 -85 -52 -134 -52
c-63 0 -105 21 -133 49c-39 39 -62 107 -56 169zM414 169h-304c2 -43 20 -81 44 -105c34 -33 79 -37 104 -37c33 0 74 7 107 39c24 23 44 61 49 103z" />
    <glyph glyph-name="uni04DA" unicode="&#x4da;" horiz-adv-x="774" 
d="M92 320h619c16 96 -15 186 -72 241c-51 49 -127 75 -195 75c-11 0 -94 -1 -171 -49c-38 -24 -73 -59 -98 -95l-35 28c29 40 69 79 115 106c51 29 119 50 196 50c83 0 158 -23 221 -84c62 -60 89 -134 89 -225c0 -119 -48 -220 -109 -281c-80 -81 -175 -97 -257 -97
c-80 0 -149 15 -211 75c-59 57 -100 154 -92 256zM702 280h-567c-1 -58 24 -134 73 -182c44 -42 112 -69 190 -69c91 0 153 30 192 60c45 35 96 96 112 191zM520 775c0 13 5 23 13 31c9 9 19 12 28 12c10 0 20 -4 26 -10c5 -6 9 -15 9 -24c0 -12 -6 -23 -13 -30
c-8 -8 -19 -12 -31 -12c-9 0 -17 3 -23 9c-8 7 -9 17 -9 24zM334 775c0 13 5 23 13 31c9 9 19 12 28 12c10 0 20 -4 26 -10c5 -6 9 -15 9 -24c0 -12 -6 -23 -13 -30c-8 -8 -19 -12 -31 -12c-9 0 -17 3 -23 9c-8 7 -9 17 -9 24z" />
    <glyph glyph-name="uni04DB" unicode="&#x4db;" horiz-adv-x="485" 
d="M72 207h349c6 60 -14 104 -42 132c-22 22 -57 40 -110 40c-34 0 -67 -8 -96 -30c-20 -15 -39 -40 -51 -63l-35 20c15 26 38 55 62 73s64 38 121 38c65 0 114 -24 143 -53c45 -45 51 -103 51 -139c0 -51 -11 -128 -69 -184c-41 -40 -85 -52 -134 -52
c-63 0 -105 21 -133 49c-39 39 -62 107 -56 169zM414 169h-304c2 -43 20 -81 44 -105c34 -33 79 -37 104 -37c33 0 74 7 107 39c24 23 44 61 49 103zM331 523c0 8 3 18 12 27s19 12 29 12s19 -4 24 -10c4 -5 8 -12 8 -22c0 -11 -4 -20 -11 -27c-11 -12 -23 -13 -30 -13
c-8 0 -16 3 -22 9c-7 7 -10 16 -10 24zM165 523c0 8 3 18 12 27s19 12 29 12s19 -4 24 -10c4 -5 8 -12 8 -22c0 -11 -4 -20 -11 -27c-11 -12 -23 -13 -30 -13c-8 0 -16 3 -22 9c-7 7 -10 16 -10 24z" />
    <glyph glyph-name="uni04DC" unicode="&#x4dc;" horiz-adv-x="796" 
d="M458 667h44l-39 -314l321 314h58l-337 -323l276 -344h-57l-252 314l-15 -13l-37 -301h-44l37 301l-11 13l-330 -314h-58l360 344l-256 323h57l244 -314zM549 775c0 13 5 23 13 31c9 9 19 12 28 12c10 0 20 -4 26 -10c5 -6 9 -15 9 -24c0 -12 -6 -23 -13 -30
c-8 -8 -19 -12 -31 -12c-9 0 -17 3 -23 9c-8 7 -9 17 -9 24zM363 775c0 13 5 23 13 31c9 9 19 12 28 12c10 0 20 -4 26 -10c5 -6 9 -15 9 -24c0 -12 -6 -23 -13 -30c-8 -8 -19 -12 -31 -12c-9 0 -17 3 -23 9c-8 7 -9 17 -9 24z" />
    <glyph glyph-name="uni04DD" unicode="&#x4dd;" horiz-adv-x="560" 
d="M310 408h40l-24 -194l208 194h52l-214 -196l180 -212h-52l-155 187l-25 -21l-20 -166h-40l20 166l-17 20l-201 -186h-54l232 212l-166 196h50l163 -194zM386 523c0 8 3 18 12 27s19 12 29 12s19 -4 24 -10c4 -5 8 -12 8 -22c0 -11 -4 -20 -11 -27
c-11 -12 -23 -13 -30 -13c-8 0 -16 3 -22 9c-7 7 -10 16 -10 24zM220 523c0 8 3 18 12 27s19 12 29 12s19 -4 24 -10c4 -5 8 -12 8 -22c0 -11 -4 -20 -11 -27c-11 -12 -23 -13 -30 -13c-8 0 -16 3 -22 9c-7 7 -10 16 -10 24z" />
    <glyph glyph-name="uni04DE" unicode="&#x4de;" horiz-adv-x="555" 
d="M202 554l-29 27c24 34 52 57 79 71c34 19 66 24 101 24c30 0 82 -4 121 -41c29 -28 42 -63 42 -104c0 -38 -11 -79 -32 -107c-17 -22 -46 -44 -75 -57c27 -7 53 -20 72 -39c32 -31 43 -68 43 -112c0 -83 -35 -137 -65 -166c-55 -53 -118 -60 -174 -60
c-53 0 -103 9 -147 45c-30 24 -54 60 -68 95l42 20c10 -27 28 -56 51 -77c27 -25 66 -44 122 -44c62 0 108 22 136 48c35 32 55 80 55 136c0 30 -8 62 -35 87c-36 34 -90 39 -125 39h-60l5 40h43c67 0 104 23 123 40c25 23 43 56 43 105c0 30 -8 63 -37 86
c-24 19 -59 26 -88 26c-35 0 -62 -10 -85 -25c-21 -14 -44 -38 -58 -57zM421 775c0 13 5 23 13 31c9 9 19 12 28 12c10 0 20 -4 26 -10c5 -6 9 -15 9 -24c0 -12 -6 -23 -13 -30c-8 -8 -19 -12 -31 -12c-9 0 -17 3 -23 9c-8 7 -9 17 -9 24zM235 775c0 13 5 23 13 31
c9 9 19 12 28 12c10 0 20 -4 26 -10c5 -6 9 -15 9 -24c0 -12 -6 -23 -13 -30c-8 -8 -19 -12 -31 -12c-9 0 -17 3 -23 9c-8 7 -9 17 -9 24z" />
    <glyph glyph-name="uni04DF" unicode="&#x4df;" horiz-adv-x="399" 
d="M143 322l-31 23c15 21 34 39 54 51c24 15 50 21 80 21c43 0 71 -15 88 -31c13 -13 27 -35 27 -71c0 -18 -5 -38 -14 -54s-24 -30 -44 -39c16 -6 32 -17 44 -31c17 -21 21 -45 21 -63c0 -46 -19 -79 -40 -99c-37 -35 -84 -40 -120 -40c-25 0 -66 4 -98 26
c-22 15 -42 41 -54 64l37 23c8 -19 22 -38 38 -51c26 -21 52 -24 80 -24c24 0 59 3 85 26c18 16 30 42 30 73c0 13 -4 35 -23 51c-22 19 -55 21 -81 21h-33l5 38h17c23 0 56 0 81 19c17 13 28 33 28 60c0 18 -6 33 -21 46c-18 15 -39 18 -57 18c-20 0 -42 -3 -64 -19
c-12 -9 -26 -24 -35 -38zM301 523c0 8 3 18 12 27s19 12 29 12s19 -4 24 -10c4 -5 8 -12 8 -22c0 -11 -4 -20 -11 -27c-11 -12 -23 -13 -30 -13c-8 0 -16 3 -22 9c-7 7 -10 16 -10 24zM135 523c0 8 3 18 12 27s19 12 29 12s19 -4 24 -10c4 -5 8 -12 8 -22
c0 -11 -4 -20 -11 -27c-11 -12 -23 -13 -30 -13c-8 0 -16 3 -22 9c-7 7 -10 16 -10 24z" />
    <glyph glyph-name="uni04E2" unicode="&#x4e2;" horiz-adv-x="700" 
d="M566 0l68 556l-546 -573l84 684h44l-70 -566l547 573l-83 -674h-44zM307 750l5 44h270l-5 -44h-270z" />
    <glyph glyph-name="uni04E3" unicode="&#x4e3;" horiz-adv-x="474" 
d="M122 408h40l-40 -329l333 352l-53 -431h-40l40 327l-333 -352zM163 493l4 39h270l-4 -39h-270z" />
    <glyph glyph-name="uni04E4" unicode="&#x4e4;" horiz-adv-x="700" 
d="M566 0l68 556l-546 -573l84 684h44l-70 -566l547 573l-83 -674h-44zM501 775c0 13 5 23 13 31c9 9 19 12 28 12c10 0 20 -4 26 -10c5 -6 9 -15 9 -24c0 -12 -6 -23 -13 -30c-8 -8 -19 -12 -31 -12c-9 0 -17 3 -23 9c-8 7 -9 17 -9 24zM315 775c0 13 5 23 13 31
c9 9 19 12 28 12c10 0 20 -4 26 -10c5 -6 9 -15 9 -24c0 -12 -6 -23 -13 -30c-8 -8 -19 -12 -31 -12c-9 0 -17 3 -23 9c-8 7 -9 17 -9 24z" />
    <glyph glyph-name="uni04E5" unicode="&#x4e5;" horiz-adv-x="474" 
d="M122 408h40l-40 -329l333 352l-53 -431h-40l40 327l-333 -352zM348 523c0 8 3 18 12 27s19 12 29 12s19 -4 24 -10c4 -5 8 -12 8 -22c0 -11 -4 -20 -11 -27c-11 -12 -23 -13 -30 -13c-8 0 -16 3 -22 9c-7 7 -10 16 -10 24zM182 523c0 8 3 18 12 27s19 12 29 12
s19 -4 24 -10c4 -5 8 -12 8 -22c0 -11 -4 -20 -11 -27c-11 -12 -23 -13 -30 -13c-8 0 -16 3 -22 9c-7 7 -10 16 -10 24z" />
    <glyph glyph-name="uni04E6" unicode="&#x4e6;" horiz-adv-x="805" 
d="M479 676c106 0 181 -41 231 -92c59 -61 82 -134 82 -215c0 -97 -28 -195 -112 -277c-80 -78 -169 -103 -267 -103c-87 0 -161 20 -227 85c-37 36 -91 108 -91 222c0 91 37 193 114 271c88 89 191 109 270 109zM407 29c108 0 188 41 240 92c66 66 100 162 100 246
c0 83 -33 149 -76 192c-44 44 -111 77 -196 77c-109 0 -184 -46 -232 -93c-70 -69 -102 -160 -102 -243s32 -147 73 -191c55 -58 121 -80 193 -80zM541 775c0 13 5 23 13 31c9 9 19 12 28 12c10 0 20 -4 26 -10c5 -6 9 -15 9 -24c0 -12 -6 -23 -13 -30
c-8 -8 -19 -12 -31 -12c-9 0 -17 3 -23 9c-8 7 -9 17 -9 24zM355 775c0 13 5 23 13 31c9 9 19 12 28 12c10 0 20 -4 26 -10c5 -6 9 -15 9 -24c0 -12 -6 -23 -13 -30c-8 -8 -19 -12 -31 -12c-9 0 -17 3 -23 9c-8 7 -9 17 -9 24z" />
    <glyph glyph-name="uni04E7" unicode="&#x4e7;" horiz-adv-x="524" 
d="M300 417c57 0 116 -21 152 -57c30 -30 51 -75 51 -141c0 -78 -30 -135 -67 -170c-33 -31 -85 -60 -167 -60c-55 0 -105 15 -144 56c-32 33 -54 84 -54 142c0 63 26 128 68 169c43 41 104 61 161 61zM275 27c50 0 92 15 126 46c29 27 60 73 60 142c0 67 -32 104 -43 116
c-25 26 -65 48 -122 48c-52 0 -94 -19 -124 -46c-39 -35 -59 -89 -59 -140c0 -48 18 -92 46 -121c20 -21 56 -45 116 -45zM371 523c0 8 3 18 12 27s19 12 29 12s19 -4 24 -10c4 -5 8 -12 8 -22c0 -11 -4 -20 -11 -27c-11 -12 -23 -13 -30 -13c-8 0 -16 3 -22 9
c-7 7 -10 16 -10 24zM205 523c0 8 3 18 12 27s19 12 29 12s19 -4 24 -10c4 -5 8 -12 8 -22c0 -11 -4 -20 -11 -27c-11 -12 -23 -13 -30 -13c-8 0 -16 3 -22 9c-7 7 -10 16 -10 24z" />
    <glyph glyph-name="uni04E8" unicode="&#x4e8;" horiz-adv-x="805" 
d="M479 676c106 0 181 -41 231 -92c59 -60 82 -133 82 -219c0 -98 -29 -193 -112 -273c-80 -78 -169 -103 -267 -103c-86 0 -162 20 -227 85c-60 60 -91 140 -91 223c0 90 37 196 114 272c63 62 154 107 270 107zM741 319h-598c-7 -97 32 -169 70 -210
c53 -58 122 -80 196 -80c105 0 183 37 238 92c42 42 84 107 94 198zM150 360h594c4 88 -31 156 -73 199c-44 44 -111 77 -196 77c-109 0 -184 -46 -232 -93c-66 -65 -86 -135 -93 -183z" />
    <glyph glyph-name="uni04E9" unicode="&#x4e9;" horiz-adv-x="524" 
d="M298 417c60 0 118 -21 154 -57c30 -30 51 -75 51 -141c0 -78 -30 -135 -67 -170c-55 -52 -122 -60 -163 -60c-59 0 -109 15 -148 56c-32 33 -54 84 -54 144c0 64 24 122 64 162c37 38 93 66 163 66zM276 27c64 0 105 28 125 47c19 18 51 55 58 116h-346
c1 -54 24 -94 46 -117s58 -46 117 -46zM116 228h344c-3 39 -19 78 -42 103c-25 27 -66 48 -120 48c-52 0 -96 -19 -125 -46c-25 -23 -48 -60 -57 -105z" />
    <glyph glyph-name="uni04EA" unicode="&#x4ea;" horiz-adv-x="805" 
d="M479 676c106 0 181 -41 231 -92c59 -60 82 -133 82 -219c0 -98 -29 -193 -112 -273c-80 -78 -169 -103 -267 -103c-86 0 -162 20 -227 85c-60 60 -91 140 -91 223c0 90 37 196 114 272c63 62 154 107 270 107zM741 319h-598c-7 -97 32 -169 70 -210
c53 -58 122 -80 196 -80c105 0 183 37 238 92c42 42 84 107 94 198zM150 360h594c4 88 -31 156 -73 199c-44 44 -111 77 -196 77c-109 0 -184 -46 -232 -93c-66 -65 -86 -135 -93 -183zM541 775c0 13 5 23 13 31c9 9 19 12 28 12c10 0 20 -4 26 -10c5 -6 9 -15 9 -24
c0 -12 -6 -23 -13 -30c-8 -8 -19 -12 -31 -12c-9 0 -17 3 -23 9c-8 7 -9 17 -9 24zM355 775c0 13 5 23 13 31c9 9 19 12 28 12c10 0 20 -4 26 -10c5 -6 9 -15 9 -24c0 -12 -6 -23 -13 -30c-8 -8 -19 -12 -31 -12c-9 0 -17 3 -23 9c-8 7 -9 17 -9 24z" />
    <glyph glyph-name="uni04EB" unicode="&#x4eb;" horiz-adv-x="524" 
d="M298 417c60 0 118 -21 154 -57c30 -30 51 -75 51 -141c0 -78 -30 -135 -67 -170c-55 -52 -122 -60 -163 -60c-59 0 -109 15 -148 56c-32 33 -54 84 -54 144c0 64 24 122 64 162c37 38 93 66 163 66zM276 27c64 0 105 28 125 47c19 18 51 55 58 116h-346
c1 -54 24 -94 46 -117s58 -46 117 -46zM116 228h344c-3 39 -19 78 -42 103c-25 27 -66 48 -120 48c-52 0 -96 -19 -125 -46c-25 -23 -48 -60 -57 -105zM371 523c0 8 3 18 12 27s19 12 29 12s19 -4 24 -10c4 -5 8 -12 8 -22c0 -11 -4 -20 -11 -27c-11 -12 -23 -13 -30 -13
c-8 0 -16 3 -22 9c-7 7 -10 16 -10 24zM205 523c0 8 3 18 12 27s19 12 29 12s19 -4 24 -10c4 -5 8 -12 8 -22c0 -11 -4 -20 -11 -27c-11 -12 -23 -13 -30 -13c-8 0 -16 3 -22 9c-7 7 -10 16 -10 24z" />
    <glyph glyph-name="uni04EE" unicode="&#x4ee;" horiz-adv-x="550" 
d="M96 667h48l178 -432l248 432h48l-387 -667h-46l108 186zM222 750l5 44h270l-5 -44h-270z" />
    <glyph glyph-name="uni04EF" unicode="&#x4ef;" horiz-adv-x="428" 
d="M78 -230l123 223l-143 415h44l127 -363l193 363h48l-346 -638h-46zM136 493l4 39h270l-4 -39h-270z" />
    <glyph glyph-name="uni04F0" unicode="&#x4f0;" horiz-adv-x="550" 
d="M96 667h48l178 -432l248 432h48l-387 -667h-46l108 186zM441 775c0 13 5 23 13 31c9 9 19 12 28 12c10 0 20 -4 26 -10c5 -6 9 -15 9 -24c0 -12 -6 -23 -13 -30c-8 -8 -19 -12 -31 -12c-9 0 -17 3 -23 9c-8 7 -9 17 -9 24zM255 775c0 13 5 23 13 31c9 9 19 12 28 12
c10 0 20 -4 26 -10c5 -6 9 -15 9 -24c0 -12 -6 -23 -13 -30c-8 -8 -19 -12 -31 -12c-9 0 -17 3 -23 9c-8 7 -9 17 -9 24z" />
    <glyph glyph-name="uni04F1" unicode="&#x4f1;" horiz-adv-x="428" 
d="M78 -230l123 223l-143 415h44l127 -363l193 363h48l-346 -638h-46zM326 523c0 8 3 18 12 27s19 12 29 12s19 -4 24 -10c4 -5 8 -12 8 -22c0 -11 -4 -20 -11 -27c-11 -12 -23 -13 -30 -13c-8 0 -16 3 -22 9c-7 7 -10 16 -10 24zM160 523c0 8 3 18 12 27s19 12 29 12
s19 -4 24 -10c4 -5 8 -12 8 -22c0 -11 -4 -20 -11 -27c-11 -12 -23 -13 -30 -13c-8 0 -16 3 -22 9c-7 7 -10 16 -10 24z" />
    <glyph glyph-name="uni04F2" unicode="&#x4f2;" horiz-adv-x="550" 
d="M96 667h48l178 -432l248 432h48l-387 -667h-46l108 186zM370 854l49 -26l-116 -125l-34 15zM491 854l49 -26l-116 -125l-34 15z" />
    <glyph glyph-name="uni04F3" unicode="&#x4f3;" horiz-adv-x="428" 
d="M78 -230l123 223l-143 415h44l127 -363l193 363h48l-346 -638h-46zM285 620l39 -25l-115 -128l-25 16zM396 620l39 -25l-115 -128l-25 16z" />
    <glyph glyph-name="uni04F4" unicode="&#x4f4;" horiz-adv-x="579" 
d="M445 0l37 303c-46 -7 -93 -10 -140 -10c-95 0 -136 14 -158 25c-45 23 -61 57 -61 101c0 16 2 32 7 75l21 173h44l-22 -180c-3 -25 -6 -43 -6 -58c0 -40 17 -63 51 -78c35 -16 100 -18 130 -18c43 0 98 5 139 10l40 324h44l-82 -667h-44zM429 775c0 13 5 23 13 31
c9 9 19 12 28 12c10 0 20 -4 26 -10c5 -6 9 -15 9 -24c0 -12 -6 -23 -13 -30c-8 -8 -19 -12 -31 -12c-9 0 -17 3 -23 9c-8 7 -9 17 -9 24zM243 775c0 13 5 23 13 31c9 9 19 12 28 12c10 0 20 -4 26 -10c5 -6 9 -15 9 -24c0 -12 -6 -23 -13 -30c-8 -8 -19 -12 -31 -12
c-9 0 -17 3 -23 9c-8 7 -9 17 -9 24z" />
    <glyph glyph-name="uni04F5" unicode="&#x4f5;" horiz-adv-x="412" 
d="M300 0l21 169c-26 -6 -63 -10 -90 -10c-39 0 -92 6 -119 34c-24 25 -22 53 -17 92l15 123h40l-15 -123c-4 -31 -6 -58 23 -75c11 -6 29 -13 71 -13c56 0 83 6 96 10l25 201h40l-50 -408h-40zM311 523c0 8 3 18 12 27s19 12 29 12s19 -4 24 -10c4 -5 8 -12 8 -22
c0 -11 -4 -20 -11 -27c-11 -12 -23 -13 -30 -13c-8 0 -16 3 -22 9c-7 7 -10 16 -10 24zM145 523c0 8 3 18 12 27s19 12 29 12s19 -4 24 -10c4 -5 8 -12 8 -22c0 -11 -4 -20 -11 -27c-11 -12 -23 -13 -30 -13c-8 0 -16 3 -22 9c-7 7 -10 16 -10 24z" />
    <glyph glyph-name="uni04F8" unicode="&#x4f8;" horiz-adv-x="690" 
d="M638 667h44l-82 -667h-44zM90 0l82 667h44l-35 -287h114c45 0 112 -5 159 -45c44 -37 52 -87 52 -126c0 -64 -22 -115 -51 -146c-48 -51 -127 -63 -210 -63h-155zM176 340l-37 -300h114c45 0 127 7 168 52c27 29 39 79 39 116c0 55 -25 86 -49 103c-39 28 -98 29 -136 29
h-99zM496 775c0 13 5 23 13 31c9 9 19 12 28 12c10 0 20 -4 26 -10c5 -6 9 -15 9 -24c0 -12 -6 -23 -13 -30c-8 -8 -19 -12 -31 -12c-9 0 -17 3 -23 9c-8 7 -9 17 -9 24zM310 775c0 13 5 23 13 31c9 9 19 12 28 12c10 0 20 -4 26 -10c5 -6 9 -15 9 -24c0 -12 -6 -23 -13 -30
c-8 -8 -19 -12 -31 -12c-9 0 -17 3 -23 9c-8 7 -9 17 -9 24z" />
    <glyph glyph-name="uni04F9" unicode="&#x4f9;" 
d="M438 408h40l-50 -408h-40zM121 408h41l-21 -170h86c21 0 69 -2 101 -32c26 -25 30 -60 30 -79c0 -44 -16 -72 -31 -87c-24 -24 -66 -40 -133 -40h-122zM117 38h92c15 0 55 2 80 22c13 11 27 31 27 64c0 30 -12 48 -23 57c-22 18 -61 19 -71 19h-85zM351 523
c0 8 3 18 12 27s19 12 29 12s19 -4 24 -10c4 -5 8 -12 8 -22c0 -11 -4 -20 -11 -27c-11 -12 -23 -13 -30 -13c-8 0 -16 3 -22 9c-7 7 -10 16 -10 24zM185 523c0 8 3 18 12 27s19 12 29 12s19 -4 24 -10c4 -5 8 -12 8 -22c0 -11 -4 -20 -11 -27c-11 -12 -23 -13 -30 -13
c-8 0 -16 3 -22 9c-7 7 -10 16 -10 24z" />
    <glyph glyph-name="uni1E9E" unicode="&#x1e9e;" horiz-adv-x="563" 
d="M90 0l60 486c6 49 23 105 73 147c47 39 97 43 129 43c33 0 80 -9 112 -36c29 -24 49 -63 49 -99v-16l-159 -136c28 -5 85 -18 123 -50c35 -30 55 -67 55 -121s-26 -114 -92 -159c-59 -40 -126 -56 -180 -59l6 40c49 3 106 20 148 48c49 33 71 79 71 125
c0 53 -22 84 -53 107c-41 31 -109 36 -128 37l5 40l158 138c1 16 -8 48 -34 72s-58 29 -82 29c-25 0 -61 -2 -98 -32c-34 -28 -54 -78 -60 -129l-59 -475h-44z" />
    <glyph glyph-name="uni2010" unicode="&#x2010;" horiz-adv-x="300" 
d="M73 184l5 46h200l-5 -46h-200z" />
    <glyph glyph-name="uni2011" unicode="&#x2011;" horiz-adv-x="300" 
d="M73 184l5 46h200l-5 -46h-200z" />
    <glyph glyph-name="figuredash" unicode="&#x2012;" horiz-adv-x="540" 
d="M93 319l5 38h400l-5 -38h-400z" />
    <glyph glyph-name="endash" unicode="&#x2013;" horiz-adv-x="540" 
d="M93 188l5 38h400l-5 -38h-400z" />
    <glyph glyph-name="emdash" unicode="&#x2014;" horiz-adv-x="740" 
d="M93 188l5 38h600l-5 -38h-600z" />
    <glyph glyph-name="afii00208" unicode="&#x2015;" horiz-adv-x="740" 
d="M93 188l5 38h600l-5 -38h-600z" />
    <glyph glyph-name="quoteleft" unicode="&#x2018;" horiz-adv-x="228" 
d="M249 667l-84 -202l-39 12l99 200z" />
    <glyph glyph-name="quoteright" unicode="&#x2019;" horiz-adv-x="228" 
d="M126 477l85 202l38 -12l-98 -200z" />
    <glyph glyph-name="quotesinglbase" unicode="&#x201a;" horiz-adv-x="254" 
d="M47 -137l85 202l39 -12l-99 -200z" />
    <glyph glyph-name="quotedblleft" unicode="&#x201c;" horiz-adv-x="344" 
d="M249 667l-84 -202l-39 12l99 200zM365 667l-84 -202l-39 12l99 200z" />
    <glyph glyph-name="quotedblright" unicode="&#x201d;" horiz-adv-x="344" 
d="M126 477l85 202l38 -12l-98 -200zM242 477l85 202l38 -12l-98 -200z" />
    <glyph glyph-name="quotedblbase" unicode="&#x201e;" horiz-adv-x="370" 
d="M47 -137l85 202l39 -12l-99 -200zM163 -137l85 202l39 -12l-99 -200z" />
    <glyph glyph-name="dagger" unicode="&#x2020;" horiz-adv-x="548" 
d="M320 489l30 240h44l-30 -240h160l-5 -40h-160l-75 -609h-44l75 609h-160l5 40h160z" />
    <glyph glyph-name="daggerdbl" unicode="&#x2021;" horiz-adv-x="539" 
d="M275 -160h-44l33 264h-160l5 40h160l37 305h-160l5 40h160l30 240h44l-30 -240h160l-5 -40h-160l-37 -305h160l-5 -40h-160z" />
    <glyph glyph-name="bullet" unicode="&#x2022;" horiz-adv-x="1000" 
d="M401 323c0 39 17 80 45 108s73 49 113 49c36 0 72 -16 92 -39c19 -21 32 -55 32 -84c0 -31 -10 -72 -47 -109c-32 -32 -72 -48 -111 -48c-49 0 -78 24 -92 39c-18 19 -32 47 -32 84z" />
    <glyph glyph-name="ellipsis" unicode="&#x2026;" horiz-adv-x="606" 
d="M472 25c0 12 5 24 13 31c6 5 15 11 28 11c8 0 17 -3 23 -8c7 -6 10 -14 10 -24c0 -13 -5 -23 -12 -30c-8 -8 -19 -12 -30 -12s-18 5 -22 8c-6 5 -10 14 -10 24zM270 25c0 12 5 24 13 31c6 5 15 11 28 11c8 0 17 -3 23 -8c7 -6 10 -14 10 -24c0 -13 -5 -23 -12 -30
c-8 -8 -19 -12 -30 -12s-18 5 -22 8c-6 5 -10 14 -10 24zM68 25c0 12 5 24 13 31c6 5 15 11 28 11c8 0 17 -3 23 -8c7 -6 10 -14 10 -24c0 -13 -5 -23 -12 -30c-8 -8 -19 -12 -30 -12s-18 5 -22 8c-6 5 -10 14 -10 24z" />
    <glyph glyph-name="perthousand" unicode="&#x2030;" horiz-adv-x="932" 
d="M243 673c32 0 71 -12 97 -38c23 -23 33 -51 33 -82c0 -42 -14 -78 -39 -103c-33 -34 -74 -39 -107 -39c-31 0 -64 5 -92 32c-20 20 -35 50 -35 86c0 40 17 78 39 101c27 28 67 43 104 43zM230 447c26 0 51 7 72 27c24 24 30 53 30 78c0 21 -4 41 -21 59
c-12 13 -33 26 -67 26c-38 0 -61 -16 -74 -29c-16 -16 -29 -41 -29 -74c0 -28 11 -49 23 -62c19 -20 44 -25 66 -25zM92 1l478 681l28 -16l-478 -681zM461 256c32 0 71 -12 97 -38c23 -23 33 -51 33 -82c0 -42 -14 -78 -39 -103c-33 -34 -74 -39 -107 -39
c-31 0 -64 5 -92 32c-20 20 -35 50 -35 86c0 40 17 78 39 101c27 28 67 43 104 43zM448 30c26 0 51 7 72 27c24 24 30 53 30 78c0 21 -4 41 -21 59c-12 13 -33 26 -67 26c-38 0 -61 -16 -74 -29c-16 -16 -29 -41 -29 -74c0 -28 11 -49 23 -62c19 -20 44 -25 66 -25zM783 256
c32 0 71 -12 97 -38c23 -23 33 -51 33 -82c0 -42 -14 -78 -39 -103c-33 -34 -74 -39 -107 -39c-31 0 -64 5 -92 32c-20 20 -35 50 -35 86c0 40 17 78 39 101c27 28 67 43 104 43zM770 30c26 0 51 7 72 27c24 24 30 53 30 78c0 21 -4 41 -21 59c-12 13 -33 26 -67 26
c-38 0 -61 -16 -74 -29c-16 -16 -29 -41 -29 -74c0 -28 11 -49 23 -62c19 -20 44 -25 66 -25z" />
    <glyph glyph-name="guilsinglleft" unicode="&#x2039;" horiz-adv-x="242" 
d="M229 333l-124 -126l93 -126l-29 -24l-112 150l149 150z" />
    <glyph glyph-name="guilsinglright" unicode="&#x203a;" horiz-adv-x="242" 
d="M64 81l123 126l-92 126l29 24l111 -150l-148 -150z" />
    <glyph glyph-name="fraction" unicode="&#x2044;" horiz-adv-x="106" 
d="M-200 1l478 681l28 -16l-478 -681z" />
    <glyph glyph-name="uni2080" unicode="&#x2080;" horiz-adv-x="330" 
d="M213 405c29 0 53 -11 74 -31c32 -32 47 -83 47 -139c0 -45 -9 -139 -74 -200c-26 -25 -56 -40 -97 -40c-32 0 -57 11 -77 31c-32 32 -46 85 -46 136c0 54 16 138 69 195c37 40 75 48 104 48zM164 31c24 0 45 8 65 27c50 47 65 125 65 175c0 47 -12 94 -39 118
c-10 9 -26 18 -48 18c-25 0 -45 -10 -63 -27c-43 -41 -65 -114 -65 -178c0 -36 8 -84 36 -112c15 -15 30 -21 49 -21z" />
    <glyph glyph-name="uni2081" unicode="&#x2081;" horiz-adv-x="330" 
d="M152 0l45 364h-62l16 36h88l-49 -400h-38z" />
    <glyph glyph-name="uni2082" unicode="&#x2082;" horiz-adv-x="330" 
d="M282 0h-246l167 169c15 15 45 49 55 64c14 20 22 39 22 66c0 16 -3 34 -18 49c-17 17 -40 21 -59 21c-17 0 -41 -2 -59 -20c-15 -15 -26 -41 -28 -62h-36c4 28 17 62 38 84c28 29 62 34 88 34c23 0 60 -4 88 -32c20 -20 27 -44 27 -71c0 -30 -8 -52 -23 -75
c-6 -10 -19 -27 -52 -61l-126 -130h166z" />
    <glyph glyph-name="uni2083" unicode="&#x2083;" horiz-adv-x="330" 
d="M60 98h36c0 -17 7 -37 18 -48c12 -12 32 -19 53 -19c26 0 45 9 58 20c24 22 26 52 26 68c0 19 -4 38 -22 53s-40 18 -61 18h-5l5 36c22 0 59 4 81 26c10 11 20 29 20 55c0 23 -9 37 -16 44c-11 11 -28 18 -48 18s-36 -5 -50 -22c-9 -11 -16 -28 -19 -42h-36
c7 44 31 68 35 72c16 16 40 28 71 28c28 0 56 -10 75 -28c15 -15 28 -37 28 -70s-13 -56 -28 -71c-12 -12 -28 -22 -48 -27c6 -2 25 -9 39 -27c15 -19 18 -44 18 -59c0 -47 -18 -77 -35 -94c-23 -24 -54 -34 -89 -34c-38 0 -64 14 -80 31s-26 44 -26 72z" />
    <glyph glyph-name="uni2084" unicode="&#x2084;" horiz-adv-x="330" 
d="M301 413l-37 -301h56l-5 -36h-56l-9 -76h-38l9 76h-204zM92 112h134l23 190z" />
    <glyph glyph-name="uni2085" unicode="&#x2085;" horiz-adv-x="330" 
d="M331 400l-4 -36h-134l-42 -96c38 6 82 -2 112 -31c24 -23 34 -52 34 -85c0 -48 -17 -88 -41 -113c-36 -38 -83 -44 -115 -44c-28 0 -86 5 -116 66l40 10c8 -16 26 -40 77 -40c27 0 58 4 83 28c13 13 32 38 32 85c0 23 -5 48 -26 68c-6 6 -28 24 -69 24
c-23 0 -47 -6 -70 -18l80 182h159z" />
    <glyph glyph-name="uni2086" unicode="&#x2086;" horiz-adv-x="330" 
d="M230 405l25 -21l-97 -119c12 4 25 7 43 7c43 0 71 -18 87 -33c28 -27 36 -60 36 -90c0 -51 -18 -85 -41 -109c-32 -33 -71 -45 -115 -45c-25 0 -65 5 -95 34c-17 17 -36 45 -36 89c0 56 27 92 58 128zM170 31c38 0 63 13 78 27c20 19 35 52 35 91c0 23 -7 47 -26 65
c-16 15 -39 25 -68 25c-30 0 -54 -9 -75 -29s-37 -52 -37 -87c0 -23 7 -45 25 -64c19 -20 43 -28 68 -28z" />
    <glyph glyph-name="uni2087" unicode="&#x2087;" horiz-adv-x="330" 
d="M16 19l277 345h-218l4 36h290l-321 -404z" />
    <glyph glyph-name="uni2088" unicode="&#x2088;" horiz-adv-x="330" 
d="M142 208c-4 2 -21 12 -32 29c-10 15 -14 32 -14 49c0 30 11 64 34 87c15 15 40 32 80 32c31 0 57 -10 74 -27c12 -12 26 -34 26 -70c0 -25 -6 -47 -21 -66c-16 -20 -34 -30 -47 -34c21 -7 33 -21 38 -27c15 -20 18 -43 18 -61c0 -27 -5 -63 -33 -92
c-29 -30 -63 -33 -91 -33s-59 3 -85 29c-17 17 -29 43 -29 75c0 29 10 54 25 72c17 21 37 32 57 37zM195 226c26 0 42 10 52 19c13 13 24 33 24 59c0 21 -7 37 -16 47c-8 9 -24 18 -48 18c-23 0 -39 -9 -49 -19c-16 -15 -24 -39 -24 -62c0 -19 7 -34 17 -44
c12 -13 27 -18 44 -18zM173 31c16 0 39 3 58 20c16 15 27 41 27 68c0 28 -12 44 -20 52c-10 10 -28 19 -53 19s-43 -8 -59 -24s-26 -40 -26 -63c0 -18 7 -40 21 -54c15 -15 35 -18 52 -18z" />
    <glyph glyph-name="uni2089" unicode="&#x2089;" horiz-adv-x="330" 
d="M146 -5l-25 21l98 119c-13 -5 -26 -8 -42 -8c-41 0 -70 15 -88 32c-17 16 -36 45 -36 90c0 41 15 84 45 114c21 21 57 42 111 42c44 0 74 -16 95 -36c18 -17 36 -45 36 -88c0 -53 -28 -92 -53 -121zM203 369c-29 0 -56 -11 -77 -32c-20 -21 -33 -51 -33 -84
c0 -30 11 -53 26 -68c12 -12 33 -24 66 -24c36 0 61 13 79 29c22 20 35 50 35 84c0 30 -12 54 -28 69s-40 26 -68 26z" />
    <glyph glyph-name="Euro" unicode="&#x20ac;" horiz-adv-x="548" 
d="M561 629l-24 -37c-48 36 -106 44 -140 44c-100 0 -212 -69 -253 -205h325l-21 -40h-316c-10 -36 -14 -71 -15 -103h278l-21 -40h-256c1 -98 51 -219 194 -219c98 0 169 58 184 71l-7 -58c-56 -37 -122 -53 -181 -53c-204 0 -237 176 -236 259h-68l21 40h46
c1 34 5 68 15 103h-64l21 40h55c42 141 160 245 309 245c22 0 95 -3 154 -47z" />
    <glyph glyph-name="uni20B4" unicode="&#x20b4;" horiz-adv-x="548" 
d="M219 554l-27 27c29 40 62 60 74 67c29 17 69 28 106 28c51 0 88 -22 109 -46c23 -25 33 -59 33 -90c0 -39 -18 -79 -48 -109h74l-9 -40h-108l-154 -103h240l-8 -40h-283c-19 -13 -60 -47 -60 -106c0 -34 13 -63 32 -83c23 -23 48 -30 77 -30c42 0 73 11 94 24
c46 28 68 77 76 97l33 -22c-20 -61 -64 -97 -92 -113c-27 -15 -63 -26 -110 -26c-36 0 -73 6 -108 40c-33 32 -48 75 -48 113c0 14 3 63 51 106h-78l8 40h108l154 103h-240l9 40h282c24 18 62 53 62 105c0 26 -6 50 -25 70c-20 21 -44 30 -72 30c-31 0 -62 -7 -90 -25
c-21 -13 -45 -36 -62 -57z" />
    <glyph glyph-name="uni20B6" unicode="&#x20b6;" horiz-adv-x="548" 
d="M228 667h129c32 0 93 -4 135 -47c20 -20 41 -55 41 -112c0 -56 -20 -105 -49 -135c-26 -27 -75 -56 -169 -56h-86l-11 -90h167l-5 -40h-167l-23 -187h-44l22 186h-75l5 40h75l11 91h-75l6 40h75zM267 627l-33 -270h88c38 0 87 5 123 39c21 20 40 54 40 110
c0 25 -4 55 -29 82c-36 39 -80 39 -118 39h-71z" />
    <glyph glyph-name="uni20B6" unicode="&#x20cf;" horiz-adv-x="548" 
d="M228 667h129c32 0 93 -4 135 -47c20 -20 41 -55 41 -112c0 -56 -20 -105 -49 -135c-26 -27 -75 -56 -169 -56h-86l-11 -90h167l-5 -40h-167l-23 -187h-44l22 186h-75l5 40h75l11 91h-75l6 40h75zM267 627l-33 -270h88c38 0 87 5 123 39c21 20 40 54 40 110
c0 25 -4 55 -29 82c-36 39 -80 39 -118 39h-71z" />
    <glyph glyph-name="uni20B6" unicode="&#x20ce;" horiz-adv-x="548" 
d="M228 667h129c32 0 93 -4 135 -47c20 -20 41 -55 41 -112c0 -56 -20 -105 -49 -135c-26 -27 -75 -56 -169 -56h-86l-11 -90h167l-5 -40h-167l-23 -187h-44l22 186h-75l5 40h75l11 91h-75l6 40h75zM267 627l-33 -270h88c38 0 87 5 123 39c21 20 40 54 40 110
c0 25 -4 55 -29 82c-36 39 -80 39 -118 39h-71z" />
    <glyph glyph-name="uni20B6" unicode="&#x20cd;" horiz-adv-x="548" 
d="M228 667h129c32 0 93 -4 135 -47c20 -20 41 -55 41 -112c0 -56 -20 -105 -49 -135c-26 -27 -75 -56 -169 -56h-86l-11 -90h167l-5 -40h-167l-23 -187h-44l22 186h-75l5 40h75l11 91h-75l6 40h75zM267 627l-33 -270h88c38 0 87 5 123 39c21 20 40 54 40 110
c0 25 -4 55 -29 82c-36 39 -80 39 -118 39h-71z" />
    <glyph glyph-name="uni20B6" unicode="&#x20cc;" horiz-adv-x="548" 
d="M228 667h129c32 0 93 -4 135 -47c20 -20 41 -55 41 -112c0 -56 -20 -105 -49 -135c-26 -27 -75 -56 -169 -56h-86l-11 -90h167l-5 -40h-167l-23 -187h-44l22 186h-75l5 40h75l11 91h-75l6 40h75zM267 627l-33 -270h88c38 0 87 5 123 39c21 20 40 54 40 110
c0 25 -4 55 -29 82c-36 39 -80 39 -118 39h-71z" />
    </font>
</defs>
</svg>
