<svg xmlns="http://www.w3.org/2000/svg" width="86.563" height="86.562" viewBox="0 0 86.563 86.562"><g transform="translate(-41.137 -145.776)"><g transform="translate(54.262 158.878)"><line x2="7.737" y2="3.204" transform="translate(0 17.669)" fill="none" stroke="#ffb327" stroke-linecap="round" stroke-linejoin="round" stroke-width="1.5"/><line x2="3.274" y2="7.863" transform="translate(17.64)" fill="none" stroke="#ffb327" stroke-linecap="round" stroke-linejoin="round" stroke-width="1.5"/><line x1="13.106" y1="13.046" transform="translate(0.059 0.173)" fill="none" stroke="#ffb327" stroke-linecap="round" stroke-linejoin="round" stroke-width="1.5"/><g transform="translate(39.394)"><line x1="7.737" y2="3.204" transform="translate(13.178 17.669)" fill="none" stroke="#ffb327" stroke-linecap="round" stroke-linejoin="round" stroke-width="1.5"/><line x1="3.273" y2="7.863" fill="none" stroke="#ffb327" stroke-linecap="round" stroke-linejoin="round" stroke-width="1.5"/><line y1="13.046" x2="13.105" transform="translate(7.749 0.173)" fill="none" stroke="#ffb327" stroke-linecap="round" stroke-linejoin="round" stroke-width="1.5"/></g></g><g transform="translate(54.262 198.262)"><line y1="3.204" x2="7.737" fill="none" stroke="#ffb327" stroke-linecap="round" stroke-linejoin="round" stroke-width="1.5"/><line y1="7.866" x2="3.274" transform="translate(17.64 13.007)" fill="none" stroke="#ffb327" stroke-linecap="round" stroke-linejoin="round" stroke-width="1.5"/><line x1="13.106" y2="13.046" transform="translate(0.059 7.653)" fill="none" stroke="#ffb327" stroke-linecap="round" stroke-linejoin="round" stroke-width="1.5"/><g transform="translate(39.394)"><line x1="7.737" y1="3.204" transform="translate(13.178)" fill="none" stroke="#ffb327" stroke-linecap="round" stroke-linejoin="round" stroke-width="1.5"/><line x1="3.273" y1="7.866" transform="translate(0 13.007)" fill="none" stroke="#ffb327" stroke-linecap="round" stroke-linejoin="round" stroke-width="1.5"/><line x2="13.105" y2="13.046" transform="translate(7.749 7.653)" fill="none" stroke="#ffb327" stroke-linecap="round" stroke-linejoin="round" stroke-width="1.5"/></g></g><path d="M73.915,169.165a17.356,17.356,0,1,0,22.679,9.392A17.377,17.377,0,0,0,73.915,169.165Z" transform="translate(3.858 3.858)" fill="none" stroke="#ffb327" stroke-linecap="round" stroke-linejoin="round" stroke-width="1.5"/><line y1="18.451" transform="translate(84.416 146.526)" fill="none" stroke="#ffb327" stroke-linecap="round" stroke-linejoin="round" stroke-width="1.5"/><line y1="18.446" transform="translate(84.416 213.142)" fill="none" stroke="#ffb327" stroke-linecap="round" stroke-linejoin="round" stroke-width="1.5"/><line x2="18.451" transform="translate(108.497 189.056)" fill="none" stroke="#ffb327" stroke-linecap="round" stroke-linejoin="round" stroke-width="1.5"/><line y1="0.002" x2="18.445" transform="translate(41.887 189.056)" fill="none" stroke="#ffb327" stroke-linecap="round" stroke-linejoin="round" stroke-width="1.5"/></g></svg>