<svg xmlns="http://www.w3.org/2000/svg" width="32.742" height="30.152" viewBox="0 0 32.742 30.152"><g transform="translate(-311.096 -489.527)"><line x2="8.549" transform="translate(321.67 507.886)" fill="none" stroke="#394553" stroke-linecap="round" stroke-miterlimit="10" stroke-width="1"/><line x2="6.446" transform="translate(312.442 507.886)" fill="none" stroke="#394553" stroke-linecap="round" stroke-miterlimit="10" stroke-width="1"/><line y2="3.671" transform="translate(321.33 506.088)" fill="none" stroke="#394553" stroke-linecap="round" stroke-miterlimit="10" stroke-width="1"/><g transform="translate(317.397 493.777)"><path d="M330.036,500.877a3.933,3.933,0,1,1-3.933-3.932A3.934,3.934,0,0,1,330.036,500.877Z" transform="translate(-322.169 -496.945)" fill="none" stroke="#394553" stroke-miterlimit="10" stroke-width="1"/></g><rect width="8.705" height="28.726" transform="translate(334.634 490.126)" fill="none" stroke="#394553" stroke-miterlimit="10" stroke-width="1"/><path d="M326.362,494.056v-4.029h3.32v4.029" transform="translate(-6.692 0)" fill="none" stroke="#394553" stroke-linejoin="round" stroke-width="1"/><g transform="translate(334.788 493.721)"><line x2="2.908" fill="none" stroke="#394553" stroke-linejoin="round" stroke-width="1"/><line x2="4.841" transform="translate(0 3.589)" fill="none" stroke="#394553" stroke-linejoin="round" stroke-width="1"/><line x2="4.841" transform="translate(0 10.768)" fill="none" stroke="#394553" stroke-linejoin="round" stroke-width="1"/><line x2="2.908" transform="translate(0 7.179)" fill="none" stroke="#394553" stroke-linejoin="round" stroke-width="1"/><line x2="2.908" transform="translate(0 14.358)" fill="none" stroke="#394553" stroke-linejoin="round" stroke-width="1"/><line x2="2.908" transform="translate(0 21.536)" fill="none" stroke="#394553" stroke-linejoin="round" stroke-width="1"/><line x2="4.841" transform="translate(0 17.947)" fill="none" stroke="#394553" stroke-linejoin="round" stroke-width="1"/></g><g transform="translate(320.907 497.287)"><g transform="translate(0)"><path d="M329.49,503.843a.423.423,0,1,1-.422-.423A.421.421,0,0,1,329.49,503.843Z" transform="translate(-328.645 -503.42)" fill="#394553" stroke="#394553" stroke-miterlimit="10" stroke-width="1"/></g></g><g transform="translate(311.747 501.065)"><g transform="translate(11.784)"><line x2="3.521" y2="8.564" transform="translate(3.86 9.398)" fill="none" stroke="#394553" stroke-linecap="round" stroke-miterlimit="10" stroke-width="1"/><line x2="2.773" y2="6.757" fill="none" stroke="#394553" stroke-linecap="round" stroke-miterlimit="10" stroke-width="1"/></g><line x1="3.521" y2="8.564" transform="translate(0 9.398)" fill="none" stroke="#394553" stroke-linecap="round" stroke-miterlimit="10" stroke-width="1"/><line x1="2.774" y2="6.757" transform="translate(4.608)" fill="none" stroke="#394553" stroke-linecap="round" stroke-miterlimit="10" stroke-width="1"/></g></g></svg>