<svg xmlns="http://www.w3.org/2000/svg" width="53.93" height="70.384" viewBox="0 0 53.93 70.384"><g transform="translate(-313.924 -259.016)"><path d="M342.428,282.151l-5.138-5.138c-2.19-2.308-1.561-5.36-1.546-6.221a10.471,10.471,0,0,0-14.391-10.115l5.5,5.5a4.081,4.081,0,0,1-5.771,5.771l-5.5-5.5A10.469,10.469,0,0,0,325.7,280.835a9.3,9.3,0,0,1,4.676.5" fill="none" stroke="#ffb327" stroke-linejoin="round" stroke-width="1.5"/><path d="M348.722,299.186l11.172,11.171c1.923,1.923,3.893,2.372,5.817.446s1.478-3.89-.448-5.817l-2.482-2.482" fill="none" stroke="#ffb327" stroke-linejoin="round" stroke-width="1.5"/><path d="M361.04,293.882a3.116,3.116,0,0,1,4.391.039l.516.511a3.12,3.12,0,0,1,.034,4.392l-3.631,3.63a3.116,3.116,0,0,1-4.393-.036l-.511-.51a3.12,3.12,0,0,1-.036-4.395Z" fill="none" stroke="#ffb327" stroke-miterlimit="10" stroke-width="1.5"/><path d="M357.451,287.6a3.113,3.113,0,0,1,4.389.036l.513.513a3.114,3.114,0,0,1,.036,4.389l-4.979,4.977a3.114,3.114,0,0,1-4.39-.031l-.512-.514a3.115,3.115,0,0,1-.035-4.392Z" fill="none" stroke="#ffb327" stroke-miterlimit="10" stroke-width="1.5"/><path d="M342.153,283.139l4.7-4.7a3.119,3.119,0,0,1,4.393.036l.514.515a3.119,3.119,0,0,1,.036,4.391l-4.565,4.562" fill="none" stroke="#ffb327" stroke-miterlimit="10" stroke-width="1.5"/><path d="M347.535,287.638l6.223-6.22a3.1,3.1,0,0,1,4.387.037l.512.507a3.115,3.115,0,0,1,.035,4.394l-6.219,6.22" fill="none" stroke="#ffb327" stroke-miterlimit="10" stroke-width="1.5"/><path d="M342.025,301.73s2.955-6.062-1.762-10.779" fill="none" stroke="#ffb327" stroke-linecap="round" stroke-miterlimit="10" stroke-width="1.5"/><path d="M337.628,319.677l3.269-3.271a8.751,8.751,0,0,0,5.59-.7c2.653-1.188,6.343-4.165,10.553-8.1" fill="none" stroke="#ffb327" stroke-linecap="round" stroke-linejoin="round" stroke-width="1.5"/><path d="M338.359,289.031l4.781,4.781c3.63,3.626,8.247-.989,8.247-.989L341.1,282.54a4.992,4.992,0,0,0-3.735-1.451,17.516,17.516,0,0,0-7.21,7.737c-.934,1.762-1.974,10.871-1.974,10.871a6.5,6.5,0,0,1-1.036,3.114" fill="none" stroke="#ffb327" stroke-linecap="round" stroke-linejoin="round" stroke-width="1.5"/><path d="M315.335,309.589l5.955-5.955,18.751,18.75-5.955,5.955" fill="none" stroke="#ffb327" stroke-linecap="round" stroke-linejoin="round" stroke-width="1.5"/></g></svg>