<svg xmlns="http://www.w3.org/2000/svg" width="77.457" height="72.402" viewBox="0 0 77.457 72.402"><g transform="translate(-38.076 -147.986)"><line x2="52.523" transform="translate(48.57 192.928)" fill="none" stroke="#ffb327" stroke-width="1.5"/><line x2="29.145" transform="translate(60.26 184.871)" fill="none" stroke="#ffb327" stroke-width="1.5"/><line x2="10.782" transform="translate(57.579 202)" fill="none" stroke="#ffb327" stroke-width="1.5"/><line x2="10.782" transform="translate(57.579 210.859)" fill="none" stroke="#ffb327" stroke-width="1.5"/><line x2="10.579" transform="translate(81.303 202)" fill="none" stroke="#ffb327" stroke-width="1.5"/><line x2="10.579" transform="translate(81.303 210.859)" fill="none" stroke="#ffb327" stroke-width="1.5"/><path d="M54.066,197.809a4.193,4.193,0,1,1-4.191-4.192A4.191,4.191,0,0,1,54.066,197.809Z" fill="rgba(0,0,0,0)" stroke="#ffb327" stroke-width="1.5"/><path d="M54.066,206.513a4.193,4.193,0,1,1-4.191-4.193A4.193,4.193,0,0,1,54.066,206.513Z" fill="rgba(0,0,0,0)" stroke="#ffb327" stroke-width="1.5"/><path d="M54.066,215.218a4.193,4.193,0,1,1-4.191-4.192A4.193,4.193,0,0,1,54.066,215.218Z" fill="rgba(0,0,0,0)" stroke="#ffb327" stroke-width="1.5"/><path d="M103.984,197.809a4.193,4.193,0,1,1-4.193-4.192A4.192,4.192,0,0,1,103.984,197.809Z" fill="rgba(0,0,0,0)" stroke="#ffb327" stroke-width="1.5"/><path d="M103.984,206.515a4.193,4.193,0,1,1-4.193-4.195A4.194,4.194,0,0,1,103.984,206.515Z" fill="rgba(0,0,0,0)" stroke="#ffb327" stroke-width="1.5"/><path d="M103.984,215.218a4.193,4.193,0,1,1-4.193-4.192A4.194,4.194,0,0,1,103.984,215.218Z" fill="rgba(0,0,0,0)" stroke="#ffb327" stroke-width="1.5"/><path d="M81.066,219.435V198.827H68.6v20.607" fill="rgba(0,0,0,0)" stroke="#ffb327" stroke-width="1.5"/><path d="M57.3,179.611v-8.143H49.816v8.106" fill="rgba(0,0,0,0)" stroke="#ffb327" stroke-width="1.5"/><path d="M68.194,148.736H52.207a3.871,3.871,0,0,0,0,7.736h7.164a2.975,2.975,0,0,1,0,5.947H56.226a2.9,2.9,0,0,0-2.886,2.887v1.276" fill="rgba(0,0,0,0)" stroke="#ffb327" stroke-width="1.5"/><path d="M110.559,191.207,74.832,169.092,39.107,191.207l2.979,4.818,32.745-20.267,32.746,20.265Z" fill="rgba(0,0,0,0)" stroke="#ffb327" stroke-width="1.5"/><line x2="64.933" transform="translate(42.514 219.638)" fill="none" stroke="#ffb327" stroke-width="1.5"/><line x2="3.456" transform="translate(112.075 219.638)" fill="none" stroke="#ffb327" stroke-width="1.5"/></g></svg>