<svg xmlns="http://www.w3.org/2000/svg" width="28.201" height="38.78" viewBox="0 0 28.201 38.78"><g transform="translate(-313.402 -37.274)"><g transform="translate(313.897 37.774)"><g transform="translate(9.138)"><g transform="translate(8.599 7.53)"><path d="M345.307,51.794a.434.434,0,1,1,.435-.433A.432.432,0,0,1,345.307,51.794Z" transform="translate(-344.872 -50.925)" fill="rgba(0,0,0,0)" stroke="#394553" stroke-width="1"/></g><path d="M329.855,59.69V37.774h18.068V69.618H336.06" transform="translate(-329.855 -37.774)" fill="rgba(0,0,0,0)" stroke="#394553" stroke-width="1"/><path d="M340.743,68.77h4.047a2.28,2.28,0,0,1,2.281-2.28v-20.6a2.281,2.281,0,0,1-2.281-2.281H338a2.28,2.28,0,0,1-2.28,2.281V59.309" transform="translate(-332.363 -40.27)" fill="rgba(0,0,0,0)" stroke="#394553" stroke-width="1"/><path d="M343.384,66.29a2.805,2.805,0,1,1,3.011-2.8A2.912,2.912,0,0,1,343.384,66.29Z" transform="translate(-334.351 -47.57)" fill="rgba(0,0,0,0)" stroke="#394553" stroke-width="1"/></g><g transform="translate(0 16.531)"><g transform="translate(5.59 4.324)"><path d="M323.66,82.454l6.7-7.193a2.99,2.99,0,0,1,3.977-.52,3.207,3.207,0,0,1,.217,4.112L326.136,91.34" transform="translate(-323.66 -74.195)" fill="rgba(0,0,0,0)" stroke="#394553" stroke-width="1"/></g><path d="M322.827,66.644s-8.688,7.387-8.885,8.541c-.163.937.157,9.553.281,12.9" transform="translate(-313.897 -66.644)" fill="rgba(0,0,0,0)" stroke="#394553" stroke-width="1"/></g></g></g></svg>