<svg xmlns="http://www.w3.org/2000/svg" width="23.25" height="23.25" viewBox="0 0 23.25 23.25"><path d="M23.25-9a11.269,11.269,0,0,0-1.57-5.812,11.747,11.747,0,0,0-4.242-4.242,11.269,11.269,0,0,0-5.812-1.57,11.269,11.269,0,0,0-5.812,1.57A11.747,11.747,0,0,0,1.57-14.812,11.269,11.269,0,0,0,0-9,11.366,11.366,0,0,0,2.039-2.391,11.24,11.24,0,0,0,7.406,1.828,10.306,10.306,0,0,1,7.453-1.5L8.766-7.266A4.089,4.089,0,0,1,8.437-9a3.223,3.223,0,0,1,.609-2.016,1.829,1.829,0,0,1,1.5-.8,1.331,1.331,0,0,1,1.078.445A1.686,1.686,0,0,1,12-10.242a10.2,10.2,0,0,1-.516,2.414,11.976,11.976,0,0,0-.422,1.5,1.654,1.654,0,0,0,.328,1.477,1.717,1.717,0,0,0,1.406.633,3.1,3.1,0,0,0,2.6-1.5,6.532,6.532,0,0,0,1.055-3.844,4.562,4.562,0,0,0-1.359-3.4A4.8,4.8,0,0,0,11.578-14.3a5.257,5.257,0,0,0-2.812.75,4.883,4.883,0,0,0-1.8,1.852,5.02,5.02,0,0,0-.633,2.461,4.782,4.782,0,0,0,.234,1.477,3.73,3.73,0,0,0,.609,1.2.326.326,0,0,1,.094.328L6.937-4.922q-.047.281-.375.141a3.716,3.716,0,0,1-1.711-1.8,5.891,5.891,0,0,1-.68-2.7,6.98,6.98,0,0,1,.914-3.492,6.688,6.688,0,0,1,2.555-2.555,8.761,8.761,0,0,1,4.219-.984,7.7,7.7,0,0,1,3.656.867,6.508,6.508,0,0,1,2.578,2.414,6.6,6.6,0,0,1,.937,3.492,8.3,8.3,0,0,1-.773,3.586,6.433,6.433,0,0,1-2.156,2.6,5.26,5.26,0,0,1-3.07.961,3.617,3.617,0,0,1-1.641-.375A2.183,2.183,0,0,1,10.359-3.7L9.609-.937A11.744,11.744,0,0,1,8.2,2.109a11.345,11.345,0,0,0,3.422.516,11.269,11.269,0,0,0,5.812-1.57A11.747,11.747,0,0,0,21.68-3.187,11.269,11.269,0,0,0,23.25-9Z" transform="translate(0 20.625)" fill="#ffb327"/></svg>