<svg xmlns="http://www.w3.org/2000/svg" width="41" height="41" viewBox="0 0 41 41"><g transform="translate(-364 -1596)"><rect width="41" height="41" rx="10" transform="translate(364 1596)"/><g transform="translate(371 1604)"><g transform="translate(11.406 10.605)"><path d="M340.534,302.251l-6.913-2.9a1.32,1.32,0,0,1-.7-1.727l.079-.186a1.32,1.32,0,0,1,1.726-.7l3.134,1.307-1.192-2.9-2.458-5.987a1.322,1.322,0,0,1,.718-1.718l.1-.041a1.319,1.319,0,0,1,1.717.717l1.879,4.573,4.984-1.146a2.3,2.3,0,0,1,2.466,1.676l1.846,5.763" transform="translate(-332.82 -287.306)" fill="rgba(0,0,0,0)" stroke="#ffb327" stroke-width="0.75"/></g><g transform="translate(0 0)"><g transform="translate(6.124 2.922)"><path d="M319.028,276.891a2.126,2.126,0,0,0,4.24,0c0-1.089-1.132-1.566-2.125-2.07s-2.123-.98-2.123-2.068a2.125,2.125,0,0,1,4.239,0" transform="translate(-319.02 -269.422)" fill="rgba(0,0,0,0)" stroke="#ffb327" stroke-width="0.75"/><line y1="1.349" transform="translate(2.119)" fill="none" stroke="#ffb327" stroke-width="0.75"/><line y1="1.348" transform="translate(2.119 9.451)" fill="none" stroke="#ffb327" stroke-width="0.75"/></g><path d="M314.965,281.982a8.277,8.277,0,0,1-10.834-11.556" transform="translate(-303.022 -266.282)" fill="rgba(0,0,0,0)" stroke="#ffb327" stroke-width="0.75" fill-rule="evenodd"/><path d="M310.613,261.58a8.28,8.28,0,0,1,13.539,7.659" transform="translate(-307.707 -259.599)" fill="rgba(0,0,0,0)" stroke="#ffb327" stroke-width="0.75" fill-rule="evenodd"/></g></g></g></svg>