<svg xmlns="http://www.w3.org/2000/svg" width="33.375" height="34" viewBox="0 0 33.375 34"><g transform="translate(-309.537 -486.342)"><g transform="translate(315.797 500.728)"><g transform="translate(0)"><path d="M319.875,520.859a2.619,2.619,0,0,0,5.224,0c0-1.341-1.395-1.928-2.618-2.55s-2.617-1.208-2.617-2.549a2.619,2.619,0,0,1,5.224,0" transform="translate(-319.863 -511.69)" fill="none" stroke="#394553" stroke-width="1"/><line y1="1.629" transform="translate(2.612)" fill="none" stroke="#394553" stroke-width="1"/><line y1="1.629" transform="translate(2.612 11.61)" fill="none" stroke="#394553" stroke-width="1"/></g></g><g transform="translate(310.037 486.842)"><g transform="translate(16.879 11.458)"><path d="M340.042,527.932a1.226,1.226,0,0,1-1.21-1.225V507.6a1.213,1.213,0,0,1,1.21-1.21h13.077a1.213,1.213,0,0,1,1.21,1.21v19.106a1.226,1.226,0,0,1-1.21,1.225Z" transform="translate(-338.832 -506.39)" fill="none" stroke="#394553" stroke-width="1"/><line x2="12.901" transform="translate(2.563 7.096)" fill="none" stroke="#394553" stroke-width="1"/><line y2="14.274" transform="translate(5.175 7.171)" fill="none" stroke="#394553" stroke-width="1"/><line y2="14.269" transform="translate(10.348 7.156)" fill="none" stroke="#394553" stroke-width="1"/><line x2="12.901" transform="translate(2.563 11.895)" fill="none" stroke="#394553" stroke-width="1"/><line x2="7.69" transform="translate(2.563 16.696)" fill="none" stroke="#394553" stroke-width="1"/></g><path d="M319.794,492.264v4.373h-4.378" transform="translate(-312.263 -489.086)" fill="none" stroke="#394553" stroke-width="1"/><path d="M323.676,519.842H310.037v-26.6l6.4-6.4h18.381v8.43" transform="translate(-310.037 -486.842)" fill="none" stroke="#394553" stroke-width="1"/></g></g></svg>