<svg xmlns="http://www.w3.org/2000/svg" width="68.162" height="63.745" viewBox="0 0 68.162 63.745"><g transform="translate(-177.301 -150.092)"><path d="M226.852,184.483a.75.75,0,1,1-.748-.75A.747.747,0,0,1,226.852,184.483Z" fill="rgba(0,0,0,0)" stroke="#ffb327" stroke-width="1.5"/><path d="M204.516,169.242h35.1V199.93h-17.33" fill="rgba(0,0,0,0)" stroke="#ffb327" stroke-width="1.5"/><path d="M204.516,164.272h40.2v31.736" fill="rgba(0,0,0,0)" stroke="#ffb327" stroke-width="1.5"/><path d="M222.289,194.223h7.777a3.874,3.874,0,0,1,3.874-3.873V178.821a3.874,3.874,0,0,1-3.874-3.873h-25.55" fill="rgba(0,0,0,0)" stroke="#ffb327" stroke-width="1.5"/><path d="M208.043,186.243a5.475,5.475,0,0,1-.221-1.543,4.767,4.767,0,1,1,9.508,0,5.334,5.334,0,0,1-1.056,3.212" fill="rgba(0,0,0,0)" stroke="#ffb327" stroke-width="1.5"/><path d="M200.367,156.008c0,2.852-5,5.164-11.158,5.164s-11.158-2.312-11.158-5.164,5-5.166,11.158-5.166S200.367,153.155,200.367,156.008Z" fill="rgba(0,0,0,0)" stroke="#ffb327" stroke-width="1.5"/><path d="M178.051,168.946c0,2.853,5,5.166,11.158,5.166s11.158-2.313,11.158-5.166" fill="rgba(0,0,0,0)" stroke="#ffb327" stroke-width="1.5"/><path d="M178.051,162.5c0,2.852,5,5.166,11.158,5.166s11.158-2.314,11.158-5.166" fill="rgba(0,0,0,0)" stroke="#ffb327" stroke-width="1.5"/><path d="M178.051,181.842c0,2.854,5,5.166,11.158,5.166s11.158-2.312,11.158-5.166" fill="rgba(0,0,0,0)" stroke="#ffb327" stroke-width="1.5"/><path d="M178.051,188.292c0,2.851,5,5.164,11.158,5.164a23.619,23.619,0,0,0,2.93-.18" fill="rgba(0,0,0,0)" stroke="#ffb327" stroke-width="1.5"/><line y1="31.543" transform="translate(200.367 156.008)" fill="none" stroke="#ffb327" stroke-width="1.5"/><path d="M178.051,161.461v39.727c0,2.852,5,5.164,11.158,5.164a23.711,23.711,0,0,0,2.871-.172" fill="rgba(0,0,0,0)" stroke="#ffb327" stroke-width="1.5"/><path d="M200.367,175.4c0,2.852-5,5.164-11.158,5.164s-11.158-2.312-11.158-5.164" fill="rgba(0,0,0,0)" stroke="#ffb327" stroke-width="1.5"/><path d="M178.051,194.739c0,2.853,5,5.166,11.158,5.166a23.733,23.733,0,0,0,2.67-.15" fill="rgba(0,0,0,0)" stroke="#ffb327" stroke-width="1.5"/><path d="M218.211,195c0,2.853-5,5.166-11.158,5.166S195.9,197.854,195.9,195s5-5.165,11.156-5.165S218.211,192.149,218.211,195Z" fill="rgba(0,0,0,0)" stroke="#ffb327" stroke-width="1.5"/><path d="M195.9,200.584v7.338c0,2.852,5,5.165,11.158,5.165s11.158-2.313,11.158-5.165V194.983" fill="rgba(0,0,0,0)" stroke="#ffb327" stroke-width="1.5"/><path d="M195.9,201.474c0,2.853,5,5.165,11.158,5.165s11.158-2.312,11.158-5.165" fill="rgba(0,0,0,0)" stroke="#ffb327" stroke-width="1.5"/></g></svg>