<svg xmlns="http://www.w3.org/2000/svg" width="41" height="41" viewBox="0 0 41 41"><g transform="translate(-888 -1596)"><rect width="41" height="41" rx="10" transform="translate(888 1596)"/><g transform="translate(895 1606)"><rect width="7.332" height="7.331" transform="translate(18.202 8.232) rotate(-9.774)" fill="rgba(0,0,0,0)" stroke="#ffb327" stroke-width="0.75"/><line x1="2.679" y1="15.542" transform="translate(14.251 0)" fill="none" stroke="#ffb327" stroke-width="0.75"/><line x1="7.066" y2="1.172" transform="translate(19.253 16.599)" fill="none" stroke="#ffb327" stroke-width="0.75"/><line x2="0.408" y2="2.603" transform="translate(21.67 7.614)" fill="none" stroke="#ffb327" stroke-width="0.75"/><path d="M44.081,165.99v-3.959a2.612,2.612,0,0,1,2.648-2.9h3.737a6.907,6.907,0,0,1,2.153,2.16,8.4,8.4,0,0,1,1.475,2.773h4.344l-3.531-12.41a10.479,10.479,0,0,0-7.217-.98v6.737" transform="translate(-44.081 -149.444)" fill="rgba(0,0,0,0)" stroke="#ffb327" stroke-width="0.75"/><line x2="7.339" transform="translate(5.289 19.941)" fill="none" stroke="#ffb327" stroke-width="0.75"/><line y1="1.746" transform="translate(5.864 4.536)" fill="none" stroke="#ffb327" stroke-width="0.75"/><line y1="2.223" transform="translate(5.864 5.74)" fill="none" stroke="#ffb327" stroke-width="0.75"/><ellipse cx="2.392" cy="2.392" rx="2.392" ry="2.392" transform="translate(12.727 17.115)" fill="rgba(0,0,0,0)" stroke="#ffb327" stroke-width="0.75"/><ellipse cx="2.392" cy="2.392" rx="2.392" ry="2.392" transform="translate(0.401 17.115)" fill="rgba(0,0,0,0)" stroke="#ffb327" stroke-width="0.75"/><path d="M84.954,182.938" transform="translate(-69.309 -169.516)" fill="rgba(0,0,0,0)" stroke="#ffb327" stroke-width="0.75"/><path d="M77.829,179.959" transform="translate(-64.911 -167.678)" fill="rgba(0,0,0,0)" stroke="#ffb327" stroke-width="0.75"/></g></g></svg>