<svg xmlns="http://www.w3.org/2000/svg" width="41" height="41" viewBox="0 0 41 41"><g transform="translate(-364 -1930)"><rect width="41" height="41" rx="10" transform="translate(364 1930)"/><g transform="translate(371 1938)"><g transform="translate(13.173 0)"><path d="M83.923,156.317h6.414v-9.571H77.04v9.571h4.7L78.447,159.3" transform="translate(-77.04 -146.746)" fill="rgba(0,0,0,0)" stroke="#ffb327" stroke-width="0.75"/><g transform="translate(2.587 3.335)"><line x2="8.135" fill="none" stroke="#ffb327" stroke-width="0.75"/><line x2="5.801" transform="translate(0 2.897)" fill="none" stroke="#ffb327" stroke-width="0.75"/></g></g><g transform="translate(0 7.244)"><g transform="translate(2.691)"><path d="M58.492,173.94V170.3c-.064-4.961-4.372-4.628-4.372-4.628h-.093s-4.308-.333-4.371,4.628v3.635" transform="translate(-49.656 -165.672)" fill="rgba(0,0,0,0)" stroke="#ffb327" stroke-width="0.75"/><path d="M52,176.3c.325,1.477,1.311,2.7,2.381,2.7,1.424,0,2.507-2,2.507-4.067a3.8,3.8,0,0,0-.614-2.246s-1.491,1.8-6.175,2.064" transform="translate(-49.93 -170.005)" fill="rgba(0,0,0,0)" stroke="#ffb327" stroke-width="0.75"/></g><g transform="translate(0 9.858)"><path d="M44.46,194.836a2.461,2.461,0,0,0-1.546,1.809l-.289,5.076" transform="translate(-42.625 -193.531)" fill="rgba(0,0,0,0)" stroke="#ffb327" stroke-width="0.75"/><g transform="translate(10.065 0.722)"><path d="M68.92,193.312l1.637.354s1.966.387,2.227,2.039l.29,5.076" transform="translate(-68.92 -193.312)" fill="rgba(0,0,0,0)" stroke="#ffb327" stroke-width="0.75"/></g><path d="M57.032,194.143l1.463-.077-2.252-2.64-2.16,6.011-2.16-6.011-2.251,2.64,1.463.077" transform="translate(-46.975 -191.426)" fill="rgba(0,0,0,0)" stroke="#ffb327" stroke-width="0.75"/></g></g></g></g></svg>