<svg xmlns="http://www.w3.org/2000/svg" xmlns:xlink="http://www.w3.org/1999/xlink" width="150" height="88.385" viewBox="0 0 150 88.385"><defs><clipPath id="a"><path d="M736.042,465.475h-1.036v-3.043h1.066c.977,0,1.717.333,1.717,1.484C737.79,465.188,736.946,465.475,736.042,465.475Zm-.922,6.174v-4h2.208a3.37,3.37,0,0,0,3.506-3.626,3.513,3.513,0,0,0-3.6-3.851h-5.1v11.478ZM723.765,469.3a3.158,3.158,0,0,1-3.282-3.325,3.306,3.306,0,1,1,3.282,3.325Zm.016,2.783a6.176,6.176,0,1,0,.015-12.347,6.176,6.176,0,1,0-.015,12.347Zm-15.437-.435v-4.66h4.19v4.66h2.993V460.171h-2.993v4.315h-4.19v-4.315H705.35v11.478Zm-9.308.435c2.3,0,4.575-1.292,4.575-3.755,0-1.727-.882-2.778-2.6-3.47-.3-.12-.882-.36-1.241-.5-.6-.226-1.3-.437-1.3-1.052s.419-1.006,1.152-1.006a4.614,4.614,0,0,1,2.3.916l1.167-2.253a6.986,6.986,0,0,0-3.663-1.231,3.716,3.716,0,0,0-3.933,3.665,3.4,3.4,0,0,0,2.243,3.319c.494.226,1.346.556,1.705.691,1.121.42,1.2.646,1.2,1.126,0,.616-.823.9-1.66.9a4.359,4.359,0,0,1-2.691-1.111c-.254.436-1.2,2.328-1.2,2.328l.072.045A6.961,6.961,0,0,0,699.035,472.083Zm31.027-16.347h-1.317V449.3h1.407a2.848,2.848,0,0,1,2.768,3.074C732.919,454.32,731.827,455.737,730.062,455.737Zm.47,2.521c3.2,0,5.431-2.517,5.431-5.874a5.358,5.358,0,0,0-5.461-5.6h-4.8v11.477Zm-7.354,0V446.781h-3.043v11.477ZM713.1,451.911h-.966v-2.869h1c1,0,1.525.463,1.525,1.435C714.656,451.567,713.931,451.911,713.1,451.911Zm-.847,6.347v-4.045h.6c.329.524,2.407,4.045,2.407,4.045h3.572s-2.765-4.315-3.064-4.75a3.054,3.054,0,0,0,1.974-3.131c0-2.442-1.884-3.6-3.917-3.6h-4.559v11.477Zm-10.757.435c4.287,0,5.854-2.929,5.854-6.339v-.631h-5.735v2.4h2.629a2.555,2.555,0,0,1-2.539,2.043c-2.21,0-3.106-1.562-3.106-3.515,0-2.088.881-3.7,2.837-3.7a3.141,3.141,0,0,1,2.808,1.592l2.39-1.322a5.554,5.554,0,0,0-5.167-2.884,5.971,5.971,0,0,0-5.944,6.189A5.886,5.886,0,0,0,701.5,458.693Zm20.176-13.825V440.4h3.286v-2.548h-3.286V436h3.769v-2.607h-6.784v11.478Zm-8.523,0V440.4h3.286v-2.548h-3.286V436h3.769v-2.607h-6.784v11.478Zm-11.3-2.348a3.158,3.158,0,0,1-3.283-3.325,3.306,3.306,0,1,1,3.283,3.325Zm-.072,2.783a6.176,6.176,0,1,0,.015-12.347,6.176,6.176,0,1,0-.015,12.347ZM723.7,431.478v-2.547h-3.707v-1.918h3.438v-2.547h-3.438v-1.858h3.647V420H717v11.478Zm-16.4,0v-4.66h4.189v4.66h2.993V420h-2.993v4.315H707.3V420h-2.993v11.478Zm-6.832,0v-8.75h2.36V420H695v2.727h2.36v8.75Z" transform="translate(-695 -420)" fill="#fff"/></clipPath><clipPath id="b"><circle cx="31.321" cy="31.321" r="31.321" fill="#ffb327"/></clipPath><clipPath id="c"><path d="M630.313,499.876a31.5,31.5,0,0,1-23.437,23.437V499.876Z" transform="translate(-606.875 -499.876)" fill="#fff" clip-rule="evenodd"/></clipPath><clipPath id="d"><path d="M546.25,408a31.14,31.14,0,0,1,21.362,8.442l-9.479,9.479a17.857,17.857,0,0,0-25.212,25.212l-9.479,9.479A31.25,31.25,0,0,1,546.25,408Z" transform="translate(-515 -408)" fill="#fff"/></clipPath></defs><g transform="translate(104.166 31.667)"><path d="M736.042,465.475h-1.036v-3.043h1.066c.977,0,1.717.333,1.717,1.484C737.79,465.188,736.946,465.475,736.042,465.475Zm-.922,6.174v-4h2.208a3.37,3.37,0,0,0,3.506-3.626,3.513,3.513,0,0,0-3.6-3.851h-5.1v11.478ZM723.765,469.3a3.158,3.158,0,0,1-3.282-3.325,3.306,3.306,0,1,1,3.282,3.325Zm.016,2.783a6.176,6.176,0,1,0,.015-12.347,6.176,6.176,0,1,0-.015,12.347Zm-15.437-.435v-4.66h4.19v4.66h2.993V460.171h-2.993v4.315h-4.19v-4.315H705.35v11.478Zm-9.308.435c2.3,0,4.575-1.292,4.575-3.755,0-1.727-.882-2.778-2.6-3.47-.3-.12-.882-.36-1.241-.5-.6-.226-1.3-.437-1.3-1.052s.419-1.006,1.152-1.006a4.614,4.614,0,0,1,2.3.916l1.167-2.253a6.986,6.986,0,0,0-3.663-1.231,3.716,3.716,0,0,0-3.933,3.665,3.4,3.4,0,0,0,2.243,3.319c.494.226,1.346.556,1.705.691,1.121.42,1.2.646,1.2,1.126,0,.616-.823.9-1.66.9a4.359,4.359,0,0,1-2.691-1.111c-.254.436-1.2,2.328-1.2,2.328l.072.045A6.961,6.961,0,0,0,699.035,472.083Zm31.027-16.347h-1.317V449.3h1.407a2.848,2.848,0,0,1,2.768,3.074C732.919,454.32,731.827,455.737,730.062,455.737Zm.47,2.521c3.2,0,5.431-2.517,5.431-5.874a5.358,5.358,0,0,0-5.461-5.6h-4.8v11.477Zm-7.354,0V446.781h-3.043v11.477ZM713.1,451.911h-.966v-2.869h1c1,0,1.525.463,1.525,1.435C714.656,451.567,713.931,451.911,713.1,451.911Zm-.847,6.347v-4.045h.6c.329.524,2.407,4.045,2.407,4.045h3.572s-2.765-4.315-3.064-4.75a3.054,3.054,0,0,0,1.974-3.131c0-2.442-1.884-3.6-3.917-3.6h-4.559v11.477Zm-10.757.435c4.287,0,5.854-2.929,5.854-6.339v-.631h-5.735v2.4h2.629a2.555,2.555,0,0,1-2.539,2.043c-2.21,0-3.106-1.562-3.106-3.515,0-2.088.881-3.7,2.837-3.7a3.141,3.141,0,0,1,2.808,1.592l2.39-1.322a5.554,5.554,0,0,0-5.167-2.884,5.971,5.971,0,0,0-5.944,6.189A5.886,5.886,0,0,0,701.5,458.693Zm20.176-13.825V440.4h3.286v-2.548h-3.286V436h3.769v-2.607h-6.784v11.478Zm-8.523,0V440.4h3.286v-2.548h-3.286V436h3.769v-2.607h-6.784v11.478Zm-11.3-2.348a3.158,3.158,0,0,1-3.283-3.325,3.306,3.306,0,1,1,3.283,3.325Zm-.072,2.783a6.176,6.176,0,1,0,.015-12.347,6.176,6.176,0,1,0-.015,12.347ZM723.7,431.478v-2.547h-3.707v-1.918h3.438v-2.547h-3.438v-1.858h3.647V420H717v11.478Zm-16.4,0v-4.66h4.189v4.66h2.993V420h-2.993v4.315H707.3V420h-2.993v11.478Zm-6.832,0v-8.75h2.36V420H695v2.727h2.36v8.75Z" transform="translate(-695 -420)" fill="#fff"/></g><g transform="translate(0 0)"><circle cx="31.321" cy="31.321" r="31.321" fill="#ffb327"/></g><g transform="translate(67.448 64.948)"><path d="M630.313,499.876a31.5,31.5,0,0,1-23.437,23.437V499.876Z" transform="translate(-606.875 -499.876)" fill="#fff" fill-rule="evenodd"/></g><g transform="translate(29.167 26.667)"><path d="M546.25,408a31.14,31.14,0,0,1,21.362,8.442l-9.479,9.479a17.857,17.857,0,0,0-25.212,25.212l-9.479,9.479A31.25,31.25,0,0,1,546.25,408Z" transform="translate(-515 -408)" fill="#fff"/></g></svg>