<svg xmlns="http://www.w3.org/2000/svg" width="59.666" height="37.02" viewBox="0 0 59.666 37.02">
  <g id="truck" transform="translate(-2277 -1925.5)">
    <g id="Group_1527" data-name="Group 1527" transform="translate(163 38)">
      <path id="_24-icon" data-name="24-icon" d="M0,0H39.167V23.271H0Z" transform="translate(2114.5 1888)" fill="none" stroke="#ffb327" stroke-width="1"/>
      <path id="_23-icon" data-name="23-icon" d="M0,0V14.584" transform="translate(2148.455 1892.335)" fill="none" stroke="#ffb327" stroke-linecap="round" stroke-width="1"/>
      <path id="_23-icon-2" data-name="23-icon" d="M0,0V17.095" transform="translate(2138.341 1918.343) rotate(-90)" fill="none" stroke="#fff" stroke-linecap="round" stroke-width="1"/>
      <path id="_23-icon-3" data-name="23-icon" d="M0,0V14.584" transform="translate(2142.676 1892.335)" fill="none" stroke="#ffb327" stroke-linecap="round" stroke-width="1"/>
      <path id="_23-icon-4" data-name="23-icon" d="M0,0V14.584" transform="translate(2136.896 1892.335)" fill="none" stroke="#ffb327" stroke-linecap="round" stroke-width="1"/>
      <path id="_23-icon-5" data-name="23-icon" d="M0,0V14.584" transform="translate(2131.116 1892.335)" fill="none" stroke="#ffb327" stroke-linecap="round" stroke-width="1"/>
      <path id="_23-icon-6" data-name="23-icon" d="M0,0V14.584" transform="translate(2125.337 1892.335)" fill="none" stroke="#ffb327" stroke-linecap="round" stroke-width="1"/>
      <path id="_23-icon-7" data-name="23-icon" d="M0,0V14.584" transform="translate(2119.557 1892.335)" fill="none" stroke="#ffb327" stroke-linecap="round" stroke-width="1"/>
      <path id="_16-icon" data-name="16-icon" d="M359.641,292.693h6.833L369,300.116l4.117.029V285.62l-5.849-12.068h-9.395v14.9" transform="translate(1800.053 1620.174)" fill="none" stroke="#fff" stroke-linejoin="round" stroke-width="1"/>
      <path id="_15-icon" data-name="15-icon" d="M300.627,301.707v6.424h6.367" transform="translate(1860.833 1594.962)" fill="none" stroke="#fff" stroke-linejoin="round" stroke-width="1"/>
      <path id="_15-icon-2" data-name="15-icon" d="M300.627,301.707v4h3.961" transform="translate(1813.873 1613.746)" fill="none" stroke="#fff" stroke-linejoin="round" stroke-width="1"/>
      <path id="_14-icon" data-name="14-icon" d="M306.016,306.973a4.018,4.018,0,1,0,4.018-4.017A4.018,4.018,0,0,0,306.016,306.973Z" transform="translate(1812.096 1613.03)" fill="none" stroke="#fff" stroke-linecap="round" stroke-linejoin="round" stroke-width="1"/>
      <path id="_14-icon-2" data-name="14-icon" d="M306.016,306.973a4.018,4.018,0,1,0,4.018-4.017A4.018,4.018,0,0,0,306.016,306.973Z" transform="translate(1822.211 1613.03)" fill="none" stroke="#fff" stroke-linecap="round" stroke-linejoin="round" stroke-width="1"/>
      <path id="_14-icon-3" data-name="14-icon" d="M306.016,306.973a4.018,4.018,0,1,0,4.018-4.017A4.018,4.018,0,0,0,306.016,306.973Z" transform="translate(1851.109 1613.03)" fill="none" stroke="#fff" stroke-linecap="round" stroke-linejoin="round" stroke-width="1"/>
    </g>
  </g>
</svg>
