<svg xmlns="http://www.w3.org/2000/svg" width="59.896" height="36.613" viewBox="0 0 59.896 36.613">
  <g id="Group_1526" data-name="Group 1526" transform="translate(-1964 -1528.5)">
    <path id="_38-icon" data-name="38-icon" d="M174.909,411.486V385.614a3.5,3.5,0,0,1,3.485-3.487h40.795a3.5,3.5,0,0,1,3.488,3.487v25.872" transform="translate(1795.591 1146.873)" fill="none" stroke="#fff" stroke-linejoin="round" stroke-width="1"/>
    <path id="_39-icon" data-name="39-icon" d="M168.023,423.065s1.016,4.613,4.391,4.613h50.113c3.375,0,4.392-4.613,4.392-4.613Z" transform="translate(1796.477 1136.935)" fill="none" stroke="#fff" stroke-linejoin="round" stroke-width="1"/>
    <g id="Group_1525" data-name="Group 1525" transform="translate(0)">
      <path id="_34-icon" data-name="34-icon" d="M201.878,387.553l-10.626,5.491V405.41l10.626,6.129,10.731-6.129V393.044Z" transform="translate(1791.748 1144.447)" fill="none" stroke="#ffb327" stroke-miterlimit="10" stroke-width="1"/>
      <path id="_35-icon" data-name="35-icon" d="M0,0,6.577,3.511" transform="translate(1987 1540)" fill="none" stroke="#ffb327" stroke-linecap="round" stroke-width="1"/>
      <path id="_36-icon" data-name="36-icon" d="M6.577,0,0,3.511" transform="translate(1994 1540)" fill="none" stroke="#ffb327" stroke-linecap="round" stroke-width="1"/>
      <path id="_37-icon" data-name="37-icon" d="M0,0V7.678" transform="translate(1994 1544)" fill="none" stroke="#ffb327" stroke-linecap="round" stroke-width="1"/>
    </g>
  </g>
</svg>
