<svg xmlns="http://www.w3.org/2000/svg" width="124.246" height="139.272" viewBox="0 0 124.246 139.272"><g transform="translate(0.75 0.75)"><g transform="translate(0)"><g transform="translate(24.991 25.115)"><path d="M74.587,734.137v17.206L57.793,801.624,113.8,751.686" transform="translate(-57.793 -688.966)" fill="none" stroke="#ffb327" stroke-linejoin="round" stroke-width="1.5"/><path d="M66.066,711.885v13.374" transform="translate(-49.272 -711.885)" fill="none" stroke="#ffb327" stroke-linejoin="round" stroke-width="1.5"/><path d="M105.193,733.768v17.955L121.983,802,66.118,752.066" transform="translate(-49.218 -689.346)" fill="none" stroke="#ffb327" stroke-linejoin="round" stroke-width="1.5"/><path d="M85.367,711.885v14.5" transform="translate(-29.393 -711.885)" fill="none" stroke="#ffb327" stroke-linejoin="round" stroke-width="1.5"/></g><g transform="translate(0 68.441)"><path d="M85.211,733.313,45.482,749.8H168.228l-39.938-16.575" transform="translate(-45.482 -733.228)" fill="none" stroke="#ffb327" stroke-linecap="round" stroke-linejoin="round" stroke-width="1.5"/></g><g transform="translate(9.543 25.04)"><path d="M122.964,727.132h30.872l-32.313-15.284H82.492L50.183,727.132H80.312" transform="translate(-50.183 -711.848)" fill="none" stroke="#ffb327" stroke-linecap="round" stroke-linejoin="round" stroke-width="1.5"/></g><g transform="translate(41.702)"><path d="M105.368,724.628,92.023,699.513H79.37L66.025,724.628" transform="translate(-66.025 -699.513)" fill="none" stroke="#ffb327" stroke-linejoin="round" stroke-width="1.5"/></g><g transform="translate(15.202 48.736)"><line y2="8.175" fill="none" stroke="#ffb327" stroke-linejoin="round" stroke-width="1.5"/><line y2="3.942" transform="translate(0 4.233)" fill="none" stroke="#ffb327" stroke-linecap="round" stroke-linejoin="round" stroke-width="1.5"/><g transform="translate(92.345)"><line y2="8.175" fill="none" stroke="#ffb327" stroke-linejoin="round" stroke-width="1.5"/><line y2="3.942" transform="translate(0 4.233)" fill="none" stroke="#ffb327" stroke-linecap="round" stroke-linejoin="round" stroke-width="1.5"/></g></g><g transform="translate(6.532 93.397)"><g transform="translate(109.681)"><line y2="8.175" fill="none" stroke="#ffb327" stroke-linejoin="round" stroke-width="1.5"/><line y2="3.942" transform="translate(0 4.232)" fill="none" stroke="#ffb327" stroke-linecap="round" stroke-linejoin="round" stroke-width="1.5"/></g><line y2="8.175" fill="none" stroke="#ffb327" stroke-linejoin="round" stroke-width="1.5"/><line y2="3.942" transform="translate(0 4.232)" fill="none" stroke="#ffb327" stroke-linecap="round" stroke-linejoin="round" stroke-width="1.5"/></g></g><ellipse cx="31.547" cy="31.547" rx="31.547" ry="31.547" transform="translate(29.827 30.256)" stroke="#ffb327" stroke-linejoin="round" stroke-width="1.5"/><g transform="translate(46.506 46.937)"><line x2="29.732" y2="29.733" transform="translate(0 0)" fill="none" stroke="#ffb327" stroke-linecap="round" stroke-linejoin="round" stroke-width="1.5"/><line y1="29.733" x2="29.732" transform="translate(0 0)" fill="none" stroke="#ffb327" stroke-linecap="round" stroke-linejoin="round" stroke-width="1.5"/></g></g></svg>